<?xml version="1.0" encoding="utf-8"?>
<!-- Generator: Adobe Illustrator 25.2.3, SVG Export Plug-In . SVG Version: 6.00 Build 0)  -->
<svg version="1.1" id="Layer_1" xmlns="http://www.w3.org/2000/svg" xmlns:xlink="http://www.w3.org/1999/xlink" x="0px" y="0px"
	 viewBox="0 0 66.15 80.34" style="enable-background:new 0 0 66.15 80.34;" xml:space="preserve">
<style type="text/css">
	.st0{fill:#FFFFFF;}
</style>
<g>
	<g>
		<path class="st0" d="M16.61,9.81c-1.57-1.57-1.57-4.12,0-5.7s4.12-1.57,5.7,0s1.57,4.12,0,5.7S18.19,11.38,16.61,9.81z
			 M10.51,25.16c3.25,0,5.88-2.63,5.88-5.88s-2.63-5.88-5.88-5.88s-5.88,2.63-5.88,5.88S7.27,25.16,10.51,25.16z M16.34,38.65
			c0-4.51-3.66-8.17-8.17-8.17C3.66,30.48,0,34.14,0,38.65c0,4.51,3.66,8.17,8.17,8.17C12.68,46.82,16.34,43.16,16.34,38.65z
			 M28.35,68.95L28.35,68.95C28.36,68.95,28.35,68.94,28.35,68.95C28.35,68.94,28.35,68.95,28.35,68.95z M65.68,43.67l-5.23-9.5
			c-0.32-0.55-0.5-1.19-0.5-1.88c0.02-0.87,0.27-1.79,0.4-2.76C62.15,16.27,51.14,0,32.48,0c-2.06,0-3.73,1.67-3.73,3.73
			s1.67,3.73,3.73,3.73c0.2,0,0.4-0.01,0.59-0.04c0.15-0.02,0.31-0.03,0.47-0.03c2.06,0,3.74,1.67,3.74,3.74
			c0,2.06-1.67,3.74-3.74,3.74c-0.8,0-1.58-0.26-2.19-0.7c-1.02-0.72-2.26-1.15-3.61-1.15c-3.46,0-6.26,2.8-6.26,6.26
			s2.8,6.26,6.26,6.26c1.41,0,2.75-0.49,3.79-1.28c0.61-0.44,1.35-0.7,2.16-0.7c2.04,0,3.69,1.65,3.69,3.69
			c0,2.04-1.65,3.69-3.69,3.69c-0.42,0-0.83-0.05-1.2-0.18c-0.91-0.34-1.89-0.53-2.92-0.53c-4.65,0-8.42,3.77-8.42,8.42
			c0,3.52,2.17,6.54,5.24,7.79c1.56,0.67,2.65,2.21,2.65,4.01c0,2.41-1.95,4.36-4.36,4.36c-1.13,0-2.17-0.43-2.95-1.14
			c-1.59-1.55-3.76-2.51-6.15-2.51c-4.87,0-8.82,3.95-8.82,8.82c0,4.87,3.95,8.82,8.82,8.82c5.62,0,8.11-2.16,10.48-2.16
			c1.27,0,2.29,1.02,2.3,2.29c0,0,0,0,0,0c0,0,0,0.01,0,0.01c0,6.44-2.52,9.7-9.57,9.7v1.68c6.52,0,22.05,0,28.57,0v-1.68
			c-7.05,0-9.57-3.26-9.57-9.7c0,0,0-0.01,0-0.01c0-1.27,1.03-2.29,2.3-2.29c3.56,0,4.08,1.03,9.71,1.03c5.12,0,8.04-1.51,9.31-6.25
			c1.13-4.25,2.48-10.67,2.48-10.67c0.18-0.77,0.79-1.37,1.57-1.55c1.71-0.36,3-1.89,3-3.71C66.15,44.84,65.98,44.22,65.68,43.67z"
			/>
	</g>
</g>
</svg>
