<?xml version="1.0" encoding="utf-8"?>
<!-- Generator: Adobe Illustrator 25.4.1, SVG Export Plug-In . SVG Version: 6.00 Build 0)  -->
<svg version="1.1" id="Layer_1" xmlns="http://www.w3.org/2000/svg" xmlns:xlink="http://www.w3.org/1999/xlink" x="0px" y="0px"
	 viewBox="0 0 2433.3 3520.2" style="enable-background:new 0 0 2433.3 3520.2;" xml:space="preserve">
<style type="text/css">
	.st0{fill:#595959;}
</style>
<g>
	<path class="st0" d="M2151.8,1286.7c0-18.8-4.8-36.5-13.4-51.8l-148-268.6c-8.9-15.7-14.2-33.8-14.2-53.1
		c0.6-24.6,7.7-50.7,11.4-78C2038.7,459.9,1727.6,0,1199.8,0c-58.3,0-105.6,47.3-105.6,105.6s47.3,105.6,105.6,105.6
		c5.6,0,11.3-0.4,16.7-1.3c4.4-0.6,8.8-0.8,13.3-0.8c58.4,0,105.7,47.3,105.7,105.7c0,58.4-47.3,105.7-105.7,105.7
		c-22.7,0-44.7-7.5-61.9-19.7c-28.9-20.4-64-32.5-102.1-32.5c-97.8,0-177,79.2-177,177s79.2,177,177,177c39.8,0,77.7-14,107.3-36.2
		c17.2-12.4,38.2-19.7,61-19.7c57.6,0,104.2,46.7,104.2,104.2c0,57.6-46.7,104.2-104.2,104.2c-11.8,0-23.5-1.5-34-5.1
		c-25.7-9.5-53.4-15-82.5-15c-131.5,0-238,106.6-238,238c0,99.6,61.2,184.8,148,220.3c44,18.8,74.9,62.5,74.9,113.4
		c0,68.2-55.2,123.4-123.4,123.4c-32,0-61.4-12.2-83.3-32.2c-45-43.8-106.3-70.9-174-70.9c-137.8,0-249.5,111.7-249.5,249.4
		s111.7,249.4,249.5,249.4c159,0,229.4-61.2,296.4-61.2c35.8,0,64.8,28.9,64.9,64.7v0c0,0.1,0,0.2,0,0.2
		c0,182.2-71.2,274.3-270.5,274.3v47.6c184.3,0,623.5,0,807.7,0v-47.6c-199.2,0-270.5-92.1-270.5-274.3c0-0.1,0-0.2,0-0.2
		c0-35.9,29.1-64.7,64.9-64.7c100.6,0,115.5,29.1,274.4,29.1c144.7,0,227.5-42.7,263.1-176.8c31.9-120.1,70.1-301.6,70.1-301.6
		c5.2-21.8,22.5-38.8,44.3-43.8C2115.5,1381.2,2151.8,1338.2,2151.8,1286.7z"/>
	
		<ellipse transform="matrix(0.7071 -0.7071 0.7071 0.7071 -622.5885 682.4624)" class="st0" cx="512.5" cy="1092.8" rx="231" ry="231"/>
	
		<ellipse transform="matrix(0.7071 -0.7071 0.7071 0.7071 -216.0411 568.9741)" class="st0" cx="578.8" cy="545.3" rx="166.2" ry="166.2"/>
	<circle class="st0" cx="831.8" cy="196.8" r="113.9"/>
	<path class="st0" d="M164.6,2624.4h190.1L342,2508.3H111.3C49.8,2508.3,0,2558.1,0,2619.6v451.8h136.8v-221.1h194.9v-111.3H136.8
		v-86.7C136.8,2636.9,149.2,2624.4,164.6,2624.4z"/>
	<path class="st0" d="M890.9,2544c-8.3-21.5-28.9-35.7-52-35.7h-80.4c-22.9,0-43.5,14.1-51.9,35.4l-205.7,527.7h159.9l34.2-102.6
		h203.6l35,102.6h159.9L890.9,2544z M728.4,2865.4l35.8-107.4c11.1-33.4,23.1-76.4,30.2-120.9h3.2c8,44.5,19.9,87.5,30.2,120.9
		l36.6,107.4H728.4z"/>
	<path class="st0" d="M2205.9,2927.4v-86.7h203.6v-111.3h-203.6v-77.1c0-15.4,12.5-27.8,27.8-27.8h199.6l-12.7-116.1h-240.2
		c-61.5,0-111.3,49.8-111.3,111.3v340.5c0,61.5,49.8,111.3,111.3,111.3h240.2l12.7-116.1h-199.6
		C2218.3,2955.3,2205.9,2942.8,2205.9,2927.4z"/>
	<path class="st0" d="M1693,2897.3c-31,42.9-69.9,59.5-120.1,59.5c-88.3,0-155.9-68.4-155.9-167c0-100.2,67.6-167.8,153.5-167.8
		c49.3,0,91.1,19.8,121,60.6c8.5,11.6,24.4,14.7,36.6,7.3l90.6-55.1c-52.5-95.4-144.8-142.4-252.9-142.4
		c-167,0-298.2,120.9-298.2,297.4c0,175,129.6,296.7,297.5,296.7c109.7,0,200.4-46.1,255.3-141.6l-90-55.4
		C1717.7,2881.8,1701.6,2885.4,1693,2897.3z"/>
	<path class="st0" d="M715.7,3431v-174.1h-86.3v207.7c0,30.7,24.9,55.7,55.7,55.7h126.6l9.7-78.1h-94.5
		C720.7,3442.1,715.7,3437.1,715.7,3431z"/>
	<path class="st0" d="M1233.8,3256.9h-67.1c-11.7,0-22.2,7.4-26.2,18.4l-88.2,245h102.7l8.6-33.5h71.8l8.6,33.5h102.7l-86.4-244.8
		C1256.1,3264.3,1245.6,3256.9,1233.8,3256.9z M1179.5,3423.5l7.1-27.5c3.7-14.1,8.9-38.7,11.5-64.4h1.9
		c2.6,25.7,7.8,50.2,11.5,64.4l7.1,27.5H1179.5z"/>
	<path class="st0" d="M1748.2,3383.4v-0.8c25.7-7.4,43.5-29,43.5-55.4c0-43.2-31.2-70.3-99.3-70.3h-72.2
		c-15.4,0-27.8,12.5-27.8,27.8v207.7c0,15.4,12.5,27.8,27.8,27.8h77.1c73.3,0,106.8-26.8,106.8-74.4
		C1804,3413.5,1784.2,3392.3,1748.2,3383.4z M1678.6,3320.1h10.1c15.6,0,22.7,6.7,22.7,18.6c0,10.4-7.1,17.1-22.7,17.1h-10.1V3320.1
		z M1692.7,3454.4h-14.2v-41.3h14.2c19,0,27.9,7.8,27.9,20.1C1720.6,3446.6,1711.7,3454.4,1692.7,3454.4z"/>
</g>
</svg>
