<?xml version="1.0" encoding="utf-8"?>
<!-- Generator: Adobe Illustrator 25.2.1, SVG Export Plug-In . SVG Version: 6.00 Build 0)  -->
<svg version="1.1" id="Layer_1" xmlns="http://www.w3.org/2000/svg" xmlns:xlink="http://www.w3.org/1999/xlink" x="0px" y="0px"
	 viewBox="0 0 130.56 250.09" style="enable-background:new 0 0 130.56 250.09;" xml:space="preserve">
<style type="text/css">
	.st0{fill:none;stroke:#1A171B;stroke-width:0.25;stroke-linejoin:round;stroke-miterlimit:10;}
	.st1{fill:#1A171B;}
</style>
<polygon id="XMLID_3590_" class="st0" points="36.11,23.43 55.7,22.23 51.34,14.87 "/>
<polygon id="XMLID_3589_" class="st0" points="35.9,31.94 64.28,27.5 55.7,22.23 "/>
<polygon id="XMLID_3588_" class="st0" points="35.9,31.94 62.47,39.96 64.28,27.5 "/>
<polygon id="XMLID_3587_" class="st0" points="36.11,23.43 35.9,31.94 55.7,22.23 "/>
<polygon id="XMLID_3586_" class="st0" points="55.7,22.23 58.52,14.26 51.34,14.87 "/>
<polygon id="XMLID_3585_" class="st0" points="55.7,22.23 67.69,16.53 64.28,27.5 "/>
<polygon id="XMLID_3584_" class="st0" points="55.7,22.23 58.52,14.26 67.69,16.53 "/>
<polygon id="XMLID_3583_" class="st0" points="64.28,27.5 67.69,16.53 78.33,18.54 "/>
<polygon id="XMLID_3582_" class="st0" points="64.28,27.5 79.6,34.23 62.47,39.96 "/>
<polygon id="XMLID_3581_" class="st0" points="78.33,18.54 79.6,34.23 64.28,27.5 "/>
<polygon id="XMLID_3580_" class="st0" points="78.33,18.54 79.6,34.23 90.34,30.1 "/>
<polygon id="XMLID_3579_" class="st0" points="90.34,30.1 90.71,20.36 78.33,18.54 "/>
<polygon id="XMLID_3578_" class="st0" points="78.33,18.54 87.23,14.82 90.71,20.36 "/>
<polygon id="XMLID_3577_" class="st0" points="78.33,18.54 79.8,14.56 87.23,14.82 "/>
<polygon id="XMLID_3576_" class="st0" points="78.33,18.54 75.96,14.26 79.8,14.56 "/>
<polygon id="XMLID_3575_" class="st0" points="75.96,14.26 67.69,16.53 78.33,18.54 "/>
<polygon id="XMLID_3574_" class="st0" points="51.34,14.87 55.85,11.24 58.52,14.26 "/>
<polygon id="XMLID_3573_" class="st0" points="55.85,11.24 58.52,14.26 69.94,12.21 "/>
<polygon id="XMLID_3572_" class="st0" points="58.52,14.26 69.94,12.21 67.69,16.53 "/>
<polygon id="XMLID_3571_" class="st0" points="75.96,14.26 69.94,12.21 67.69,16.53 "/>
<polygon id="XMLID_3570_" class="st0" points="69.94,12.21 75.96,10.76 75.96,14.26 "/>
<polygon id="XMLID_3569_" class="st0" points="75.96,10.76 79.8,14.56 75.96,14.26 "/>
<polygon id="XMLID_3568_" class="st0" points="75.96,10.76 87.23,14.82 79.8,14.56 "/>
<polygon id="XMLID_3567_" class="st0" points="90.71,20.36 101.76,21.42 90.34,30.1 "/>
<polygon id="XMLID_3566_" class="st0" points="101.76,21.42 96.47,13.91 90.71,20.36 "/>
<polygon id="XMLID_3565_" class="st0" points="92.92,9.99 87.23,14.82 96.47,13.91 "/>
<polygon id="XMLID_3564_" class="st0" points="83.63,10.78 87.23,14.82 92.92,9.99 "/>
<polygon id="XMLID_3563_" class="st0" points="75.96,10.76 66.12,8.5 69.94,12.21 "/>
<polygon id="XMLID_3562_" class="st0" points="66.12,8.5 69.94,12.21 61.98,9.35 "/>
<polygon id="XMLID_3561_" class="st0" points="61.98,9.35 55.85,11.24 69.94,12.21 "/>
<polygon id="XMLID_3560_" class="st0" points="61.98,9.35 57.48,8.06 66.12,8.5 "/>
<polygon id="XMLID_3559_" class="st0" points="57.48,8.06 50.81,9.24 61.98,9.35 "/>
<polygon id="XMLID_3558_" class="st0" points="50.81,9.24 48.42,10.76 61.98,9.35 "/>
<polygon id="XMLID_3557_" class="st0" points="48.42,10.76 45.3,12.8 55.85,11.24 "/>
<polygon id="XMLID_3556_" class="st0" points="48.42,10.76 55.85,11.24 61.98,9.35 "/>
<polygon id="XMLID_3555_" class="st0" points="83.63,10.78 75.96,10.76 87.23,14.82 "/>
<polygon id="XMLID_3554_" class="st0" points="75.96,10.76 84.23,8.96 83.63,10.78 "/>
<polygon id="XMLID_3553_" class="st0" points="84.23,8.96 88.64,8.22 83.63,10.78 "/>
<polygon id="XMLID_3552_" class="st0" points="88.64,8.22 92.92,9.99 83.63,10.78 "/>
<polygon id="XMLID_3551_" class="st0" points="84.23,8.96 89.22,6.8 88.64,8.22 "/>
<polygon id="XMLID_3550_" class="st0" points="89.22,6.8 95.11,5.23 88.64,8.22 "/>
<polygon id="XMLID_3549_" class="st0" points="88.64,8.22 100.66,6.08 95.11,5.23 "/>
<polygon id="XMLID_3548_" class="st0" points="92.92,9.99 100.66,6.08 88.64,8.22 "/>
<polygon id="XMLID_3547_" class="st0" points="92.92,9.99 103.18,8.62 96.47,13.91 "/>
<polygon id="XMLID_3546_" class="st0" points="103.18,8.62 104.38,12.06 96.47,13.91 "/>
<polygon id="XMLID_3545_" class="st0" points="103.18,8.62 100.66,6.08 92.92,9.99 "/>
<polygon id="XMLID_3544_" class="st0" points="104.38,12.06 96.47,13.91 101.76,21.42 "/>
<polygon id="XMLID_3543_" class="st0" points="90.71,20.36 87.23,14.82 96.47,13.91 "/>
<polygon id="XMLID_3542_" class="st0" points="55.85,11.24 45.3,12.8 51.34,14.87 "/>
<polygon id="XMLID_3541_" class="st0" points="42.55,12.05 50.81,9.24 48.42,10.76 "/>
<polygon id="XMLID_3540_" class="st0" points="45.3,12.8 42.55,12.05 48.42,10.76 "/>
<polygon id="XMLID_3539_" class="st0" points="45.3,12.8 41.24,14.65 42.55,12.05 "/>
<polygon id="XMLID_3538_" class="st0" points="45.3,12.8 41.57,17.16 41.24,14.65 "/>
<polygon id="XMLID_3537_" class="st0" points="41.57,17.16 45.3,12.8 51.34,14.87 "/>
<polygon id="XMLID_3536_" class="st0" points="41.57,17.16 36.11,23.43 51.34,14.87 "/>
<polygon id="XMLID_3535_" class="st0" points="35.06,16.17 42.55,12.05 41.24,14.65 "/>
<polygon id="XMLID_3534_" class="st0" points="35.06,16.17 34.99,18.8 41.24,14.65 "/>
<polygon id="XMLID_3533_" class="st0" points="34.99,18.8 41.57,17.16 41.24,14.65 "/>
<polygon id="XMLID_3532_" class="st0" points="35.06,16.17 30.35,21.31 34.99,18.8 "/>
<polygon id="XMLID_3531_" class="st0" points="30.35,21.31 30.22,25.47 34.99,18.8 "/>
<polygon id="XMLID_3530_" class="st0" points="30.22,25.47 36.11,23.43 34.99,18.8 "/>
<polygon id="XMLID_3529_" class="st0" points="30.35,21.31 26.72,27.8 30.22,25.47 "/>
<polygon id="XMLID_3528_" class="st0" points="26.72,27.8 24.76,35.91 27.69,28.7 "/>
<polygon id="XMLID_3527_" class="st0" points="27.69,28.7 30.22,25.47 26.72,27.8 "/>
<polygon id="XMLID_3526_" class="st0" points="30.22,25.47 35.9,31.94 36.11,23.43 "/>
<polygon id="XMLID_3525_" class="st0" points="30.22,25.47 27.69,28.7 35.9,31.94 "/>
<polygon id="XMLID_3524_" class="st0" points="24.76,35.91 27.69,28.7 35.9,31.94 "/>
<polygon id="XMLID_3523_" class="st0" points="62.47,39.96 35.9,31.94 43.46,47.54 "/>
<polygon id="XMLID_3522_" class="st0" points="24.76,35.91 28.17,42.86 35.9,31.94 "/>
<polygon id="XMLID_3521_" class="st0" points="43.46,47.54 35.9,31.94 28.17,42.86 "/>
<polygon id="XMLID_3520_" class="st0" points="24.76,35.91 23.87,48.24 28.17,42.86 "/>
<polygon id="XMLID_3519_" class="st0" points="43.46,47.54 28.17,42.86 36.4,65.28 "/>
<polygon id="XMLID_3518_" class="st0" points="23.87,48.24 25.88,64.87 28.17,42.86 "/>
<polygon id="XMLID_3517_" class="st0" points="36.4,65.28 25.88,64.87 28.17,42.86 "/>
<polygon id="XMLID_3516_" class="st0" points="43.46,47.54 52.82,69.21 36.4,65.28 "/>
<polygon id="XMLID_3515_" class="st0" points="62.47,39.96 52.82,69.21 43.46,47.54 "/>
<polygon id="XMLID_3514_" class="st0" points="79.6,34.23 82.66,68.06 62.47,39.96 "/>
<polygon id="XMLID_3513_" class="st0" points="52.82,69.21 82.66,68.06 62.47,39.96 "/>
<polygon id="XMLID_3512_" class="st0" points="25.88,64.87 29.44,86.7 36.4,65.28 "/>
<polygon id="XMLID_3511_" class="st0" points="52.82,69.21 29.44,86.7 36.4,65.28 "/>
<polygon id="XMLID_3510_" class="st0" points="82.66,68.06 67.78,90.27 52.82,69.21 "/>
<polygon id="XMLID_3509_" class="st0" points="29.44,86.7 46.75,87.17 52.82,69.21 "/>
<polygon id="XMLID_3508_" class="st0" points="67.78,90.27 46.75,87.17 52.82,69.21 "/>
<polygon id="XMLID_3507_" class="st0" points="79.6,34.23 96.35,56.3 82.66,68.06 "/>
<polygon id="XMLID_3506_" class="st0" points="90.34,30.1 96.27,39.47 79.6,34.23 "/>
<polygon id="XMLID_3505_" class="st0" points="96.35,56.3 79.6,34.23 96.27,39.47 "/>
<polygon id="XMLID_3504_" class="st0" points="101.76,21.42 90.34,30.1 96.27,39.47 "/>
<polygon id="XMLID_3503_" class="st0" points="101.76,21.42 104.38,12.06 111.32,17.29 "/>
<polygon id="XMLID_3502_" class="st0" points="111.32,17.29 109.73,28.1 101.76,21.42 "/>
<polygon id="XMLID_3501_" class="st0" points="96.27,39.47 101.76,21.42 109.73,28.1 "/>
<polygon id="XMLID_3500_" class="st0" points="109.73,28.1 114.57,44.75 96.27,39.47 "/>
<polygon id="XMLID_3499_" class="st0" points="96.35,56.3 96.27,39.47 114.57,44.75 "/>
<polygon id="XMLID_3498_" class="st0" points="82.66,68.06 96.35,56.3 100.54,73.57 "/>
<polygon id="XMLID_3497_" class="st0" points="114.57,44.75 96.35,56.3 114.29,62.35 "/>
<polygon id="XMLID_3496_" class="st0" points="100.54,73.57 96.35,56.3 114.29,62.35 "/>
<polygon id="XMLID_3495_" class="st0" points="82.66,68.06 86.07,86.7 67.78,90.27 "/>
<polygon id="XMLID_3494_" class="st0" points="100.54,73.57 86.07,86.7 82.66,68.06 "/>
<polygon id="XMLID_3493_" class="st0" points="114.29,62.35 118.73,74.88 100.54,73.57 "/>
<polygon id="XMLID_3492_" class="st0" points="86.07,86.7 100.54,73.57 103.47,88.41 "/>
<polygon id="XMLID_3491_" class="st0" points="118.73,74.88 103.47,88.41 100.54,73.57 "/>
<polygon id="XMLID_3490_" class="st0" points="114.29,62.35 121.23,54.24 118.73,74.88 "/>
<polygon id="XMLID_3489_" class="st0" points="114.57,44.75 114.29,62.35 121.23,54.24 "/>
<polygon id="XMLID_3488_" class="st0" points="95.11,5.23 103.31,4.21 100.66,6.08 "/>
<polygon id="XMLID_3487_" class="st0" points="100.66,6.08 103.31,4.21 110.16,5.03 "/>
<polygon id="XMLID_3486_" class="st0" points="103.18,8.62 100.66,6.08 110.16,5.03 "/>
<polygon id="XMLID_3485_" class="st0" points="103.18,8.62 112.79,7.81 110.16,5.03 "/>
<polygon id="XMLID_3484_" class="st0" points="112.79,7.81 116.07,7.39 110.16,5.03 "/>
<polygon id="XMLID_3483_" class="st0" points="104.38,12.06 112.79,7.81 103.18,8.62 "/>
<polygon id="XMLID_3482_" class="st0" points="112.79,7.81 117.8,10.48 116.07,7.39 "/>
<polygon id="XMLID_3481_" class="st0" points="104.38,12.06 117.8,10.48 112.79,7.81 "/>
<polygon id="XMLID_3480_" class="st0" points="104.38,12.06 118.27,15.64 111.32,17.29 "/>
<polygon id="XMLID_3479_" class="st0" points="104.38,12.06 117.8,10.48 118.27,15.64 "/>
<polygon id="XMLID_3478_" class="st0" points="116.07,7.39 120.89,10.42 117.8,10.48 "/>
<polygon id="XMLID_3477_" class="st0" points="120.89,10.42 118.27,15.64 117.8,10.48 "/>
<polygon id="XMLID_3476_" class="st0" points="120.89,10.42 126.37,16.74 122.24,14.37 "/>
<polygon id="XMLID_3475_" class="st0" points="122.24,14.37 118.27,15.64 120.89,10.42 "/>
<polygon id="XMLID_3474_" class="st0" points="111.32,17.29 119.57,20.85 118.27,15.64 "/>
<polygon id="XMLID_3473_" class="st0" points="119.57,20.85 122.24,14.37 118.27,15.64 "/>
<polygon id="XMLID_3472_" class="st0" points="122.24,14.37 125.9,20.21 126.37,16.74 "/>
<polygon id="XMLID_3471_" class="st0" points="119.57,20.85 125.69,24.25 122.24,14.37 "/>
<polygon id="XMLID_3470_" class="st0" points="125.9,20.21 125.69,24.25 122.24,14.37 "/>
<polygon id="XMLID_3469_" class="st0" points="126.37,16.74 129.3,25.66 125.9,20.21 "/>
<polygon id="XMLID_3468_" class="st0" points="125.9,20.21 129.3,25.66 125.69,24.25 "/>
<polygon id="XMLID_3467_" class="st0" points="129.3,25.66 127.83,28.5 125.69,24.25 "/>
<polygon id="XMLID_3466_" class="st0" points="111.32,17.29 117.99,24.95 119.57,20.85 "/>
<polygon id="XMLID_3465_" class="st0" points="109.73,28.1 111.32,17.29 117.99,24.95 "/>
<polygon id="XMLID_3464_" class="st0" points="117.99,24.95 123.78,27.87 119.57,20.85 "/>
<polygon id="XMLID_3463_" class="st0" points="123.78,27.87 125.69,24.25 119.57,20.85 "/>
<polygon id="XMLID_3462_" class="st0" points="123.78,27.87 125.69,24.25 127.83,28.5 "/>
<polygon id="XMLID_3461_" class="st0" points="117.99,24.95 120.53,30.45 123.78,27.87 "/>
<polygon id="XMLID_3460_" class="st0" points="109.73,28.1 117.99,24.95 120.53,30.45 "/>
<polygon id="XMLID_3459_" class="st0" points="109.73,28.1 121.83,37.26 114.57,44.75 "/>
<polygon id="XMLID_3458_" class="st0" points="120.53,30.45 121.83,37.26 109.73,28.1 "/>
<polygon id="XMLID_3457_" class="st0" points="120.53,30.45 123.78,27.87 126.9,35.42 "/>
<polygon id="XMLID_3456_" class="st0" points="126.9,35.42 123.78,27.87 127.83,28.5 "/>
<polygon id="XMLID_3455_" class="st0" points="129.3,25.66 129.8,34.01 127.83,28.5 "/>
<polygon id="XMLID_3454_" class="st0" points="129.8,34.01 126.9,35.42 127.83,28.5 "/>
<polygon id="XMLID_3453_" class="st0" points="121.83,37.26 120.53,30.45 126.9,35.42 "/>
<polygon id="XMLID_3452_" class="st0" points="126.9,35.42 129.48,41.04 129.8,34.01 "/>
<polygon id="XMLID_3451_" class="st0" points="126.9,35.42 126.9,43.33 129.48,41.04 "/>
<polygon id="XMLID_3450_" class="st0" points="121.83,37.26 126.9,43.33 126.9,35.42 "/>
<polygon id="XMLID_3449_" class="st0" points="121.83,37.26 124.36,47.12 126.9,43.33 "/>
<polygon id="XMLID_3448_" class="st0" points="114.57,44.75 121.83,37.26 124.36,47.12 "/>
<polygon id="XMLID_3447_" class="st0" points="124.36,47.12 121.23,54.24 114.57,44.75 "/>
<polygon id="XMLID_3446_" class="st0" points="126.9,43.33 127.55,49.9 124.36,47.12 "/>
<polyline id="XMLID_3445_" class="st0" points="126.9,43.33 129.48,41.04 127.55,49.9 128.53,52.74 129.48,41.04 "/>
<polygon id="XMLID_3444_" class="st0" points="127.55,49.9 127.1,62.39 128.53,52.74 "/>
<polygon id="XMLID_3443_" class="st0" points="124.36,47.12 127.1,62.39 127.55,49.9 "/>
<polygon id="XMLID_3442_" class="st0" points="124.36,47.12 121.23,54.24 127.1,62.39 "/>
<polygon id="XMLID_3441_" class="st0" points="121.23,54.24 124.53,65.75 127.1,62.39 "/>
<polygon id="XMLID_3440_" class="st0" points="118.73,74.88 121.23,54.24 124.53,65.75 "/>
<polygon id="XMLID_3439_" class="st0" points="118.73,74.88 126.07,72.81 124.53,65.75 "/>
<polygon id="XMLID_3438_" class="st0" points="126.07,72.81 127.1,62.39 124.53,65.75 "/>
<polygon id="XMLID_3437_" class="st0" points="118.73,74.88 123.89,79.79 126.07,72.81 "/>
<polygon id="XMLID_3436_" class="st0" points="126.07,72.81 125.42,84.8 123.89,79.79 "/>
<polygon id="XMLID_3435_" class="st0" points="118.73,74.88 123.42,90.27 123.89,79.79 "/>
<polygon id="XMLID_3434_" class="st0" points="123.89,79.79 125.42,84.8 123.42,90.27 "/>
<polygon id="XMLID_3433_" class="st0" points="118.73,74.88 116.28,96.16 123.42,90.27 "/>
<polygon id="XMLID_3432_" class="st0" points="103.47,88.41 116.28,96.16 118.73,74.88 "/>
<polygon id="XMLID_3431_" class="st0" points="125.42,84.8 126.01,95.41 123.42,90.27 "/>
<polygon id="XMLID_3430_" class="st0" points="116.28,96.16 123.42,90.27 124.3,100.24 "/>
<polygon id="XMLID_3429_" class="st0" points="126.01,95.41 124.3,100.24 123.42,90.27 "/>
<polygon id="XMLID_3428_" class="st0" points="124.3,100.24 128.42,108.57 126.01,95.41 "/>
<polygon id="XMLID_3427_" class="st0" points="124.3,100.24 126.04,114.51 128.42,108.57 "/>
<polygon id="XMLID_3426_" class="st0" points="116.28,96.16 126.04,114.51 124.3,100.24 "/>
<polygon id="XMLID_3425_" class="st0" points="103.47,88.41 110.81,103.4 116.28,96.16 "/>
<polygon id="XMLID_3424_" class="st0" points="29.44,86.7 46.75,87.17 33.15,106.95 "/>
<polygon id="XMLID_3423_" class="st0" points="67.78,90.27 46.75,87.17 59.01,106.6 "/>
<polygon id="XMLID_3422_" class="st0" points="33.15,106.95 46.75,87.17 45.67,105.34 "/>
<polygon id="XMLID_3421_" class="st0" points="59.01,106.6 45.67,105.34 46.75,87.17 "/>
<polygon id="XMLID_3420_" class="st0" points="67.78,90.27 75.97,110.7 59.01,106.6 "/>
<polygon id="XMLID_3419_" class="st0" points="86.07,86.7 75.97,110.7 67.78,90.27 "/>
<polygon id="XMLID_3418_" class="st0" points="103.47,88.41 93.96,105.98 86.07,86.7 "/>
<polygon id="XMLID_3417_" class="st0" points="75.97,110.7 86.07,106.04 86.07,86.7 "/>
<polygon id="XMLID_3416_" class="st0" points="93.96,105.98 86.07,106.04 86.07,86.7 "/>
<polygon id="XMLID_3415_" class="st0" points="75.97,110.7 86.84,112.4 86.07,106.04 "/>
<polygon id="XMLID_3414_" class="st0" points="93.96,105.98 86.84,112.4 86.07,106.04 "/>
<polygon id="XMLID_3413_" class="st0" points="83.72,125.07 75.97,110.7 86.84,112.4 "/>
<polygon id="XMLID_3412_" class="st0" points="93.96,105.98 96.45,122.8 90.1,135.82 "/>
<polygon id="XMLID_3411_" class="st0" points="75.97,110.7 75.32,128.07 83.72,125.07 "/>
<polygon id="XMLID_3410_" class="st0" points="90.1,135.82 93.75,138.04 96.45,122.8 "/>
<polygon id="XMLID_3409_" class="st0" points="93.96,105.98 102.56,119.74 96.45,122.8 "/>
<polygon id="XMLID_3408_" class="st0" points="93.75,138.04 96.45,122.8 99.15,139.23 "/>
<polygon id="XMLID_3407_" class="st0" points="102.56,119.74 99.15,139.23 96.45,122.8 "/>
<polygon id="XMLID_3406_" class="st0" points="93.96,105.98 110.57,114.38 102.56,119.74 "/>
<polygon id="XMLID_3405_" class="st0" points="103.47,88.41 110.81,103.4 93.96,105.98 "/>
<polygon id="XMLID_3404_" class="st0" points="110.57,114.38 110.81,103.4 93.96,105.98 "/>
<polygon id="XMLID_3403_" class="st0" points="116.28,96.16 126.04,114.51 110.81,103.4 "/>
<polygon id="XMLID_3402_" class="st0" points="110.57,114.38 110.81,103.4 121.24,120.06 "/>
<polygon id="XMLID_3401_" class="st0" points="126.04,114.51 121.24,120.06 110.81,103.4 "/>
<polygon id="XMLID_3400_" class="st0" points="102.56,119.74 114.15,130.07 110.57,114.38 "/>
<polygon id="XMLID_3399_" class="st0" points="121.24,120.06 114.15,130.07 110.57,114.38 "/>
<polygon id="XMLID_3398_" class="st0" points="99.15,139.23 102.56,119.74 114.15,130.07 "/>
<polygon id="XMLID_3397_" class="st0" points="96.45,150.16 93.75,138.04 99.15,139.23 "/>
<polygon id="XMLID_3396_" class="st0" points="114.15,130.07 108.68,143.47 99.15,139.23 "/>
<polygon id="XMLID_3395_" class="st0" points="96.45,150.16 108.68,143.47 99.15,139.23 "/>
<polygon id="XMLID_3394_" class="st0" points="114.15,130.07 121.24,120.06 127.32,128.93 "/>
<polygon id="XMLID_3393_" class="st0" points="126.04,114.51 127.32,128.93 121.24,120.06 "/>
<polygon id="XMLID_3392_" class="st0" points="128.42,108.57 129.39,119.09 126.04,114.51 "/>
<polygon id="XMLID_3391_" class="st0" points="127.32,128.93 129.39,119.09 126.04,114.51 "/>
<polygon id="XMLID_3390_" class="st0" points="130.44,135.61 129.39,119.09 127.32,128.93 "/>
<polygon id="XMLID_3389_" class="st0" points="114.15,130.07 128.84,146.42 127.32,128.93 "/>
<polygon id="XMLID_3388_" class="st0" points="130.44,135.61 128.84,146.42 127.32,128.93 "/>
<polygon id="XMLID_3387_" class="st0" points="108.68,143.47 114.15,130.07 128.84,146.42 "/>
<polygon id="XMLID_3386_" class="st0" points="96.45,150.16 97.4,160.69 108.68,143.47 "/>
<polygon id="XMLID_3385_" class="st0" points="128.84,146.42 117.52,154.73 108.68,143.47 "/>
<polygon id="XMLID_3384_" class="st0" points="97.4,160.69 108.68,143.47 117.52,154.73 "/>
<polygon id="XMLID_3383_" class="st0" points="127.39,164.19 117.52,154.73 128.84,146.42 "/>
<polygon id="XMLID_3382_" class="st0" points="97.4,160.69 103.47,167.11 117.52,154.73 "/>
<polygon id="XMLID_3381_" class="st0" points="127.39,164.19 117.48,169.11 117.52,154.73 "/>
<polygon id="XMLID_3380_" class="st0" points="103.47,167.11 117.52,154.73 117.48,169.11 "/>
<polygon id="XMLID_3379_" class="st0" points="97.4,160.69 100.36,177.88 103.47,167.11 "/>
<polygon id="XMLID_3378_" class="st0" points="117.48,169.11 100.36,177.88 103.47,167.11 "/>
<polygon id="XMLID_3377_" class="st0" points="127.39,164.19 122.43,184.01 117.48,169.11 "/>
<polygon id="XMLID_3376_" class="st0" points="100.36,177.88 107.21,185.29 117.48,169.11 "/>
<polygon id="XMLID_3375_" class="st0" points="100.97,190.17 100.36,177.88 107.21,185.29 "/>
<polygon id="XMLID_3374_" class="st0" points="117.48,169.11 112.74,193.99 107.21,185.29 "/>
<polygon id="XMLID_3373_" class="st0" points="122.43,184.01 112.74,193.99 117.48,169.11 "/>
<polygon id="XMLID_3372_" class="st0" points="107.21,185.29 104.12,203.28 112.74,193.99 "/>
<polygon id="XMLID_3371_" class="st0" points="105.98,211.74 104.12,203.28 112.74,193.99 "/>
<polygon id="XMLID_3370_" class="st0" points="112.45,204.63 112.74,193.99 122.43,184.01 "/>
<polygon id="XMLID_3369_" class="st0" points="105.98,211.74 112.45,204.63 112.74,193.99 "/>
<polygon id="XMLID_3368_" class="st0" points="104.12,203.28 99.18,202.19 100.96,209.91 "/>
<polygon id="XMLID_3367_" class="st0" points="105.98,211.74 104.12,203.28 100.96,209.91 "/>
<polygon id="XMLID_3366_" class="st0" points="100.97,190.17 104.12,203.28 107.21,185.29 "/>
<polygon id="XMLID_3365_" class="st0" points="99.18,202.19 104.12,203.28 100.97,190.17 "/>
<polygon id="XMLID_3364_" class="st0" points="90.1,135.82 86.84,112.4 93.96,105.98 "/>
<polygon id="XMLID_3363_" class="st0" points="75.97,110.7 75.32,128.07 63.83,125.11 "/>
<polygon id="XMLID_3362_" class="st0" points="81.08,143.95 75.32,128.07 83.72,125.07 "/>
<polygon id="XMLID_3361_" class="st0" points="63.83,125.11 72.01,139.66 75.32,128.07 "/>
<polygon id="XMLID_3360_" class="st0" points="81.08,143.95 72.01,139.66 75.32,128.07 "/>
<polygon id="XMLID_3359_" class="st0" points="75.97,110.7 59.01,106.6 63.83,125.11 "/>
<polygon id="XMLID_3358_" class="st0" points="45.67,105.34 44.56,117.44 59.01,106.6 "/>
<polygon id="XMLID_3357_" class="st0" points="63.83,125.11 44.56,117.44 59.01,106.6 "/>
<polygon id="XMLID_3356_" class="st0" points="51.41,153.02 63.83,125.11 47.42,131.34 "/>
<polygon id="XMLID_3355_" class="st0" points="44.56,117.44 47.42,131.34 63.83,125.11 "/>
<polygon id="XMLID_3354_" class="st0" points="39.41,138.25 47.42,131.34 44.56,117.44 "/>
<polygon id="XMLID_3353_" class="st0" points="33.15,106.95 35.81,116.05 45.67,105.34 "/>
<polygon id="XMLID_3352_" class="st0" points="44.56,117.44 35.81,116.05 45.67,105.34 "/>
<polygon id="XMLID_3351_" class="st0" points="33.63,135.92 35.81,116.05 44.56,117.44 "/>
<polygon id="XMLID_3350_" class="st0" points="39.41,138.25 33.63,135.92 44.56,117.44 "/>
<polygon id="XMLID_3349_" class="st0" points="37.39,145.5 33.63,135.92 39.41,138.25 "/>
<polygon id="XMLID_3348_" class="st0" points="43.41,148.35 37.39,145.5 39.41,138.25 "/>
<polygon id="XMLID_3347_" class="st0" points="47.42,131.34 43.41,148.35 39.41,138.25 "/>
<polygon id="XMLID_3346_" class="st0" points="51.41,153.02 47.42,131.34 43.41,148.35 "/>
<polygon id="XMLID_3345_" class="st0" points="37.39,145.5 44.56,171.19 43.41,148.35 "/>
<polygon id="XMLID_3344_" class="st0" points="51.41,153.02 44.56,171.19 43.41,148.35 "/>
<polygon id="XMLID_3343_" class="st0" points="48.94,186.77 44.56,171.19 51.41,153.02 "/>
<polygon id="XMLID_3342_" class="st0" points="72.01,139.66 51.41,153.02 63.83,125.11 "/>
<polygon id="XMLID_3341_" class="st0" points="74.49,151.42 72.01,139.66 81.08,143.95 "/>
<polygon id="XMLID_3340_" class="st0" points="80.13,174.32 74.49,151.42 81.08,143.95 "/>
<polygon id="XMLID_3339_" class="st0" points="72.01,139.66 74.49,151.42 51.41,153.02 "/>
<polygon id="XMLID_3338_" class="st0" points="48.94,186.77 51.41,153.02 66.94,176.3 "/>
<polygon id="XMLID_3337_" class="st0" points="74.49,151.42 66.94,176.3 51.41,153.02 "/>
<polygon id="XMLID_3336_" class="st0" points="80.13,174.32 66.94,176.3 74.49,151.42 "/>
<polygon id="XMLID_3335_" class="st0" points="44.56,171.19 47.42,202.57 48.94,186.77 "/>
<polygon id="XMLID_3334_" class="st0" points="66.94,176.3 56.36,201.56 48.94,186.77 "/>
<polygon id="XMLID_3333_" class="st0" points="47.42,202.57 56.36,201.56 48.94,186.77 "/>
<polygon id="XMLID_3332_" class="st0" points="66.94,176.3 73.27,191.72 56.36,201.56 "/>
<polygon id="XMLID_3331_" class="st0" points="80.13,174.32 73.27,191.72 66.94,176.3 "/>
<polygon id="XMLID_3330_" class="st0" points="80.06,195.62 73.27,191.72 80.13,174.32 "/>
<polygon id="XMLID_3329_" class="st0" points="47.42,202.57 55.39,217 56.36,201.56 "/>
<polygon id="XMLID_3328_" class="st0" points="73.27,191.72 55.39,217 56.36,201.56 "/>
<polygon id="XMLID_3327_" class="st0" points="80.06,195.62 70.84,212.49 73.27,191.72 "/>
<polygon id="XMLID_3326_" class="st0" points="55.39,217 70.84,212.49 73.27,191.72 "/>
<polygon id="XMLID_3325_" class="st0" points="47.42,202.57 53.32,228.74 55.39,217 "/>
<polygon id="XMLID_3324_" class="st0" points="70.84,212.49 71.22,233.82 55.39,217 "/>
<polygon id="XMLID_3322_" class="st0" points="71.22,233.82 70.84,212.49 79.18,226.79 "/>
<polygon id="XMLID_3321_" class="st0" points="53.32,228.74 58.64,236.6 55.39,217 "/>
<polygon id="XMLID_3320_" class="st0" points="71.22,233.82 58.64,236.6 55.39,217 "/>
<polygon id="XMLID_3319_" class="st0" points="53.32,228.74 56.73,243.17 58.64,236.6 "/>
<polygon id="XMLID_3318_" class="st0" points="63.51,249.81 56.73,243.17 58.64,236.6 "/>
<polygon id="XMLID_3317_" class="st0" points="66.63,241.36 63.51,249.81 58.64,236.6 "/>
<polygon id="XMLID_3316_" class="st0" points="71.22,233.82 66.63,241.36 58.64,236.6 "/>
<polygon id="XMLID_3315_" class="st0" points="73.98,242.16 71.22,233.82 79.18,226.79 "/>
<polygon id="XMLID_3314_" class="st0" points="66.63,241.36 73.98,242.16 71.22,233.82 "/>
<polygon id="XMLID_3313_" class="st0" points="63.51,249.81 70.42,248.38 66.63,241.36 "/>
<polygon id="XMLID_3312_" class="st0" points="73.98,242.16 70.42,248.38 66.63,241.36 "/>
<polygon id="XMLID_3311_" class="st0" points="29.44,86.7 23.24,111.73 33.15,106.95 "/>
<polygon id="XMLID_3310_" class="st0" points="35.81,116.05 23.24,111.73 33.15,106.95 "/>
<polygon id="XMLID_3309_" class="st0" points="27.68,139.07 26.81,121.91 15.82,149.1 "/>
<polygon id="XMLID_3308_" class="st0" points="23.24,111.73 15.82,132.31 26.81,121.91 "/>
<polygon id="XMLID_3307_" class="st0" points="35.81,116.05 26.81,121.91 23.24,111.73 "/>
<polygon id="XMLID_3306_" class="st0" points="33.63,135.92 26.81,121.91 35.81,116.05 "/>
<polygon id="XMLID_3305_" class="st0" points="27.68,139.07 33.63,135.92 26.81,121.91 "/>
<polygon id="XMLID_3304_" class="st0" points="15.82,149.1 37.39,145.5 27.68,139.07 "/>
<polygon id="XMLID_3303_" class="st0" points="33.63,135.92 37.39,145.5 27.68,139.07 "/>
<polygon id="XMLID_3302_" class="st0" points="23.65,25.43 12.87,29.97 17.52,22.88 "/>
<polygon id="XMLID_3301_" class="st0" points="13.13,38.68 12.87,29.97 23.65,25.43 "/>
<polygon id="XMLID_3300_" class="st0" points="19.01,45.3 13.13,38.68 23.65,25.43 "/>
<polygon id="XMLID_3299_" class="st0" points="24.76,35.91 19.01,45.3 23.65,25.43 "/>
<polygon id="XMLID_3298_" class="st0" points="28.93,20.46 17.52,22.88 22.95,16.1 "/>
<polygon id="XMLID_3297_" class="st0" points="23.65,25.43 28.93,20.46 17.52,22.88 "/>
<polygon id="XMLID_3296_" class="st0" points="22.95,16.1 29.44,15.93 28.93,20.46 "/>
<polygon id="XMLID_3295_" class="st0" points="23.65,25.43 26.72,27.8 28.93,20.46 "/>
<polygon id="XMLID_3294_" class="st0" points="24.76,35.91 23.65,25.43 26.72,27.8 "/>
<polygon id="XMLID_3293_" class="st0" points="29.44,15.93 29.58,11.53 22.95,16.1 "/>
<polygon id="XMLID_3292_" class="st0" points="35.9,12.8 29.58,11.53 35.58,7.57 "/>
<polygon id="XMLID_3291_" class="st0" points="28.93,20.46 30.35,21.31 29.44,15.93 "/>
<polygon id="XMLID_3290_" class="st0" points="35.06,16.17 29.44,15.93 30.35,21.31 "/>
<polygon id="XMLID_3289_" class="st0" points="35.9,12.8 29.44,15.93 29.58,11.53 "/>
<polygon id="XMLID_3288_" class="st0" points="15.82,132.31 26.81,121.91 15.82,149.1 "/>
<polygon id="XMLID_3287_" class="st0" points="37.39,145.5 23.24,159.7 15.82,149.1 "/>
<polygon id="XMLID_3286_" class="st0" points="15.82,132.31 15.82,149.1 5.85,146.15 "/>
<polygon id="XMLID_3285_" class="st0" points="23.24,159.7 1.68,173.62 15.82,149.1 "/>
<polygon id="XMLID_3284_" class="st0" points="5.85,146.15 1.68,173.62 15.82,149.1 "/>
<polygon id="XMLID_3283_" class="st0" points="23.24,159.7 32.12,170.69 17.72,183.91 "/>
<polygon id="XMLID_3282_" class="st0" points="8.69,180.92 23.24,159.7 17.72,183.91 "/>
<polygon id="XMLID_3281_" class="st0" points="1.68,173.62 23.24,159.7 8.69,180.92 "/>
<polygon id="XMLID_3280_" class="st0" points="17.72,183.91 10.34,202.18 8.69,180.92 "/>
<polygon id="XMLID_3279_" class="st0" points="4.65,190.32 8.69,180.92 10.34,202.18 "/>
<polygon id="XMLID_3278_" class="st0" points="1.68,173.62 4.65,190.32 8.69,180.92 "/>
<polygon id="XMLID_3277_" class="st0" points="5.85,146.15 1.71,154.62 1.68,173.62 "/>
<polygon id="XMLID_3276_" class="st0" points="2.82,136.32 5.85,146.15 1.71,154.62 "/>
<polygon id="XMLID_3275_" class="st0" points="9.37,127.53 2.82,136.32 5.85,146.15 "/>
<polygon id="XMLID_3274_" class="st0" points="15.82,132.31 9.37,127.53 5.85,146.15 "/>
<polygon id="XMLID_3273_" class="st0" points="6.16,122.06 9.37,127.53 2.82,136.32 "/>
<polygon id="XMLID_3272_" class="st0" points="23.24,111.73 9.37,127.53 15.82,132.31 "/>
<polygon id="XMLID_3271_" class="st0" points="6.16,122.06 11.68,110.52 9.37,127.53 "/>
<polygon id="XMLID_3270_" class="st0" points="23.24,111.73 21.65,103.5 9.37,127.53 "/>
<polygon id="XMLID_3269_" class="st0" points="11.68,110.52 21.65,103.5 9.37,127.53 "/>
<polygon id="XMLID_3268_" class="st0" points="6.16,122.06 8.84,105.25 11.68,110.52 "/>
<polygon id="XMLID_3267_" class="st0" points="21.65,103.5 11.89,99.14 11.68,110.52 "/>
<polygon id="XMLID_3266_" class="st0" points="8.84,105.25 11.89,99.14 11.68,110.52 "/>
<polygon id="XMLID_3265_" class="st0" points="29.44,86.7 21.65,103.5 23.24,111.73 "/>
<polygon id="XMLID_3264_" class="st0" points="11.89,99.14 17.74,80.39 21.65,103.5 "/>
<polygon id="XMLID_3263_" class="st0" points="29.44,86.7 17.74,80.39 21.65,103.5 "/>
<polygon id="XMLID_3262_" class="st0" points="25.88,64.87 17.74,80.39 29.44,86.7 "/>
<polygon id="XMLID_3261_" class="st0" points="11.89,99.14 11.52,87.17 17.74,80.39 "/>
<polygon id="XMLID_3260_" class="st0" points="9.5,93.36 8.84,105.25 11.89,99.14 "/>
<polygon id="XMLID_3259_" class="st0" points="11.52,87.17 9.5,93.36 11.89,99.14 "/>
<polygon id="XMLID_3258_" class="st0" points="17.74,80.39 8.39,79.49 11.52,87.17 "/>
<polygon id="XMLID_3257_" class="st0" points="9.5,93.36 8.39,79.49 11.52,87.17 "/>
<polygon id="XMLID_3256_" class="st0" points="17.74,80.39 9.7,70.76 8.39,79.49 "/>
<polygon id="XMLID_3255_" class="st0" points="6.19,68.14 9.7,70.76 8.39,79.49 "/>
<polygon id="XMLID_3254_" class="st0" points="14.05,57.47 6.19,68.14 9.7,70.76 "/>
<polygon id="XMLID_3253_" class="st0" points="17.74,80.39 14.05,57.47 9.7,70.76 "/>
<polygon id="XMLID_3252_" class="st0" points="25.88,64.87 14.05,57.47 17.74,80.39 "/>
<polygon id="XMLID_3251_" class="st0" points="6.19,68.14 9.77,49.44 14.05,57.47 "/>
<polygon id="XMLID_3250_" class="st0" points="23.87,48.24 14.05,57.47 25.88,64.87 "/>
<polygon id="XMLID_3249_" class="st0" points="24.76,35.91 23.87,48.24 19.01,45.3 "/>
<polygon id="XMLID_3248_" class="st0" points="13.13,38.68 4.16,38.81 6.24,45.24 "/>
<polygon id="XMLID_3247_" class="st0" points="19.01,45.3 14.05,57.47 23.87,48.24 "/>
<polygon id="XMLID_3246_" class="st0" points="9.77,49.44 19.01,45.3 14.05,57.47 "/>
<polygon id="XMLID_3245_" class="st0" points="13.13,38.68 9.77,49.44 19.01,45.3 "/>
<polygon id="XMLID_3244_" class="st0" points="6.24,45.24 9.77,49.44 13.13,38.68 "/>
<polygon id="XMLID_3243_" class="st0" points="6.19,68.14 5.46,53.53 9.77,49.44 "/>
<polygon id="XMLID_3242_" class="st0" points="6.24,45.24 5.46,53.53 9.77,49.44 "/>
<polygon id="XMLID_3241_" class="st0" points="4.16,38.81 2.46,43.3 6.24,45.24 "/>
<polygon id="XMLID_3240_" class="st0" points="5.46,53.53 2.46,43.3 6.24,45.24 "/>
<polygon id="XMLID_3239_" class="st0" points="2.46,57.47 2.46,43.3 5.46,53.53 "/>
<polygon id="XMLID_3238_" class="st0" points="6.19,68.14 2.46,57.47 5.46,53.53 "/>
<polygon id="XMLID_3237_" class="st0" points="32.12,170.69 37.39,145.5 23.24,159.7 "/>
<polygon id="XMLID_3236_" class="st0" points="17.72,183.91 26.81,191.55 32.12,170.69 "/>
<polygon id="XMLID_3235_" class="st0" points="10.34,202.18 17.29,195.45 17.72,183.91 "/>
<polygon id="XMLID_3234_" class="st0" points="26.81,191.55 17.29,195.45 17.72,183.91 "/>
<polygon id="XMLID_3233_" class="st0" points="19.15,202.97 10.34,202.18 17.29,195.45 "/>
<polygon id="XMLID_3232_" class="st0" points="26.81,191.55 19.15,202.97 17.29,195.45 "/>
<polygon id="XMLID_3231_" class="st0" points="19.81,212.54 19.15,202.97 27.68,209.28 "/>
<polygon id="XMLID_3230_" class="st0" points="10.34,202.18 19.81,212.54 19.15,202.97 "/>
<polygon id="XMLID_3229_" class="st0" points="26.81,191.55 27.68,209.28 19.15,202.97 "/>
<polygon id="XMLID_3228_" class="st0" points="19.81,212.54 25.5,219.1 23.53,222.59 "/>
<polygon id="XMLID_3227_" class="st0" points="27.68,209.28 25.5,219.1 19.81,212.54 "/>
<polygon id="XMLID_3226_" class="st0" points="26.81,191.55 33.64,211.21 27.68,209.28 "/>
<polygon id="XMLID_3225_" class="st0" points="25.5,219.1 33.64,211.21 27.68,209.28 "/>
<polygon id="XMLID_3224_" class="st0" points="26.81,191.55 39.93,212.51 33.64,211.21 "/>
<polygon id="XMLID_3223_" class="st0" points="25.5,219.1 30.64,224.43 33.64,211.21 "/>
<polygon id="XMLID_3222_" class="st0" points="23.53,222.59 28.17,226.72 25.5,219.1 "/>
<polygon id="XMLID_3221_" class="st0" points="30.64,224.43 28.17,226.72 25.5,219.1 "/>
<polygon id="XMLID_3220_" class="st0" points="33.64,211.21 35.91,223.33 30.64,224.43 "/>
<polygon id="XMLID_3219_" class="st0" points="28.17,226.72 30.64,224.43 33.33,226.72 "/>
<polygon id="XMLID_3218_" class="st0" points="35.91,223.33 33.33,226.72 30.64,224.43 "/>
<polygon id="XMLID_3217_" class="st0" points="39.93,212.51 35.91,223.33 33.64,211.21 "/>
<polygon id="XMLID_3216_" class="st0" points="33.33,226.72 37.24,224.81 35.91,223.33 "/>
<polygon id="XMLID_3215_" class="st0" points="39.93,212.51 38.73,220.84 35.91,223.33 "/>
<polygon id="XMLID_3214_" class="st0" points="37.24,224.81 38.73,220.84 35.91,223.33 "/>
<polygon id="XMLID_3213_" class="st0" points="32.12,170.69 30.47,187.2 26.81,191.55 "/>
<polygon id="XMLID_3212_" class="st0" points="39.93,212.51 30.47,187.2 26.81,191.55 "/>
<polygon id="XMLID_3211_" class="st0" points="12.87,29.97 4.16,38.81 13.13,38.68 "/>
<polygon id="XMLID_3210_" class="st0" points="9.37,27.21 12.87,29.97 4.16,38.81 "/>
<polygon id="XMLID_3209_" class="st0" points="2.46,43.3 1.8,34.25 4.16,38.81 "/>
<polygon id="XMLID_3208_" class="st0" points="9.37,27.21 4.02,28.66 4.16,38.81 "/>
<polygon id="XMLID_3207_" class="st0" points="1.8,34.25 4.02,28.66 4.16,38.81 "/>
<polygon id="XMLID_3206_" class="st0" points="2.2,25.29 1.8,34.25 4.02,28.66 "/>
<polygon id="XMLID_3205_" class="st0" points="7.01,23.24 2.2,25.29 4.02,28.66 "/>
<polygon id="XMLID_3204_" class="st0" points="9.37,27.21 7.01,23.24 4.02,28.66 "/>
<polygon id="XMLID_3203_" class="st0" points="12.87,29.97 9.37,27.21 17.52,22.88 "/>
<polygon id="XMLID_3202_" class="st0" points="15.47,19.03 9.37,27.21 17.52,22.88 "/>
<polygon id="XMLID_3201_" class="st0" points="22.95,16.1 15.47,19.03 17.52,22.88 "/>
<polygon id="XMLID_3200_" class="st0" points="7.01,23.24 15.47,19.03 9.37,27.21 "/>
<polygon id="XMLID_3199_" class="st0" points="2.2,25.29 6.61,18.43 7.01,23.24 "/>
<polygon id="XMLID_3198_" class="st0" points="5.15,16.34 2.2,25.29 6.61,18.43 "/>
<polygon id="XMLID_3197_" class="st0" points="12.36,9.09 5.15,16.34 10.2,13.57 "/>
<polygon id="XMLID_3196_" class="st0" points="6.61,18.43 10.2,13.57 5.15,16.34 "/>
<polygon id="XMLID_3195_" class="st0" points="7.01,23.24 12.85,15.88 6.61,18.43 "/>
<polygon id="XMLID_3194_" class="st0" points="10.2,13.57 12.85,15.88 6.61,18.43 "/>
<polygon id="XMLID_3193_" class="st0" points="12.36,9.09 18.6,8.48 10.2,13.57 "/>
<polygon id="XMLID_3192_" class="st0" points="19.53,11.32 10.2,13.57 18.6,8.48 "/>
<polygon id="XMLID_3191_" class="st0" points="12.85,15.88 10.2,13.57 19.53,11.32 "/>
<polygon id="XMLID_3190_" class="st0" points="7.01,23.24 12.85,15.88 15.47,19.03 "/>
<polygon id="XMLID_3189_" class="st0" points="19.53,11.32 22.95,16.1 12.85,15.88 "/>
<polygon id="XMLID_3188_" class="st0" points="15.47,19.03 12.85,15.88 22.95,16.1 "/>
<polygon id="XMLID_3187_" class="st0" points="19.53,11.32 29.58,11.53 22.95,16.1 "/>
<polygon id="XMLID_3186_" class="st0" points="18.6,8.48 29.58,11.53 19.53,11.32 "/>
<polygon id="XMLID_3185_" class="st0" points="12.36,9.09 24.01,3.98 18.6,8.48 "/>
<polygon id="XMLID_3184_" class="st0" points="29.58,11.53 28.6,6.96 18.6,8.48 "/>
<polygon id="XMLID_3183_" class="st0" points="35.58,7.57 28.6,6.96 29.58,11.53 "/>
<polygon id="XMLID_3182_" class="st0" points="24.01,3.98 26.49,4.8 18.6,8.48 "/>
<polygon id="XMLID_3181_" class="st0" points="32.1,2.37 26.49,4.8 24.01,3.98 "/>
<polygon id="XMLID_3180_" class="st0" points="28.6,6.96 26.49,4.8 18.6,8.48 "/>
<polygon id="XMLID_3179_" class="st0" points="32.1,2.37 36.19,4.09 26.49,4.8 "/>
<polygon id="XMLID_3178_" class="st0" points="28.6,6.96 36.19,4.09 26.49,4.8 "/>
<polygon id="XMLID_3177_" class="st0" points="35.58,7.57 36.19,4.09 28.6,6.96 "/>
<polygon id="XMLID_3176_" class="st0" points="32.1,2.37 41.61,3 36.19,4.09 "/>
<polygon id="XMLID_3175_" class="st0" points="35.58,7.57 36.19,4.09 41.38,6.07 "/>
<polygon id="XMLID_3174_" class="st0" points="41.61,3 36.19,4.09 48.98,5.52 "/>
<polygon id="XMLID_3173_" class="st0" points="41.38,6.07 48.98,5.52 36.19,4.09 "/>
<polygon id="XMLID_3172_" class="st0" points="35.58,7.57 41.38,6.07 42.58,8.69 "/>
<polygon id="XMLID_3171_" class="st0" points="48.98,5.52 42.58,8.69 41.38,6.07 "/>
<polygon id="XMLID_3170_" class="st0" points="35.9,12.8 35.06,16.17 29.44,15.93 "/>
<polygon id="XMLID_3169_" class="st0" points="42.55,12.05 35.9,12.8 35.06,16.17 "/>
<polygon id="XMLID_3168_" class="st0" points="42.58,8.69 35.9,12.8 35.58,7.57 "/>
<polygon id="XMLID_3167_" class="st0" points="42.55,12.05 42.58,8.69 35.9,12.8 "/>
<polygon id="XMLID_3166_" class="st0" points="48.98,5.52 50.99,7.19 42.58,8.69 "/>
<polygon id="XMLID_3165_" class="st0" points="57.48,8.06 48.98,5.52 50.99,7.19 "/>
<polygon id="XMLID_3164_" class="st0" points="42.55,12.05 45.8,9.8 42.58,8.69 "/>
<polygon id="XMLID_3163_" class="st0" points="50.99,7.19 45.8,9.8 42.58,8.69 "/>
<polygon id="XMLID_3162_" class="st0" points="50.81,9.24 45.8,9.8 42.55,12.05 "/>
<polygon id="XMLID_3155_" class="st0" points="54.67,7.1 64.68,3.12 61.33,6.48 "/>
<polygon id="XMLID_3154_" class="st0" points="67.69,3.75 64.68,3.12 61.33,6.48 "/>
<polygon id="XMLID_3153_" class="st0" points="68.57,6.2 67.69,3.75 61.33,6.48 "/>
<polygon id="XMLID_3152_" class="st0" points="63.58,7.19 61.33,6.48 68.57,6.2 "/>
<polygon id="XMLID_3151_" class="st0" points="67.69,3.75 72.32,0.92 64.68,3.12 "/>
<polygon id="XMLID_3150_" class="st0" points="71.22,4.17 72.32,0.92 67.69,3.75 "/>
<polygon id="XMLID_3149_" class="st0" points="68.57,6.2 71.22,4.17 67.69,3.75 "/>
<polygon id="XMLID_3148_" class="st0" points="71.22,4.17 71.3,7.58 68.57,6.2 "/>
<polygon id="XMLID_3147_" class="st0" points="72.32,0.92 78.24,0.12 74.77,1.55 "/>
<polygon id="XMLID_3146_" class="st0" points="71.22,4.17 74.77,1.55 72.32,0.92 "/>
<polygon id="XMLID_3145_" class="st0" points="78.24,0.12 83.99,0.84 74.77,1.55 "/>
<polygon id="XMLID_3144_" class="st0" points="71.22,4.17 76.48,3.14 74.77,1.55 "/>
<polygon id="XMLID_3143_" class="st0" points="83.99,0.84 76.48,3.14 74.77,1.55 "/>
<polygon id="XMLID_3142_" class="st0" points="85.42,1.62 83.99,0.84 76.48,3.14 "/>
<polygon id="XMLID_3141_" class="st0" points="89.62,2.39 83.99,0.84 85.42,1.62 "/>
<polygon id="XMLID_3140_" class="st0" points="90.09,4.08 85.42,1.62 89.62,2.39 "/>
<polygon id="XMLID_3139_" class="st0" points="95.11,5.23 90.09,4.08 89.62,2.39 "/>
<polygon id="XMLID_3138_" class="st0" points="85.42,1.62 86.16,4.57 90.09,4.08 "/>
<polygon id="XMLID_3137_" class="st0" points="87.6,6.04 90.09,4.08 86.16,4.57 "/>
<polygon id="XMLID_3136_" class="st0" points="76.48,3.14 86.16,4.57 85.42,1.62 "/>
<polygon id="XMLID_3135_" class="st0" points="73.92,6.45 71.22,4.17 76.48,3.14 "/>
<polygon id="XMLID_3134_" class="st0" points="86.16,4.57 73.92,6.45 76.48,3.14 "/>
<polygon id="XMLID_3133_" class="st0" points="87.6,6.04 84.58,7 86.16,4.57 "/>
<polygon id="XMLID_3132_" class="st0" points="73.92,6.45 76.13,8.69 81.1,6.93 "/>
<polygon id="XMLID_3131_" class="st0" points="63.58,7.19 54.67,7.1 61.33,6.48 "/>
<polygon id="XMLID_3130_" class="st0" points="57.29,7.99 63.58,7.19 54.67,7.1 "/>
<polygon id="XMLID_3129_" class="st0" points="68.57,6.2 67.17,7.7 71.3,7.58 "/>
<polygon id="XMLID_3128_" class="st0" points="63.58,7.19 68.57,6.2 67.17,7.7 "/>
<polygon id="XMLID_3127_" class="st0" points="57.48,8.06 66.12,8.5 63.58,7.19 "/>
<polygon id="XMLID_3126_" class="st0" points="67.17,7.7 66.12,8.5 63.58,7.19 "/>
<polygon id="XMLID_3125_" class="st0" points="71.3,7.58 66.12,8.5 67.17,7.7 "/>
<polygon id="XMLID_3124_" class="st0" points="81.1,6.93 86.16,4.57 73.92,6.45 "/>
<polygon id="XMLID_3123_" class="st0" points="84.58,7 81.1,6.93 86.16,4.57 "/>
<polygon id="XMLID_3122_" class="st0" points="80.69,9.02 76.13,8.69 81.1,6.93 "/>
<polygon id="XMLID_3121_" class="st0" points="84.58,7 80.69,9.02 81.1,6.93 "/>
<polygon id="XMLID_3120_" class="st0" points="84.96,8.19 80.69,9.02 84.58,7 "/>
<polygon id="XMLID_3119_" class="st0" points="87.6,6.04 84.96,8.19 84.58,7 "/>
<polygon id="XMLID_3118_" class="st0" points="90.09,4.08 90.63,5.51 95.11,5.23 "/>
<polygon id="XMLID_3117_" class="st0" points="87.6,6.04 90.09,4.08 90.63,5.51 "/>
<polygon id="XMLID_3116_" class="st0" points="84.96,8.19 89.22,6.8 87.6,6.04 "/>
<polygon id="XMLID_3115_" class="st0" points="90.63,5.51 89.22,6.8 87.6,6.04 "/>
<polygon id="XMLID_3114_" class="st0" points="95.11,5.23 90.63,5.51 89.22,6.8 "/>
<polygon id="XMLID_3113_" class="st0" points="80.69,9.02 84.23,8.96 84.96,8.19 "/>
<polygon id="XMLID_3112_" class="st0" points="89.22,6.8 84.23,8.96 84.96,8.19 "/>
<polygon id="XMLID_3111_" class="st0" points="71.3,7.58 73.92,6.45 71.22,4.17 "/>
<polygon id="XMLID_3110_" class="st0" points="76.13,8.69 71.3,7.58 73.92,6.45 "/>
<polygon id="XMLID_3109_" class="st0" points="66.12,8.5 75.96,10.76 71.46,8.94 "/>
<polygon id="XMLID_3108_" class="st0" points="71.3,7.58 71.46,8.94 66.12,8.5 "/>
<polygon id="XMLID_3107_" class="st0" points="76.13,8.69 71.46,8.94 71.3,7.58 "/>
<polygon id="XMLID_3106_" class="st0" points="75.96,10.76 76.13,8.69 71.46,8.94 "/>
<polygon id="XMLID_3105_" class="st0" points="80.69,9.02 75.96,10.76 76.13,8.69 "/>
<polygon id="XMLID_3104_" class="st0" points="84.23,8.96 75.96,10.76 80.69,9.02 "/>
<polygon id="XMLID_3103_" class="st0" points="90.1,135.82 83.72,125.07 86.84,112.4 "/>
<polygon id="XMLID_3102_" class="st0" points="81.08,143.95 87.05,138.04 83.72,125.07 "/>
<polygon id="XMLID_3101_" class="st0" points="90.1,135.82 87.05,138.04 83.72,125.07 "/>
<polygon id="XMLID_3100_" class="st0" points="81.08,143.95 87.05,138.04 85.28,151.42 "/>
<polygon id="XMLID_3099_" class="st0" points="85.28,151.42 80.13,174.32 81.08,143.95 "/>
<polygon id="XMLID_3098_" class="st0" points="80.13,174.32 83.76,170.78 85.28,151.42 "/>
<polygon id="XMLID_3097_" class="st0" points="80.06,195.62 83.76,170.78 80.13,174.32 "/>
<polygon id="XMLID_3624_" class="st0" points="80.06,195.62 78.56,210.78 70.84,212.49 "/>
<polygon id="XMLID_3626_" class="st0" points="79.18,226.79 70.84,212.49 78.56,210.78 "/>
<circle id="XMLID_3591_" class="st1" cx="110.63" cy="103.4" r="1.71"/>
<circle id="XMLID_3612_" class="st1" cx="113.97" cy="130.07" r="1.71"/>
<circle id="XMLID_3616_" class="st1" cx="93.65" cy="137.91" r="1.71"/>
<circle id="XMLID_3613_" class="st1" cx="117.52" cy="154.73" r="1.71"/>
<circle id="XMLID_3614_" class="st1" cx="100.46" cy="177.88" r="1.71"/>
<circle id="XMLID_3615_" class="st1" cx="103.79" cy="202.86" r="1.71"/>
<circle id="XMLID_3617_" class="st1" cx="122.43" cy="184.02" r="1.71"/>
<circle id="XMLID_3593_" class="st1" cx="118.73" cy="74.88" r="1.71"/>
<circle id="XMLID_3611_" class="st1" cx="125.69" cy="114.04" r="1.71"/>
<circle id="XMLID_3594_" class="st1" cx="96.35" cy="56.3" r="1.71"/>
<circle id="XMLID_3607_" class="st1" cx="109.73" cy="28.1" r="1.71"/>
<circle id="XMLID_3609_" class="st1" cx="122.24" cy="14.82" r="1.71"/>
<circle id="XMLID_3610_" class="st1" cx="126.86" cy="35.35" r="1.71"/>
<circle id="XMLID_3608_" class="st1" cx="90.09" cy="30.1" r="1.71"/>
<circle id="XMLID_3595_" class="st1" cx="62.47" cy="39.96" r="1.71"/>
<circle id="XMLID_3597_" class="st1" cx="59.02" cy="106.65" r="1.71"/>
<circle id="XMLID_3629_" class="st1" cx="33" cy="106.95" r="1.71"/>
<circle id="XMLID_3630_" class="st1" cx="17.74" cy="80.39" r="1.71"/>
<circle id="XMLID_3631_" class="st1" cx="11.52" cy="110.19" r="1.71"/>
<circle id="XMLID_3632_" class="st1" cx="15.82" cy="132.31" r="1.71"/>
<circle id="XMLID_3633_" class="st1" cx="23.24" cy="159.89" r="1.71"/>
<circle id="XMLID_3638_" class="st1" cx="1.71" cy="154.36" r="1.71"/>
<circle id="XMLID_3634_" class="st1" cx="4.65" cy="189.68" r="1.71"/>
<circle id="XMLID_3635_" class="st1" cx="19.15" cy="202.97" r="1.71"/>
<circle id="XMLID_3636_" class="st1" cx="33.64" cy="211.21" r="1.71"/>
<circle id="XMLID_3637_" class="st1" cx="28.17" cy="226.79" r="1.71"/>
<circle id="XMLID_3618_" class="st1" cx="72.02" cy="139.71" r="1.71"/>
<circle id="XMLID_3619_" class="st1" cx="43.41" cy="148.6" r="1.71"/>
<circle id="XMLID_3620_" class="st1" cx="66.94" cy="176.17" r="1.71"/>
<circle id="XMLID_3621_" class="st1" cx="47.42" cy="202.57" r="1.71"/>
<circle id="XMLID_3622_" class="st1" cx="70.84" cy="212.49" r="1.71"/>
<circle id="XMLID_3627_" class="st1" cx="58.64" cy="236.6" r="1.71"/>
<circle id="XMLID_3628_" class="st1" cx="70.42" cy="248.38" r="1.71"/>
<circle id="XMLID_3598_" class="st1" cx="52.83" cy="69.26" r="1.71"/>
<circle id="XMLID_3596_" class="st1" cx="28.17" cy="42.86" r="1.71"/>
<circle id="XMLID_3599_" class="st1" cx="14.05" cy="57.47" r="1.71"/>
<circle id="XMLID_3600_" class="st1" cx="9.37" cy="27.21" r="1.71"/>
<circle id="XMLID_3601_" class="st1" cx="23.23" cy="16.1" r="1.71"/>
<circle id="XMLID_3602_" class="st1" cx="51.34" cy="14.82" r="1.71"/>
<circle id="XMLID_3603_" class="st1" cx="18.6" cy="8.55" r="1.71"/>
<circle id="XMLID_3604_" class="st1" cx="92.92" cy="9.96" r="1.71"/>
<circle id="XMLID_3605_" class="st1" cx="76.48" cy="3.23" r="1.71"/>
<circle id="XMLID_3606_" class="st1" cx="42.55" cy="8.48" r="1.71"/>
<circle id="XMLID_703_" class="st1" cx="66.12" cy="8.68" r="1.71"/>
<circle id="XMLID_3592_" class="st1" cx="86.07" cy="86.7" r="1.71"/>
<polygon id="XMLID_700_" class="st0" points="50.99,7.19 50.81,9.24 45.8,9.8 "/>
<polygon id="XMLID_702_" class="st0" points="50.99,7.19 57.29,7.99 50.81,9.24 "/>
</svg>
