<?xml version="1.0" encoding="utf-8"?>
<!-- Generator: Adobe Illustrator 25.2.1, SVG Export Plug-In . SVG Version: 6.00 Build 0)  -->
<svg version="1.1" id="Layer_1" xmlns="http://www.w3.org/2000/svg" xmlns:xlink="http://www.w3.org/1999/xlink" x="0px" y="0px"
	 viewBox="0 0 581.57 251.24" style="enable-background:new 0 0 581.57 251.24;" xml:space="preserve">
<style type="text/css">
	.st0{fill:none;stroke:#1A171B;stroke-width:0.25;stroke-miterlimit:10;}
	.st1{fill:#1A171B;}
</style>
<polygon class="st0" points="14.71,50.32 29.2,75.42 43.69,50.32 "/>
<polygon class="st0" points="14.71,50.32 0.22,75.42 29.2,75.42 "/>
<circle class="st1" cx="14.71" cy="50.32" r="1.71"/>
<polygon class="st0" points="14.71,100.52 29.2,125.62 43.69,100.52 "/>
<polygon class="st0" points="14.71,100.52 43.69,100.52 29.2,75.42 "/>
<polygon class="st0" points="14.71,100.52 29.2,75.42 0.22,75.42 "/>
<polygon class="st0" points="14.71,100.52 0.22,125.62 29.2,125.62 "/>
<circle class="st1" cx="14.71" cy="100.52" r="1.71"/>
<polygon class="st0" points="101.65,50.32 116.14,75.42 130.64,50.32 "/>
<polygon class="st0" points="101.65,50.32 87.16,25.22 72.67,50.32 "/>
<polygon class="st0" points="101.65,50.32 72.67,50.32 87.16,75.42 "/>
<polygon class="st0" points="101.65,50.32 87.16,75.42 116.14,75.42 "/>
<circle class="st1" cx="101.65" cy="50.32" r="1.71"/>
<polygon class="st0" points="101.65,100.52 116.14,125.62 141.17,107.41 "/>
<polygon class="st0" points="101.65,100.52 141.17,107.41 116.14,75.42 "/>
<polygon class="st0" points="101.65,100.52 72.67,100.52 87.16,125.62 "/>
<polygon class="st0" points="101.65,100.52 116.14,75.42 87.16,75.42 "/>
<polygon class="st0" points="101.65,100.52 87.16,125.62 116.14,125.62 "/>
<circle class="st1" cx="101.65" cy="100.52" r="1.71"/>
<polygon class="st0" points="58.18,125.62 72.67,150.72 87.16,125.62 "/>
<polygon class="st0" points="58.18,125.62 87.16,125.62 72.67,100.52 "/>
<polygon class="st0" points="58.18,125.62 43.69,150.72 72.67,150.72 "/>
<circle class="st1" cx="58.18" cy="125.62" r="1.71"/>
<polygon class="st0" points="101.65,150.72 87.16,125.62 72.67,150.72 "/>
<polygon class="st0" points="101.65,150.72 141.17,157.61 126.68,132.51 "/>
<polygon class="st0" points="101.65,150.72 116.14,125.62 87.16,125.62 "/>
<circle class="st1" cx="101.65" cy="150.72" r="1.71"/>
<polygon class="st0" points="58.18,175.82 72.67,200.92 87.16,175.82 "/>
<polygon class="st0" points="58.18,175.82 43.69,150.72 29.2,175.82 "/>
<polygon class="st0" points="58.18,175.82 72.67,150.72 43.69,150.72 "/>
<polygon class="st0" points="58.18,175.82 43.69,200.92 72.67,200.92 "/>
<circle class="st1" cx="58.18" cy="175.82" r="1.71"/>
<polygon class="st0" points="145.13,25.22 159.62,50.32 174.11,25.22 "/>
<polygon class="st0" points="145.13,25.22 130.64,50.32 159.62,50.32 "/>
<circle class="st1" cx="145.13" cy="25.22" r="1.71"/>
<polygon class="st0" points="188.6,50.32 192.5,89.88 217.58,50.32 "/>
<polygon class="st0" points="188.6,50.32 174.11,75.42 192.5,89.88 "/>
<circle class="st1" cx="188.6" cy="50.32" r="1.71"/>
<polygon class="st0" points="137.07,84.06 170.16,107.41 174.11,75.42 "/>
<polygon class="st0" points="145.13,75.42 130.64,50.32 116.14,75.42 "/>
<polygon class="st0" points="145.13,75.42 174.11,75.42 159.62,50.32 "/>
<polygon class="st0" points="145.13,75.42 116.14,75.42 141.17,107.41 "/>
<polygon class="st0" points="145.13,75.42 159.62,50.32 130.64,50.32 "/>
<polygon class="st0" points="137.07,84.06 141.17,107.41 170.16,107.41 "/>
<circle class="st1" cx="145.13" cy="75.42" r="1.71"/>
<polygon class="st0" points="187.34,118.4 209.47,137.13 214.62,108.61 "/>
<polygon class="st0" points="187.34,118.4 174.11,75.42 159.62,100.52 "/>
<polygon class="st0" points="187.34,118.4 214.62,108.61 192.5,89.88 "/>
<circle class="st1" cx="187.34" cy="118.4" r="1.71"/>
<polygon class="st0" points="155.67,132.51 159.62,150.72 174.11,125.62 "/>
<polygon class="st0" points="155.67,132.51 141.17,107.41 116.14,125.62 "/>
<polygon class="st0" points="155.67,132.51 174.11,125.62 159.62,100.52 "/>
<polygon class="st0" points="155.67,132.51 126.68,132.51 141.17,157.61 "/>
<polygon class="st0" points="155.67,132.51 130.64,150.72 159.62,150.72 "/>
<circle class="st1" cx="155.67" cy="132.51" r="1.71"/>
<polygon class="st0" points="204.31,165.65 231.59,155.85 209.47,137.13 "/>
<polygon class="st0" points="204.31,165.65 159.62,150.72 174.11,175.82 "/>
<polygon class="st0" points="204.31,165.65 209.47,137.13 174.11,125.62 "/>
<polygon class="st0" points="204.31,165.65 174.11,175.82 203.09,175.82 "/>
<circle class="st1" cx="204.31" cy="165.65" r="1.71"/>
<polygon class="st0" points="145.13,175.82 159.62,200.92 174.11,175.82 "/>
<polygon class="st0" points="145.13,175.82 174.11,175.82 159.62,150.72 "/>
<polygon class="st0" points="145.13,175.82 159.62,150.72 130.64,150.72 "/>
<circle class="st1" cx="145.13" cy="175.82" r="1.71"/>
<polygon class="st0" points="188.6,200.92 174.11,175.82 159.62,200.92 "/>
<polygon class="st0" points="188.6,200.92 203.09,175.82 174.11,175.82 "/>
<polygon class="st0" points="188.6,200.92 174.11,226.02 203.09,226.02 "/>
<circle class="st1" cx="188.6" cy="200.92" r="1.71"/>
<polygon class="st0" points="219.77,80.09 217.58,50.32 192.5,89.88 "/>
<polygon class="st0" points="219.77,80.09 192.5,89.88 214.62,108.61 "/>
<polygon class="st0" points="219.77,80.09 214.62,108.61 241.9,98.81 "/>
<circle class="st1" cx="219.77" cy="80.09" r="1.71"/>
<polygon class="st0" points="269.17,89.01 291.29,107.74 319.05,142.76 "/>
<polygon class="st0" points="269.17,89.01 241.9,98.81 264.02,117.53 "/>
<polygon class="st0" points="269.17,89.01 264.02,117.53 291.29,107.74 "/>
<circle class="st1" cx="269.17" cy="89.01" r="1.71"/>
<polygon class="st0" points="231.73,142.79 255.55,134.23 264.02,117.53 "/>
<polygon class="st0" points="231.73,142.79 214.62,108.61 209.47,137.13 "/>
<polygon class="st0" points="231.73,142.79 209.47,137.13 231.59,155.85 "/>
<polygon class="st0" points="231.73,142.79 241.9,98.81 214.62,108.61 "/>
<polygon class="st0" points="231.73,142.79 231.59,155.85 255.55,134.23 "/>
<circle class="st1" cx="231.73" cy="142.79" r="1.71"/>
<polygon class="st0" points="279.95,119.58 290.04,175.82 300.14,127.31 "/>
<polygon class="st0" points="279.95,119.58 264.02,117.53 255.55,134.23 "/>
<polygon class="st0" points="279.95,119.58 300.14,127.31 291.29,107.74 "/>
<polygon class="st0" points="279.95,119.58 291.29,107.74 264.02,117.53 "/>
<circle class="st1" cx="279.95" cy="119.58" r="1.71"/>
<polygon class="st0" points="232.07,175.82 255.55,134.23 231.59,155.85 "/>
<polygon class="st0" points="275.55,200.92 290.04,226.02 304.53,200.92 "/>
<polygon class="st0" points="275.55,200.92 304.53,200.92 290.04,175.82 "/>
<circle class="st1" cx="275.55" cy="200.92" r="1.71"/>
<polygon class="st0" points="362.49,50.32 376.98,75.42 391.48,50.32 "/>
<polygon class="st0" points="362.49,50.32 391.48,50.32 376.98,25.22 "/>
<polygon class="st0" points="362.49,50.32 348,75.42 376.98,75.42 "/>
<circle class="st1" cx="362.49" cy="50.32" r="1.71"/>
<polygon class="st0" points="319.02,75.42 333.51,100.52 348,75.42 "/>
<polygon class="st0" points="319.02,75.42 333.51,50.32 304.53,50.32 "/>
<polygon class="st0" points="319.02,75.42 319.05,142.76 333.51,100.52 "/>
<circle class="st1" cx="319.02" cy="75.42" r="1.71"/>
<polygon class="st0" points="362.49,100.52 376.98,125.62 391.48,100.52 "/>
<polygon class="st0" points="362.49,100.52 348,75.42 333.51,100.52 "/>
<polygon class="st0" points="362.49,100.52 391.48,100.52 376.98,75.42 "/>
<polygon class="st0" points="362.49,100.52 333.51,100.52 348,125.62 "/>
<polygon class="st0" points="362.49,100.52 376.98,75.42 348,75.42 "/>
<polygon class="st0" points="362.49,100.52 348,125.62 376.98,125.62 "/>
<circle class="st1" cx="362.49" cy="100.52" r="1.71"/>
<polygon class="st0" points="319.02,125.62 333.51,150.72 348,125.62 "/>
<polygon class="st0" points="319.02,125.62 319.05,142.76 291.29,107.74 "/>
<polygon class="st0" points="319.02,125.62 348,125.62 333.51,100.52 "/>
<polygon class="st0" points="319.02,125.62 291.29,107.74 300.14,127.31 "/>
<polygon class="st0" points="319.02,125.62 333.51,100.52 319.05,142.76 "/>
<polygon class="st0" points="319.02,125.62 300.14,127.31 333.51,150.72 "/>
<circle class="st1" cx="319.02" cy="125.62" r="1.71"/>
<polygon class="st0" points="331.71,136.77 376.98,175.82 391.48,150.72 "/>
<polygon class="st0" points="331.71,136.77 348,125.62 333.51,150.72 "/>
<polygon class="st0" points="331.71,136.77 391.48,150.72 376.98,125.62 "/>
<polygon class="st0" points="331.71,136.77 333.51,150.72 348,175.82 "/>
<polygon class="st0" points="331.71,136.77 376.98,125.62 348,125.62 "/>
<polygon class="st0" points="331.71,136.77 348,175.82 376.98,175.82 "/>
<circle class="st1" cx="331.71" cy="136.77" r="1.71"/>
<polygon class="st0" points="319.02,175.82 300.14,127.31 290.04,175.82 "/>
<polygon class="st0" points="319.02,175.82 348,175.82 333.51,150.72 "/>
<polygon class="st0" points="319.02,175.82 290.04,175.82 304.53,200.92 "/>
<polygon class="st0" points="319.02,175.82 333.51,150.72 300.14,127.31 "/>
<polygon class="st0" points="319.02,175.82 304.53,200.92 333.51,200.92 "/>
<circle class="st1" cx="319.02" cy="175.82" r="1.71"/>
<polygon class="st0" points="405.97,75.42 391.48,50.32 376.98,75.42 "/>
<polygon class="st0" points="405.97,75.42 376.98,75.42 391.48,100.52 "/>
<polygon class="st0" points="405.97,75.42 420.46,50.32 391.48,50.32 "/>
<polygon class="st0" points="376.98,25.22 391.48,0.12 362.49,0.12 "/>
<polygon class="st0" points="405.97,75.42 391.48,100.52 420.46,100.52 "/>
<circle class="st1" cx="405.97" cy="75.42" r="1.71"/>
<polygon class="st0" points="449.44,100.52 463.93,125.62 478.42,100.52 "/>
<polygon class="st0" points="449.44,100.52 478.42,100.52 463.93,75.42 "/>
<polygon class="st0" points="449.44,100.52 463.93,75.42 434.95,75.42 "/>
<polygon class="st0" points="449.44,100.52 434.95,125.62 463.93,125.62 "/>
<circle class="st1" cx="449.44" cy="100.52" r="1.71"/>
<polygon class="st0" points="405.97,125.62 420.46,150.72 434.95,125.62 "/>
<polygon class="st0" points="405.97,125.62 391.48,100.52 376.98,125.62 "/>
<polygon class="st0" points="405.97,125.62 376.98,125.62 391.48,150.72 "/>
<polygon class="st0" points="405.97,125.62 420.46,100.52 391.48,100.52 "/>
<polygon class="st0" points="405.97,125.62 391.48,150.72 420.46,150.72 "/>
<circle class="st1" cx="405.97" cy="125.62" r="1.71"/>
<polygon class="st0" points="405.97,175.82 420.46,200.92 434.95,175.82 "/>
<polygon class="st0" points="405.97,175.82 391.48,150.72 376.98,175.82 "/>
<polygon class="st0" points="405.97,175.82 434.95,175.82 420.46,150.72 "/>
<polygon class="st0" points="405.97,175.82 376.98,175.82 391.48,200.92 "/>
<polygon class="st0" points="405.97,175.82 420.46,150.72 391.48,150.72 "/>
<polygon class="st0" points="405.97,175.82 391.48,200.92 420.46,200.92 "/>
<circle class="st1" cx="405.97" cy="175.82" r="1.71"/>
<polygon class="st0" points="449.44,200.92 434.95,175.82 420.46,200.92 "/>
<polygon class="st0" points="449.44,200.92 463.93,175.82 434.95,175.82 "/>
<polygon class="st0" points="449.44,200.92 434.95,226.02 463.93,226.02 "/>
<circle class="st1" cx="449.44" cy="200.92" r="1.71"/>
<polygon class="st0" points="492.91,75.42 463.93,75.42 478.42,100.52 "/>
<circle class="st1" cx="492.91" cy="75.42" r="1.71"/>
<polygon class="st0" points="536.39,100.52 565.37,100.52 550.88,75.42 "/>
<polygon class="st0" points="536.39,100.52 550.88,75.42 521.89,75.42 "/>
<circle class="st1" cx="536.39" cy="100.52" r="1.71"/>
<polygon class="st0" points="492.91,125.62 507.4,150.72 521.89,125.62 "/>
<polygon class="st0" points="492.91,125.62 463.93,125.62 478.42,150.72 "/>
<polygon class="st0" points="492.91,125.62 478.42,150.72 507.4,150.72 "/>
<circle class="st1" cx="492.91" cy="125.62" r="1.71"/>
<polygon class="st0" points="536.39,150.72 550.88,175.82 565.37,150.72 "/>
<polygon class="st0" points="536.39,150.72 521.89,125.62 507.4,150.72 "/>
<polygon class="st0" points="536.39,150.72 507.4,150.72 521.89,175.82 "/>
<polygon class="st0" points="536.39,150.72 550.88,125.62 521.89,125.62 "/>
<polygon class="st0" points="536.39,150.72 521.89,175.82 550.88,175.82 "/>
<circle class="st1" cx="536.39" cy="150.72" r="1.71"/>
<polygon class="st0" points="492.91,175.82 478.42,200.92 507.4,200.92 "/>
<polygon class="st0" points="521.89,226.02 507.4,251.12 536.39,251.12 "/>
<circle class="st1" cx="492.91" cy="175.82" r="1.71"/>
<polygon class="st0" points="536.39,200.92 521.89,175.82 507.4,200.92 "/>
<polygon class="st0" points="536.39,200.92 565.37,200.92 550.88,175.82 "/>
<polygon class="st0" points="536.39,200.92 507.4,200.92 521.89,226.02 "/>
<polygon class="st0" points="536.39,200.92 550.88,175.82 521.89,175.82 "/>
<circle class="st1" cx="536.39" cy="200.92" r="1.71"/>
<polygon class="st0" points="579.86,125.62 565.37,100.52 550.88,125.62 "/>
<circle class="st1" cx="579.86" cy="125.62" r="1.71"/>
<polygon class="st0" points="579.86,175.82 565.37,150.72 550.88,175.82 "/>
<circle class="st1" cx="579.86" cy="175.82" r="1.71"/>
</svg>
