<?xml version="1.0" encoding="utf-8"?>
<!-- Generator: Adobe Illustrator 25.2.3, SVG Export Plug-In . SVG Version: 6.00 Build 0)  -->
<svg version="1.1" id="Layer_1" xmlns="http://www.w3.org/2000/svg" xmlns:xlink="http://www.w3.org/1999/xlink" x="0px" y="0px"
	 viewBox="0 0 741.49 344.39" style="enable-background:new 0 0 741.49 344.39;" xml:space="preserve">
<style type="text/css">
	.st0{fill:none;stroke:#FFFFFF;stroke-width:0.25;stroke-miterlimit:10;}
	.st1{fill:#FFFFFF;}
</style>
<g>
	<polygon class="st0" points="143.55,203.7 158.04,228.8 172.53,203.7 	"/>
	<polygon class="st0" points="187.03,228.8 216.01,228.8 201.52,203.7 	"/>
	<circle class="st1" cx="187.03" cy="228.8" r="1.71"/>
	<polygon class="st0" points="182.9,324.21 216.01,329.19 201.52,304.09 	"/>
	<polygon class="st0" points="182.9,324.21 154.24,328.52 155.68,344.15 	"/>
	<circle class="st1" cx="182.9" cy="324.21" r="1.71"/>
	<polygon class="st0" points="203.89,62.62 244.99,128.4 232.39,44.78 	"/>
	<polygon class="st0" points="203.89,62.62 188.92,19.68 174.43,44.78 	"/>
	<polygon class="st0" points="203.89,62.62 232.39,44.78 273.97,72.66 	"/>
	<polygon class="st0" points="203.89,62.62 174.43,44.78 216.01,128.4 	"/>
	<polygon class="st0" points="203.89,62.62 274.45,90.49 189.4,37.52 	"/>
	<polygon class="st0" points="203.89,62.62 216.01,128.4 244.99,128.4 	"/>
	<circle class="st1" cx="203.89" cy="62.62" r="1.71"/>
	<polygon class="st0" points="273.97,128.4 232.39,44.78 244.99,128.4 	"/>
	<polygon class="st0" points="273.97,128.4 244.99,128.4 259.48,153.5 	"/>
	<polygon class="st0" points="273.97,128.4 288.46,103.3 232.39,44.78 	"/>
	<polygon class="st0" points="273.97,128.4 259.48,153.5 263.28,173.56 	"/>
	<circle class="st1" cx="273.97" cy="128.4" r="1.71"/>
	<polygon class="st0" points="230.5,153.5 244.99,178.6 259.48,153.5 	"/>
	<polygon class="st0" points="230.5,153.5 259.48,153.5 244.99,128.4 	"/>
	<polygon class="st0" points="230.5,153.5 244.99,128.4 216.01,128.4 	"/>
	<circle class="st1" cx="230.5" cy="153.5" r="1.71"/>
	<polygon class="st0" points="273.97,178.6 263.28,223.76 277.77,198.66 	"/>
	<polygon class="st0" points="273.97,178.6 259.48,153.5 244.99,178.6 	"/>
	<polygon class="st0" points="273.97,178.6 277.77,198.66 263.28,173.56 	"/>
	<polygon class="st0" points="273.97,178.6 244.99,178.6 259.48,203.7 	"/>
	<polygon class="st0" points="273.97,178.6 263.28,173.56 259.48,153.5 	"/>
	<polygon class="st0" points="273.97,178.6 259.48,203.7 263.28,223.76 	"/>
	<circle class="st1" cx="273.97" cy="178.6" r="1.71"/>
	<polygon class="st0" points="230.5,203.7 244.99,228.8 259.48,203.7 	"/>
	<polygon class="st0" points="230.5,203.7 259.48,203.7 244.99,178.6 	"/>
	<polygon class="st0" points="230.5,203.7 201.52,203.7 216.01,228.8 	"/>
	<polygon class="st0" points="230.5,203.7 216.01,228.8 244.99,228.8 	"/>
	<circle class="st1" cx="230.5" cy="203.7" r="1.71"/>
	<polygon class="st0" points="273.97,228.8 259.48,203.7 244.99,228.8 	"/>
	<polygon class="st0" points="273.97,228.8 263.28,223.76 259.48,203.7 	"/>
	<circle class="st1" cx="273.97" cy="228.8" r="1.71"/>
	<polygon class="st0" points="317.44,253.89 331.94,278.99 346.43,253.89 	"/>
	<polygon class="st0" points="317.44,253.89 288.46,253.89 302.95,278.99 	"/>
	<polygon class="st0" points="317.44,253.89 302.95,278.99 331.94,278.99 	"/>
	<circle class="st1" cx="317.44" cy="253.89" r="1.71"/>
	<polygon class="st0" points="317.44,304.09 288.46,304.09 302.95,329.19 	"/>
	<circle class="st1" cx="317.44" cy="304.09" r="1.71"/>
	<polygon class="st0" points="375.41,153.5 389.9,178.6 404.39,153.5 	"/>
	<circle class="st1" cx="375.41" cy="153.5" r="1.71"/>
	<polygon class="st0" points="331.94,178.6 360.92,178.6 346.43,153.5 	"/>
	<circle class="st1" cx="331.94" cy="178.6" r="1.71"/>
	<polygon class="st0" points="331.94,78.2 346.43,103.3 360.92,78.2 	"/>
	<polygon class="st0" points="331.94,78.2 360.92,78.2 346.43,53.1 	"/>
	<polygon class="st0" points="375.41,253.89 346.43,253.89 360.92,278.99 	"/>
	<polygon class="st0" points="331.94,78.2 317.44,103.3 346.43,103.3 	"/>
	<circle class="st1" cx="375.41" cy="253.89" r="1.71"/>
	<polygon class="st0" points="331.94,128.4 346.43,153.5 380.86,120.82 	"/>
	<polygon class="st0" points="331.94,128.4 380.86,120.82 346.43,103.3 	"/>
	<polygon class="st0" points="462.36,153.5 476.85,178.6 491.34,153.5 	"/>
	<g>
		<polygon class="st0" points="32.12,82.97 77.78,84.24 0.53,50.5 		"/>
		<polygon class="st0" points="32.12,82.97 0.53,100.7 29.52,100.7 		"/>
		<circle class="st1" cx="32.12" cy="82.97" r="1.71"/>
		<polygon class="st0" points="56.61,153.5 71.1,178.6 85.59,153.5 		"/>
		<polygon class="st0" points="56.61,153.5 85.59,153.5 71.1,128.4 		"/>
		<polygon class="st0" points="56.61,153.5 29.52,100.7 44.01,125.8 		"/>
		<polygon class="st0" points="56.61,153.5 44.01,125.8 71.1,178.6 		"/>
		<circle class="st1" cx="56.61" cy="153.5" r="1.71"/>
		<polygon class="st0" points="15.03,125.8 27.62,203.7 44.01,125.8 		"/>
		<polygon class="st0" points="15.03,125.8 0.53,100.7 13.31,176.08 		"/>
		<polygon class="st0" points="15.03,125.8 44.01,125.8 29.52,100.7 		"/>
		<polygon class="st0" points="15.03,125.8 29.52,100.7 0.53,100.7 		"/>
		<circle class="st1" cx="15.03" cy="125.8" r="1.71"/>
		<polygon class="st0" points="56.61,203.7 85.59,203.7 71.1,178.6 		"/>
		<polygon class="st0" points="56.61,203.7 71.1,178.6 44.01,125.8 		"/>
		<polygon class="st0" points="130.01,104.03 115.52,78.93 71.1,128.4 		"/>
		<polygon class="st0" points="130.01,104.03 71.1,128.4 85.59,153.5 		"/>
		<polygon class="st0" points="130.01,104.03 136.4,138.79 115.52,78.93 		"/>
		<polygon class="st0" points="130.01,104.03 85.59,153.5 122.67,93.63 		"/>
		<circle class="st1" cx="130.01" cy="104.03" r="1.71"/>
		<polygon class="st0" points="143.55,153.5 122.67,93.63 129.06,178.6 		"/>
		<polygon class="st0" points="132.66,148.05 114.57,203.7 129.06,178.6 		"/>
		<polygon class="st0" points="132.66,148.05 85.59,153.5 71.1,178.6 		"/>
		<polygon class="st0" points="132.66,148.05 129.06,178.6 122.67,93.63 		"/>
		<polygon class="st0" points="132.66,148.05 71.1,178.6 85.59,203.7 		"/>
		<polygon class="st0" points="132.66,148.05 122.67,93.63 85.59,153.5 		"/>
		<polygon class="st0" points="132.66,148.05 85.59,203.7 114.57,203.7 		"/>
		<circle class="st1" cx="132.66" cy="148.05" r="1.71"/>
		<polygon class="st0" points="143.55,203.7 129.06,178.6 114.57,203.7 		"/>
	</g>
	<polygon class="st0" points="462.36,153.5 433.37,153.5 447.86,178.6 	"/>
	<polygon class="st0" points="462.36,153.5 447.86,178.6 476.85,178.6 	"/>
	<circle class="st1" cx="462.36" cy="153.5" r="1.71"/>
	<polygon class="st0" points="418.88,178.6 433.37,203.7 447.86,178.6 	"/>
	<polygon class="st0" points="418.88,178.6 404.39,153.5 389.9,178.6 	"/>
	<polygon class="st0" points="418.88,178.6 447.86,178.6 433.37,153.5 	"/>
	<polygon class="st0" points="418.88,178.6 389.9,178.6 404.39,203.7 	"/>
	<polygon class="st0" points="418.88,178.6 433.37,153.5 404.39,153.5 	"/>
	<polygon class="st0" points="418.88,178.6 404.39,203.7 433.37,203.7 	"/>
	<circle class="st1" cx="418.88" cy="178.6" r="1.71"/>
	<polygon class="st0" points="462.36,203.7 447.86,178.6 433.37,203.7 	"/>
	<polygon class="st0" points="462.36,203.7 491.34,203.7 476.85,178.6 	"/>
	<polygon class="st0" points="462.36,203.7 433.37,203.7 447.86,228.8 	"/>
	<polygon class="st0" points="462.36,203.7 476.85,178.6 447.86,178.6 	"/>
	<circle class="st1" cx="462.36" cy="203.7" r="1.71"/>
	<polygon class="st0" points="375.41,53.1 389.9,78.2 404.39,53.1 	"/>
	<polygon class="st0" points="418.88,228.8 404.39,203.7 389.9,228.8 	"/>
	<polygon class="st0" points="418.88,228.8 447.86,228.8 433.37,203.7 	"/>
	<polygon class="st0" points="375.41,53.1 346.43,53.1 360.92,78.2 	"/>
	<polygon class="st0" points="418.88,228.8 433.37,203.7 404.39,203.7 	"/>
	<polygon class="st0" points="375.41,53.1 360.92,78.2 389.9,78.2 	"/>
	<circle class="st1" cx="418.88" cy="228.8" r="1.71"/>
	<polygon class="st0" points="418.88,78.2 404.39,53.1 389.9,78.2 	"/>
	<polygon class="st0" points="418.88,78.2 389.9,78.2 392.11,103.07 	"/>
	<circle class="st1" cx="418.88" cy="78.2" r="1.71"/>
	<polygon class="st0" points="378.1,87.3 389.9,128.4 392.11,103.07 	"/>
	<polygon class="st0" points="378.1,87.3 360.92,78.2 346.43,103.3 	"/>
	<polygon class="st0" points="378.1,87.3 392.11,103.07 389.9,78.2 	"/>
	<polygon class="st0" points="378.1,87.3 346.43,103.3 380.86,120.82 	"/>
	<polygon class="st0" points="378.1,87.3 389.9,78.2 360.92,78.2 	"/>
	<polygon class="st0" points="378.1,87.3 380.86,120.82 389.9,128.4 	"/>
	<circle class="st1" cx="378.1" cy="87.3" r="1.71"/>
	<polygon class="st0" points="418.88,128.4 392.11,103.07 389.9,128.4 	"/>
	<polygon class="st0" points="418.88,128.4 389.9,128.4 404.39,153.5 	"/>
	<circle class="st1" cx="418.88" cy="128.4" r="1.71"/>
	<polygon class="st0" points="392.11,145.79 380.86,120.82 346.43,153.5 	"/>
	<polygon class="st0" points="392.11,145.79 404.39,153.5 389.9,128.4 	"/>
	<polygon class="st0" points="392.11,145.79 389.9,128.4 380.86,120.82 	"/>
	<polygon class="st0" points="505.83,78.2 469.6,41.64 529.7,0.31 	"/>
	<polygon class="st0" points="505.83,78.2 534.81,78.2 520.32,53.1 	"/>
	<polygon class="st0" points="505.83,78.2 520.32,53.1 469.6,41.64 	"/>
	<circle class="st1" cx="505.83" cy="78.2" r="1.71"/>
	<polygon class="st0" points="549.3,103.3 563.79,128.4 578.28,103.3 	"/>
	<polygon class="st0" points="549.3,103.3 578.28,103.3 547.59,53.1 	"/>
	<polygon class="st0" points="549.3,103.3 547.59,53.1 534.81,78.2 	"/>
	<circle class="st1" cx="549.3" cy="103.3" r="1.71"/>
	<polygon class="st0" points="549.3,153.5 563.79,178.6 578.28,153.5 	"/>
	<polygon class="st0" points="549.3,153.5 578.28,153.5 563.79,128.4 	"/>
	<polygon class="st0" points="549.3,153.5 520.32,153.5 534.81,178.6 	"/>
	<circle class="st1" cx="549.3" cy="153.5" r="1.71"/>
	<polygon class="st0" points="505.83,178.6 520.32,203.7 534.81,178.6 	"/>
	<polygon class="st0" points="505.83,178.6 491.34,153.5 476.85,178.6 	"/>
	<polygon class="st0" points="505.83,178.6 534.81,178.6 520.32,153.5 	"/>
	<polygon class="st0" points="505.83,178.6 476.85,178.6 491.34,203.7 	"/>
	<polygon class="st0" points="505.83,178.6 520.32,153.5 491.34,153.5 	"/>
	<polygon class="st0" points="505.83,178.6 491.34,203.7 520.32,203.7 	"/>
	<circle class="st1" cx="505.83" cy="178.6" r="1.71"/>
	<polygon class="st0" points="505.83,228.8 520.32,203.7 491.34,203.7 	"/>
	<circle class="st1" cx="505.83" cy="228.8" r="1.71"/>
	<polygon class="st0" points="549.3,253.89 563.79,278.99 578.28,253.89 	"/>
	<polygon class="st0" points="549.3,253.89 578.28,253.89 563.79,228.8 	"/>
	<circle class="st1" cx="549.3" cy="253.89" r="1.71"/>
	<polygon class="st0" points="592.78,78.2 607.27,103.3 621.76,78.2 	"/>
	<polygon class="st0" points="592.78,78.2 578.28,53.1 547.59,53.1 	"/>
	<polygon class="st0" points="592.78,78.2 621.76,78.2 607.27,53.1 	"/>
	<polygon class="st0" points="592.78,78.2 547.59,53.1 578.28,103.3 	"/>
	<polygon class="st0" points="592.78,78.2 607.27,53.1 578.28,53.1 	"/>
	<polygon class="st0" points="592.78,78.2 578.28,103.3 607.27,103.3 	"/>
	<circle class="st1" cx="592.78" cy="78.2" r="1.71"/>
	<polygon class="st0" points="636.25,103.3 650.74,128.4 665.23,103.3 	"/>
	<polygon class="st0" points="636.25,103.3 621.76,78.2 607.27,103.3 	"/>
	<polygon class="st0" points="636.25,103.3 665.23,103.3 681.43,97.85 	"/>
	<polygon class="st0" points="636.25,103.3 607.27,103.3 621.76,128.4 	"/>
	<polygon class="st0" points="636.25,103.3 681.43,97.85 621.76,78.2 	"/>
	<polygon class="st0" points="636.25,103.3 621.76,128.4 650.74,128.4 	"/>
	<circle class="st1" cx="636.25" cy="103.3" r="1.71"/>
	<polygon class="st0" points="592.78,128.4 607.27,153.5 621.76,128.4 	"/>
	<polygon class="st0" points="592.78,128.4 578.28,103.3 563.79,128.4 	"/>
	<polygon class="st0" points="592.78,128.4 621.76,128.4 607.27,103.3 	"/>
	<polygon class="st0" points="592.78,128.4 563.79,128.4 578.28,153.5 	"/>
	<polygon class="st0" points="592.78,128.4 607.27,103.3 578.28,103.3 	"/>
	<polygon class="st0" points="592.78,128.4 578.28,153.5 607.27,153.5 	"/>
	<circle class="st1" cx="592.78" cy="128.4" r="1.71"/>
	<polygon class="st0" points="592.78,178.6 607.27,203.7 621.76,178.6 	"/>
	<polygon class="st0" points="592.78,178.6 578.28,153.5 563.79,178.6 	"/>
	<polygon class="st0" points="592.78,178.6 621.76,178.6 607.27,153.5 	"/>
	<polygon class="st0" points="592.78,178.6 563.79,178.6 578.28,203.7 	"/>
	<polygon class="st0" points="592.78,178.6 607.27,153.5 578.28,153.5 	"/>
	<polygon class="st0" points="592.78,178.6 578.28,203.7 607.27,203.7 	"/>
	<circle class="st1" cx="592.77" cy="178.6" r="1.71"/>
	<polygon class="st0" points="592.78,228.8 563.79,228.8 578.28,253.89 	"/>
	<polygon class="st0" points="592.78,228.8 578.28,253.89 607.27,253.89 	"/>
	<circle class="st1" cx="592.77" cy="228.8" r="1.71"/>
	<polygon class="st0" points="679.72,78.2 741.41,31.06 621.76,96.14 	"/>
	<polygon class="st0" points="679.72,78.2 621.76,96.14 665.23,53.1 	"/>
	<polygon class="st0" points="679.72,128.4 650.74,128.4 665.23,153.5 	"/>
</g>
</svg>
