<svg version="1.1" id="Layer_1" xmlns="http://www.w3.org/2000/svg" x="0" y="0" viewBox="0 0 218.64 637.52" style="enable-background:new 0 0 218.64 637.52" xml:space="preserve"><style>.st0{fill:none;stroke:#231f20;stroke-width:.25;stroke-linejoin:round;stroke-miterlimit:10}.st1{fill:#231f20}</style><path id="XMLID_1276_" class="st0" d="m50.78 150.42-7.52-21.58 68.23 42.52z"/><path id="XMLID_1275_" class="st0" d="m50.78 150.42-22.23-20.03 49.47-44.42z"/><path id="XMLID_1274_" class="st0" d="m50.78 150.42 60.71 20.94-23.07-20.09z"/><path id="XMLID_1273_" class="st0" d="m50.78 150.42 27.24-64.45 25.1 14.49z"/><path id="XMLID_1272_" class="st0" d="m50.78 150.42 37.64.85-59.87-20.88z"/><path id="XMLID_1271_" class="st0" d="m50.78 150.42 52.34-49.96-59.86 28.38z"/><path id="XMLID_1270_" class="st0" d="m103.12 158.43 25.11 14.49-25.11 14.49z"/><path id="XMLID_1269_" class="st0" d="m103.12 158.43 8.37 12.93-68.23-42.52z"/><path id="XMLID_1268_" class="st0" d="M103.12 158.43v28.98l-103 38.36z"/><path id="XMLID_1267_" class="st0" d="m103.12 158.43-59.86-29.59 84.97 15.1z"/><path id="XMLID_1266_" class="st0" d="m103.12 158.43-103 67.34 111.37-54.41z"/><path id="XMLID_1265_" class="st0" d="m103.12 158.43 25.11-14.49v28.98z"/><circle id="XMLID_1264_" class="st1" cx="103.12" cy="158.43" r="1.71"/><path id="XMLID_1263_" class="st0" d="m97.67 147.54 55.66-18.09-25.1 14.49z"/><path id="XMLID_1262_" class="st0" d="m97.67 147.54 5.45-47.08L126.4.12z"/><path id="XMLID_1261_" class="st0" d="m97.67 147.54 30.56-3.6-84.97-15.1z"/><path id="XMLID_1260_" class="st0" d="M97.67 147.54 126.4.12l26.93 100.34z"/><path id="XMLID_1259_" class="st0" d="m97.67 147.54-54.41-18.7 59.86-28.38z"/><path id="XMLID_1258_" class="st0" d="m97.67 147.54 55.66-47.08v28.99z"/><circle id="XMLID_1257_" class="st1" cx="97.67" cy="147.54" r="1.71"/><circle id="XMLID_1256_" class="st1" cx="50.78" cy="150.42" r="1.71"/><path id="XMLID_1254_" class="st0" d="m190.51 158.43-62.28-14.49 25.1-14.49z"/><path id="XMLID_1253_" class="st0" d="m190.51 158.43-37.18 28.98-25.1-14.49z"/><path id="XMLID_1251_" class="st0" d="m190.51 158.43-62.28 14.49v-28.98z"/><path id="XMLID_1094_" class="st0" d="m78.02 201.9 25.1 14.49-25.1 14.49z"/><path id="XMLID_1093_" class="st0" d="m78.02 201.9-36.55-36.23-41.35 60.1z"/><path id="XMLID_1092_" class="st0" d="M78.02 201.9v28.98l-25.1-14.49z"/><path id="XMLID_1091_" class="st0" d="M78.02 201.9.12 225.77l103-38.36z"/><path id="XMLID_1090_" class="st0" d="m78.02 201.9-25.1 14.49-11.45-50.72z"/><path id="XMLID_1089_" class="st0" d="m78.02 201.9 25.1-14.49v28.98z"/><circle id="XMLID_1088_" class="st1" cx="78.02" cy="201.9" r="1.71"/><path id="XMLID_1087_" class="st0" d="m103.12 245.37 25.11 14.5-25.11 14.49z"/><path id="XMLID_1086_" class="st0" d="m103.12 245.37-25.1-14.49 25.1-14.49z"/><path id="XMLID_1085_" class="st0" d="M103.12 245.37v28.99l-50.2-30.7z"/><path id="XMLID_1084_" class="st0" d="M103.12 245.37v-28.98l25.11 14.49z"/><path id="XMLID_1083_" class="st0" d="m103.12 245.37-50.2-1.71 25.1-12.78z"/><path id="XMLID_1082_" class="st0" d="m103.12 245.37 25.11-14.49v28.99z"/><circle id="XMLID_1081_" class="st1" cx="103.12" cy="245.37" r="1.71"/><path id="XMLID_1080_" class="st0" d="m128.23 201.9 90.28 14.49-90.28 14.49z"/><path id="XMLID_1079_" class="st0" d="m128.23 201.9-25.11-14.49 25.11-14.49z"/><path id="XMLID_1078_" class="st0" d="M128.23 201.9v28.98l-25.11-14.49z"/><path id="XMLID_1077_" class="st0" d="M128.23 201.9v-28.98l25.1 14.49z"/><path id="XMLID_1076_" class="st0" d="m128.23 201.9-25.11 14.49v-28.98z"/><path id="XMLID_1075_" class="st0" d="m128.23 201.9 25.1-14.49 65.18 28.98z"/><circle id="XMLID_1074_" class="st1" cx="128.23" cy="201.9" r="1.71"/><path id="XMLID_1072_" class="st0" d="m173.51 245.37-45.28-14.49 90.28-14.49z"/><path id="XMLID_1071_" class="st0" d="m173.51 245.37-20.18 28.99-25.1-14.49z"/><path id="XMLID_1069_" class="st0" d="m173.51 245.37-45.28 14.5v-28.99z"/><path id="XMLID_912_" class="st0" d="m78.02 288.85 25.1 14.49-25.1 14.49z"/><path id="XMLID_911_" class="st0" d="m78.02 288.85-25.1-14.49v-30.7z"/><path id="XMLID_910_" class="st0" d="M78.02 288.85v28.98l-25.1-14.49z"/><path id="XMLID_909_" class="st0" d="m78.02 288.85-25.1-45.19 50.2 30.7z"/><path id="XMLID_908_" class="st0" d="m78.02 288.85-25.1 14.49v-28.98z"/><path id="XMLID_907_" class="st0" d="m78.02 288.85 25.1-14.49v28.98z"/><circle id="XMLID_906_" class="st1" cx="78.02" cy="288.85" r="1.71"/><path id="XMLID_905_" class="st0" d="m103.12 332.32 25.11 14.49-25.11 14.49z"/><path id="XMLID_904_" class="st0" d="m103.12 332.32-25.1-14.49 25.1-14.49z"/><path id="XMLID_903_" class="st0" d="M103.12 332.32v28.98l-5.45 16.21z"/><path id="XMLID_902_" class="st0" d="M103.12 332.32v-28.98l25.11 14.49z"/><path id="XMLID_901_" class="st0" d="m103.12 332.32-5.45 45.19-19.65-59.68z"/><path id="XMLID_900_" class="st0" d="m103.12 332.32 25.11-14.49v28.98z"/><circle id="XMLID_899_" class="st1" cx="103.12" cy="332.32" r="1.71"/><path id="XMLID_898_" class="st0" d="m128.23 288.85 25.1 14.49-25.1 14.49z"/><path id="XMLID_897_" class="st0" d="m128.23 288.85-25.11-14.49 25.11-14.49z"/><path id="XMLID_896_" class="st0" d="M128.23 288.85v28.98l-25.11-14.49z"/><path id="XMLID_895_" class="st0" d="M128.23 288.85v-28.98l25.1 14.49z"/><path id="XMLID_894_" class="st0" d="m128.23 288.85-25.11 14.49v-28.98z"/><path id="XMLID_893_" class="st0" d="m128.23 288.85 25.1-14.49v28.98z"/><circle id="XMLID_892_" class="st1" cx="128.23" cy="288.85" r="1.71"/><path id="XMLID_890_" class="st0" d="m153.33 332.32-25.1-14.49 88.28-3.98z"/><path id="XMLID_889_" class="st0" d="m153.33 332.32 36.18 102.53-61.28-88.04z"/><path id="XMLID_887_" class="st0" d="m153.33 332.32-25.1 14.49v-28.98z"/><path id="XMLID_730_" class="st0" d="m78.02 375.79 25.1 14.5-72.24 47.19z"/><path id="XMLID_729_" class="st0" d="m78.02 375.79-25.1-14.49 44.75 16.21z"/><path id="XMLID_728_" class="st0" d="m78.02 375.79-47.14 61.69 65.08-119.65z"/><path id="XMLID_727_" class="st0" d="m78.02 375.79 19.65 1.72 5.45-16.21z"/><path id="XMLID_726_" class="st0" d="m78.02 375.79 17.94-57.96-43.04 43.47z"/><path id="XMLID_725_" class="st0" d="m78.02 375.79 25.1-14.49v28.99z"/><circle id="XMLID_724_" class="st1" cx="78.02" cy="375.79" r="1.71"/><path id="XMLID_723_" class="st0" d="m103.12 419.27 25.11 14.49-25.11 14.48z"/><path id="XMLID_722_" class="st0" d="m103.12 419.27-72.24 18.21 72.24-47.19z"/><path id="XMLID_721_" class="st0" d="M103.12 419.27v28.97l-25.1-14.48z"/><path id="XMLID_720_" class="st0" d="M103.12 419.27v-28.98l25.11 14.49z"/><path id="XMLID_719_" class="st0" d="m103.12 419.27-25.1 14.49-47.14 3.72z"/><path id="XMLID_718_" class="st0" d="m103.12 419.27 25.11-14.49v28.98z"/><circle id="XMLID_717_" class="st1" cx="103.12" cy="419.27" r="1.71"/><path id="XMLID_716_" class="st0" d="m128.23 375.79 25.1 14.5-25.1 14.49z"/><path id="XMLID_715_" class="st0" d="m128.23 375.79-25.11-14.49 25.11-14.49z"/><path id="XMLID_714_" class="st0" d="M128.23 375.79v28.99l-25.11-14.49z"/><path id="XMLID_713_" class="st0" d="M128.23 375.79v-28.98l61.28 88.04z"/><path id="XMLID_712_" class="st0" d="m128.23 375.79-25.11 14.5V361.3z"/><path id="XMLID_711_" class="st0" d="m128.23 375.79 61.28 59.06 13-75z"/><circle id="XMLID_710_" class="st1" cx="128.23" cy="375.79" r="1.71"/><path id="XMLID_708_" class="st0" d="m153.33 419.27-25.1-14.49 25.1-14.49z"/><path id="XMLID_707_" class="st0" d="M153.33 419.27v28.97l-25.1-14.48z"/><path id="XMLID_705_" class="st0" d="m153.33 419.27-25.1 14.49v-28.98z"/><path id="XMLID_548_" class="st0" d="m78.02 462.74 25.1 14.49-64.04 54.37z"/><path id="XMLID_547_" class="st0" d="m78.02 462.74-25.1-14.5 25.1-14.48z"/><path id="XMLID_546_" class="st0" d="M78.02 462.74 39.08 531.6l13.84-54.37z"/><path id="XMLID_545_" class="st0" d="M78.02 462.74v-28.98l25.1 14.48z"/><path id="XMLID_544_" class="st0" d="m78.02 462.74-25.1 14.49v-28.99z"/><path id="XMLID_543_" class="st0" d="m78.02 462.74 25.1-14.5v28.99z"/><circle id="XMLID_542_" class="st1" cx="78.02" cy="462.74" r="1.71"/><path id="XMLID_541_" class="st0" d="m139.92 472.4-64.5 64.71-13.41-48.31z"/><path id="XMLID_540_" class="st0" d="M139.92 472.4 39.08 531.6l64.04-54.37z"/><path id="XMLID_539_" class="st0" d="M139.92 472.4h-25.11l-36.79 48.31z"/><path id="XMLID_538_" class="st0" d="m139.92 472.4-36.8 4.83 25.11 14.49z"/><path id="XMLID_537_" class="st0" d="m139.92 472.4-61.9 48.31-38.94 10.89z"/><path id="XMLID_536_" class="st0" d="m139.92 472.4-11.69 19.32v28.99z"/><circle id="XMLID_535_" class="st1" cx="139.92" cy="472.4" r="1.71"/><path id="XMLID_534_" class="st0" d="m128.23 462.74 25.1 14.49-25.1 14.49z"/><path id="XMLID_533_" class="st0" d="m128.23 462.74-25.11-14.5 25.11-14.48z"/><path id="XMLID_532_" class="st0" d="M128.23 462.74v28.98l-25.11-14.49z"/><path id="XMLID_531_" class="st0" d="M128.23 462.74v-28.98l25.1 14.48z"/><path id="XMLID_530_" class="st0" d="m128.23 462.74-25.11 14.49v-28.99z"/><path id="XMLID_529_" class="st0" d="m128.23 462.74 25.1-14.5v28.99z"/><circle id="XMLID_528_" class="st1" cx="128.23" cy="462.74" r="1.71"/><path id="XMLID_526_" class="st0" d="m153.33 506.21-25.1-14.49 25.1-14.49z"/><path id="XMLID_525_" class="st0" d="m198.51 546.84-45.18 29.27-25.1-55.4z"/><path id="XMLID_523_" class="st0" d="m218.51 491.85-90.28 28.86v-28.99z"/><path id="XMLID_365_" class="st0" d="m62.88 542.8-51 11.11 66.14-33.2z"/><path id="XMLID_363_" class="st0" d="m62.88 542.8 15.14-22.09 36.79-48.31z"/><circle id="XMLID_360_" class="st1" cx="62.88" cy="542.8" r="1.71"/><path id="XMLID_351_" class="st0" d="m153.33 635.8-91.32-147 13.41 48.31z"/><path id="XMLID_349_" class="st0" d="m153.33 635.8-25.1-115.09 25.1 55.4z"/><path id="XMLID_346_" class="st1" d="M153.33 637.52c.94 0 0-.77 0-1.71s.94-1.71 0-1.71 0 .77 0 1.71-.95 1.71 0 1.71z"/></svg>