<svg xmlns="http://www.w3.org/2000/svg" viewBox="0 0 637.52 153.74" style="enable-background:new 0 0 637.52 153.74" xml:space="preserve"><style>.st0{fill:none;stroke:#fff;stroke-width:.25;stroke-linejoin:round;stroke-miterlimit:10}.st1{fill:#fff}</style><g id="Tringular"><path id="XMLID_1276_" class="st0" d="m487.1 50.78 21.58-7.53-42.52 68.23z"/><path id="XMLID_1275_" class="st0" d="m487.1 50.78 20.03-22.23 44.42 49.47z"/><path id="XMLID_1274_" class="st0" d="m487.1 50.78-20.94 60.7 20.09-23.07z"/><path id="XMLID_1273_" class="st0" d="m487.1 50.78 64.45 27.24-14.49 25.1z"/><path id="XMLID_1272_" class="st0" d="m487.1 50.78-.85 37.63 20.88-59.86z"/><path id="XMLID_1271_" class="st0" d="m487.1 50.78 49.96 52.34-28.38-59.87z"/><path id="XMLID_1270_" class="st0" d="m479.09 103.12-14.49 25.1-14.49-25.1z"/><path id="XMLID_1269_" class="st0" d="m479.09 103.12-12.93 8.36 42.52-68.23z"/><path id="XMLID_1268_" class="st0" d="M479.09 103.12h-28.98L411.75.12z"/><path id="XMLID_1267_" class="st0" d="m479.09 103.12 29.59-59.87-15.1 84.97z"/><path id="XMLID_1266_" class="st0" d="M479.09 103.12 411.75.12l54.41 111.36z"/><path id="XMLID_1265_" class="st0" d="m479.09 103.12 14.49 25.1H464.6z"/><circle id="XMLID_1264_" class="st1" cx="479.09" cy="103.12" r="1.71"/><path id="XMLID_1263_" class="st0" d="m489.98 97.67 18.09 55.65-14.49-25.1z"/><path id="XMLID_1262_" class="st0" d="m489.98 97.67 47.08 5.45 100.33 23.28z"/><path id="XMLID_1261_" class="st0" d="m489.98 97.67 3.6 30.55 15.1-84.97z"/><path id="XMLID_1260_" class="st0" d="m489.98 97.67 147.41 28.73-100.33 26.92z"/><path id="XMLID_1259_" class="st0" d="m489.98 97.67 18.7-54.42 28.38 59.87z"/><path id="XMLID_1258_" class="st0" d="m489.98 97.67 47.08 55.65h-28.99z"/><circle id="XMLID_1257_" class="st1" cx="489.98" cy="97.67" r="1.71"/><circle id="XMLID_1256_" class="st1" cx="487.1" cy="50.78" r="1.71"/><path id="XMLID_1254_" class="st0" d="m479.09 153.32 14.49-25.1 14.49 25.1z"/><path id="XMLID_1253_" class="st0" d="M479.09 153.32h-28.98l14.49-25.1z"/><path id="XMLID_1251_" class="st0" d="m479.09 153.32-14.49-25.1h28.98z"/><path id="XMLID_1094_" class="st0" d="m435.62 78.02-14.49 25.1-14.49-25.1z"/><path id="XMLID_1093_" class="st0" d="m435.62 78.02 36.23-36.56L411.75.12z"/><path id="XMLID_1092_" class="st0" d="M435.62 78.02h-28.98l14.49-25.1z"/><path id="XMLID_1091_" class="st0" d="M435.62 78.02 411.75.12l38.36 103z"/><path id="XMLID_1090_" class="st0" d="m435.62 78.02-14.49-25.1 50.72-11.46z"/><path id="XMLID_1089_" class="st0" d="m435.62 78.02 14.49 25.1h-28.98z"/><circle id="XMLID_1088_" class="st1" cx="435.62" cy="78.02" r="1.71"/><path id="XMLID_1087_" class="st0" d="m392.15 103.12-14.5 25.1-14.49-25.1z"/><path id="XMLID_1086_" class="st0" d="m392.15 103.12 14.49-25.1 14.49 25.1z"/><path id="XMLID_1085_" class="st0" d="M392.15 103.12h-28.99l30.7-50.2z"/><path id="XMLID_1084_" class="st0" d="M392.15 103.12h28.98l-14.49 25.1z"/><path id="XMLID_1083_" class="st0" d="m392.15 103.12 1.71-50.2 12.78 25.1z"/><path id="XMLID_1082_" class="st0" d="m392.15 103.12 14.49 25.1h-28.99z"/><circle id="XMLID_1081_" class="st1" cx="392.15" cy="103.12" r="1.71"/><path id="XMLID_1080_" class="st0" d="m435.62 128.22-14.49 25.1-14.49-25.1z"/><path id="XMLID_1079_" class="st0" d="m435.62 128.22 14.49-25.1 14.49 25.1z"/><path id="XMLID_1078_" class="st0" d="M435.62 128.22h-28.98l14.49-25.1z"/><path id="XMLID_1077_" class="st0" d="M435.62 128.22h28.98l-14.49 25.1z"/><path id="XMLID_1076_" class="st0" d="m435.62 128.22-14.49-25.1h28.98z"/><path id="XMLID_1075_" class="st0" d="m435.62 128.22 14.49 25.1h-28.98z"/><circle id="XMLID_1074_" class="st1" cx="435.62" cy="128.22" r="1.71"/><path id="XMLID_1072_" class="st0" d="m392.15 153.32 14.49-25.1 14.49 25.1z"/><path id="XMLID_1071_" class="st0" d="M392.15 153.32h-28.99l14.49-25.1z"/><path id="XMLID_1069_" class="st0" d="m392.15 153.32-14.5-25.1h28.99z"/><path id="XMLID_912_" class="st0" d="m348.67 78.02-14.49 25.1-14.49-25.1z"/><path id="XMLID_911_" class="st0" d="m348.67 78.02 14.49-25.1h30.7z"/><path id="XMLID_910_" class="st0" d="M348.67 78.02h-28.98l14.49-25.1z"/><path id="XMLID_909_" class="st0" d="m348.67 78.02 45.19-25.1-30.7 50.2z"/><path id="XMLID_908_" class="st0" d="m348.67 78.02-14.49-25.1h28.98z"/><path id="XMLID_907_" class="st0" d="m348.67 78.02 14.49 25.1h-28.98z"/><circle id="XMLID_906_" class="st1" cx="348.67" cy="78.02" r="1.71"/><path id="XMLID_905_" class="st0" d="m305.2 103.12-14.49 25.1-14.49-25.1z"/><path id="XMLID_904_" class="st0" d="m305.2 103.12 14.49-25.1 14.49 25.1z"/><path id="XMLID_903_" class="st0" d="M305.2 103.12h-28.98l-16.21-5.45z"/><path id="XMLID_902_" class="st0" d="M305.2 103.12h28.98l-14.49 25.1z"/><path id="XMLID_901_" class="st0" d="m305.2 103.12-45.19-5.45 59.68-19.65z"/><path id="XMLID_900_" class="st0" d="m305.2 103.12 14.49 25.1h-28.98z"/><circle id="XMLID_899_" class="st1" cx="305.2" cy="103.12" r="1.71"/><path id="XMLID_898_" class="st0" d="m348.67 128.22-14.49 25.1-14.49-25.1z"/><path id="XMLID_897_" class="st0" d="m348.67 128.22 14.49-25.1 14.49 25.1z"/><path id="XMLID_896_" class="st0" d="M348.67 128.22h-28.98l14.49-25.1z"/><path id="XMLID_895_" class="st0" d="M348.67 128.22h28.98l-14.49 25.1z"/><path id="XMLID_894_" class="st0" d="m348.67 128.22-14.49-25.1h28.98z"/><path id="XMLID_893_" class="st0" d="m348.67 128.22 14.49 25.1h-28.98z"/><circle id="XMLID_892_" class="st1" cx="348.67" cy="128.22" r="1.71"/><path id="XMLID_890_" class="st0" d="m305.2 153.32 14.49-25.1 14.49 25.1z"/><path id="XMLID_889_" class="st0" d="M305.2 153.32h-28.98l14.49-25.1z"/><path id="XMLID_887_" class="st0" d="m305.2 153.32-14.49-25.1h28.98z"/><path id="XMLID_730_" class="st0" d="m261.73 78.02-14.5 25.1-47.19-72.24z"/><path id="XMLID_729_" class="st0" d="m261.73 78.02 14.49-25.1-16.21 44.75z"/><path id="XMLID_728_" class="st0" d="m261.73 78.02-61.69-47.14 119.65 65.08z"/><path id="XMLID_727_" class="st0" d="m261.73 78.02-1.72 19.65 16.21 5.45z"/><path id="XMLID_726_" class="st0" d="m261.73 78.02 57.96 17.94-43.47-43.04z"/><path id="XMLID_725_" class="st0" d="m261.73 78.02 14.49 25.1h-28.99z"/><circle id="XMLID_724_" class="st1" cx="261.73" cy="78.02" r="1.71"/><path id="XMLID_723_" class="st0" d="m218.25 103.12-14.49 25.1-14.49-25.1z"/><path id="XMLID_722_" class="st0" d="m218.25 103.12-18.21-72.24 47.19 72.24z"/><path id="XMLID_721_" class="st0" d="M218.25 103.12h-28.98l14.49-25.1z"/><path id="XMLID_720_" class="st0" d="M218.25 103.12h28.98l-14.49 25.1z"/><path id="XMLID_719_" class="st0" d="m218.25 103.12-14.49-25.1-3.72-47.14z"/><path id="XMLID_718_" class="st0" d="m218.25 103.12 14.49 25.1h-28.98z"/><circle id="XMLID_717_" class="st1" cx="218.25" cy="103.12" r="1.71"/><path id="XMLID_716_" class="st0" d="m261.73 128.22-14.5 25.1-14.49-25.1z"/><path id="XMLID_715_" class="st0" d="m261.73 128.22 14.49-25.1 14.49 25.1z"/><path id="XMLID_714_" class="st0" d="M261.73 128.22h-28.99l14.49-25.1z"/><path id="XMLID_713_" class="st0" d="M261.73 128.22h28.98l-14.49 25.1z"/><path id="XMLID_712_" class="st0" d="m261.73 128.22-14.5-25.1h28.99z"/><path id="XMLID_711_" class="st0" d="m261.73 128.22 14.49 25.1h-28.99z"/><circle id="XMLID_710_" class="st1" cx="261.73" cy="128.22" r="1.71"/><path id="XMLID_708_" class="st0" d="m218.25 153.32 14.49-25.1 14.49 25.1z"/><path id="XMLID_707_" class="st0" d="M218.25 153.32h-28.98l14.49-25.1z"/><path id="XMLID_705_" class="st0" d="m218.25 153.32-14.49-25.1h28.98z"/><path id="XMLID_548_" class="st0" d="m174.78 78.02-14.49 25.1-54.38-64.05z"/><path id="XMLID_547_" class="st0" d="m174.78 78.02 14.49-25.1 14.49 25.1z"/><path id="XMLID_546_" class="st0" d="m174.78 78.02-68.87-38.95 54.38 13.85z"/><path id="XMLID_545_" class="st0" d="M174.78 78.02h28.98l-14.49 25.1z"/><path id="XMLID_544_" class="st0" d="m174.78 78.02-14.49-25.1h28.98z"/><path id="XMLID_543_" class="st0" d="m174.78 78.02 14.49 25.1h-28.98z"/><circle id="XMLID_542_" class="st1" cx="174.78" cy="78.02" r="1.71"/><path id="XMLID_541_" class="st0" d="m165.12 139.91-64.72-64.5 48.31-13.4z"/><path id="XMLID_540_" class="st0" d="M165.12 139.91 105.91 39.07l54.38 64.05z"/><path id="XMLID_539_" class="st0" d="M165.12 139.91v-25.1l-48.31-36.79z"/><path id="XMLID_538_" class="st0" d="m165.12 139.91-4.83-36.79-14.49 25.1z"/><path id="XMLID_537_" class="st0" d="m165.12 139.91-48.31-61.89-10.9-38.95z"/><path id="XMLID_536_" class="st0" d="m165.12 139.91-19.32-11.69h-28.99z"/><circle id="XMLID_535_" class="st1" cx="165.12" cy="139.91" r="1.71"/><path id="XMLID_534_" class="st0" d="m174.78 128.22-14.49 25.1-14.49-25.1z"/><path id="XMLID_533_" class="st0" d="m174.78 128.22 14.49-25.1 14.49 25.1z"/><path id="XMLID_532_" class="st0" d="M174.78 128.22H145.8l14.49-25.1z"/><path id="XMLID_531_" class="st0" d="M174.78 128.22h28.98l-14.49 25.1z"/><path id="XMLID_530_" class="st0" d="m174.78 128.22-14.49-25.1h28.98z"/><path id="XMLID_529_" class="st0" d="m174.78 128.22 14.49 25.1h-28.98z"/><circle id="XMLID_528_" class="st1" cx="174.78" cy="128.22" r="1.71"/><path id="XMLID_526_" class="st0" d="m131.31 153.32 14.49-25.1 14.49 25.1z"/><path id="XMLID_525_" class="st0" d="M131.31 153.32H61.4l55.41-25.1z"/><path id="XMLID_523_" class="st0" d="m131.31 153.32-14.5-25.1h28.99z"/><path id="XMLID_365_" class="st0" d="m94.71 62.87-11.1-51 33.2 66.15z"/><path id="XMLID_363_" class="st0" d="m94.71 62.87 22.1 15.15 48.31 36.79z"/><circle id="XMLID_360_" class="st1" cx="94.71" cy="62.87" r="1.71"/><path id="XMLID_351_" class="st0" d="m1.71 153.32 147-91.31-48.31 13.4z"/><path id="XMLID_349_" class="st0" d="m1.71 153.32 115.1-25.1-55.41 25.1z"/><path id="XMLID_346_" class="st1" d="M0 153.32c0 .94.77 0 1.71 0s1.71.94 1.71 0-.77 0-1.71 0-1.71-.95-1.71 0z"/></g></svg>