<?xml version="1.0" encoding="utf-8"?>
<!-- Generator: Adobe Illustrator 25.0.1, SVG Export Plug-In . SVG Version: 6.00 Build 0)  -->
<svg version="1.1" xmlns="http://www.w3.org/2000/svg" xmlns:xlink="http://www.w3.org/1999/xlink" x="0px" y="0px"
	 viewBox="0 0 637.52 153.74" style="enable-background:new 0 0 637.52 153.74;" xml:space="preserve">
<style type="text/css">
	.st0{fill:none;stroke:#FFFFFF;stroke-width:0.25;stroke-linejoin:round;stroke-miterlimit:10;}
	.st1{fill:#FFFFFF;}
</style>
<g id="Tringular">
	<g>
		<polygon id="XMLID_1276_" class="st0" points="487.1,50.78 508.68,43.25 466.16,111.48 		"/>
		<polygon id="XMLID_1275_" class="st0" points="487.1,50.78 507.13,28.55 551.55,78.02 		"/>
		<polygon id="XMLID_1274_" class="st0" points="487.1,50.78 466.16,111.48 486.25,88.41 		"/>
		<polygon id="XMLID_1273_" class="st0" points="487.1,50.78 551.55,78.02 537.06,103.12 		"/>
		<polygon id="XMLID_1272_" class="st0" points="487.1,50.78 486.25,88.41 507.13,28.55 		"/>
		<polygon id="XMLID_1271_" class="st0" points="487.1,50.78 537.06,103.12 508.68,43.25 		"/>
		<polygon id="XMLID_1270_" class="st0" points="479.09,103.12 464.6,128.22 450.11,103.12 		"/>
		<polygon id="XMLID_1269_" class="st0" points="479.09,103.12 466.16,111.48 508.68,43.25 		"/>
		<polygon id="XMLID_1268_" class="st0" points="479.09,103.12 450.11,103.12 411.75,0.12 		"/>
		<polygon id="XMLID_1267_" class="st0" points="479.09,103.12 508.68,43.25 493.58,128.22 		"/>
		<polygon id="XMLID_1266_" class="st0" points="479.09,103.12 411.75,0.12 466.16,111.48 		"/>
		<polygon id="XMLID_1265_" class="st0" points="479.09,103.12 493.58,128.22 464.6,128.22 		"/>
		<circle id="XMLID_1264_" class="st1" cx="479.09" cy="103.12" r="1.71"/>
		<polygon id="XMLID_1263_" class="st0" points="489.98,97.67 508.07,153.32 493.58,128.22 		"/>
		<polygon id="XMLID_1262_" class="st0" points="489.98,97.67 537.06,103.12 637.39,126.4 		"/>
		<polygon id="XMLID_1261_" class="st0" points="489.98,97.67 493.58,128.22 508.68,43.25 		"/>
		<polygon id="XMLID_1260_" class="st0" points="489.98,97.67 637.39,126.4 537.06,153.32 		"/>
		<polygon id="XMLID_1259_" class="st0" points="489.98,97.67 508.68,43.25 537.06,103.12 		"/>
		<polygon id="XMLID_1258_" class="st0" points="489.98,97.67 537.06,153.32 508.07,153.32 		"/>
		<circle id="XMLID_1257_" class="st1" cx="489.98" cy="97.67" r="1.71"/>
		<circle id="XMLID_1256_" class="st1" cx="487.1" cy="50.78" r="1.71"/>
		<polygon id="XMLID_1254_" class="st0" points="479.09,153.32 493.58,128.22 508.07,153.32 		"/>
		<polygon id="XMLID_1253_" class="st0" points="479.09,153.32 450.11,153.32 464.6,128.22 		"/>
		<polygon id="XMLID_1251_" class="st0" points="479.09,153.32 464.6,128.22 493.58,128.22 		"/>
		<polygon id="XMLID_1094_" class="st0" points="435.62,78.02 421.13,103.12 406.64,78.02 		"/>
		<polygon id="XMLID_1093_" class="st0" points="435.62,78.02 471.85,41.46 411.75,0.12 		"/>
		<polygon id="XMLID_1092_" class="st0" points="435.62,78.02 406.64,78.02 421.13,52.92 		"/>
		<polygon id="XMLID_1091_" class="st0" points="435.62,78.02 411.75,0.12 450.11,103.12 		"/>
		<polygon id="XMLID_1090_" class="st0" points="435.62,78.02 421.13,52.92 471.85,41.46 		"/>
		<polygon id="XMLID_1089_" class="st0" points="435.62,78.02 450.11,103.12 421.13,103.12 		"/>
		<circle id="XMLID_1088_" class="st1" cx="435.62" cy="78.02" r="1.71"/>
		<polygon id="XMLID_1087_" class="st0" points="392.15,103.12 377.65,128.22 363.16,103.12 		"/>
		<polygon id="XMLID_1086_" class="st0" points="392.15,103.12 406.64,78.02 421.13,103.12 		"/>
		<polygon id="XMLID_1085_" class="st0" points="392.15,103.12 363.16,103.12 393.86,52.92 		"/>
		<polygon id="XMLID_1084_" class="st0" points="392.15,103.12 421.13,103.12 406.64,128.22 		"/>
		<polygon id="XMLID_1083_" class="st0" points="392.15,103.12 393.86,52.92 406.64,78.02 		"/>
		<polygon id="XMLID_1082_" class="st0" points="392.15,103.12 406.64,128.22 377.65,128.22 		"/>
		<circle id="XMLID_1081_" class="st1" cx="392.15" cy="103.12" r="1.71"/>
		<polygon id="XMLID_1080_" class="st0" points="435.62,128.22 421.13,153.32 406.64,128.22 		"/>
		<polygon id="XMLID_1079_" class="st0" points="435.62,128.22 450.11,103.12 464.6,128.22 		"/>
		<polygon id="XMLID_1078_" class="st0" points="435.62,128.22 406.64,128.22 421.13,103.12 		"/>
		<polygon id="XMLID_1077_" class="st0" points="435.62,128.22 464.6,128.22 450.11,153.32 		"/>
		<polygon id="XMLID_1076_" class="st0" points="435.62,128.22 421.13,103.12 450.11,103.12 		"/>
		<polygon id="XMLID_1075_" class="st0" points="435.62,128.22 450.11,153.32 421.13,153.32 		"/>
		<circle id="XMLID_1074_" class="st1" cx="435.62" cy="128.22" r="1.71"/>
		<polygon id="XMLID_1072_" class="st0" points="392.15,153.32 406.64,128.22 421.13,153.32 		"/>
		<polygon id="XMLID_1071_" class="st0" points="392.15,153.32 363.16,153.32 377.65,128.22 		"/>
		<polygon id="XMLID_1069_" class="st0" points="392.15,153.32 377.65,128.22 406.64,128.22 		"/>
		<polygon id="XMLID_912_" class="st0" points="348.67,78.02 334.18,103.12 319.69,78.02 		"/>
		<polygon id="XMLID_911_" class="st0" points="348.67,78.02 363.16,52.92 393.86,52.92 		"/>
		<polygon id="XMLID_910_" class="st0" points="348.67,78.02 319.69,78.02 334.18,52.92 		"/>
		<polygon id="XMLID_909_" class="st0" points="348.67,78.02 393.86,52.92 363.16,103.12 		"/>
		<polygon id="XMLID_908_" class="st0" points="348.67,78.02 334.18,52.92 363.16,52.92 		"/>
		<polygon id="XMLID_907_" class="st0" points="348.67,78.02 363.16,103.12 334.18,103.12 		"/>
		<circle id="XMLID_906_" class="st1" cx="348.67" cy="78.02" r="1.71"/>
		<polygon id="XMLID_905_" class="st0" points="305.2,103.12 290.71,128.22 276.22,103.12 		"/>
		<polygon id="XMLID_904_" class="st0" points="305.2,103.12 319.69,78.02 334.18,103.12 		"/>
		<polygon id="XMLID_903_" class="st0" points="305.2,103.12 276.22,103.12 260.01,97.67 		"/>
		<polygon id="XMLID_902_" class="st0" points="305.2,103.12 334.18,103.12 319.69,128.22 		"/>
		<polygon id="XMLID_901_" class="st0" points="305.2,103.12 260.01,97.67 319.69,78.02 		"/>
		<polygon id="XMLID_900_" class="st0" points="305.2,103.12 319.69,128.22 290.71,128.22 		"/>
		<circle id="XMLID_899_" class="st1" cx="305.2" cy="103.12" r="1.71"/>
		<polygon id="XMLID_898_" class="st0" points="348.67,128.22 334.18,153.32 319.69,128.22 		"/>
		<polygon id="XMLID_897_" class="st0" points="348.67,128.22 363.16,103.12 377.65,128.22 		"/>
		<polygon id="XMLID_896_" class="st0" points="348.67,128.22 319.69,128.22 334.18,103.12 		"/>
		<polygon id="XMLID_895_" class="st0" points="348.67,128.22 377.65,128.22 363.16,153.32 		"/>
		<polygon id="XMLID_894_" class="st0" points="348.67,128.22 334.18,103.12 363.16,103.12 		"/>
		<polygon id="XMLID_893_" class="st0" points="348.67,128.22 363.16,153.32 334.18,153.32 		"/>
		<circle id="XMLID_892_" class="st1" cx="348.67" cy="128.22" r="1.71"/>
		<polygon id="XMLID_890_" class="st0" points="305.2,153.32 319.69,128.22 334.18,153.32 		"/>
		<polygon id="XMLID_889_" class="st0" points="305.2,153.32 276.22,153.32 290.71,128.22 		"/>
		<polygon id="XMLID_887_" class="st0" points="305.2,153.32 290.71,128.22 319.69,128.22 		"/>
		<polygon id="XMLID_730_" class="st0" points="261.73,78.02 247.23,103.12 200.04,30.88 		"/>
		<polygon id="XMLID_729_" class="st0" points="261.73,78.02 276.22,52.92 260.01,97.67 		"/>
		<polygon id="XMLID_728_" class="st0" points="261.73,78.02 200.04,30.88 319.69,95.96 		"/>
		<polygon id="XMLID_727_" class="st0" points="261.73,78.02 260.01,97.67 276.22,103.12 		"/>
		<polygon id="XMLID_726_" class="st0" points="261.73,78.02 319.69,95.96 276.22,52.92 		"/>
		<polygon id="XMLID_725_" class="st0" points="261.73,78.02 276.22,103.12 247.23,103.12 		"/>
		<circle id="XMLID_724_" class="st1" cx="261.73" cy="78.02" r="1.71"/>
		<polygon id="XMLID_723_" class="st0" points="218.25,103.12 203.76,128.22 189.27,103.12 		"/>
		<polygon id="XMLID_722_" class="st0" points="218.25,103.12 200.04,30.88 247.23,103.12 		"/>
		<polygon id="XMLID_721_" class="st0" points="218.25,103.12 189.27,103.12 203.76,78.02 		"/>
		<polygon id="XMLID_720_" class="st0" points="218.25,103.12 247.23,103.12 232.74,128.22 		"/>
		<polygon id="XMLID_719_" class="st0" points="218.25,103.12 203.76,78.02 200.04,30.88 		"/>
		<polygon id="XMLID_718_" class="st0" points="218.25,103.12 232.74,128.22 203.76,128.22 		"/>
		<circle id="XMLID_717_" class="st1" cx="218.25" cy="103.12" r="1.71"/>
		<polygon id="XMLID_716_" class="st0" points="261.73,128.22 247.23,153.32 232.74,128.22 		"/>
		<polygon id="XMLID_715_" class="st0" points="261.73,128.22 276.22,103.12 290.71,128.22 		"/>
		<polygon id="XMLID_714_" class="st0" points="261.73,128.22 232.74,128.22 247.23,103.12 		"/>
		<polygon id="XMLID_713_" class="st0" points="261.73,128.22 290.71,128.22 276.22,153.32 		"/>
		<polygon id="XMLID_712_" class="st0" points="261.73,128.22 247.23,103.12 276.22,103.12 		"/>
		<polygon id="XMLID_711_" class="st0" points="261.73,128.22 276.22,153.32 247.23,153.32 		"/>
		<circle id="XMLID_710_" class="st1" cx="261.73" cy="128.22" r="1.71"/>
		<polygon id="XMLID_708_" class="st0" points="218.25,153.32 232.74,128.22 247.23,153.32 		"/>
		<polygon id="XMLID_707_" class="st0" points="218.25,153.32 189.27,153.32 203.76,128.22 		"/>
		<polygon id="XMLID_705_" class="st0" points="218.25,153.32 203.76,128.22 232.74,128.22 		"/>
		<polygon id="XMLID_548_" class="st0" points="174.78,78.02 160.29,103.12 105.91,39.07 		"/>
		<polygon id="XMLID_547_" class="st0" points="174.78,78.02 189.27,52.92 203.76,78.02 		"/>
		<polygon id="XMLID_546_" class="st0" points="174.78,78.02 105.91,39.07 160.29,52.92 		"/>
		<polygon id="XMLID_545_" class="st0" points="174.78,78.02 203.76,78.02 189.27,103.12 		"/>
		<polygon id="XMLID_544_" class="st0" points="174.78,78.02 160.29,52.92 189.27,52.92 		"/>
		<polygon id="XMLID_543_" class="st0" points="174.78,78.02 189.27,103.12 160.29,103.12 		"/>
		<circle id="XMLID_542_" class="st1" cx="174.78" cy="78.02" r="1.71"/>
		<polygon id="XMLID_541_" class="st0" points="165.12,139.91 100.4,75.41 148.71,62.01 		"/>
		<polygon id="XMLID_540_" class="st0" points="165.12,139.91 105.91,39.07 160.29,103.12 		"/>
		<polygon id="XMLID_539_" class="st0" points="165.12,139.91 165.12,114.81 116.81,78.02 		"/>
		<polygon id="XMLID_538_" class="st0" points="165.12,139.91 160.29,103.12 145.8,128.22 		"/>
		<polygon id="XMLID_537_" class="st0" points="165.12,139.91 116.81,78.02 105.91,39.07 		"/>
		<polygon id="XMLID_536_" class="st0" points="165.12,139.91 145.8,128.22 116.81,128.22 		"/>
		<circle id="XMLID_535_" class="st1" cx="165.12" cy="139.91" r="1.71"/>
		<polygon id="XMLID_534_" class="st0" points="174.78,128.22 160.29,153.32 145.8,128.22 		"/>
		<polygon id="XMLID_533_" class="st0" points="174.78,128.22 189.27,103.12 203.76,128.22 		"/>
		<polygon id="XMLID_532_" class="st0" points="174.78,128.22 145.8,128.22 160.29,103.12 		"/>
		<polygon id="XMLID_531_" class="st0" points="174.78,128.22 203.76,128.22 189.27,153.32 		"/>
		<polygon id="XMLID_530_" class="st0" points="174.78,128.22 160.29,103.12 189.27,103.12 		"/>
		<polygon id="XMLID_529_" class="st0" points="174.78,128.22 189.27,153.32 160.29,153.32 		"/>
		<circle id="XMLID_528_" class="st1" cx="174.78" cy="128.22" r="1.71"/>
		<polygon id="XMLID_526_" class="st0" points="131.31,153.32 145.8,128.22 160.29,153.32 		"/>
		<polygon id="XMLID_525_" class="st0" points="131.31,153.32 61.4,153.32 116.81,128.22 		"/>
		<polygon id="XMLID_523_" class="st0" points="131.31,153.32 116.81,128.22 145.8,128.22 		"/>
		<polygon id="XMLID_365_" class="st0" points="94.71,62.87 83.61,11.87 116.81,78.02 		"/>
		<polygon id="XMLID_363_" class="st0" points="94.71,62.87 116.81,78.02 165.12,114.81 		"/>
		<circle id="XMLID_360_" class="st1" cx="94.71" cy="62.87" r="1.71"/>
		<polygon id="XMLID_351_" class="st0" points="1.71,153.32 148.71,62.01 100.4,75.41 		"/>
		<polygon id="XMLID_349_" class="st0" points="1.71,153.32 116.81,128.22 61.4,153.32 		"/>
		<path id="XMLID_346_" class="st1" d="M0,153.32c0,0.94,0.77,0,1.71,0s1.71,0.94,1.71,0c0-0.94-0.77,0-1.71,0S0,152.37,0,153.32z"
			/>
	</g>
</g>
<g id="T2">
</g>
<g id="T1">
</g>
<g id="Zab">
</g>
</svg>
