<svg version="1.1" id="Layer_1" xmlns="http://www.w3.org/2000/svg" x="0" y="0" viewBox="0 0 242.78 667.5" style="enable-background:new 0 0 242.78 667.5" xml:space="preserve"><style>.st0{fill:none;stroke:#000;stroke-width:.25;stroke-linejoin:round;stroke-miterlimit:10}</style><path id="XMLID_345_" class="st0" d="m87.37 605.59 14.49-25.1 14.49 25.1z"/><path id="XMLID_344_" class="st0" d="m87.37 605.59-14.49 25.1-14.5-25.1z"/><path id="XMLID_343_" class="st0" d="M87.37 605.59h28.98l4.75 61.79z"/><path id="XMLID_342_" class="st0" d="M87.37 605.59H58.38l14.5-25.1z"/><path id="XMLID_341_" class="st0" d="m87.37 605.59 33.73 61.79-48.22-36.69z"/><path id="XMLID_340_" class="st0" d="m87.37 605.59-14.49-25.1h28.98z"/><circle id="XMLID_339_" cx="87.37" cy="605.59" r="1.71"/><path id="XMLID_338_" class="st0" d="m.42 517.74 57.96 37.65 14.5 25.1z"/><path id="XMLID_336_" class="st0" d="m.42 517.74 72.46 62.75-14.5 25.1z"/><path id="XMLID_334_" class="st0" d="m.42 517.74 57.96 87.85-13.68 28.96z"/><path id="XMLID_333_" class="st0" d="m.42 517.74 52.48 61.62 5.48-23.97z"/><path id="XMLID_330_" class="st0" d="m87.37 555.39-14.49 25.1-14.5-25.1z"/><path id="XMLID_329_" class="st0" d="M87.37 555.39h28.98l-14.49 25.1z"/><path id="XMLID_327_" class="st0" d="m87.37 555.39 14.49 25.1H72.88z"/><circle id="XMLID_325_" cx="87.37" cy="555.39" r="1.71"/><path id="XMLID_226_" class="st0" d="m29.4 53.41 14.49-25.1 14.49 25.1z"/><path id="XMLID_225_" class="st0" d="m29.4 53.41-14.49 25.1L.42 53.41z"/><path id="XMLID_223_" class="st0" d="M29.4 53.41H.42L67.1 27.28z"/><path id="XMLID_221_" class="st0" d="m29.4 53.41 37.7-26.13-23.21 1.03z"/><circle id="XMLID_220_" cx="29.4" cy="53.41" r="1.71"/><path id="XMLID_218_" class="st0" d="M90.81.12 58.38 53.41l-14.49-25.1z"/><path id="XMLID_217_" class="st0" d="m90.81.12 23.05 28.19-14.49 25.1z"/><path id="XMLID_215_" class="st0" d="m90.81.12 8.56 53.29H58.38z"/><path id="XMLID_8_" class="st0" d="m29.4 455 14.49-25.1L58.38 455z"/><path id="XMLID_6_" class="st0" d="M29.4 455h28.98l-14.49 25.1z"/><path id="XMLID_4_" class="st0" d="m29.4 455 14.49 25.1-43.47-3.6z"/><path id="XMLID_3_" class="st0" d="M29.4 455 .42 413.16l43.47 16.74z"/><circle id="XMLID_2_" cx="29.4" cy="455" r="1.71"/><path id="XMLID_16_" class="st0" d="m29.4 505.2 14.49-25.1 14.49 25.1z"/><path id="XMLID_14_" class="st0" d="M29.4 505.2h28.98l-14.49 25.09z"/><path id="XMLID_13_" class="st0" d="M29.4 505.2.42 517.74V476.5z"/><path id="XMLID_11_" class="st0" d="M29.4 505.2.42 476.5l43.47 3.6z"/><circle id="XMLID_10_" cx="29.4" cy="505.2" r="1.71"/><path id="XMLID_24_" class="st0" d="m87.37 505.2 44.97-36.43-15.99 36.43z"/><path id="XMLID_23_" class="st0" d="m87.37 505.2-14.49 25.09-14.5-25.09z"/><path id="XMLID_22_" class="st0" d="M87.37 505.2h28.98l5.55 37.49z"/><path id="XMLID_21_" class="st0" d="M87.37 505.2H58.38l14.5-25.1z"/><path id="XMLID_20_" class="st0" d="m87.37 505.2 34.53 37.49-49.02-12.4z"/><path id="XMLID_19_" class="st0" d="m87.37 505.2-14.49-25.1 59.46-11.33z"/><circle id="XMLID_18_" cx="87.37" cy="505.2" r="1.71"/><path id="XMLID_32_" class="st0" d="m58.38 555.39 14.5-25.1 14.49 25.1z"/><path id="XMLID_30_" class="st0" d="M58.38 555.39h28.99l-14.49 25.1z"/><path id="XMLID_29_" class="st0" d="m58.38 555.39-5.48 23.97-9.01-49.07z"/><path id="XMLID_27_" class="st0" d="m58.38 555.39-14.49-25.1h28.99z"/><circle id="XMLID_26_" cx="58.38" cy="555.39" r="1.71"/><path id="XMLID_331_" class="st0" d="m72.88 429.9 14.49-25.1-9.87 38.56z"/><path id="XMLID_328_" class="st0" d="M72.88 429.9H43.89l14.49-25.1z"/><path id="XMLID_326_" class="st0" d="m72.88 429.9-14.5-25.1h28.99z"/><path id="XMLID_324_" class="st0" d="m29.4 404.8 24.91-30.82 4.07 30.82z"/><path id="XMLID_322_" class="st0" d="M29.4 404.8h28.98l-14.49 25.1z"/><path id="XMLID_321_" class="st0" d="M29.4 404.8.42 413.16l25.03-36.56z"/><path id="XMLID_319_" class="st0" d="m29.4 404.8-3.95-28.2 28.86-2.62z"/><circle id="XMLID_318_" cx="29.4" cy="404.8" r="1.71"/><path id="XMLID_317_" class="st0" d="m94.39 380.04 17.34-16.89 6.18 3.4z"/><path id="XMLID_316_" class="st0" d="M94.39 380.04 58.38 404.8l-4.07-30.82z"/><path id="XMLID_315_" class="st0" d="m94.39 380.04 23.52-13.49-30.54 38.25z"/><path id="XMLID_314_" class="st0" d="m94.39 380.04-40.08-6.06 39.94-8.2z"/><path id="XMLID_313_" class="st0" d="m94.39 380.04-7.02 24.76H58.38z"/><path id="XMLID_312_" class="st0" d="m94.39 380.04-.14-14.26 17.48-2.63z"/><circle id="XMLID_311_" cx="94.39" cy="380.04" r="1.71"/><path id="XMLID_310_" class="st0" d="m37.62 350.29 12.16-26.3 44.47 41.79z"/><path id="XMLID_309_" class="st0" d="M37.62 350.29 25.45 376.6.42 352.91z"/><path id="XMLID_308_" class="st0" d="m37.62 350.29 56.63 15.49-39.94 8.2z"/><path id="XMLID_307_" class="st0" d="m37.62 350.29-37.2 2.62v-31.93z"/><path id="XMLID_306_" class="st0" d="m37.62 350.29 16.69 23.69-28.86 2.62z"/><path id="XMLID_305_" class="st0" d="M37.62 350.29.42 320.98l49.36 3.01z"/><circle id="XMLID_304_" cx="37.62" cy="350.29" r="1.71"/><path id="XMLID_303_" class="st0" d="m81.67 328.28 3.29-16.54 11.71 6.35z"/><path id="XMLID_302_" class="st0" d="m81.67 328.28 12.58 37.5-44.47-41.79z"/><path id="XMLID_300_" class="st0" d="m81.67 328.28-31.89-4.29 12.17-26.31z"/><path id="XMLID_299_" class="st0" d="m81.67 328.28 30.06 34.87-17.48 2.63z"/><path id="XMLID_298_" class="st0" d="m81.67 328.28-19.72-30.6 23.01 14.06z"/><circle id="XMLID_297_" cx="81.67" cy="328.28" r="1.71"/><path id="XMLID_296_" class="st0" d="m33.08 300.3 10.81-21 18.06 18.38z"/><path id="XMLID_295_" class="st0" d="M33.08 300.3.42 320.98v-18.06z"/><path id="XMLID_294_" class="st0" d="m33.08 300.3 28.87-2.62-12.17 26.31z"/><path id="XMLID_292_" class="st0" d="m33.08 300.3 16.7 23.69-49.36-3.01z"/><circle id="XMLID_290_" cx="33.08" cy="300.3" r="1.71"/><path id="XMLID_288_" class="st0" d="m73.26 285.79-11.31 11.89-18.06-18.38z"/><path id="XMLID_286_" class="st0" d="m73.26 285.79-29.37-6.49 14.49-25.1z"/><path id="XMLID_285_" class="st0" d="m73.26 285.79 11.7 25.95-23.01-14.06z"/><path id="XMLID_284_" class="st0" d="M73.26 285.79 58.38 254.2l24.04 8.27z"/><circle id="XMLID_283_" cx="73.26" cy="285.79" r="1.71"/><path id="XMLID_274_" class="st0" d="m60.51 230.81-2.13 23.39-25.14-19.77z"/><path id="XMLID_272_" class="st0" d="m60.51 230.81-27.27 3.62 7.1-24.56z"/><path id="XMLID_271_" class="st0" d="m60.51 230.81 21.91 31.66-24.04-8.27z"/><path id="XMLID_270_" class="st0" d="m60.51 230.81-20.17-20.94 19.23-.54z"/><circle id="XMLID_269_" cx="60.51" cy="230.81" r="1.71"/><path id="XMLID_261_" class="st0" d="m62.22 184.23 24.19-12.71-24.19 12.71z"/><path id="XMLID_260_" class="st0" d="m62.22 184.23-21.88 25.64-7.1-25.64z"/><path id="XMLID_258_" class="st0" d="M62.22 184.23H33.24l25.14-30.42z"/><path id="XMLID_257_" class="st0" d="m62.22 184.23-2.65 25.1-19.23.54z"/><path id="XMLID_256_" class="st0" d="m62.22 184.23-3.84-30.42 28.03 17.71z"/><circle id="XMLID_255_" cx="62.22" cy="184.23" r="1.71"/><path id="XMLID_254_" class="st0" d="m29.4 153.81 14.49-25.1 14.49 25.1z"/><path id="XMLID_253_" class="st0" d="M29.4 153.81.42 184.23v-30.42z"/><path id="XMLID_252_" class="st0" d="M29.4 153.81h28.98l-25.14 30.42z"/><path id="XMLID_251_" class="st0" d="M29.4 153.81H.42l14.49-25.1z"/><path id="XMLID_250_" class="st0" d="m29.4 153.81 3.84 30.42H.42z"/><path id="XMLID_249_" class="st0" d="m29.4 153.81-14.49-25.1h28.98z"/><circle id="XMLID_248_" cx="29.4" cy="153.81" r="1.71"/><path id="XMLID_247_" class="st0" d="m72.88 128.71 30.67-15-6.88 28.71z"/><path id="XMLID_246_" class="st0" d="m72.88 128.71-14.5 25.1-14.49-25.1z"/><path id="XMLID_245_" class="st0" d="m72.88 128.71 23.79 13.71-10.26 29.1z"/><path id="XMLID_244_" class="st0" d="M72.88 128.71H43.89l14.49-25.1z"/><path id="XMLID_243_" class="st0" d="m72.88 128.71 13.53 42.81-28.03-17.71z"/><path id="XMLID_242_" class="st0" d="m72.88 128.71-14.5-25.1 45.17 10.1z"/><circle id="XMLID_241_" cx="72.88" cy="128.71" r="1.71"/><path id="XMLID_240_" class="st0" d="m29.4 103.61 14.49-25.1 14.49 25.1z"/><path id="XMLID_239_" class="st0" d="m29.4 103.61-14.49 25.1-14.49-25.1z"/><path id="XMLID_238_" class="st0" d="M29.4 103.61h28.98l-14.49 25.1z"/><path id="XMLID_237_" class="st0" d="M29.4 103.61H.42l14.49-25.1z"/><path id="XMLID_236_" class="st0" d="m29.4 103.61 14.49 25.1H14.91z"/><path id="XMLID_235_" class="st0" d="m29.4 103.61-14.49-25.1h28.98z"/><circle id="XMLID_234_" cx="29.4" cy="103.61" r="1.71"/><path id="XMLID_233_" class="st0" d="m72.88 78.51 26.49-25.1 17.32 25.1z"/><path id="XMLID_232_" class="st0" d="m72.88 78.51-14.5 25.1-14.49-25.1z"/><path id="XMLID_231_" class="st0" d="M72.88 78.51h43.81l-13.14 35.2z"/><path id="XMLID_230_" class="st0" d="M72.88 78.51H43.89l14.49-25.1z"/><path id="XMLID_229_" class="st0" d="m72.88 78.51 30.67 35.2-45.17-10.1z"/><path id="XMLID_228_" class="st0" d="m72.88 78.51-14.5-25.1h40.99z"/><circle id="XMLID_227_" cx="72.88" cy="78.51" r="1.71"/><path id="XMLID_224_" class="st0" d="M29.4 53.41h28.98l-14.49 25.1z"/><path id="XMLID_222_" class="st0" d="m29.4 53.41 14.49 25.1H14.91z"/><path id="XMLID_277_" class="st0" d="m33.24 184.23 25.14-30.42 3.84 30.42z"/><path id="XMLID_276_" class="st0" d="M33.24 184.23.42 209.33v-25.1z"/><path id="XMLID_268_" class="st0" d="M33.24 184.23h28.98l-21.88 25.64z"/><path id="XMLID_267_" class="st0" d="M33.24 184.23H.42l28.98-30.42z"/><path id="XMLID_266_" class="st0" d="m33.24 184.23 7.1 25.64-39.92-.54z"/><path id="XMLID_265_" class="st0" d="m33.24 184.23-3.84-30.42h28.98z"/><circle id="XMLID_264_" cx="33.24" cy="184.23" r="1.71"/><path id="XMLID_457_" class="st0" d="M.42 234.43v-25.1l32.82 25.1z"/><path id="XMLID_455_" class="st0" d="M.42 234.43h32.82L.42 254.2z"/><path id="XMLID_451_" d="M.42 234.43c0-.95.94 0 0 0s0-.95 0 0-.94 0 0 0 0 .94 0 0z"/><path id="XMLID_3392_" class="st0" d="m43.89 279.3 14.49-25.1 14.88 31.59z"/><path id="XMLID_3391_" class="st0" d="m43.89 279.3-10.81 21-32.66-21z"/><path id="XMLID_3390_" class="st0" d="m43.89 279.3 29.37 6.49-11.31 11.89z"/><path id="XMLID_653_" class="st0" d="M43.89 279.3H.42v-25.1z"/><path id="XMLID_651_" class="st0" d="m43.89 279.3 18.06 18.38-28.87 2.62z"/><path id="XMLID_639_" class="st0" d="M43.89 279.3.42 254.2h57.96z"/><circle id="XMLID_637_" cx="43.89" cy="279.3" r="1.71"/><path id="XMLID_3983_" class="st0" d="m210.81 158.3-18.38-6.92 6.34-5.74z"/><path id="XMLID_3982_" class="st0" d="m208.5 166.49-25.81-12.6 9.74-2.51z"/><path id="XMLID_3981_" class="st0" d="m208.5 166.49-27.75-.16 1.94-12.44z"/><path id="XMLID_3980_" class="st0" d="m210.81 158.3-2.31 8.19-16.07-15.11z"/><path id="XMLID_3979_" class="st0" d="m192.43 151.38-.34-8.44 6.68 2.7z"/><path id="XMLID_3978_" class="st0" d="m192.43 151.38-9.77-8.98.03 11.49z"/><path id="XMLID_3977_" class="st0" d="m192.43 151.38-.34-8.44-9.43-.54z"/><path id="XMLID_3976_" class="st0" d="m182.69 153.89-.03-11.49-10.76-1.21z"/><path id="XMLID_3975_" class="st0" d="m182.69 153.89-16.63 1.91 14.69 10.53z"/><path id="XMLID_3638_" class="st0" d="m171.9 141.19-5.84 14.61 16.63-1.91z"/><path id="XMLID_3637_" class="st0" d="m171.9 141.19-5.84 14.61-9.05-7.1z"/><path id="XMLID_3636_" class="st0" d="m157.01 148.7 2.52-9.42 12.37 1.91z"/><path id="XMLID_3635_" class="st0" d="m171.9 141.19-7.41-6.18-4.96 4.27z"/><path id="XMLID_3634_" class="st0" d="m171.9 141.19-.24-4.24-7.17-1.94z"/><path id="XMLID_3633_" class="st0" d="m171.9 141.19 3.52-3.39-3.76-.85z"/><path id="XMLID_3632_" class="st0" d="m175.42 137.8 7.24 4.6-10.76-1.21z"/><path id="XMLID_3631_" class="st0" d="m198.77 145.64-3.24-4.8-3.44 2.1z"/><path id="XMLID_3630_" class="st0" d="m195.53 140.84-3.44 2.1-10.31-5.32z"/><path id="XMLID_3629_" class="st0" d="m192.09 142.94-10.31-5.32.88 4.78z"/><path id="XMLID_3628_" class="st0" d="m175.42 137.8 6.36-.18.88 4.78z"/><path id="XMLID_3627_" class="st0" d="m181.78 137.62-5.33-3.17-1.03 3.35z"/><path id="XMLID_3626_" class="st0" d="m176.45 134.45-4.79 2.5 3.76.85z"/><path id="XMLID_3624_" class="st0" d="m176.45 134.45-11.96.56 7.17 1.94z"/><path id="XMLID_3623_" class="st0" d="m159.53 139.28-10.87-2.24 8.35 11.66z"/><path id="XMLID_3621_" class="st0" d="m148.66 137.04 7.27-5.62 3.6 7.86z"/><path id="XMLID_3620_" class="st0" d="m160.47 128.72 4.02 6.29-8.56-3.59z"/><path id="XMLID_3619_" class="st0" d="m169.12 132.21-4.63 2.8-4.02-6.29z"/><path id="XMLID_3618_" class="st0" d="m176.45 134.45 10.08.74-4.75 2.43z"/><path id="XMLID_3616_" class="st0" d="m186.53 135.19-4.75 2.43 8.45-.39z"/><path id="XMLID_3615_" class="st0" d="m190.23 137.23 5.3 3.61-13.75-3.22z"/><path id="XMLID_3614_" class="st0" d="m190.23 137.23 4.68.08-8.38-2.12z"/><path id="XMLID_3613_" class="st0" d="m194.91 137.31 6.03 3.11-10.71-3.19z"/><path id="XMLID_3612_" class="st0" d="m200.94 140.42 1.83 2.15-12.54-5.34z"/><path id="XMLID_3611_" class="st0" d="m202.77 142.57 2.38 2.86-9.62-4.59z"/><path id="XMLID_3610_" class="st0" d="m202.77 142.57-7.24-1.73-5.3-3.61z"/><path id="XMLID_3609_" class="st0" d="m169.12 132.21 7.33 2.24-11.96.56z"/><path id="XMLID_3608_" class="st0" d="m176.45 134.45-7.37-4.16.04 1.92z"/><path id="XMLID_3607_" class="st0" d="m169.08 130.29-3.99-2 4.03 3.92z"/><path id="XMLID_3606_" class="st0" d="m165.09 128.29-4.62.43 8.65 3.49z"/><path id="XMLID_3605_" class="st0" d="m169.08 130.29-4.13-3.53.14 1.53z"/><path id="XMLID_3604_" class="st0" d="m164.95 126.76-5.17-3.24 5.31 4.77z"/><path id="XMLID_3603_" class="st0" d="m165.09 128.29-10.86-5.59 5.55.82z"/><path id="XMLID_3602_" class="st0" d="m160.47 128.72-6.24-6.02 10.86 5.59z"/><path id="XMLID_3601_" class="st0" d="m160.47 128.72-9.4-4.34 4.86 7.04z"/><path id="XMLID_3600_" class="st0" d="m151.07 124.38-2.15 2.94 7.01 4.1z"/><path id="XMLID_3599_" class="st0" d="m151.07 124.38 3.16-1.68 6.24 6.02z"/><path id="XMLID_3598_" class="st0" d="m148.92 127.32 7.01 4.1-7.27 5.62z"/><path id="XMLID_3597_" class="st0" d="m159.53 139.28 4.96-4.27-8.56-3.59z"/><path id="XMLID_3596_" class="st0" d="m195.53 140.84 9.62 4.59-6.38.21z"/><path id="XMLID_3595_" class="st0" d="m208 145.53-7.06-5.11 1.83 2.15z"/><path id="XMLID_3594_" class="st0" d="m205.15 145.43 2.85.1-5.23-2.96z"/><path id="XMLID_3593_" class="st0" d="m205.15 145.43 3.34 2.97-.49-2.87z"/><path id="XMLID_3592_" class="st0" d="m205.15 145.43 2.28 5.27 1.06-2.3z"/><path id="XMLID_3591_" class="st0" d="m207.43 150.7-2.28-5.27-6.38.21z"/><path id="XMLID_3590_" class="st0" d="m207.43 150.7 3.38 7.6-12.04-12.66z"/><path id="XMLID_3589_" class="st0" d="m213.95 151.68-5.95-6.15.49 2.87z"/><path id="XMLID_3588_" class="st0" d="m213.95 151.68-.71 2.52-4.75-5.8z"/><path id="XMLID_3587_" class="st0" d="m213.24 154.2-5.81-3.5 1.06-2.3z"/><path id="XMLID_3586_" class="st0" d="m213.95 151.68 2.98 6.29-3.69-3.77z"/><path id="XMLID_3585_" class="st0" d="m216.93 157.97-1.1 4.02-2.59-7.79z"/><path id="XMLID_3584_" class="st0" d="m215.83 161.99-5.02-3.69 2.43-4.1z"/><path id="XMLID_3583_" class="st0" d="m216.93 157.97 1.56 7.28-2.66-3.26z"/><path id="XMLID_3582_" class="st0" d="m218.49 165.25-.52 8.33-.67-7.75z"/><path id="XMLID_3581_" class="st0" d="m217.3 165.83-1.47-3.84 2.66 3.26z"/><path id="XMLID_3580_" class="st0" d="m215.83 161.99-7.33 4.5 2.31-8.19z"/><path id="XMLID_3579_" class="st0" d="m215.83 161.99 1.47 3.84-8.8.66z"/><path id="XMLID_3578_" class="st0" d="m217.97 173.58-.67-7.75-8.8.66z"/><path id="XMLID_3577_" class="st0" d="m180.75 166.33 27.75.16-11.82 12.68z"/><path id="XMLID_3576_" class="st0" d="m217.97 173.58-5.31 5.63-4.16-12.72z"/><path id="XMLID_3575_" class="st0" d="m196.68 179.17 11.82-12.68 4.16 12.72z"/><path id="XMLID_3574_" class="st0" d="m217.97 173.58-2.78 12.04-2.53-6.41z"/><path id="XMLID_3573_" class="st0" d="m196.68 179.17 15.98.04-14.47 19z"/><path id="XMLID_3572_" class="st0" d="m215.19 185.62-6.83 15.3 4.3-21.71z"/><path id="XMLID_3571_" class="st0" d="m198.19 198.21 10.17 2.71 4.3-21.71z"/><path id="XMLID_3570_" class="st0" d="m196.68 179.17-15.34 17.96 16.85 1.08z"/><path id="XMLID_3569_" class="st0" d="m180.75 166.33.59 30.8 15.34-17.96z"/><path id="XMLID_3568_" class="st0" d="m166.06 155.8-12.89 31.44 27.58-20.91z"/><path id="XMLID_3567_" class="st0" d="m181.34 197.13-28.17-9.89 27.58-20.91z"/><path id="XMLID_3566_" class="st0" d="m208.36 200.92-9.83 19.81-.34-22.52z"/><path id="XMLID_3565_" class="st0" d="m181.34 197.13 17.19 23.6-.34-22.52z"/><path id="XMLID_3564_" class="st0" d="m153.17 187.24 7.67 25.6 20.5-15.71z"/><path id="XMLID_3563_" class="st0" d="m198.53 220.73-16.68-4.65-.51-18.95z"/><path id="XMLID_3562_" class="st0" d="m160.84 212.84 21.01 3.24-.51-18.95z"/><path id="XMLID_3561_" class="st0" d="m166.06 155.8-22.51 16.16 9.62 15.28z"/><path id="XMLID_3560_" class="st0" d="m157.01 148.7-8.42 7.2 17.47-.1z"/><path id="XMLID_3559_" class="st0" d="m143.55 171.96 22.51-16.16-17.47.1z"/><path id="XMLID_3558_" class="st0" d="m148.66 137.04 8.35 11.66-8.42 7.2z"/><path id="XMLID_3557_" class="st0" d="m148.66 137.04.26-9.72-8.18 2.95z"/><path id="XMLID_3556_" class="st0" d="m140.74 130.27-1.66 10.8 9.58-4.03z"/><path id="XMLID_3555_" class="st0" d="m148.59 155.9.07-18.86-9.58 4.03z"/><path id="XMLID_3554_" class="st0" d="m139.08 141.07-9.54 14.48 19.05.35z"/><path id="XMLID_3553_" class="st0" d="m143.55 171.96 5.04-16.06-19.05-.35z"/><path id="XMLID_3552_" class="st0" d="m153.17 187.24-9.62-15.28-9.09 15.27z"/><path id="XMLID_3551_" class="st0" d="m129.54 155.55 14.01 16.41-18.92.5z"/><path id="XMLID_3550_" class="st0" d="m134.46 187.23 9.09-15.27-18.92.5z"/><path id="XMLID_3549_" class="st0" d="m153.17 187.24-8.75 16.8 16.42 8.8z"/><path id="XMLID_3548_" class="st0" d="m134.46 187.23 9.96 16.81 8.75-16.8z"/><path id="XMLID_3547_" class="st0" d="m124.63 172.46-7.94 10.66 17.77 4.11z"/><path id="XMLID_3546_" class="st0" d="m144.42 204.04-9.96-16.81-7.17 13.32z"/><path id="XMLID_3545_" class="st0" d="m116.69 183.12 10.6 17.43 7.17-13.32z"/><path id="XMLID_3544_" class="st0" d="m124.63 172.46-4.25-9.8-3.69 20.46z"/><path id="XMLID_3543_" class="st0" d="m129.54 155.55-4.91 16.91-4.25-9.8z"/><path id="XMLID_3542_" class="st0" d="m159.78 123.52-7.53-3.39 1.98 2.57z"/><path id="XMLID_3541_" class="st0" d="m154.23 122.7-1.98-2.57-6.79-1.23z"/><path id="XMLID_3540_" class="st0" d="m151.07 124.38 3.16-1.68-8.77-3.8z"/><path id="XMLID_3539_" class="st0" d="m151.07 124.38-8.94-3.6 3.33-1.88z"/><path id="XMLID_3538_" class="st0" d="m142.13 120.78-3.01-1.36 6.34-.52z"/><path id="XMLID_3537_" class="st0" d="m148.92 127.32-6.79-6.54 8.94 3.6z"/><path id="XMLID_3536_" class="st0" d="m142.13 120.78-5.58 1.07 2.57-2.43z"/><path id="XMLID_3535_" class="st0" d="m148.92 127.32-12.37-5.47 5.58-1.07z"/><path id="XMLID_3534_" class="st0" d="m148.92 127.32-14.33-.67 6.15 3.62z"/><path id="XMLID_3533_" class="st0" d="m148.92 127.32-12.37-5.47-1.96 4.8z"/><path id="XMLID_3532_" class="st0" d="m139.12 119.42-5.5 1.46 2.93.97z"/><path id="XMLID_3531_" class="st0" d="m133.62 120.88.97 5.77 1.96-4.8z"/><path id="XMLID_3530_" class="st0" d="m133.62 120.88-7.1 4.43 3.88-1.26z"/><path id="XMLID_3529_" class="st0" d="m130.4 124.05 4.19 2.6-.97-5.77z"/><path id="XMLID_3528_" class="st0" d="m140.74 130.27-8.93.97 2.78-4.59z"/><path id="XMLID_3527_" class="st0" d="m131.81 131.24-1.41-7.19 4.19 2.6z"/><path id="XMLID_3526_" class="st0" d="m130.4 124.05-4.45 4.72.57-3.46z"/><path id="XMLID_3525_" class="st0" d="m131.81 131.24-6.85 1.45 5.44-8.64z"/><path id="XMLID_3524_" class="st0" d="m125.95 128.77-.99 3.92 5.44-8.64z"/><path id="XMLID_3523_" class="st0" d="m126.52 125.31-6.14 7.64 5.57-4.18z"/><path id="XMLID_3522_" class="st0" d="m125.95 128.77-5.57 4.18 4.58-.26z"/><path id="XMLID_3521_" class="st0" d="m120.38 132.95 1.28 3.17 3.3-3.43z"/><path id="XMLID_3520_" class="st0" d="m140.74 130.27-8.63 5.35-.3-4.38z"/><path id="XMLID_3519_" class="st0" d="m139.08 141.07 1.66-10.8-8.63 5.35z"/><path id="XMLID_3518_" class="st0" d="m132.11 135.62-6.39 1.09 6.09-5.47z"/><path id="XMLID_3517_" class="st0" d="m125.72 136.71-.76-4.02 6.85-1.45z"/><path id="XMLID_3516_" class="st0" d="m125.72 136.71-.76-4.02-3.3 3.43z"/><path id="XMLID_3515_" class="st0" d="m132.11 135.62-4.04 4.51-2.35-3.42z"/><path id="XMLID_3514_" class="st0" d="m139.08 141.07-6.97-5.45-4.04 4.51z"/><path id="XMLID_3513_" class="st0" d="m139.08 141.07-14.27 5.19 4.73 9.29z"/><path id="XMLID_3512_" class="st0" d="m128.07 140.13-3.26 6.13 14.27-5.19z"/><path id="XMLID_3511_" class="st0" d="m128.07 140.13-2.35-3.42-4.62 3.11z"/><path id="XMLID_3510_" class="st0" d="m121.1 139.82 4.62-3.11-4.06-.59z"/><path id="XMLID_3509_" class="st0" d="m120.38 132.95-6.34.42 7.62 2.75z"/><path id="XMLID_3508_" class="st0" d="m114.04 133.37 7.06 6.45.56-3.7z"/><path id="XMLID_3507_" class="st0" d="m124.81 146.26 3.26-6.13-6.97-.31z"/><path id="XMLID_3506_" class="st0" d="m121.1 139.82-11.98-7.96 4.92 1.51z"/><path id="XMLID_3505_" class="st0" d="M121.1 139.82v4.23l-11.98-12.19z"/><path id="XMLID_3504_" class="st0" d="m124.81 146.26-3.71-2.21v-4.23z"/><path id="XMLID_3503_" class="st0" d="m124.81 146.26-5.32 8.67 1.61-10.88z"/><path id="XMLID_3502_" class="st0" d="m129.54 155.55-4.73-9.29-5.32 8.67z"/><path id="XMLID_3501_" class="st0" d="m119.49 154.93.89 7.73 9.16-7.11z"/><path id="XMLID_60_" class="st0" d="m121.1 144.05-24.43-1.63 22.82 12.51z"/><path id="XMLID_55_" class="st0" d="m121.1 144.05-11.98-12.19-12.45 10.56 6.88-28.71 5.57 18.15"/><path id="XMLID_54_" class="st0" d="m96.67 142.42 16.17 14.55-26.43 14.55z"/><path id="XMLID_53_" class="st0" d="m119.49 154.93-6.65 2.04-16.17-14.55z"/><path id="XMLID_3496_" class="st0" d="m119.49 154.93.89 7.73-7.54-5.69z"/><path id="XMLID_3495_" class="st0" d="m120.38 162.66-9.19 5.38 1.65-11.07z"/><path id="XMLID_3494_" class="st0" d="m116.69 183.12 3.69-20.46-9.19 5.38z"/><path id="XMLID_64_" class="st0" d="m116.69 183.12-30.28-11.6 24.78-3.48z"/><path id="XMLID_63_" class="st0" d="m86.41 171.52 26.43-14.55-1.65 11.07z"/><path id="XMLID_59_" class="st0" d="m116.69 183.12-30.28-11.6z"/><path id="XMLID_58_" class="st0" d="m86.41 171.52-24.19 12.71 24.19-12.71z"/><path id="XMLID_57_" class="st0" d="m116.69 183.12-23.92 2.06-6.36-13.66z"/><path id="XMLID_56_" class="st0" d="m86.41 171.52-24.19 12.71 30.55.95z"/><path id="XMLID_3487_" class="st0" d="m116.69 183.12-9.02 17.27-14.9-15.21z"/><path id="XMLID_3486_" class="st0" d="m127.29 200.55-19.62-.16 9.02-17.27z"/><path id="XMLID_3485_" class="st0" d="m62.22 184.23 30.55.95z"/><path id="XMLID_3484_" class="st0" d="m107.67 200.39-14.9-15.21-4.56 18.31z"/><path id="XMLID_3483_" class="st0" d="m62.22 184.23 25.99 19.26 4.56-18.31z"/><path id="XMLID_3482_" class="st0" d="m88.21 203.49-25.99-19.26z"/><path id="XMLID_3481_" class="st0" d="m88.21 203.49-5.79 12.53-20.2-31.79z"/><path id="XMLID_3480_" class="st0" d="m107.67 200.39-25.25 15.63 5.79-12.53z"/><path id="XMLID_3479_" class="st0" d="m127.29 200.55-11.44 12.16-8.18-12.32z"/><path id="XMLID_3478_" class="st0" d="m198.53 220.73-16.68-4.65 7.17 22.91z"/><path id="XMLID_3477_" class="st0" d="m160.84 212.84 21.01 3.24-17.44 14.96z"/><path id="XMLID_3476_" class="st0" d="m189.02 238.99-7.17-22.91-4.32 17.68z"/><path id="XMLID_3475_" class="st0" d="m164.41 231.04 13.12 2.72 4.32-17.68z"/><path id="XMLID_3474_" class="st0" d="M160.84 212.84 147 229.95l17.41 1.09z"/><path id="XMLID_3473_" class="st0" d="m144.42 204.04 2.58 25.91 13.84-17.11z"/><path id="XMLID_3472_" class="st0" d="m127.29 200.55 3.91 19.59 13.22-16.1z"/><path id="XMLID_3471_" class="st0" d="m147 229.95-8.28-7.43 5.7-18.48z"/><path id="XMLID_3470_" class="st0" d="m131.2 220.14 7.52 2.38 5.7-18.48z"/><path id="XMLID_3469_" class="st0" d="m147 229.95-10.89-1.58 2.61-5.85z"/><path id="XMLID_3468_" class="st0" d="m131.2 220.14 4.91 8.23 2.61-5.85z"/><path id="XMLID_3467_" class="st0" d="M135.36 241.4 147 229.95l-10.89-1.58z"/><path id="XMLID_3466_" class="st0" d="m131.2 220.14-7.34 15.34 2.23 14.31z"/><path id="XMLID_3465_" class="st0" d="m147 229.95-4.51 16.79-7.13-5.34z"/><path id="XMLID_3464_" class="st0" d="m126.09 249.79-4.14 1.05 1.91-15.36z"/><path id="XMLID_3463_" class="st0" d="m131.2 220.14-12.28 10.62 4.94 4.72z"/><path id="XMLID_3462_" class="st0" d="m121.95 250.84 1.91-15.36-12.13 13.56z"/><path id="XMLID_3461_" class="st0" d="m118.92 230.76-7.19 18.28 12.13-13.56z"/><path id="XMLID_3460_" class="st0" d="m131.2 220.14-18.36 3.13 6.08 7.49z"/><path id="XMLID_3459_" class="st0" d="m127.29 200.55-11.44 12.16 15.35 7.43z"/><path id="XMLID_3458_" class="st0" d="m112.84 223.27 3.01-10.56 15.35 7.43z"/><path id="XMLID_3457_" class="st0" d="m107.67 200.39-25.25 15.63 33.43-3.31z"/><path id="XMLID_3456_" class="st0" d="m112.84 223.27 3.01-10.56-14.87 12.85z"/><path id="XMLID_3455_" class="st0" d="m82.42 216.02 18.56 9.54 14.87-12.85z"/><path id="XMLID_3454_" class="st0" d="m118.92 230.76-14.11 6.45 8.03-13.94z"/><path id="XMLID_3453_" class="st0" d="m100.98 225.56 3.83 11.65 8.03-13.94z"/><path id="XMLID_3452_" class="st0" d="m111.73 249.04 7.19-18.28-14.11 6.45z"/><path id="XMLID_3451_" class="st0" d="m115.8 261.63 6.15-10.79-10.22-1.8z"/><path id="XMLID_3450_" class="st0" d="m104.81 237.21-1.8 16.27 8.72-4.44z"/><path id="XMLID_3449_" class="st0" d="m115.8 261.63-12.79-8.15 8.72-4.44z"/><path id="XMLID_3448_" class="st0" d="m104.81 237.21-3.83-11.65-21.86 8.2z"/><path id="XMLID_3442_" class="st0" d="m82.42 216.02-3.3 17.74 21.86-8.2z"/><path id="XMLID_3440_" class="st0" d="m62.22 184.23-2.65 25.1 22.85 6.69z"/><path id="XMLID_3439_" class="st0" d="m79.12 233.76-19.55-24.43 22.85 6.69z"/><path id="XMLID_3438_" class="st0" d="m60.51 230.81-.94-21.48 19.55 24.43z"/><path id="XMLID_3437_" class="st0" d="m104.81 237.21-19.03 11.83-6.66-15.28z"/><path id="XMLID_3435_" class="st0" d="m60.51 230.81 25.27 18.23-6.66-15.28z"/><path id="XMLID_3434_" class="st0" d="m103.01 253.48 1.8-16.27-19.03 11.83z"/><path id="XMLID_3433_" class="st0" d="m115.8 261.63-4.02 9.77-8.77-17.92z"/><path id="XMLID_3432_" class="st0" d="m85.78 249.04 14.32 15.71 2.91-11.27z"/><path id="XMLID_3430_" class="st0" d="m111.78 271.4-8.77-17.92-2.91 11.27z"/><path id="XMLID_49_" class="st0" d="m82.42 262.47 17.68 2.28-14.32-15.71z"/><path id="XMLID_3425_" class="st0" d="m111.78 271.4-8.51 6.23-3.17-12.88z"/><path id="XMLID_48_" class="st0" d="m82.42 262.47-.75 18.89 18.43-16.61z"/><path id="XMLID_3423_" class="st0" d="m103.27 277.63-3.17-12.88-18.43 16.61z"/><path id="XMLID_3422_" class="st0" d="m111.78 271.4-7.89 15.56-.62-9.33z"/><path id="XMLID_3421_" class="st0" d="m81.67 281.36 22.22 5.6-.62-9.33z"/><path id="XMLID_45_" class="st0" d="m82.42 262.47-9.16 23.32 8.41-4.43z"/><path id="XMLID_3419_" class="st0" d="m103.89 286.96-10.9 7.7-11.32-13.3z"/><path id="XMLID_3418_" class="st0" d="m101.6 299.89 2.29-12.93-10.9 7.7z"/><path id="XMLID_3417_" class="st0" d="m81.67 281.36 3.29 21.14 8.03-7.84z"/><path id="XMLID_43_" class="st0" d="m73.26 285.79 11.7 16.71-3.29-21.14z"/><path id="XMLID_3415_" class="st0" d="m92.99 294.66 1.26 15.67-9.29-7.83z"/><path id="XMLID_46_" class="st0" d="m84.96 311.74 9.29-1.41-9.29-7.83z"/><path id="XMLID_42_" class="st0" d="m73.26 285.79 11.7 16.71-11.7-16.71z"/><path id="XMLID_41_" class="st0" d="m84.96 311.74-11.7-25.95 11.7 16.71z"/><path id="XMLID_3411_" class="st0" d="m94.25 310.33 8.76-1.17-6.34 8.93z"/><path id="XMLID_44_" class="st0" d="m84.96 311.74 9.29-1.41 2.42 7.76z"/><path id="XMLID_3409_" class="st0" d="m101.6 299.89-7.35 10.44-1.26-15.67z"/><path id="XMLID_3408_" class="st0" d="m103.01 309.16-8.76 1.17 7.35-10.44z"/><path id="XMLID_3407_" class="st0" d="m126.09 249.79 10.02-21.42-4.91-8.23z"/><path id="XMLID_3406_" class="st0" d="m147 229.95-4.51 16.79 11.86.56z"/><path id="XMLID_3405_" class="st0" d="m132.31 260.22 10.18-13.48-7.13-5.34z"/><path id="XMLID_3404_" class="st0" d="m154.35 247.3-12.11 11.5.25-12.06z"/><path id="XMLID_3403_" class="st0" d="m132.31 260.22 9.93-1.42.25-12.06z"/><path id="XMLID_3402_" class="st0" d="m147 229.95 17.41 1.09-10.06 16.26z"/><path id="XMLID_3401_" class="st0" d="m177.53 233.76-2.5 11.89-10.62-14.61z"/><path id="XMLID_3400_" class="st0" d="m154.35 247.3 20.68-1.65-10.62-14.61z"/><path id="XMLID_3399_" class="st0" d="m157.99 277.63-3.64-30.33 13.84 10.79z"/><path id="XMLID_3398_" class="st0" d="m175.03 245.65-6.84 12.44-13.84-10.79z"/><path id="XMLID_3397_" class="st0" d="m173.81 267.05-5.62-8.96 6.84-12.44z"/><path id="XMLID_3396_" class="st0" d="m189.02 238.99-5.23 7.91-6.26-13.14z"/><path id="XMLID_3395_" class="st0" d="m175.03 245.65 8.76 1.25-6.26-13.14z"/><path id="XMLID_3394_" class="st0" d="m180.02 266.53 3.77-19.63-8.76-1.25z"/><path id="XMLID_3393_" class="st0" d="m173.81 267.05 6.21-.52-4.99-20.88z"/><path id="XMLID_3389_" class="st0" d="m173.61 274.57 6.41-8.04-6.21.52z"/><path id="XMLID_3387_" class="st0" d="m167.02 275.52 6.59-.95.2-7.52z"/><path id="XMLID_3386_" class="st0" d="m168.19 258.09-1.17 17.43 6.79-8.47z"/><path id="XMLID_3385_" class="st0" d="m157.99 277.63 10.2-19.54-1.17 17.43z"/><path id="XMLID_3384_" class="st0" d="m173.61 274.57-14.42 22.45 7.83-21.5z"/><path id="XMLID_3383_" class="st0" d="m157.99 277.63 1.2 19.39 7.83-21.5z"/><path id="XMLID_3382_" class="st0" d="m150.41 310.61 8.78-13.59-1.2-19.39z"/><path id="XMLID_3381_" class="st0" d="m142.24 258.8 15.75 18.83-3.64-30.33z"/><path id="XMLID_3380_" class="st0" d="m136.41 269.29 5.83-10.49-9.93 1.42z"/><path id="XMLID_3379_" class="st0" d="m124.28 289.52 12.13-20.23-4.1-9.07z"/><path id="XMLID_3378_" class="st0" d="m142.24 258.8-5.83 10.49 21.58 8.34z"/><path id="XMLID_3377_" class="st0" d="m150.41 310.61 7.58-32.98-21.69 17.68z"/><path id="XMLID_3376_" class="st0" d="m136.41 269.29-.11 26.02 21.69-17.68z"/><path id="XMLID_3375_" class="st0" d="m124.28 289.52 12.02 5.79.11-26.02z"/><path id="XMLID_3374_" class="st0" d="m159.19 297.02-11.99 29.13 3.21-15.54z"/><path id="XMLID_3373_" class="st0" d="m136.3 295.31 2.66 27.24 11.45-11.94z"/><path id="XMLID_3372_" class="st0" d="m147.2 326.15-8.24-3.6 11.45-11.94z"/><path id="XMLID_3371_" class="st0" d="m136.3 295.31-10.6 12.86 13.26 14.38z"/><path id="XMLID_3370_" class="st0" d="m124.28 289.52 1.42 18.65 10.6-12.86z"/><path id="XMLID_3368_" class="st0" d="m118.06 309.9 7.64-1.73-1.42-18.65z"/><path id="XMLID_3367_" class="st0" d="m147.2 326.15-11.87 11.45 3.63-15.05z"/><path id="XMLID_3366_" class="st0" d="m125.7 308.17 9.63 29.43 3.63-15.05z"/><path id="XMLID_3365_" class="st0" d="m118.06 309.9 3.84 18.83 3.8-20.56z"/><path id="XMLID_3364_" class="st0" d="m135.33 337.6-13.43-8.87 3.8-20.56z"/><path id="XMLID_3363_" class="st0" d="m147.2 326.15-13.35 23.27 1.48-11.82z"/><path id="XMLID_3362_" class="st0" d="m121.9 328.73-6.64 20.28 20.07-11.41z"/><path id="XMLID_3361_" class="st0" d="m115.26 349.01 6.64-20.28-12.18 11.21z"/><path id="XMLID_3360_" class="st0" d="m133.85 349.42-7.39 5.95 8.87-17.77z"/><path id="XMLID_3359_" class="st0" d="m115.26 349.01 11.2 6.36 8.87-17.77z"/><path id="XMLID_3358_" class="st0" d="m133.85 349.42-7.5 12.79.11-6.84z"/><path id="XMLID_3357_" class="st0" d="m117.91 366.55 8.44-4.34.11-6.84z"/><path id="XMLID_3356_" class="st0" d="m117.42 357.57.49 8.98 8.55-11.18z"/><path id="XMLID_3355_" class="st0" d="m115.26 349.01 2.16 8.56 9.04-2.2z"/><path id="XMLID_40_" class="st0" d="m81.67 328.28 33.59 20.73-5.54-9.07z"/><path id="XMLID_39_" class="st0" d="m117.42 357.57-35.75-29.29 33.59 20.73z"/><path id="XMLID_3352_" class="st0" d="m117.91 366.55-6.18-3.4 5.69-5.58z"/><path id="XMLID_31_" class="st0" d="m81.67 328.28 30.06 34.87 5.69-5.58z"/><path id="XMLID_3350_" class="st0" d="m198.53 220.73-1.45 25.75-8.06-7.49z"/><path id="XMLID_3349_" class="st0" d="m183.79 246.9 13.29-.42-8.06-7.49z"/><path id="XMLID_3348_" class="st0" d="m184.78 271.29 5.89-16.14 2.49 29.22z"/><path id="XMLID_3347_" class="st0" d="m197.08 246.48 1.02 21.85-7.43-13.18z"/><path id="XMLID_3346_" class="st0" d="m183.79 246.9 6.88 8.25 6.41-8.67z"/><path id="XMLID_3345_" class="st0" d="m180.02 266.53 10.65-11.38-6.88-8.25z"/><path id="XMLID_3344_" class="st0" d="m184.78 271.29-4.76-4.76 10.65-11.38z"/><path id="XMLID_3343_" class="st0" d="m193.16 284.37-19.55-9.8 11.17-3.28z"/><path id="XMLID_3342_" class="st0" d="m180.02 266.53-6.41 8.04 11.17-3.28z"/><path id="XMLID_3341_" class="st0" d="m222.11 163.89 8.98 7.51-2.36-8.14z"/><path id="XMLID_3340_" class="st0" d="m228.27 179.64 2.82-8.24-8.98-7.51z"/><path id="XMLID_3339_" class="st0" d="m220.7 184.24 7.57-4.6-6.16-15.75z"/><path id="XMLID_3338_" class="st0" d="m217.97 173.58 2.73 10.66 1.41-20.35z"/><path id="XMLID_3337_" class="st0" d="m218.54 157.58 10.19 5.68-3.2-8.09z"/><path id="XMLID_3336_" class="st0" d="m222.11 163.89-3.57-6.31 10.19 5.68z"/><path id="XMLID_3335_" class="st0" d="m225.53 155.17-6.14-2.06-.85 4.47z"/><path id="XMLID_3334_" class="st0" d="m222.11 163.89-3.62 1.36.05-7.67z"/><path id="XMLID_3333_" class="st0" d="m217.97 173.58 4.14-9.69-3.62 1.36z"/><path id="XMLID_3332_" class="st0" d="m219.39 153.11 1.15-4.25 4.99 6.31z"/><path id="XMLID_3331_" class="st0" d="m214.13 148.2 6.41.66-4.56-5.55z"/><path id="XMLID_3330_" class="st0" d="m218.54 157.58-1.61.39 2.46-4.86z"/><path id="XMLID_3329_" class="st0" d="m213.95 151.68 5.44 1.43-2.46 4.86z"/><path id="XMLID_3328_" class="st0" d="m214.13 148.2 5.26 4.91 1.15-4.25z"/><path id="XMLID_3326_" class="st0" d="m198.1 268.33-7.43-13.18 2.49 29.22z"/><path id="XMLID_3325_" class="st0" d="m173.61 274.57 9.34 17.74 10.21-7.94z"/><path id="XMLID_3324_" class="st0" d="m198.1 268.33-4.94 16.04 10.39.12z"/><path id="XMLID_3323_" class="st0" d="m182.95 292.31 16.49 19.66-6.28-27.6z"/><path id="XMLID_3322_" class="st0" d="m203.55 284.49-4.11 27.48-6.28-27.6z"/><path id="XMLID_3321_" class="st0" d="m182.95 292.31-11.73 7.89 9.87 16.88z"/><path id="XMLID_3320_" class="st0" d="m190.6 316.88-7.65-24.57-1.86 24.77z"/><path id="XMLID_3319_" class="st0" d="m199.44 311.97-16.49-19.66 7.65 24.57z"/><path id="XMLID_3318_" class="st0" d="m181.09 317.08 1.66 19.63 7.85-19.83z"/><path id="XMLID_3317_" class="st0" d="m191.69 327.05-1.09-10.17-7.85 19.83z"/><path id="XMLID_3316_" class="st0" d="m199.44 311.97-7.75 15.08-1.09-10.17z"/><path id="XMLID_3314_" class="st0" d="m203.55 284.49 1.47 9.32-5.58 18.16z"/><path id="XMLID_3313_" class="st0" d="m209.35 275.99-5.8 8.5 1.47 9.32z"/><path id="XMLID_3312_" class="st0" d="m205.68 265.66 3.67 10.33-5.8 8.5z"/><path id="XMLID_3311_" class="st0" d="m198.1 268.33 7.58-2.67-2.13 18.83z"/><path id="XMLID_3310_" class="st0" d="m210.36 261.38-4.68 4.28 3.67 10.33z"/><path id="XMLID_3309_" class="st0" d="m197.08 246.48 8.6 19.18-7.58 2.67z"/><path id="XMLID_3308_" class="st0" d="m210.36 261.38-1.87-12.65-2.81 16.93z"/><path id="XMLID_3307_" class="st0" d="m197.08 246.48 3.95-7.4 4.65 26.58z"/><path id="XMLID_3306_" class="st0" d="m208.49 248.73-7.46-9.65 4.65 26.58z"/><path id="XMLID_3305_" class="st0" d="m210.36 261.38 2.39-16.86-4.26 4.21z"/><path id="XMLID_3304_" class="st0" d="m201.03 239.08 10.61-1.3-3.15 10.95z"/><path id="XMLID_3303_" class="st0" d="m212.75 244.52-1.11-6.74-3.15 10.95z"/><path id="XMLID_3302_" class="st0" d="m198.53 220.73 2.5 18.35-3.95 7.4z"/><path id="XMLID_3301_" class="st0" d="m211.64 237.78-.07-19.64-10.54 20.94z"/><path id="XMLID_3300_" class="st0" d="m198.53 220.73 13.04-2.59-10.54 20.94z"/><path id="XMLID_3299_" class="st0" d="m208.36 200.92 3.21 17.22-13.04 2.59z"/><path id="XMLID_3298_" class="st0" d="m211.64 237.78 3.88-11.32-3.95-8.32z"/><path id="XMLID_3297_" class="st0" d="m215.62 232.97-2.87 11.55-1.11-6.74z"/><path id="XMLID_3296_" class="st0" d="m215.52 226.46.1 6.51-3.98 4.81z"/><path id="XMLID_3295_" class="st0" d="m211.57 218.14 9.21 1.9-5.26 6.42z"/><path id="XMLID_3294_" class="st0" d="m215.62 232.97 5.16-12.93-5.26 6.42z"/><path id="XMLID_3293_" class="st0" d="m211.57 218.14 10.52-6.83-1.31 8.73z"/><path id="XMLID_3292_" class="st0" d="m226.22 209.85-4.13 1.46-1.31 8.73z"/><path id="XMLID_3291_" class="st0" d="m221.85 197.33 4.37 12.52-4.13 1.46z"/><path id="XMLID_3290_" class="st0" d="m211.57 218.14 10.28-20.81.24 13.98z"/><path id="XMLID_3289_" class="st0" d="m208.36 200.92 13.49-3.59-10.28 20.81z"/><path id="XMLID_3288_" class="st0" d="m226.22 209.85 2.08-18.93-6.45 6.41z"/><path id="XMLID_3287_" class="st0" d="m215.19 185.62 6.66 11.71-13.49 3.59z"/><path id="XMLID_3286_" class="st0" d="m217.97 173.58-2.78 12.04 5.51-1.38z"/><path id="XMLID_3285_" class="st0" d="m228.27 179.64 8.53 2.78-3.88 5.52z"/><path id="XMLID_3284_" class="st0" d="m220.7 184.24 1.15 13.09-6.66-11.71z"/><path id="XMLID_3283_" class="st0" d="m228.3 190.92-7.6-6.68 1.15 13.09z"/><path id="XMLID_3282_" class="st0" d="m228.27 179.64.03 11.28-7.6-6.68z"/><path id="XMLID_3281_" class="st0" d="m232.92 187.94-4.62 2.98-.03-11.28z"/><path id="XMLID_3280_" class="st0" d="m226.22 209.85 5-13.75-2.92-5.18z"/><path id="XMLID_3279_" class="st0" d="m232.92 187.94-1.7 8.16-2.92-5.18z"/><path id="XMLID_3278_" class="st0" d="m236.8 182.42.3 4.79-4.18.73z"/><path id="XMLID_3277_" class="st0" d="m231.22 196.1 5.88-8.89-4.18.73z"/><path id="XMLID_3276_" class="st0" d="m232.92 200.74 4.18-13.53-5.88 8.89z"/><path id="XMLID_3275_" class="st0" d="m226.22 209.85 6.7-9.11-1.7-4.64z"/><path id="XMLID_3274_" class="st0" d="m171.22 300.2 2.39-25.63 9.34 17.74z"/><path id="XMLID_3273_" class="st0" d="m181.09 317.08-10.94 4.62 1.07-21.5z"/><path id="XMLID_3272_" class="st0" d="m182.75 336.71-4.66-8.48 3-11.15z"/><path id="XMLID_3271_" class="st0" d="m170.15 321.7 7.94 6.53 3-11.15z"/><path id="XMLID_3270_" class="st0" d="m174.1 334.87 8.65 1.84-4.66-8.48z"/><path id="XMLID_3269_" class="st0" d="m170.15 321.7 3.95 13.17 3.99-6.64z"/><path id="XMLID_3268_" class="st0" d="m170.65 343.82 3.45-8.95-10.01 3.51z"/><path id="XMLID_3267_" class="st0" d="m182.75 336.71-12.1 7.11 3.45-8.95z"/><path id="XMLID_3266_" class="st0" d="m170.15 321.7-6.06 16.68 10.01-3.51z"/><path id="XMLID_3265_" class="st0" d="m170.65 343.82-7.37 4.59.86 3.92z"/><path id="XMLID_3264_" class="st0" d="m164.09 338.38-.81 10.03 7.37-4.59z"/><path id="XMLID_3263_" class="st0" d="m170.15 321.7-12.32 16.77 6.26-.09z"/><path id="XMLID_3262_" class="st0" d="m163.28 348.41-5.45-9.94 6.26-.09z"/><path id="XMLID_3261_" class="st0" d="m170.15 321.7-18.71 16.16 6.39.61z"/><path id="XMLID_3260_" class="st0" d="m163.28 348.41-6.49 3.58 1.04-13.52z"/><path id="XMLID_3259_" class="st0" d="m164.14 352.33-5.65 2.58 4.79-6.5z"/><path id="XMLID_3258_" class="st0" d="m156.79 351.99 1.7 2.92 4.79-6.5z"/><path id="XMLID_3257_" class="st0" d="m157.83 338.47-5.75 10.92 4.71 2.6z"/><path id="XMLID_3256_" class="st0" d="m158.49 354.91-1.7-2.92-3.24 1.39z"/><path id="XMLID_3255_" class="st0" d="m152.08 349.39 1.47 3.99 3.24-1.39z"/><path id="XMLID_3254_" class="st0" d="m151.44 337.86.64 11.53 5.75-10.92z"/><path id="XMLID_3253_" class="st0" d="m153.55 353.38-3.17-2.98 1.7-1.01z"/><path id="XMLID_3252_" class="st0" d="m151.44 337.86-1.31 8.31 1.95 3.22z"/><path id="XMLID_3251_" class="st0" d="m150.38 350.4-.25-4.23 1.95 3.22z"/><path id="XMLID_3250_" class="st0" d="m171.22 300.2-3.29 16.26 2.22 5.24z"/><path id="XMLID_3249_" class="st0" d="m151.44 337.86 16.49-21.4 2.22 5.24z"/><path id="XMLID_3248_" class="st0" d="m231.09 171.4 5.71 11.02-8.53-2.78z"/><path id="XMLID_3247_" class="st0" d="m235.24 169.79-4.15 1.61 5.71 11.02z"/><path id="XMLID_3246_" class="st0" d="m237.1 187.21 3.3-8.46-3.6 3.67z"/><path id="XMLID_3245_" class="st0" d="m235.24 169.79 4.69 2.97-3.13 9.66z"/><path id="XMLID_3244_" class="st0" d="m240.4 178.75-.47-5.99-3.13 9.66z"/><path id="XMLID_3243_" class="st0" d="m242.66 170.07-2.26 8.68-.47-5.99z"/><path id="XMLID_3242_" class="st0" d="m238.67 166.7 3.99 3.37-2.73 2.69z"/><path id="XMLID_3241_" class="st0" d="m235.24 169.79 3.43-3.09 1.26 6.06z"/><path id="XMLID_3240_" class="st0" d="m231.09 171.4 4.15-1.61-6.51-6.53z"/><path id="XMLID_3239_" class="st0" d="m231.83 160.18 3.41 9.61-6.51-6.53z"/><path id="XMLID_3238_" class="st0" d="m225.53 155.17 6.3 5.01-3.1 3.08z"/><path id="XMLID_3237_" class="st0" d="m238.67 166.7-6.84-6.52 3.41 9.61z"/><path id="XMLID_3236_" class="st0" d="m242.66 170.07-2.2-7.85-1.79 4.48z"/><path id="XMLID_3235_" class="st0" d="m242.48 160.66.18 9.41-2.2-7.85z"/><path id="XMLID_3234_" class="st0" d="m237.72 151.6 4.76 9.06-4.01-4.15z"/><path id="XMLID_3233_" class="st0" d="m240.46 162.22-1.99-5.71 4.01 4.15z"/><path id="XMLID_3232_" class="st0" d="m238.67 166.7-3.41-8.76 5.2 4.28z"/><path id="XMLID_3231_" class="st0" d="m238.47 156.51-3.21 1.43 5.2 4.28z"/><path id="XMLID_3230_" class="st0" d="m237.72 151.6-5.78-2.42 6.53 7.33z"/><path id="XMLID_3229_" class="st0" d="m230.21 151.61 8.26 4.9-6.53-7.33z"/><path id="XMLID_3228_" class="st0" d="m235.26 157.94 3.21-1.43-8.26-4.9z"/><path id="XMLID_3227_" class="st0" d="m238.67 166.7-3.41-8.76-3.43 2.24z"/><path id="XMLID_3226_" class="st0" d="m230.21 151.61-4.68 3.56 9.73 2.77z"/><path id="XMLID_3225_" class="st0" d="m231.83 160.18 3.43-2.24-9.73-2.77z"/><path id="XMLID_3224_" class="st0" d="m230.21 151.61-9.67-2.75 4.99 6.31z"/><path id="XMLID_3223_" class="st0" d="m231.94 149.18-11.4-.32 9.67 2.75z"/><path id="XMLID_3222_" class="st0" d="m237.72 151.6-9.63-8.31 3.85 5.89z"/><path id="XMLID_3221_" class="st0" d="m220.54 148.86 2.3-4.09 9.1 4.41z"/><path id="XMLID_3220_" class="st0" d="m215.98 143.31 6.86 1.46-2.3 4.09z"/><path id="XMLID_3219_" class="st0" d="m228.09 143.29-2.61.05 6.46 5.84z"/><path id="XMLID_3218_" class="st0" d="m220.84 139.36 4.64 3.98 2.61-.05z"/><path id="XMLID_3217_" class="st0" d="m222.84 144.77 2.64-1.43 6.46 5.84z"/><path id="XMLID_3216_" class="st0" d="m220.84 139.36-4.41.43 9.05 3.55z"/><path id="XMLID_3215_" class="st0" d="m222.84 144.77-6.41-4.98 9.05 3.55z"/><path id="XMLID_3214_" class="st0" d="m215.98 143.31.45-3.52 6.41 4.98z"/><path id="XMLID_3213_" class="st0" d="m220.84 139.36-9.27-2.2 4.86 2.63z"/><path id="XMLID_3212_" class="st0" d="m215.98 143.31.45-3.52-5.55.37z"/><path id="XMLID_3211_" class="st0" d="m211.57 137.16 4.86 2.63-12.64-2.39z"/><path id="XMLID_3210_" class="st0" d="m210.88 140.16-7.09-2.76 12.64 2.39z"/><path id="XMLID_3209_" class="st0" d="m215.98 143.31-5.1-3.15-1.92 2.15z"/><path id="XMLID_3208_" class="st0" d="m203.79 137.4 5.17 4.91 1.92-2.15z"/><path id="XMLID_3207_" class="st0" d="m214.13 148.2-.18 3.48 5.44 1.43z"/><path id="XMLID_3206_" class="st0" d="m208 145.53 6.13 2.67-.18 3.48z"/><path id="XMLID_3205_" class="st0" d="m208.96 142.31 5.17 5.89 1.85-4.89z"/><path id="XMLID_3204_" class="st0" d="m208 145.53.96-3.22 5.17 5.89z"/><path id="XMLID_3203_" class="st0" d="m203.79 137.4-2.42 1 7.59 3.91z"/><path id="XMLID_3202_" class="st0" d="m194.91 137.31 8.88.09-2.42 1z"/><path id="XMLID_3201_" class="st0" d="m208 145.53-2.44-3.11 3.4-.11z"/><path id="XMLID_3200_" class="st0" d="m201.37 138.4 4.19 4.02 3.4-.11z"/><path id="XMLID_3199_" class="st0" d="m200.94 140.42 4.62 2 2.44 3.11z"/><path id="XMLID_3198_" class="st0" d="m197.88 137.23-8.39-6.76 2.21 4.2z"/><path id="XMLID_3197_" class="st0" d="m186.43 130.19 3.06.28 2.21 4.2z"/><path id="XMLID_3196_" class="st0" d="m184.86 132.27 1.57-2.08 5.27 4.48z"/><path id="XMLID_3195_" class="st0" d="m189.34 134.69 2.36-.02-6.84-2.4z"/><path id="XMLID_3194_" class="st0" d="m186.43 130.19-3.6-4.07 6.66 4.35z"/><path id="XMLID_3193_" class="st0" d="m182.93 129.55-.1-3.43 3.6 4.07z"/><path id="XMLID_3192_" class="st0" d="m184.86 132.27-1.93-2.72 3.5.64z"/><path id="XMLID_3191_" class="st0" d="m182.93 129.55-1.09 3.24 3.02-.52z"/><path id="XMLID_3190_" class="st0" d="m182.83 126.12-5.42-2.5 2.89 2.38z"/><path id="XMLID_3189_" class="st0" d="M182.93 129.55 180.3 126l2.53.12z"/><path id="XMLID_3188_" class="st0" d="m177.41 123.62-5.7-1.01 8.59 3.39z"/><path id="XMLID_3187_" class="st0" d="m182.93 129.55-4.73-2.53 2.1-1.02z"/><path id="XMLID_3186_" class="st0" d="m171.71 122.61 6.49 4.41 2.1-1.02z"/><path id="XMLID_3185_" class="st0" d="m170.11 122.93 1.6-.32 6.49 4.41z"/><path id="XMLID_3184_" class="st0" d="m165.87 122.43 5.84.18-1.6.32z"/><path id="XMLID_3183_" class="st0" d="m164.92 123.9 5.19-.97-4.24-.5z"/><path id="XMLID_3182_" class="st0" d="m159.78 123.52 5.14.38.95-1.47z"/><path id="XMLID_3181_" class="st0" d="m170.11 122.93-1.58 2.6-3.61-1.63z"/><path id="XMLID_3180_" class="st0" d="m166.72 126.51-1.8-2.61 3.61 1.63z"/><path id="XMLID_3179_" class="st0" d="m178.2 127.02-9.67-1.49 1.58-2.6z"/><path id="XMLID_3178_" class="st0" d="m179.68 130.94 3.25-1.39-4.73-2.53z"/><path id="XMLID_3177_" class="st0" d="m168.53 125.53 11.15 5.41-1.48-3.92z"/><path id="XMLID_3176_" class="st0" d="m166.72 126.51 2.61 1.81-.8-2.79z"/><path id="XMLID_3175_" class="st0" d="m179.68 130.94-2.77 1.49-4.24-3.15z"/><path id="XMLID_3174_" class="st0" d="m189.34 134.69 8.54 2.54-6.18-2.56z"/><path id="XMLID_3173_" class="st0" d="m195.11 137.31-5.77-2.62 8.54 2.54z"/><path id="XMLID_3172_" class="st0" d="m184.86 132.27.89 1.84-3.91-1.32z"/><path id="XMLID_3171_" class="st0" d="m189.34 134.69-4.48-2.42.89 1.84z"/><path id="XMLID_3170_" class="st0" d="m194.91 137.31-8.38-2.12 2.81-.5z"/><path id="XMLID_3169_" class="st0" d="m185.75 134.11.78 1.08 2.81-.5z"/><path id="XMLID_3168_" class="st0" d="m181.84 132.79 4.69 2.4-.78-1.08z"/><path id="XMLID_3167_" class="st0" d="m172.67 129.28-4.14-3.75 11.15 5.41z"/><path id="XMLID_3166_" class="st0" d="m169.33 128.32 3.34.96-4.14-3.75z"/><path id="XMLID_3165_" class="st0" d="m172.45 131.39 4.46 1.04-4.24-3.15z"/><path id="XMLID_3164_" class="st0" d="m169.33 128.32 3.12 3.07.22-2.11z"/><path id="XMLID_3163_" class="st0" d="m168.61 129.34 3.84 2.05-3.12-3.07z"/><path id="XMLID_3162_" class="st0" d="m166.72 126.51 1.89 2.83.72-1.02z"/><path id="XMLID_3161_" class="st0" d="m164.92 123.9-.94 1.21-4.2-1.59z"/><path id="XMLID_3160_" class="st0" d="m166.72 126.51-1.8-2.61-.94 1.21z"/><path id="XMLID_3159_" class="st0" d="m168.61 129.34-3.66-2.58 1.77-.25z"/><path id="XMLID_3158_" class="st0" d="m163.98 125.11.97 1.65 1.77-.25z"/><path id="XMLID_3157_" class="st0" d="m159.78 123.52 4.2 1.59.97 1.65z"/><path id="XMLID_3156_" class="st0" d="m172.45 131.39-3.37-1.1-.47-.95z"/><path id="XMLID_3155_" class="st0" d="m164.95 126.76 4.13 3.53-.47-.95z"/><path id="XMLID_3154_" class="st0" d="m181.84 132.79-2.16-1.85 3.25-1.39z"/><path id="XMLID_3153_" class="st0" d="m176.91 132.43 4.93.36-2.16-1.85z"/><path id="XMLID_3152_" class="st0" d="m186.53 135.19-10.08-.74 4.84-.41z"/><path id="XMLID_3151_" class="st0" d="m181.84 132.79-.55 1.25 5.24 1.15z"/><path id="XMLID_3150_" class="st0" d="m176.91 132.43 4.38 1.61.55-1.25z"/><path id="XMLID_3149_" class="st0" d="m176.45 134.45.46-2.02 4.38 1.61z"/><path id="XMLID_3148_" class="st0" d="m172.45 131.39 4 3.06.46-2.02z"/><path id="XMLID_3147_" class="st0" d="m169.08 130.29 7.37 4.16-4-3.06z"/><path id="XMLID_3146_" class="st0" d="m126.09 249.79 9.27-8.39.75-13.03z"/><path id="XMLID_3145_" class="st0" d="m132.31 260.22-3.96-7.4 7.01-11.42z"/><path id="XMLID_3144_" class="st0" d="m126.09 249.79 2.26 3.03 7.01-11.42z"/><path id="XMLID_3143_" class="st0" d="m132.31 260.22-3.96-7.4-2.25 13.3z"/><path id="XMLID_3142_" class="st0" d="m126.1 266.12-1.82 23.4 8.03-29.3z"/><path id="XMLID_3141_" class="st0" d="m124.28 289.52-2.44-4.45 4.26-18.95z"/><path id="XMLID_3140_" class="st0" d="m118.06 309.9 3.78-24.83 2.44 4.45z"/><path id="XMLID_3139_" class="st0" d="m118.06 309.9-3.03 14.92 6.87 3.91z"/><path id="XMLID_3138_" class="st0" d="m109.72 339.94 12.18-11.21-6.87-3.91z"/><circle id="XMLID_3137_" cx="116.03" cy="212.76" r="1.71"/><circle id="XMLID_3136_" cx="104.98" cy="237.26" r="1.71"/><circle id="XMLID_3135_" cx="122.08" cy="250.75" r="1.71"/><circle id="XMLID_3134_" cx="100.1" cy="264.75" r="1.71"/><circle id="XMLID_3133_" cx="103.8" cy="286.93" r="1.71"/><circle id="XMLID_3132_" cx="94.7" cy="310.03" r="1.71"/><circle id="XMLID_3131_" cx="116.69" cy="183.12" r="1.71"/><circle id="XMLID_3130_" cx="82.88" cy="215.67" r="1.71"/><circle id="XMLID_3129_" cx="143.55" cy="171.96" r="1.71"/><circle id="XMLID_3128_" cx="139.08" cy="141.07" r="1.71"/><circle id="XMLID_3127_" cx="130.4" cy="124.05" r="1.71"/><circle id="XMLID_3126_" cx="121.16" cy="139.77" r="1.71"/><circle id="XMLID_3125_" cx="157.25" cy="148.77" r="1.71"/><circle id="XMLID_3124_" cx="180.75" cy="166.33" r="1.71"/><circle id="XMLID_3123_" cx="164.39" cy="231.07" r="1.71"/><circle id="XMLID_3122_" cx="189.16" cy="239.03" r="1.71"/><circle id="XMLID_3121_" cx="211.57" cy="218.14" r="1.71"/><circle id="XMLID_3120_" cx="208.73" cy="248.46" r="1.71"/><circle id="XMLID_3119_" cx="198.1" cy="268.33" r="1.71"/><circle id="XMLID_3118_" cx="182.89" cy="292.49" r="1.71"/><circle id="XMLID_3117_" cx="205.09" cy="293.56" r="1.71"/><circle id="XMLID_3116_" cx="191.88" cy="326.45" r="1.71"/><circle id="XMLID_3115_" cx="174.1" cy="334.87" r="1.71"/><circle id="XMLID_3114_" cx="157.83" cy="338.47" r="1.71"/><circle id="XMLID_3113_" cx="158.47" cy="354.97" r="1.71"/><circle id="XMLID_3112_" cx="142.22" cy="258.84" r="1.71"/><circle id="XMLID_3111_" cx="166.94" cy="275.76" r="1.71"/><circle id="XMLID_3110_" cx="136.34" cy="295.17" r="1.71"/><circle id="XMLID_3109_" cx="147.2" cy="326.15" r="1.71"/><circle id="XMLID_3108_" cx="121.9" cy="328.73" r="1.71"/><circle id="XMLID_3107_" cx="126.46" cy="355.37" r="1.71"/><circle id="XMLID_3106_" cx="111.73" cy="363.15" r="1.71"/><circle id="XMLID_3105_" cx="181.32" cy="197.17" r="1.71"/><circle id="XMLID_3104_" cx="212.66" cy="179.21" r="1.71"/><circle id="XMLID_3103_" cx="221.85" cy="197.33" r="1.71"/><circle id="XMLID_3102_" cx="235.24" cy="169.79" r="1.71"/><circle id="XMLID_3101_" cx="225.28" cy="155.09" r="1.71"/><circle id="XMLID_3100_" cx="198.79" cy="145.59" r="1.71"/><circle id="XMLID_3099_" cx="231.92" cy="149.24" r="1.71"/><circle id="XMLID_3098_" cx="160.48" cy="128.69" r="1.71"/><circle id="XMLID_3097_" cx="178.18" cy="127.1" r="1.71"/><circle id="XMLID_301_" cx="209.05" cy="142.12" r="1.71"/><circle id="XMLID_289_" cx="186.48" cy="135.36" r="1.71"/><circle id="XMLID_275_" cx="144.42" cy="204.04" r="1.71"/><path id="XMLID_273_" class="st0" d="m201.37 138.4-.43 2.02 4.62 2z"/><path id="XMLID_259_" class="st0" d="m201.37 138.4-6.26-1.09 5.83 3.11z"/></svg>