<?xml version="1.0" encoding="utf-8"?>
<!-- Generator: Adobe Illustrator 25.0.1, SVG Export Plug-In . SVG Version: 6.00 Build 0)  -->
<svg version="1.1" id="Layer_1" xmlns="http://www.w3.org/2000/svg" xmlns:xlink="http://www.w3.org/1999/xlink" x="0px" y="0px"
	 viewBox="0 0 242.78 667.5" style="enable-background:new 0 0 242.78 667.5;" xml:space="preserve">
<style type="text/css">
	.st0{fill:none;stroke:#000000;stroke-width:0.25;stroke-linejoin:round;stroke-miterlimit:10;}
</style>
<g>
	<polygon id="XMLID_345_" class="st0" points="87.37,605.59 101.86,580.49 116.35,605.59 	"/>
	<polygon id="XMLID_344_" class="st0" points="87.37,605.59 72.88,630.69 58.38,605.59 	"/>
	<polygon id="XMLID_343_" class="st0" points="87.37,605.59 116.35,605.59 121.1,667.38 	"/>
	<polygon id="XMLID_342_" class="st0" points="87.37,605.59 58.38,605.59 72.88,580.49 	"/>
	<polygon id="XMLID_341_" class="st0" points="87.37,605.59 121.1,667.38 72.88,630.69 	"/>
	<polygon id="XMLID_340_" class="st0" points="87.37,605.59 72.88,580.49 101.86,580.49 	"/>
	<circle id="XMLID_339_" cx="87.37" cy="605.59" r="1.71"/>
	<polygon id="XMLID_338_" class="st0" points="0.42,517.74 58.38,555.39 72.88,580.49 	"/>
	<polygon id="XMLID_336_" class="st0" points="0.42,517.74 72.88,580.49 58.38,605.59 	"/>
	<polygon id="XMLID_334_" class="st0" points="0.42,517.74 58.38,605.59 44.7,634.55 	"/>
	<polygon id="XMLID_333_" class="st0" points="0.42,517.74 52.9,579.36 58.38,555.39 	"/>
	<polygon id="XMLID_330_" class="st0" points="87.37,555.39 72.88,580.49 58.38,555.39 	"/>
	<polygon id="XMLID_329_" class="st0" points="87.37,555.39 116.35,555.39 101.86,580.49 	"/>
	<polygon id="XMLID_327_" class="st0" points="87.37,555.39 101.86,580.49 72.88,580.49 	"/>
	<circle id="XMLID_325_" cx="87.37" cy="555.39" r="1.71"/>
	<polygon id="XMLID_226_" class="st0" points="29.4,53.41 43.89,28.31 58.38,53.41 	"/>
	<polygon id="XMLID_225_" class="st0" points="29.4,53.41 14.91,78.51 0.42,53.41 	"/>
	<polygon id="XMLID_223_" class="st0" points="29.4,53.41 0.42,53.41 67.1,27.28 	"/>
	<polygon id="XMLID_221_" class="st0" points="29.4,53.41 67.1,27.28 43.89,28.31 	"/>
	<circle id="XMLID_220_" cx="29.4" cy="53.41" r="1.71"/>
	<polygon id="XMLID_218_" class="st0" points="90.81,0.12 58.38,53.41 43.89,28.31 	"/>
	<polygon id="XMLID_217_" class="st0" points="90.81,0.12 113.86,28.31 99.37,53.41 	"/>
	<polygon id="XMLID_215_" class="st0" points="90.81,0.12 99.37,53.41 58.38,53.41 	"/>
	<polygon id="XMLID_8_" class="st0" points="29.4,455 43.89,429.9 58.38,455 	"/>
	<polygon id="XMLID_6_" class="st0" points="29.4,455 58.38,455 43.89,480.1 	"/>
	<polygon id="XMLID_4_" class="st0" points="29.4,455 43.89,480.1 0.42,476.5 	"/>
	<polygon id="XMLID_3_" class="st0" points="29.4,455 0.42,413.16 43.89,429.9 	"/>
	<circle id="XMLID_2_" cx="29.4" cy="455" r="1.71"/>
	<polygon id="XMLID_16_" class="st0" points="29.4,505.2 43.89,480.1 58.38,505.2 	"/>
	<polygon id="XMLID_14_" class="st0" points="29.4,505.2 58.38,505.2 43.89,530.29 	"/>
	<polygon id="XMLID_13_" class="st0" points="29.4,505.2 0.42,517.74 0.42,476.5 	"/>
	<polygon id="XMLID_11_" class="st0" points="29.4,505.2 0.42,476.5 43.89,480.1 	"/>
	<circle id="XMLID_10_" cx="29.4" cy="505.2" r="1.71"/>
	<polygon id="XMLID_24_" class="st0" points="87.37,505.2 132.34,468.77 116.35,505.2 	"/>
	<polygon id="XMLID_23_" class="st0" points="87.37,505.2 72.88,530.29 58.38,505.2 	"/>
	<polygon id="XMLID_22_" class="st0" points="87.37,505.2 116.35,505.2 121.9,542.69 	"/>
	<polygon id="XMLID_21_" class="st0" points="87.37,505.2 58.38,505.2 72.88,480.1 	"/>
	<polygon id="XMLID_20_" class="st0" points="87.37,505.2 121.9,542.69 72.88,530.29 	"/>
	<polygon id="XMLID_19_" class="st0" points="87.37,505.2 72.88,480.1 132.34,468.77 	"/>
	<circle id="XMLID_18_" cx="87.37" cy="505.2" r="1.71"/>
	<polygon id="XMLID_32_" class="st0" points="58.38,555.39 72.88,530.29 87.37,555.39 	"/>
	<polygon id="XMLID_30_" class="st0" points="58.38,555.39 87.37,555.39 72.88,580.49 	"/>
	<polygon id="XMLID_29_" class="st0" points="58.38,555.39 52.9,579.36 43.89,530.29 	"/>
	<polygon id="XMLID_27_" class="st0" points="58.38,555.39 43.89,530.29 72.88,530.29 	"/>
	<circle id="XMLID_26_" cx="58.38" cy="555.39" r="1.71"/>
	<polygon id="XMLID_331_" class="st0" points="72.88,429.9 87.37,404.8 77.5,443.36 	"/>
	<polygon id="XMLID_328_" class="st0" points="72.88,429.9 43.89,429.9 58.38,404.8 	"/>
	<polygon id="XMLID_326_" class="st0" points="72.88,429.9 58.38,404.8 87.37,404.8 	"/>
	<polygon id="XMLID_324_" class="st0" points="29.4,404.8 54.31,373.98 58.38,404.8 	"/>
	<polygon id="XMLID_322_" class="st0" points="29.4,404.8 58.38,404.8 43.89,429.9 	"/>
	<polygon id="XMLID_321_" class="st0" points="29.4,404.8 0.42,413.16 25.45,376.6 	"/>
	<polygon id="XMLID_319_" class="st0" points="29.4,404.8 25.45,376.6 54.31,373.98 	"/>
	<circle id="XMLID_318_" cx="29.4" cy="404.8" r="1.71"/>
	<polygon id="XMLID_317_" class="st0" points="94.39,380.04 111.73,363.15 117.91,366.55 	"/>
	<polygon id="XMLID_316_" class="st0" points="94.39,380.04 58.38,404.8 54.31,373.98 	"/>
	<polygon id="XMLID_315_" class="st0" points="94.39,380.04 117.91,366.55 87.37,404.8 	"/>
	<polygon id="XMLID_314_" class="st0" points="94.39,380.04 54.31,373.98 94.25,365.78 	"/>
	<polygon id="XMLID_313_" class="st0" points="94.39,380.04 87.37,404.8 58.38,404.8 	"/>
	<polygon id="XMLID_312_" class="st0" points="94.39,380.04 94.25,365.78 111.73,363.15 	"/>
	<circle id="XMLID_311_" cx="94.39" cy="380.04" r="1.71"/>
	<polygon id="XMLID_310_" class="st0" points="37.62,350.29 49.78,323.99 94.25,365.78 	"/>
	<polygon id="XMLID_309_" class="st0" points="37.62,350.29 25.45,376.6 0.42,352.91 	"/>
	<polygon id="XMLID_308_" class="st0" points="37.62,350.29 94.25,365.78 54.31,373.98 	"/>
	<polygon id="XMLID_307_" class="st0" points="37.62,350.29 0.42,352.91 0.42,320.98 	"/>
	<polygon id="XMLID_306_" class="st0" points="37.62,350.29 54.31,373.98 25.45,376.6 	"/>
	<polygon id="XMLID_305_" class="st0" points="37.62,350.29 0.42,320.98 49.78,323.99 	"/>
	<circle id="XMLID_304_" cx="37.62" cy="350.29" r="1.71"/>
	<polygon id="XMLID_303_" class="st0" points="81.67,328.28 84.96,311.74 96.67,318.09 	"/>
	<polygon id="XMLID_302_" class="st0" points="81.67,328.28 94.25,365.78 49.78,323.99 	"/>
	<polygon id="XMLID_300_" class="st0" points="81.67,328.28 49.78,323.99 61.95,297.68 	"/>
	<polygon id="XMLID_299_" class="st0" points="81.67,328.28 111.73,363.15 94.25,365.78 	"/>
	<polygon id="XMLID_298_" class="st0" points="81.67,328.28 61.95,297.68 84.96,311.74 	"/>
	<circle id="XMLID_297_" cx="81.67" cy="328.28" r="1.71"/>
	<polygon id="XMLID_296_" class="st0" points="33.08,300.3 43.89,279.3 61.95,297.68 	"/>
	<polygon id="XMLID_295_" class="st0" points="33.08,300.3 0.42,320.98 0.42,302.92 	"/>
	<polygon id="XMLID_294_" class="st0" points="33.08,300.3 61.95,297.68 49.78,323.99 	"/>
	<polygon id="XMLID_292_" class="st0" points="33.08,300.3 49.78,323.99 0.42,320.98 	"/>
	<circle id="XMLID_290_" cx="33.08" cy="300.3" r="1.71"/>
	<polygon id="XMLID_288_" class="st0" points="73.26,285.79 61.95,297.68 43.89,279.3 	"/>
	<polygon id="XMLID_286_" class="st0" points="73.26,285.79 43.89,279.3 58.38,254.2 	"/>
	<polygon id="XMLID_285_" class="st0" points="73.26,285.79 84.96,311.74 61.95,297.68 	"/>
	<polygon id="XMLID_284_" class="st0" points="73.26,285.79 58.38,254.2 82.42,262.47 	"/>
	<circle id="XMLID_283_" cx="73.26" cy="285.79" r="1.71"/>
	<polygon id="XMLID_274_" class="st0" points="60.51,230.81 58.38,254.2 33.24,234.43 	"/>
	<polygon id="XMLID_272_" class="st0" points="60.51,230.81 33.24,234.43 40.34,209.87 	"/>
	<polygon id="XMLID_271_" class="st0" points="60.51,230.81 82.42,262.47 58.38,254.2 	"/>
	<polygon id="XMLID_270_" class="st0" points="60.51,230.81 40.34,209.87 59.57,209.33 	"/>
	<circle id="XMLID_269_" cx="60.51" cy="230.81" r="1.71"/>
	<polygon id="XMLID_261_" class="st0" points="62.22,184.23 86.41,171.52 62.22,184.23 	"/>
	<polygon id="XMLID_260_" class="st0" points="62.22,184.23 40.34,209.87 33.24,184.23 	"/>
	<polygon id="XMLID_258_" class="st0" points="62.22,184.23 33.24,184.23 58.38,153.81 	"/>
	<polygon id="XMLID_257_" class="st0" points="62.22,184.23 59.57,209.33 40.34,209.87 	"/>
	<polygon id="XMLID_256_" class="st0" points="62.22,184.23 58.38,153.81 86.41,171.52 	"/>
	<circle id="XMLID_255_" cx="62.22" cy="184.23" r="1.71"/>
	<polygon id="XMLID_254_" class="st0" points="29.4,153.81 43.89,128.71 58.38,153.81 	"/>
	<polygon id="XMLID_253_" class="st0" points="29.4,153.81 0.42,184.23 0.42,153.81 	"/>
	<polygon id="XMLID_252_" class="st0" points="29.4,153.81 58.38,153.81 33.24,184.23 	"/>
	<polygon id="XMLID_251_" class="st0" points="29.4,153.81 0.42,153.81 14.91,128.71 	"/>
	<polygon id="XMLID_250_" class="st0" points="29.4,153.81 33.24,184.23 0.42,184.23 	"/>
	<polygon id="XMLID_249_" class="st0" points="29.4,153.81 14.91,128.71 43.89,128.71 	"/>
	<circle id="XMLID_248_" cx="29.4" cy="153.81" r="1.71"/>
	<polygon id="XMLID_247_" class="st0" points="72.88,128.71 103.55,113.71 96.67,142.42 	"/>
	<polygon id="XMLID_246_" class="st0" points="72.88,128.71 58.38,153.81 43.89,128.71 	"/>
	<polygon id="XMLID_245_" class="st0" points="72.88,128.71 96.67,142.42 86.41,171.52 	"/>
	<polygon id="XMLID_244_" class="st0" points="72.88,128.71 43.89,128.71 58.38,103.61 	"/>
	<polygon id="XMLID_243_" class="st0" points="72.88,128.71 86.41,171.52 58.38,153.81 	"/>
	<polygon id="XMLID_242_" class="st0" points="72.88,128.71 58.38,103.61 103.55,113.71 	"/>
	<circle id="XMLID_241_" cx="72.88" cy="128.71" r="1.71"/>
	<polygon id="XMLID_240_" class="st0" points="29.4,103.61 43.89,78.51 58.38,103.61 	"/>
	<polygon id="XMLID_239_" class="st0" points="29.4,103.61 14.91,128.71 0.42,103.61 	"/>
	<polygon id="XMLID_238_" class="st0" points="29.4,103.61 58.38,103.61 43.89,128.71 	"/>
	<polygon id="XMLID_237_" class="st0" points="29.4,103.61 0.42,103.61 14.91,78.51 	"/>
	<polygon id="XMLID_236_" class="st0" points="29.4,103.61 43.89,128.71 14.91,128.71 	"/>
	<polygon id="XMLID_235_" class="st0" points="29.4,103.61 14.91,78.51 43.89,78.51 	"/>
	<circle id="XMLID_234_" cx="29.4" cy="103.61" r="1.71"/>
	<polygon id="XMLID_233_" class="st0" points="72.88,78.51 99.37,53.41 116.69,78.51 	"/>
	<polygon id="XMLID_232_" class="st0" points="72.88,78.51 58.38,103.61 43.89,78.51 	"/>
	<polygon id="XMLID_231_" class="st0" points="72.88,78.51 116.69,78.51 103.55,113.71 	"/>
	<polygon id="XMLID_230_" class="st0" points="72.88,78.51 43.89,78.51 58.38,53.41 	"/>
	<polygon id="XMLID_229_" class="st0" points="72.88,78.51 103.55,113.71 58.38,103.61 	"/>
	<polygon id="XMLID_228_" class="st0" points="72.88,78.51 58.38,53.41 99.37,53.41 	"/>
	<circle id="XMLID_227_" cx="72.88" cy="78.51" r="1.71"/>
	<polygon id="XMLID_224_" class="st0" points="29.4,53.41 58.38,53.41 43.89,78.51 	"/>
	<polygon id="XMLID_222_" class="st0" points="29.4,53.41 43.89,78.51 14.91,78.51 	"/>
	<polygon id="XMLID_277_" class="st0" points="33.24,184.23 58.38,153.81 62.22,184.23 	"/>
	<polygon id="XMLID_276_" class="st0" points="33.24,184.23 0.42,209.33 0.42,184.23 	"/>
	<polygon id="XMLID_268_" class="st0" points="33.24,184.23 62.22,184.23 40.34,209.87 	"/>
	<polygon id="XMLID_267_" class="st0" points="33.24,184.23 0.42,184.23 29.4,153.81 	"/>
	<polygon id="XMLID_266_" class="st0" points="33.24,184.23 40.34,209.87 0.42,209.33 	"/>
	<polygon id="XMLID_265_" class="st0" points="33.24,184.23 29.4,153.81 58.38,153.81 	"/>
	<circle id="XMLID_264_" cx="33.24" cy="184.23" r="1.71"/>
	<polygon id="XMLID_457_" class="st0" points="0.42,234.43 0.42,209.33 33.24,234.43 	"/>
	<polygon id="XMLID_455_" class="st0" points="0.42,234.43 33.24,234.43 0.42,254.2 	"/>
	<path id="XMLID_451_" d="M0.42,234.43C0.42,233.48,1.36,234.43,0.42,234.43S0.42,233.48,0.42,234.43S-0.52,234.43,0.42,234.43
		S0.42,235.37,0.42,234.43z"/>
	<polygon id="XMLID_3392_" class="st0" points="43.89,279.3 58.38,254.2 73.26,285.79 	"/>
	<polygon id="XMLID_3391_" class="st0" points="43.89,279.3 33.08,300.3 0.42,279.3 	"/>
	<polygon id="XMLID_3390_" class="st0" points="43.89,279.3 73.26,285.79 61.95,297.68 	"/>
	<polygon id="XMLID_653_" class="st0" points="43.89,279.3 0.42,279.3 0.42,254.2 	"/>
	<polygon id="XMLID_651_" class="st0" points="43.89,279.3 61.95,297.68 33.08,300.3 	"/>
	<polygon id="XMLID_639_" class="st0" points="43.89,279.3 0.42,254.2 58.38,254.2 	"/>
	<circle id="XMLID_637_" cx="43.89" cy="279.3" r="1.71"/>
	<polygon id="XMLID_3983_" class="st0" points="210.81,158.3 192.43,151.38 198.77,145.64 	"/>
	<polygon id="XMLID_3982_" class="st0" points="208.5,166.49 182.69,153.89 192.43,151.38 	"/>
	<polygon id="XMLID_3981_" class="st0" points="208.5,166.49 180.75,166.33 182.69,153.89 	"/>
	<polygon id="XMLID_3980_" class="st0" points="210.81,158.3 208.5,166.49 192.43,151.38 	"/>
	<polygon id="XMLID_3979_" class="st0" points="192.43,151.38 192.09,142.94 198.77,145.64 	"/>
	<polygon id="XMLID_3978_" class="st0" points="192.43,151.38 182.66,142.4 182.69,153.89 	"/>
	<polygon id="XMLID_3977_" class="st0" points="192.43,151.38 192.09,142.94 182.66,142.4 	"/>
	<polygon id="XMLID_3976_" class="st0" points="182.69,153.89 182.66,142.4 171.9,141.19 	"/>
	<polygon id="XMLID_3975_" class="st0" points="182.69,153.89 166.06,155.8 180.75,166.33 	"/>
	<polygon id="XMLID_3638_" class="st0" points="171.9,141.19 166.06,155.8 182.69,153.89 	"/>
	<polygon id="XMLID_3637_" class="st0" points="171.9,141.19 166.06,155.8 157.01,148.7 	"/>
	<polygon id="XMLID_3636_" class="st0" points="157.01,148.7 159.53,139.28 171.9,141.19 	"/>
	<polygon id="XMLID_3635_" class="st0" points="171.9,141.19 164.49,135.01 159.53,139.28 	"/>
	<polygon id="XMLID_3634_" class="st0" points="171.9,141.19 171.66,136.95 164.49,135.01 	"/>
	<polygon id="XMLID_3633_" class="st0" points="171.9,141.19 175.42,137.8 171.66,136.95 	"/>
	<polygon id="XMLID_3632_" class="st0" points="175.42,137.8 182.66,142.4 171.9,141.19 	"/>
	<polygon id="XMLID_3631_" class="st0" points="198.77,145.64 195.53,140.84 192.09,142.94 	"/>
	<polygon id="XMLID_3630_" class="st0" points="195.53,140.84 192.09,142.94 181.78,137.62 	"/>
	<polygon id="XMLID_3629_" class="st0" points="192.09,142.94 181.78,137.62 182.66,142.4 	"/>
	<polygon id="XMLID_3628_" class="st0" points="175.42,137.8 181.78,137.62 182.66,142.4 	"/>
	<polygon id="XMLID_3627_" class="st0" points="181.78,137.62 176.45,134.45 175.42,137.8 	"/>
	<polygon id="XMLID_3626_" class="st0" points="176.45,134.45 171.66,136.95 175.42,137.8 	"/>
	<polygon id="XMLID_3624_" class="st0" points="176.45,134.45 164.49,135.01 171.66,136.95 	"/>
	<polygon id="XMLID_3623_" class="st0" points="159.53,139.28 148.66,137.04 157.01,148.7 	"/>
	<polygon id="XMLID_3621_" class="st0" points="148.66,137.04 155.93,131.42 159.53,139.28 	"/>
	<polygon id="XMLID_3620_" class="st0" points="160.47,128.72 164.49,135.01 155.93,131.42 	"/>
	<polygon id="XMLID_3619_" class="st0" points="169.12,132.21 164.49,135.01 160.47,128.72 	"/>
	<polygon id="XMLID_3618_" class="st0" points="176.45,134.45 186.53,135.19 181.78,137.62 	"/>
	<polygon id="XMLID_3616_" class="st0" points="186.53,135.19 181.78,137.62 190.23,137.23 	"/>
	<polygon id="XMLID_3615_" class="st0" points="190.23,137.23 195.53,140.84 181.78,137.62 	"/>
	<polygon id="XMLID_3614_" class="st0" points="190.23,137.23 194.91,137.31 186.53,135.19 	"/>
	<polygon id="XMLID_3613_" class="st0" points="194.91,137.31 200.94,140.42 190.23,137.23 	"/>
	<polygon id="XMLID_3612_" class="st0" points="200.94,140.42 202.77,142.57 190.23,137.23 	"/>
	<polygon id="XMLID_3611_" class="st0" points="202.77,142.57 205.15,145.43 195.53,140.84 	"/>
	<polygon id="XMLID_3610_" class="st0" points="202.77,142.57 195.53,140.84 190.23,137.23 	"/>
	<polygon id="XMLID_3609_" class="st0" points="169.12,132.21 176.45,134.45 164.49,135.01 	"/>
	<polygon id="XMLID_3608_" class="st0" points="176.45,134.45 169.08,130.29 169.12,132.21 	"/>
	<polygon id="XMLID_3607_" class="st0" points="169.08,130.29 165.09,128.29 169.12,132.21 	"/>
	<polygon id="XMLID_3606_" class="st0" points="165.09,128.29 160.47,128.72 169.12,132.21 	"/>
	<polygon id="XMLID_3605_" class="st0" points="169.08,130.29 164.95,126.76 165.09,128.29 	"/>
	<polygon id="XMLID_3604_" class="st0" points="164.95,126.76 159.78,123.52 165.09,128.29 	"/>
	<polygon id="XMLID_3603_" class="st0" points="165.09,128.29 154.23,122.7 159.78,123.52 	"/>
	<polygon id="XMLID_3602_" class="st0" points="160.47,128.72 154.23,122.7 165.09,128.29 	"/>
	<polygon id="XMLID_3601_" class="st0" points="160.47,128.72 151.07,124.38 155.93,131.42 	"/>
	<polygon id="XMLID_3600_" class="st0" points="151.07,124.38 148.92,127.32 155.93,131.42 	"/>
	<polygon id="XMLID_3599_" class="st0" points="151.07,124.38 154.23,122.7 160.47,128.72 	"/>
	<polygon id="XMLID_3598_" class="st0" points="148.92,127.32 155.93,131.42 148.66,137.04 	"/>
	<polygon id="XMLID_3597_" class="st0" points="159.53,139.28 164.49,135.01 155.93,131.42 	"/>
	<polygon id="XMLID_3596_" class="st0" points="195.53,140.84 205.15,145.43 198.77,145.64 	"/>
	<polygon id="XMLID_3595_" class="st0" points="208,145.53 200.94,140.42 202.77,142.57 	"/>
	<polygon id="XMLID_3594_" class="st0" points="205.15,145.43 208,145.53 202.77,142.57 	"/>
	<polygon id="XMLID_3593_" class="st0" points="205.15,145.43 208.49,148.4 208,145.53 	"/>
	<polygon id="XMLID_3592_" class="st0" points="205.15,145.43 207.43,150.7 208.49,148.4 	"/>
	<polygon id="XMLID_3591_" class="st0" points="207.43,150.7 205.15,145.43 198.77,145.64 	"/>
	<polygon id="XMLID_3590_" class="st0" points="207.43,150.7 210.81,158.3 198.77,145.64 	"/>
	<polygon id="XMLID_3589_" class="st0" points="213.95,151.68 208,145.53 208.49,148.4 	"/>
	<polygon id="XMLID_3588_" class="st0" points="213.95,151.68 213.24,154.2 208.49,148.4 	"/>
	<polygon id="XMLID_3587_" class="st0" points="213.24,154.2 207.43,150.7 208.49,148.4 	"/>
	<polygon id="XMLID_3586_" class="st0" points="213.95,151.68 216.93,157.97 213.24,154.2 	"/>
	<polygon id="XMLID_3585_" class="st0" points="216.93,157.97 215.83,161.99 213.24,154.2 	"/>
	<polygon id="XMLID_3584_" class="st0" points="215.83,161.99 210.81,158.3 213.24,154.2 	"/>
	<polygon id="XMLID_3583_" class="st0" points="216.93,157.97 218.49,165.25 215.83,161.99 	"/>
	<polygon id="XMLID_3582_" class="st0" points="218.49,165.25 217.97,173.58 217.3,165.83 	"/>
	<polygon id="XMLID_3581_" class="st0" points="217.3,165.83 215.83,161.99 218.49,165.25 	"/>
	<polygon id="XMLID_3580_" class="st0" points="215.83,161.99 208.5,166.49 210.81,158.3 	"/>
	<polygon id="XMLID_3579_" class="st0" points="215.83,161.99 217.3,165.83 208.5,166.49 	"/>
	<polygon id="XMLID_3578_" class="st0" points="217.97,173.58 217.3,165.83 208.5,166.49 	"/>
	<polygon id="XMLID_3577_" class="st0" points="180.75,166.33 208.5,166.49 196.68,179.17 	"/>
	<polygon id="XMLID_3576_" class="st0" points="217.97,173.58 212.66,179.21 208.5,166.49 	"/>
	<polygon id="XMLID_3575_" class="st0" points="196.68,179.17 208.5,166.49 212.66,179.21 	"/>
	<polygon id="XMLID_3574_" class="st0" points="217.97,173.58 215.19,185.62 212.66,179.21 	"/>
	<polygon id="XMLID_3573_" class="st0" points="196.68,179.17 212.66,179.21 198.19,198.21 	"/>
	<polygon id="XMLID_3572_" class="st0" points="215.19,185.62 208.36,200.92 212.66,179.21 	"/>
	<polygon id="XMLID_3571_" class="st0" points="198.19,198.21 208.36,200.92 212.66,179.21 	"/>
	<polygon id="XMLID_3570_" class="st0" points="196.68,179.17 181.34,197.13 198.19,198.21 	"/>
	<polygon id="XMLID_3569_" class="st0" points="180.75,166.33 181.34,197.13 196.68,179.17 	"/>
	<polygon id="XMLID_3568_" class="st0" points="166.06,155.8 153.17,187.24 180.75,166.33 	"/>
	<polygon id="XMLID_3567_" class="st0" points="181.34,197.13 153.17,187.24 180.75,166.33 	"/>
	<polygon id="XMLID_3566_" class="st0" points="208.36,200.92 198.53,220.73 198.19,198.21 	"/>
	<polygon id="XMLID_3565_" class="st0" points="181.34,197.13 198.53,220.73 198.19,198.21 	"/>
	<polygon id="XMLID_3564_" class="st0" points="153.17,187.24 160.84,212.84 181.34,197.13 	"/>
	<polygon id="XMLID_3563_" class="st0" points="198.53,220.73 181.85,216.08 181.34,197.13 	"/>
	<polygon id="XMLID_3562_" class="st0" points="160.84,212.84 181.85,216.08 181.34,197.13 	"/>
	<polygon id="XMLID_3561_" class="st0" points="166.06,155.8 143.55,171.96 153.17,187.24 	"/>
	<polygon id="XMLID_3560_" class="st0" points="157.01,148.7 148.59,155.9 166.06,155.8 	"/>
	<polygon id="XMLID_3559_" class="st0" points="143.55,171.96 166.06,155.8 148.59,155.9 	"/>
	<polygon id="XMLID_3558_" class="st0" points="148.66,137.04 157.01,148.7 148.59,155.9 	"/>
	<polygon id="XMLID_3557_" class="st0" points="148.66,137.04 148.92,127.32 140.74,130.27 	"/>
	<polygon id="XMLID_3556_" class="st0" points="140.74,130.27 139.08,141.07 148.66,137.04 	"/>
	<polygon id="XMLID_3555_" class="st0" points="148.59,155.9 148.66,137.04 139.08,141.07 	"/>
	<polygon id="XMLID_3554_" class="st0" points="139.08,141.07 129.54,155.55 148.59,155.9 	"/>
	<polygon id="XMLID_3553_" class="st0" points="143.55,171.96 148.59,155.9 129.54,155.55 	"/>
	<polygon id="XMLID_3552_" class="st0" points="153.17,187.24 143.55,171.96 134.46,187.23 	"/>
	<polygon id="XMLID_3551_" class="st0" points="129.54,155.55 143.55,171.96 124.63,172.46 	"/>
	<polygon id="XMLID_3550_" class="st0" points="134.46,187.23 143.55,171.96 124.63,172.46 	"/>
	<polygon id="XMLID_3549_" class="st0" points="153.17,187.24 144.42,204.04 160.84,212.84 	"/>
	<polygon id="XMLID_3548_" class="st0" points="134.46,187.23 144.42,204.04 153.17,187.24 	"/>
	<polygon id="XMLID_3547_" class="st0" points="124.63,172.46 116.69,183.12 134.46,187.23 	"/>
	<polygon id="XMLID_3546_" class="st0" points="144.42,204.04 134.46,187.23 127.29,200.55 	"/>
	<polygon id="XMLID_3545_" class="st0" points="116.69,183.12 127.29,200.55 134.46,187.23 	"/>
	<polygon id="XMLID_3544_" class="st0" points="124.63,172.46 120.38,162.66 116.69,183.12 	"/>
	<polygon id="XMLID_3543_" class="st0" points="129.54,155.55 124.63,172.46 120.38,162.66 	"/>
	<polygon id="XMLID_3542_" class="st0" points="159.78,123.52 152.25,120.13 154.23,122.7 	"/>
	<polygon id="XMLID_3541_" class="st0" points="154.23,122.7 152.25,120.13 145.46,118.9 	"/>
	<polygon id="XMLID_3540_" class="st0" points="151.07,124.38 154.23,122.7 145.46,118.9 	"/>
	<polygon id="XMLID_3539_" class="st0" points="151.07,124.38 142.13,120.78 145.46,118.9 	"/>
	<polygon id="XMLID_3538_" class="st0" points="142.13,120.78 139.12,119.42 145.46,118.9 	"/>
	<polygon id="XMLID_3537_" class="st0" points="148.92,127.32 142.13,120.78 151.07,124.38 	"/>
	<polygon id="XMLID_3536_" class="st0" points="142.13,120.78 136.55,121.85 139.12,119.42 	"/>
	<polygon id="XMLID_3535_" class="st0" points="148.92,127.32 136.55,121.85 142.13,120.78 	"/>
	<polygon id="XMLID_3534_" class="st0" points="148.92,127.32 134.59,126.65 140.74,130.27 	"/>
	<polygon id="XMLID_3533_" class="st0" points="148.92,127.32 136.55,121.85 134.59,126.65 	"/>
	<polygon id="XMLID_3532_" class="st0" points="139.12,119.42 133.62,120.88 136.55,121.85 	"/>
	<polygon id="XMLID_3531_" class="st0" points="133.62,120.88 134.59,126.65 136.55,121.85 	"/>
	<polygon id="XMLID_3530_" class="st0" points="133.62,120.88 126.52,125.31 130.4,124.05 	"/>
	<polygon id="XMLID_3529_" class="st0" points="130.4,124.05 134.59,126.65 133.62,120.88 	"/>
	<polygon id="XMLID_3528_" class="st0" points="140.74,130.27 131.81,131.24 134.59,126.65 	"/>
	<polygon id="XMLID_3527_" class="st0" points="131.81,131.24 130.4,124.05 134.59,126.65 	"/>
	<polygon id="XMLID_3526_" class="st0" points="130.4,124.05 125.95,128.77 126.52,125.31 	"/>
	<polygon id="XMLID_3525_" class="st0" points="131.81,131.24 124.96,132.69 130.4,124.05 	"/>
	<polygon id="XMLID_3524_" class="st0" points="125.95,128.77 124.96,132.69 130.4,124.05 	"/>
	<polygon id="XMLID_3523_" class="st0" points="126.52,125.31 120.38,132.95 125.95,128.77 	"/>
	<polygon id="XMLID_3522_" class="st0" points="125.95,128.77 120.38,132.95 124.96,132.69 	"/>
	<polygon id="XMLID_3521_" class="st0" points="120.38,132.95 121.66,136.12 124.96,132.69 	"/>
	<polygon id="XMLID_3520_" class="st0" points="140.74,130.27 132.11,135.62 131.81,131.24 	"/>
	<polygon id="XMLID_3519_" class="st0" points="139.08,141.07 140.74,130.27 132.11,135.62 	"/>
	<polygon id="XMLID_3518_" class="st0" points="132.11,135.62 125.72,136.71 131.81,131.24 	"/>
	<polygon id="XMLID_3517_" class="st0" points="125.72,136.71 124.96,132.69 131.81,131.24 	"/>
	<polygon id="XMLID_3516_" class="st0" points="125.72,136.71 124.96,132.69 121.66,136.12 	"/>
	<polygon id="XMLID_3515_" class="st0" points="132.11,135.62 128.07,140.13 125.72,136.71 	"/>
	<polygon id="XMLID_3514_" class="st0" points="139.08,141.07 132.11,135.62 128.07,140.13 	"/>
	<polygon id="XMLID_3513_" class="st0" points="139.08,141.07 124.81,146.26 129.54,155.55 	"/>
	<polygon id="XMLID_3512_" class="st0" points="128.07,140.13 124.81,146.26 139.08,141.07 	"/>
	<polygon id="XMLID_3511_" class="st0" points="128.07,140.13 125.72,136.71 121.1,139.82 	"/>
	<polygon id="XMLID_3510_" class="st0" points="121.1,139.82 125.72,136.71 121.66,136.12 	"/>
	<polygon id="XMLID_3509_" class="st0" points="120.38,132.95 114.04,133.37 121.66,136.12 	"/>
	<polygon id="XMLID_3508_" class="st0" points="114.04,133.37 121.1,139.82 121.66,136.12 	"/>
	<polygon id="XMLID_3507_" class="st0" points="124.81,146.26 128.07,140.13 121.1,139.82 	"/>
	<polygon id="XMLID_3506_" class="st0" points="121.1,139.82 109.12,131.86 114.04,133.37 	"/>
	<polygon id="XMLID_3505_" class="st0" points="121.1,139.82 121.1,144.05 109.12,131.86 	"/>
	<polygon id="XMLID_3504_" class="st0" points="124.81,146.26 121.1,144.05 121.1,139.82 	"/>
	<polygon id="XMLID_3503_" class="st0" points="124.81,146.26 119.49,154.93 121.1,144.05 	"/>
	<polygon id="XMLID_3502_" class="st0" points="129.54,155.55 124.81,146.26 119.49,154.93 	"/>
	<polygon id="XMLID_3501_" class="st0" points="119.49,154.93 120.38,162.66 129.54,155.55 	"/>
	<polygon id="XMLID_60_" class="st0" points="121.1,144.05 96.67,142.42 119.49,154.93 	"/>
	<polyline id="XMLID_55_" class="st0" points="121.1,144.05 109.12,131.86 96.67,142.42 103.55,113.71 109.12,131.86 	"/>
	<polygon id="XMLID_54_" class="st0" points="96.67,142.42 112.84,156.97 86.41,171.52 	"/>
	<polygon id="XMLID_53_" class="st0" points="119.49,154.93 112.84,156.97 96.67,142.42 	"/>
	<polygon id="XMLID_3496_" class="st0" points="119.49,154.93 120.38,162.66 112.84,156.97 	"/>
	<polygon id="XMLID_3495_" class="st0" points="120.38,162.66 111.19,168.04 112.84,156.97 	"/>
	<polygon id="XMLID_3494_" class="st0" points="116.69,183.12 120.38,162.66 111.19,168.04 	"/>
	<polygon id="XMLID_64_" class="st0" points="116.69,183.12 86.41,171.52 111.19,168.04 	"/>
	<polygon id="XMLID_63_" class="st0" points="86.41,171.52 112.84,156.97 111.19,168.04 	"/>
	<polygon id="XMLID_59_" class="st0" points="116.69,183.12 86.41,171.52 86.41,171.52 	"/>
	<polygon id="XMLID_58_" class="st0" points="86.41,171.52 62.22,184.23 86.41,171.52 	"/>
	<polygon id="XMLID_57_" class="st0" points="116.69,183.12 92.77,185.18 86.41,171.52 	"/>
	<polygon id="XMLID_56_" class="st0" points="86.41,171.52 62.22,184.23 92.77,185.18 	"/>
	<polygon id="XMLID_3487_" class="st0" points="116.69,183.12 107.67,200.39 92.77,185.18 	"/>
	<polygon id="XMLID_3486_" class="st0" points="127.29,200.55 107.67,200.39 116.69,183.12 	"/>
	<polygon id="XMLID_3485_" class="st0" points="62.22,184.23 62.22,184.23 92.77,185.18 	"/>
	<polygon id="XMLID_3484_" class="st0" points="107.67,200.39 92.77,185.18 88.21,203.49 	"/>
	<polygon id="XMLID_3483_" class="st0" points="62.22,184.23 88.21,203.49 92.77,185.18 	"/>
	<polygon id="XMLID_3482_" class="st0" points="88.21,203.49 62.22,184.23 62.22,184.23 	"/>
	<polygon id="XMLID_3481_" class="st0" points="88.21,203.49 82.42,216.02 62.22,184.23 	"/>
	<polygon id="XMLID_3480_" class="st0" points="107.67,200.39 82.42,216.02 88.21,203.49 	"/>
	<polygon id="XMLID_3479_" class="st0" points="127.29,200.55 115.85,212.71 107.67,200.39 	"/>
	<polygon id="XMLID_3478_" class="st0" points="198.53,220.73 181.85,216.08 189.02,238.99 	"/>
	<polygon id="XMLID_3477_" class="st0" points="160.84,212.84 181.85,216.08 164.41,231.04 	"/>
	<polygon id="XMLID_3476_" class="st0" points="189.02,238.99 181.85,216.08 177.53,233.76 	"/>
	<polygon id="XMLID_3475_" class="st0" points="164.41,231.04 177.53,233.76 181.85,216.08 	"/>
	<polygon id="XMLID_3474_" class="st0" points="160.84,212.84 147,229.95 164.41,231.04 	"/>
	<polygon id="XMLID_3473_" class="st0" points="144.42,204.04 147,229.95 160.84,212.84 	"/>
	<polygon id="XMLID_3472_" class="st0" points="127.29,200.55 131.2,220.14 144.42,204.04 	"/>
	<polygon id="XMLID_3471_" class="st0" points="147,229.95 138.72,222.52 144.42,204.04 	"/>
	<polygon id="XMLID_3470_" class="st0" points="131.2,220.14 138.72,222.52 144.42,204.04 	"/>
	<polygon id="XMLID_3469_" class="st0" points="147,229.95 136.11,228.37 138.72,222.52 	"/>
	<polygon id="XMLID_3468_" class="st0" points="131.2,220.14 136.11,228.37 138.72,222.52 	"/>
	<polygon id="XMLID_3467_" class="st0" points="135.36,241.4 147,229.95 136.11,228.37 	"/>
	<polygon id="XMLID_3466_" class="st0" points="131.2,220.14 123.86,235.48 126.09,249.79 	"/>
	<polygon id="XMLID_3465_" class="st0" points="147,229.95 142.49,246.74 135.36,241.4 	"/>
	<polygon id="XMLID_3464_" class="st0" points="126.09,249.79 121.95,250.84 123.86,235.48 	"/>
	<polygon id="XMLID_3463_" class="st0" points="131.2,220.14 118.92,230.76 123.86,235.48 	"/>
	<polygon id="XMLID_3462_" class="st0" points="121.95,250.84 123.86,235.48 111.73,249.04 	"/>
	<polygon id="XMLID_3461_" class="st0" points="118.92,230.76 111.73,249.04 123.86,235.48 	"/>
	<polygon id="XMLID_3460_" class="st0" points="131.2,220.14 112.84,223.27 118.92,230.76 	"/>
	<polygon id="XMLID_3459_" class="st0" points="127.29,200.55 115.85,212.71 131.2,220.14 	"/>
	<polygon id="XMLID_3458_" class="st0" points="112.84,223.27 115.85,212.71 131.2,220.14 	"/>
	<polygon id="XMLID_3457_" class="st0" points="107.67,200.39 82.42,216.02 115.85,212.71 	"/>
	<polygon id="XMLID_3456_" class="st0" points="112.84,223.27 115.85,212.71 100.98,225.56 	"/>
	<polygon id="XMLID_3455_" class="st0" points="82.42,216.02 100.98,225.56 115.85,212.71 	"/>
	<polygon id="XMLID_3454_" class="st0" points="118.92,230.76 104.81,237.21 112.84,223.27 	"/>
	<polygon id="XMLID_3453_" class="st0" points="100.98,225.56 104.81,237.21 112.84,223.27 	"/>
	<polygon id="XMLID_3452_" class="st0" points="111.73,249.04 118.92,230.76 104.81,237.21 	"/>
	<polygon id="XMLID_3451_" class="st0" points="115.8,261.63 121.95,250.84 111.73,249.04 	"/>
	<polygon id="XMLID_3450_" class="st0" points="104.81,237.21 103.01,253.48 111.73,249.04 	"/>
	<polygon id="XMLID_3449_" class="st0" points="115.8,261.63 103.01,253.48 111.73,249.04 	"/>
	<polygon id="XMLID_3448_" class="st0" points="104.81,237.21 100.98,225.56 79.12,233.76 	"/>
	<polygon id="XMLID_3442_" class="st0" points="82.42,216.02 79.12,233.76 100.98,225.56 	"/>
	<polygon id="XMLID_3440_" class="st0" points="62.22,184.23 59.57,209.33 82.42,216.02 	"/>
	<polygon id="XMLID_3439_" class="st0" points="79.12,233.76 59.57,209.33 82.42,216.02 	"/>
	<polygon id="XMLID_3438_" class="st0" points="60.51,230.81 59.57,209.33 79.12,233.76 	"/>
	<polygon id="XMLID_3437_" class="st0" points="104.81,237.21 85.78,249.04 79.12,233.76 	"/>
	<polygon id="XMLID_3435_" class="st0" points="60.51,230.81 85.78,249.04 79.12,233.76 	"/>
	<polygon id="XMLID_3434_" class="st0" points="103.01,253.48 104.81,237.21 85.78,249.04 	"/>
	<polygon id="XMLID_3433_" class="st0" points="115.8,261.63 111.78,271.4 103.01,253.48 	"/>
	<polygon id="XMLID_3432_" class="st0" points="85.78,249.04 100.1,264.75 103.01,253.48 	"/>
	<polygon id="XMLID_3430_" class="st0" points="111.78,271.4 103.01,253.48 100.1,264.75 	"/>
	<polygon id="XMLID_49_" class="st0" points="82.42,262.47 100.1,264.75 85.78,249.04 	"/>
	<polygon id="XMLID_3425_" class="st0" points="111.78,271.4 103.27,277.63 100.1,264.75 	"/>
	<polygon id="XMLID_48_" class="st0" points="82.42,262.47 81.67,281.36 100.1,264.75 	"/>
	<polygon id="XMLID_3423_" class="st0" points="103.27,277.63 100.1,264.75 81.67,281.36 	"/>
	<polygon id="XMLID_3422_" class="st0" points="111.78,271.4 103.89,286.96 103.27,277.63 	"/>
	<polygon id="XMLID_3421_" class="st0" points="81.67,281.36 103.89,286.96 103.27,277.63 	"/>
	<polygon id="XMLID_45_" class="st0" points="82.42,262.47 73.26,285.79 81.67,281.36 	"/>
	<polygon id="XMLID_3419_" class="st0" points="103.89,286.96 92.99,294.66 81.67,281.36 	"/>
	<polygon id="XMLID_3418_" class="st0" points="101.6,299.89 103.89,286.96 92.99,294.66 	"/>
	<polygon id="XMLID_3417_" class="st0" points="81.67,281.36 84.96,302.5 92.99,294.66 	"/>
	<polygon id="XMLID_43_" class="st0" points="73.26,285.79 84.96,302.5 81.67,281.36 	"/>
	<polygon id="XMLID_3415_" class="st0" points="92.99,294.66 94.25,310.33 84.96,302.5 	"/>
	<polygon id="XMLID_46_" class="st0" points="84.96,311.74 94.25,310.33 84.96,302.5 	"/>
	<polygon id="XMLID_42_" class="st0" points="73.26,285.79 84.96,302.5 73.26,285.79 	"/>
	<polygon id="XMLID_41_" class="st0" points="84.96,311.74 73.26,285.79 84.96,302.5 	"/>
	<polygon id="XMLID_3411_" class="st0" points="94.25,310.33 103.01,309.16 96.67,318.09 	"/>
	<polygon id="XMLID_44_" class="st0" points="84.96,311.74 94.25,310.33 96.67,318.09 	"/>
	<polygon id="XMLID_3409_" class="st0" points="101.6,299.89 94.25,310.33 92.99,294.66 	"/>
	<polygon id="XMLID_3408_" class="st0" points="103.01,309.16 94.25,310.33 101.6,299.89 	"/>
	<polygon id="XMLID_3407_" class="st0" points="126.09,249.79 136.11,228.37 131.2,220.14 	"/>
	<polygon id="XMLID_3406_" class="st0" points="147,229.95 142.49,246.74 154.35,247.3 	"/>
	<polygon id="XMLID_3405_" class="st0" points="132.31,260.22 142.49,246.74 135.36,241.4 	"/>
	<polygon id="XMLID_3404_" class="st0" points="154.35,247.3 142.24,258.8 142.49,246.74 	"/>
	<polygon id="XMLID_3403_" class="st0" points="132.31,260.22 142.24,258.8 142.49,246.74 	"/>
	<polygon id="XMLID_3402_" class="st0" points="147,229.95 164.41,231.04 154.35,247.3 	"/>
	<polygon id="XMLID_3401_" class="st0" points="177.53,233.76 175.03,245.65 164.41,231.04 	"/>
	<polygon id="XMLID_3400_" class="st0" points="154.35,247.3 175.03,245.65 164.41,231.04 	"/>
	<polygon id="XMLID_3399_" class="st0" points="157.99,277.63 154.35,247.3 168.19,258.09 	"/>
	<polygon id="XMLID_3398_" class="st0" points="175.03,245.65 168.19,258.09 154.35,247.3 	"/>
	<polygon id="XMLID_3397_" class="st0" points="173.81,267.05 168.19,258.09 175.03,245.65 	"/>
	<polygon id="XMLID_3396_" class="st0" points="189.02,238.99 183.79,246.9 177.53,233.76 	"/>
	<polygon id="XMLID_3395_" class="st0" points="175.03,245.65 183.79,246.9 177.53,233.76 	"/>
	<polygon id="XMLID_3394_" class="st0" points="180.02,266.53 183.79,246.9 175.03,245.65 	"/>
	<polygon id="XMLID_3393_" class="st0" points="173.81,267.05 180.02,266.53 175.03,245.65 	"/>
	<polygon id="XMLID_3389_" class="st0" points="173.61,274.57 180.02,266.53 173.81,267.05 	"/>
	<polygon id="XMLID_3387_" class="st0" points="167.02,275.52 173.61,274.57 173.81,267.05 	"/>
	<polygon id="XMLID_3386_" class="st0" points="168.19,258.09 167.02,275.52 173.81,267.05 	"/>
	<polygon id="XMLID_3385_" class="st0" points="157.99,277.63 168.19,258.09 167.02,275.52 	"/>
	<polygon id="XMLID_3384_" class="st0" points="173.61,274.57 159.19,297.02 167.02,275.52 	"/>
	<polygon id="XMLID_3383_" class="st0" points="157.99,277.63 159.19,297.02 167.02,275.52 	"/>
	<polygon id="XMLID_3382_" class="st0" points="150.41,310.61 159.19,297.02 157.99,277.63 	"/>
	<polygon id="XMLID_3381_" class="st0" points="142.24,258.8 157.99,277.63 154.35,247.3 	"/>
	<polygon id="XMLID_3380_" class="st0" points="136.41,269.29 142.24,258.8 132.31,260.22 	"/>
	<polygon id="XMLID_3379_" class="st0" points="124.28,289.52 136.41,269.29 132.31,260.22 	"/>
	<polygon id="XMLID_3378_" class="st0" points="142.24,258.8 136.41,269.29 157.99,277.63 	"/>
	<polygon id="XMLID_3377_" class="st0" points="150.41,310.61 157.99,277.63 136.3,295.31 	"/>
	<polygon id="XMLID_3376_" class="st0" points="136.41,269.29 136.3,295.31 157.99,277.63 	"/>
	<polygon id="XMLID_3375_" class="st0" points="124.28,289.52 136.3,295.31 136.41,269.29 	"/>
	<polygon id="XMLID_3374_" class="st0" points="159.19,297.02 147.2,326.15 150.41,310.61 	"/>
	<polygon id="XMLID_3373_" class="st0" points="136.3,295.31 138.96,322.55 150.41,310.61 	"/>
	<polygon id="XMLID_3372_" class="st0" points="147.2,326.15 138.96,322.55 150.41,310.61 	"/>
	<polygon id="XMLID_3371_" class="st0" points="136.3,295.31 125.7,308.17 138.96,322.55 	"/>
	<polygon id="XMLID_3370_" class="st0" points="124.28,289.52 125.7,308.17 136.3,295.31 	"/>
	<polygon id="XMLID_3368_" class="st0" points="118.06,309.9 125.7,308.17 124.28,289.52 	"/>
	<polygon id="XMLID_3367_" class="st0" points="147.2,326.15 135.33,337.6 138.96,322.55 	"/>
	<polygon id="XMLID_3366_" class="st0" points="125.7,308.17 135.33,337.6 138.96,322.55 	"/>
	<polygon id="XMLID_3365_" class="st0" points="118.06,309.9 121.9,328.73 125.7,308.17 	"/>
	<polygon id="XMLID_3364_" class="st0" points="135.33,337.6 121.9,328.73 125.7,308.17 	"/>
	<polygon id="XMLID_3363_" class="st0" points="147.2,326.15 133.85,349.42 135.33,337.6 	"/>
	<polygon id="XMLID_3362_" class="st0" points="121.9,328.73 115.26,349.01 135.33,337.6 	"/>
	<polygon id="XMLID_3361_" class="st0" points="115.26,349.01 121.9,328.73 109.72,339.94 	"/>
	<polygon id="XMLID_3360_" class="st0" points="133.85,349.42 126.46,355.37 135.33,337.6 	"/>
	<polygon id="XMLID_3359_" class="st0" points="115.26,349.01 126.46,355.37 135.33,337.6 	"/>
	<polygon id="XMLID_3358_" class="st0" points="133.85,349.42 126.35,362.21 126.46,355.37 	"/>
	<polygon id="XMLID_3357_" class="st0" points="117.91,366.55 126.35,362.21 126.46,355.37 	"/>
	<polygon id="XMLID_3356_" class="st0" points="117.42,357.57 117.91,366.55 126.46,355.37 	"/>
	<polygon id="XMLID_3355_" class="st0" points="115.26,349.01 117.42,357.57 126.46,355.37 	"/>
	<polygon id="XMLID_40_" class="st0" points="81.67,328.28 115.26,349.01 109.72,339.94 	"/>
	<polygon id="XMLID_39_" class="st0" points="117.42,357.57 81.67,328.28 115.26,349.01 	"/>
	<polygon id="XMLID_3352_" class="st0" points="117.91,366.55 111.73,363.15 117.42,357.57 	"/>
	<polygon id="XMLID_31_" class="st0" points="81.67,328.28 111.73,363.15 117.42,357.57 	"/>
	<polygon id="XMLID_3350_" class="st0" points="198.53,220.73 197.08,246.48 189.02,238.99 	"/>
	<polygon id="XMLID_3349_" class="st0" points="183.79,246.9 197.08,246.48 189.02,238.99 	"/>
	<polygon id="XMLID_3348_" class="st0" points="184.78,271.29 190.67,255.15 193.16,284.37 	"/>
	<polygon id="XMLID_3347_" class="st0" points="197.08,246.48 198.1,268.33 190.67,255.15 	"/>
	<polygon id="XMLID_3346_" class="st0" points="183.79,246.9 190.67,255.15 197.08,246.48 	"/>
	<polygon id="XMLID_3345_" class="st0" points="180.02,266.53 190.67,255.15 183.79,246.9 	"/>
	<polygon id="XMLID_3344_" class="st0" points="184.78,271.29 180.02,266.53 190.67,255.15 	"/>
	<polygon id="XMLID_3343_" class="st0" points="193.16,284.37 173.61,274.57 184.78,271.29 	"/>
	<polygon id="XMLID_3342_" class="st0" points="180.02,266.53 173.61,274.57 184.78,271.29 	"/>
	<polygon id="XMLID_3341_" class="st0" points="222.11,163.89 231.09,171.4 228.73,163.26 	"/>
	<polygon id="XMLID_3340_" class="st0" points="228.27,179.64 231.09,171.4 222.11,163.89 	"/>
	<polygon id="XMLID_3339_" class="st0" points="220.7,184.24 228.27,179.64 222.11,163.89 	"/>
	<polygon id="XMLID_3338_" class="st0" points="217.97,173.58 220.7,184.24 222.11,163.89 	"/>
	<polygon id="XMLID_3337_" class="st0" points="218.54,157.58 228.73,163.26 225.53,155.17 	"/>
	<polygon id="XMLID_3336_" class="st0" points="222.11,163.89 218.54,157.58 228.73,163.26 	"/>
	<polygon id="XMLID_3335_" class="st0" points="225.53,155.17 219.39,153.11 218.54,157.58 	"/>
	<polygon id="XMLID_3334_" class="st0" points="222.11,163.89 218.49,165.25 218.54,157.58 	"/>
	<polygon id="XMLID_3333_" class="st0" points="217.97,173.58 222.11,163.89 218.49,165.25 	"/>
	<polygon id="XMLID_3332_" class="st0" points="219.39,153.11 220.54,148.86 225.53,155.17 	"/>
	<polygon id="XMLID_3331_" class="st0" points="214.13,148.2 220.54,148.86 215.98,143.31 	"/>
	<polygon id="XMLID_3330_" class="st0" points="218.54,157.58 216.93,157.97 219.39,153.11 	"/>
	<polygon id="XMLID_3329_" class="st0" points="213.95,151.68 219.39,153.11 216.93,157.97 	"/>
	<polygon id="XMLID_3328_" class="st0" points="214.13,148.2 219.39,153.11 220.54,148.86 	"/>
	<polygon id="XMLID_3326_" class="st0" points="198.1,268.33 190.67,255.15 193.16,284.37 	"/>
	<polygon id="XMLID_3325_" class="st0" points="173.61,274.57 182.95,292.31 193.16,284.37 	"/>
	<polygon id="XMLID_3324_" class="st0" points="198.1,268.33 193.16,284.37 203.55,284.49 	"/>
	<polygon id="XMLID_3323_" class="st0" points="182.95,292.31 199.44,311.97 193.16,284.37 	"/>
	<polygon id="XMLID_3322_" class="st0" points="203.55,284.49 199.44,311.97 193.16,284.37 	"/>
	<polygon id="XMLID_3321_" class="st0" points="182.95,292.31 171.22,300.2 181.09,317.08 	"/>
	<polygon id="XMLID_3320_" class="st0" points="190.6,316.88 182.95,292.31 181.09,317.08 	"/>
	<polygon id="XMLID_3319_" class="st0" points="199.44,311.97 182.95,292.31 190.6,316.88 	"/>
	<polygon id="XMLID_3318_" class="st0" points="181.09,317.08 182.75,336.71 190.6,316.88 	"/>
	<polygon id="XMLID_3317_" class="st0" points="191.69,327.05 190.6,316.88 182.75,336.71 	"/>
	<polygon id="XMLID_3316_" class="st0" points="199.44,311.97 191.69,327.05 190.6,316.88 	"/>
	<polygon id="XMLID_3314_" class="st0" points="203.55,284.49 205.02,293.81 199.44,311.97 	"/>
	<polygon id="XMLID_3313_" class="st0" points="209.35,275.99 203.55,284.49 205.02,293.81 	"/>
	<polygon id="XMLID_3312_" class="st0" points="205.68,265.66 209.35,275.99 203.55,284.49 	"/>
	<polygon id="XMLID_3311_" class="st0" points="198.1,268.33 205.68,265.66 203.55,284.49 	"/>
	<polygon id="XMLID_3310_" class="st0" points="210.36,261.38 205.68,265.66 209.35,275.99 	"/>
	<polygon id="XMLID_3309_" class="st0" points="197.08,246.48 205.68,265.66 198.1,268.33 	"/>
	<polygon id="XMLID_3308_" class="st0" points="210.36,261.38 208.49,248.73 205.68,265.66 	"/>
	<polygon id="XMLID_3307_" class="st0" points="197.08,246.48 201.03,239.08 205.68,265.66 	"/>
	<polygon id="XMLID_3306_" class="st0" points="208.49,248.73 201.03,239.08 205.68,265.66 	"/>
	<polygon id="XMLID_3305_" class="st0" points="210.36,261.38 212.75,244.52 208.49,248.73 	"/>
	<polygon id="XMLID_3304_" class="st0" points="201.03,239.08 211.64,237.78 208.49,248.73 	"/>
	<polygon id="XMLID_3303_" class="st0" points="212.75,244.52 211.64,237.78 208.49,248.73 	"/>
	<polygon id="XMLID_3302_" class="st0" points="198.53,220.73 201.03,239.08 197.08,246.48 	"/>
	<polygon id="XMLID_3301_" class="st0" points="211.64,237.78 211.57,218.14 201.03,239.08 	"/>
	<polygon id="XMLID_3300_" class="st0" points="198.53,220.73 211.57,218.14 201.03,239.08 	"/>
	<polygon id="XMLID_3299_" class="st0" points="208.36,200.92 211.57,218.14 198.53,220.73 	"/>
	<polygon id="XMLID_3298_" class="st0" points="211.64,237.78 215.52,226.46 211.57,218.14 	"/>
	<polygon id="XMLID_3297_" class="st0" points="215.62,232.97 212.75,244.52 211.64,237.78 	"/>
	<polygon id="XMLID_3296_" class="st0" points="215.52,226.46 215.62,232.97 211.64,237.78 	"/>
	<polygon id="XMLID_3295_" class="st0" points="211.57,218.14 220.78,220.04 215.52,226.46 	"/>
	<polygon id="XMLID_3294_" class="st0" points="215.62,232.97 220.78,220.04 215.52,226.46 	"/>
	<polygon id="XMLID_3293_" class="st0" points="211.57,218.14 222.09,211.31 220.78,220.04 	"/>
	<polygon id="XMLID_3292_" class="st0" points="226.22,209.85 222.09,211.31 220.78,220.04 	"/>
	<polygon id="XMLID_3291_" class="st0" points="221.85,197.33 226.22,209.85 222.09,211.31 	"/>
	<polygon id="XMLID_3290_" class="st0" points="211.57,218.14 221.85,197.33 222.09,211.31 	"/>
	<polygon id="XMLID_3289_" class="st0" points="208.36,200.92 221.85,197.33 211.57,218.14 	"/>
	<polygon id="XMLID_3288_" class="st0" points="226.22,209.85 228.3,190.92 221.85,197.33 	"/>
	<polygon id="XMLID_3287_" class="st0" points="215.19,185.62 221.85,197.33 208.36,200.92 	"/>
	<polygon id="XMLID_3286_" class="st0" points="217.97,173.58 215.19,185.62 220.7,184.24 	"/>
	<polygon id="XMLID_3285_" class="st0" points="228.27,179.64 236.8,182.42 232.92,187.94 	"/>
	<polygon id="XMLID_3284_" class="st0" points="220.7,184.24 221.85,197.33 215.19,185.62 	"/>
	<polygon id="XMLID_3283_" class="st0" points="228.3,190.92 220.7,184.24 221.85,197.33 	"/>
	<polygon id="XMLID_3282_" class="st0" points="228.27,179.64 228.3,190.92 220.7,184.24 	"/>
	<polygon id="XMLID_3281_" class="st0" points="232.92,187.94 228.3,190.92 228.27,179.64 	"/>
	<polygon id="XMLID_3280_" class="st0" points="226.22,209.85 231.22,196.1 228.3,190.92 	"/>
	<polygon id="XMLID_3279_" class="st0" points="232.92,187.94 231.22,196.1 228.3,190.92 	"/>
	<polygon id="XMLID_3278_" class="st0" points="236.8,182.42 237.1,187.21 232.92,187.94 	"/>
	<polygon id="XMLID_3277_" class="st0" points="231.22,196.1 237.1,187.21 232.92,187.94 	"/>
	<polygon id="XMLID_3276_" class="st0" points="232.92,200.74 237.1,187.21 231.22,196.1 	"/>
	<polygon id="XMLID_3275_" class="st0" points="226.22,209.85 232.92,200.74 231.22,196.1 	"/>
	<polygon id="XMLID_3274_" class="st0" points="171.22,300.2 173.61,274.57 182.95,292.31 	"/>
	<polygon id="XMLID_3273_" class="st0" points="181.09,317.08 170.15,321.7 171.22,300.2 	"/>
	<polygon id="XMLID_3272_" class="st0" points="182.75,336.71 178.09,328.23 181.09,317.08 	"/>
	<polygon id="XMLID_3271_" class="st0" points="170.15,321.7 178.09,328.23 181.09,317.08 	"/>
	<polygon id="XMLID_3270_" class="st0" points="174.1,334.87 182.75,336.71 178.09,328.23 	"/>
	<polygon id="XMLID_3269_" class="st0" points="170.15,321.7 174.1,334.87 178.09,328.23 	"/>
	<polygon id="XMLID_3268_" class="st0" points="170.65,343.82 174.1,334.87 164.09,338.38 	"/>
	<polygon id="XMLID_3267_" class="st0" points="182.75,336.71 170.65,343.82 174.1,334.87 	"/>
	<polygon id="XMLID_3266_" class="st0" points="170.15,321.7 164.09,338.38 174.1,334.87 	"/>
	<polygon id="XMLID_3265_" class="st0" points="170.65,343.82 163.28,348.41 164.14,352.33 	"/>
	<polygon id="XMLID_3264_" class="st0" points="164.09,338.38 163.28,348.41 170.65,343.82 	"/>
	<polygon id="XMLID_3263_" class="st0" points="170.15,321.7 157.83,338.47 164.09,338.38 	"/>
	<polygon id="XMLID_3262_" class="st0" points="163.28,348.41 157.83,338.47 164.09,338.38 	"/>
	<polygon id="XMLID_3261_" class="st0" points="170.15,321.7 151.44,337.86 157.83,338.47 	"/>
	<polygon id="XMLID_3260_" class="st0" points="163.28,348.41 156.79,351.99 157.83,338.47 	"/>
	<polygon id="XMLID_3259_" class="st0" points="164.14,352.33 158.49,354.91 163.28,348.41 	"/>
	<polygon id="XMLID_3258_" class="st0" points="156.79,351.99 158.49,354.91 163.28,348.41 	"/>
	<polygon id="XMLID_3257_" class="st0" points="157.83,338.47 152.08,349.39 156.79,351.99 	"/>
	<polygon id="XMLID_3256_" class="st0" points="158.49,354.91 156.79,351.99 153.55,353.38 	"/>
	<polygon id="XMLID_3255_" class="st0" points="152.08,349.39 153.55,353.38 156.79,351.99 	"/>
	<polygon id="XMLID_3254_" class="st0" points="151.44,337.86 152.08,349.39 157.83,338.47 	"/>
	<polygon id="XMLID_3253_" class="st0" points="153.55,353.38 150.38,350.4 152.08,349.39 	"/>
	<polygon id="XMLID_3252_" class="st0" points="151.44,337.86 150.13,346.17 152.08,349.39 	"/>
	<polygon id="XMLID_3251_" class="st0" points="150.38,350.4 150.13,346.17 152.08,349.39 	"/>
	<polygon id="XMLID_3250_" class="st0" points="171.22,300.2 167.93,316.46 170.15,321.7 	"/>
	<polygon id="XMLID_3249_" class="st0" points="151.44,337.86 167.93,316.46 170.15,321.7 	"/>
	<polygon id="XMLID_3248_" class="st0" points="231.09,171.4 236.8,182.42 228.27,179.64 	"/>
	<polygon id="XMLID_3247_" class="st0" points="235.24,169.79 231.09,171.4 236.8,182.42 	"/>
	<polygon id="XMLID_3246_" class="st0" points="237.1,187.21 240.4,178.75 236.8,182.42 	"/>
	<polygon id="XMLID_3245_" class="st0" points="235.24,169.79 239.93,172.76 236.8,182.42 	"/>
	<polygon id="XMLID_3244_" class="st0" points="240.4,178.75 239.93,172.76 236.8,182.42 	"/>
	<polygon id="XMLID_3243_" class="st0" points="242.66,170.07 240.4,178.75 239.93,172.76 	"/>
	<polygon id="XMLID_3242_" class="st0" points="238.67,166.7 242.66,170.07 239.93,172.76 	"/>
	<polygon id="XMLID_3241_" class="st0" points="235.24,169.79 238.67,166.7 239.93,172.76 	"/>
	<polygon id="XMLID_3240_" class="st0" points="231.09,171.4 235.24,169.79 228.73,163.26 	"/>
	<polygon id="XMLID_3239_" class="st0" points="231.83,160.18 235.24,169.79 228.73,163.26 	"/>
	<polygon id="XMLID_3238_" class="st0" points="225.53,155.17 231.83,160.18 228.73,163.26 	"/>
	<polygon id="XMLID_3237_" class="st0" points="238.67,166.7 231.83,160.18 235.24,169.79 	"/>
	<polygon id="XMLID_3236_" class="st0" points="242.66,170.07 240.46,162.22 238.67,166.7 	"/>
	<polygon id="XMLID_3235_" class="st0" points="242.48,160.66 242.66,170.07 240.46,162.22 	"/>
	<polygon id="XMLID_3234_" class="st0" points="237.72,151.6 242.48,160.66 238.47,156.51 	"/>
	<polygon id="XMLID_3233_" class="st0" points="240.46,162.22 238.47,156.51 242.48,160.66 	"/>
	<polygon id="XMLID_3232_" class="st0" points="238.67,166.7 235.26,157.94 240.46,162.22 	"/>
	<polygon id="XMLID_3231_" class="st0" points="238.47,156.51 235.26,157.94 240.46,162.22 	"/>
	<polygon id="XMLID_3230_" class="st0" points="237.72,151.6 231.94,149.18 238.47,156.51 	"/>
	<polygon id="XMLID_3229_" class="st0" points="230.21,151.61 238.47,156.51 231.94,149.18 	"/>
	<polygon id="XMLID_3228_" class="st0" points="235.26,157.94 238.47,156.51 230.21,151.61 	"/>
	<polygon id="XMLID_3227_" class="st0" points="238.67,166.7 235.26,157.94 231.83,160.18 	"/>
	<polygon id="XMLID_3226_" class="st0" points="230.21,151.61 225.53,155.17 235.26,157.94 	"/>
	<polygon id="XMLID_3225_" class="st0" points="231.83,160.18 235.26,157.94 225.53,155.17 	"/>
	<polygon id="XMLID_3224_" class="st0" points="230.21,151.61 220.54,148.86 225.53,155.17 	"/>
	<polygon id="XMLID_3223_" class="st0" points="231.94,149.18 220.54,148.86 230.21,151.61 	"/>
	<polygon id="XMLID_3222_" class="st0" points="237.72,151.6 228.09,143.29 231.94,149.18 	"/>
	<polygon id="XMLID_3221_" class="st0" points="220.54,148.86 222.84,144.77 231.94,149.18 	"/>
	<polygon id="XMLID_3220_" class="st0" points="215.98,143.31 222.84,144.77 220.54,148.86 	"/>
	<polygon id="XMLID_3219_" class="st0" points="228.09,143.29 225.48,143.34 231.94,149.18 	"/>
	<polygon id="XMLID_3218_" class="st0" points="220.84,139.36 225.48,143.34 228.09,143.29 	"/>
	<polygon id="XMLID_3217_" class="st0" points="222.84,144.77 225.48,143.34 231.94,149.18 	"/>
	<polygon id="XMLID_3216_" class="st0" points="220.84,139.36 216.43,139.79 225.48,143.34 	"/>
	<polygon id="XMLID_3215_" class="st0" points="222.84,144.77 216.43,139.79 225.48,143.34 	"/>
	<polygon id="XMLID_3214_" class="st0" points="215.98,143.31 216.43,139.79 222.84,144.77 	"/>
	<polygon id="XMLID_3213_" class="st0" points="220.84,139.36 211.57,137.16 216.43,139.79 	"/>
	<polygon id="XMLID_3212_" class="st0" points="215.98,143.31 216.43,139.79 210.88,140.16 	"/>
	<polygon id="XMLID_3211_" class="st0" points="211.57,137.16 216.43,139.79 203.79,137.4 	"/>
	<polygon id="XMLID_3210_" class="st0" points="210.88,140.16 203.79,137.4 216.43,139.79 	"/>
	<polygon id="XMLID_3209_" class="st0" points="215.98,143.31 210.88,140.16 208.96,142.31 	"/>
	<polygon id="XMLID_3208_" class="st0" points="203.79,137.4 208.96,142.31 210.88,140.16 	"/>
	<polygon id="XMLID_3207_" class="st0" points="214.13,148.2 213.95,151.68 219.39,153.11 	"/>
	<polygon id="XMLID_3206_" class="st0" points="208,145.53 214.13,148.2 213.95,151.68 	"/>
	<polygon id="XMLID_3205_" class="st0" points="208.96,142.31 214.13,148.2 215.98,143.31 	"/>
	<polygon id="XMLID_3204_" class="st0" points="208,145.53 208.96,142.31 214.13,148.2 	"/>
	<polygon id="XMLID_3203_" class="st0" points="203.79,137.4 201.37,138.4 208.96,142.31 	"/>
	<polygon id="XMLID_3202_" class="st0" points="194.91,137.31 203.79,137.4 201.37,138.4 	"/>
	<polygon id="XMLID_3201_" class="st0" points="208,145.53 205.56,142.42 208.96,142.31 	"/>
	<polygon id="XMLID_3200_" class="st0" points="201.37,138.4 205.56,142.42 208.96,142.31 	"/>
	<polygon id="XMLID_3199_" class="st0" points="200.94,140.42 205.56,142.42 208,145.53 	"/>
	<polygon id="XMLID_3198_" class="st0" points="197.88,137.23 189.49,130.47 191.7,134.67 	"/>
	<polygon id="XMLID_3197_" class="st0" points="186.43,130.19 189.49,130.47 191.7,134.67 	"/>
	<polygon id="XMLID_3196_" class="st0" points="184.86,132.27 186.43,130.19 191.7,134.67 	"/>
	<polygon id="XMLID_3195_" class="st0" points="189.34,134.69 191.7,134.67 184.86,132.27 	"/>
	<polygon id="XMLID_3194_" class="st0" points="186.43,130.19 182.83,126.12 189.49,130.47 	"/>
	<polygon id="XMLID_3193_" class="st0" points="182.93,129.55 182.83,126.12 186.43,130.19 	"/>
	<polygon id="XMLID_3192_" class="st0" points="184.86,132.27 182.93,129.55 186.43,130.19 	"/>
	<polygon id="XMLID_3191_" class="st0" points="182.93,129.55 181.84,132.79 184.86,132.27 	"/>
	<polygon id="XMLID_3190_" class="st0" points="182.83,126.12 177.41,123.62 180.3,126 	"/>
	<polygon id="XMLID_3189_" class="st0" points="182.93,129.55 180.3,126 182.83,126.12 	"/>
	<polygon id="XMLID_3188_" class="st0" points="177.41,123.62 171.71,122.61 180.3,126 	"/>
	<polygon id="XMLID_3187_" class="st0" points="182.93,129.55 178.2,127.02 180.3,126 	"/>
	<polygon id="XMLID_3186_" class="st0" points="171.71,122.61 178.2,127.02 180.3,126 	"/>
	<polygon id="XMLID_3185_" class="st0" points="170.11,122.93 171.71,122.61 178.2,127.02 	"/>
	<polygon id="XMLID_3184_" class="st0" points="165.87,122.43 171.71,122.61 170.11,122.93 	"/>
	<polygon id="XMLID_3183_" class="st0" points="164.92,123.9 170.11,122.93 165.87,122.43 	"/>
	<polygon id="XMLID_3182_" class="st0" points="159.78,123.52 164.92,123.9 165.87,122.43 	"/>
	<polygon id="XMLID_3181_" class="st0" points="170.11,122.93 168.53,125.53 164.92,123.9 	"/>
	<polygon id="XMLID_3180_" class="st0" points="166.72,126.51 164.92,123.9 168.53,125.53 	"/>
	<polygon id="XMLID_3179_" class="st0" points="178.2,127.02 168.53,125.53 170.11,122.93 	"/>
	<polygon id="XMLID_3178_" class="st0" points="179.68,130.94 182.93,129.55 178.2,127.02 	"/>
	<polygon id="XMLID_3177_" class="st0" points="168.53,125.53 179.68,130.94 178.2,127.02 	"/>
	<polygon id="XMLID_3176_" class="st0" points="166.72,126.51 169.33,128.32 168.53,125.53 	"/>
	<polygon id="XMLID_3175_" class="st0" points="179.68,130.94 176.91,132.43 172.67,129.28 	"/>
	<polygon id="XMLID_3174_" class="st0" points="189.34,134.69 197.88,137.23 191.7,134.67 	"/>
	<polygon id="XMLID_3173_" class="st0" points="195.11,137.31 189.34,134.69 197.88,137.23 	"/>
	<polygon id="XMLID_3172_" class="st0" points="184.86,132.27 185.75,134.11 181.84,132.79 	"/>
	<polygon id="XMLID_3171_" class="st0" points="189.34,134.69 184.86,132.27 185.75,134.11 	"/>
	<polygon id="XMLID_3170_" class="st0" points="194.91,137.31 186.53,135.19 189.34,134.69 	"/>
	<polygon id="XMLID_3169_" class="st0" points="185.75,134.11 186.53,135.19 189.34,134.69 	"/>
	<polygon id="XMLID_3168_" class="st0" points="181.84,132.79 186.53,135.19 185.75,134.11 	"/>
	<polygon id="XMLID_3167_" class="st0" points="172.67,129.28 168.53,125.53 179.68,130.94 	"/>
	<polygon id="XMLID_3166_" class="st0" points="169.33,128.32 172.67,129.28 168.53,125.53 	"/>
	<polygon id="XMLID_3165_" class="st0" points="172.45,131.39 176.91,132.43 172.67,129.28 	"/>
	<polygon id="XMLID_3164_" class="st0" points="169.33,128.32 172.45,131.39 172.67,129.28 	"/>
	<polygon id="XMLID_3163_" class="st0" points="168.61,129.34 172.45,131.39 169.33,128.32 	"/>
	<polygon id="XMLID_3162_" class="st0" points="166.72,126.51 168.61,129.34 169.33,128.32 	"/>
	<polygon id="XMLID_3161_" class="st0" points="164.92,123.9 163.98,125.11 159.78,123.52 	"/>
	<polygon id="XMLID_3160_" class="st0" points="166.72,126.51 164.92,123.9 163.98,125.11 	"/>
	<polygon id="XMLID_3159_" class="st0" points="168.61,129.34 164.95,126.76 166.72,126.51 	"/>
	<polygon id="XMLID_3158_" class="st0" points="163.98,125.11 164.95,126.76 166.72,126.51 	"/>
	<polygon id="XMLID_3157_" class="st0" points="159.78,123.52 163.98,125.11 164.95,126.76 	"/>
	<polygon id="XMLID_3156_" class="st0" points="172.45,131.39 169.08,130.29 168.61,129.34 	"/>
	<polygon id="XMLID_3155_" class="st0" points="164.95,126.76 169.08,130.29 168.61,129.34 	"/>
	<polygon id="XMLID_3154_" class="st0" points="181.84,132.79 179.68,130.94 182.93,129.55 	"/>
	<polygon id="XMLID_3153_" class="st0" points="176.91,132.43 181.84,132.79 179.68,130.94 	"/>
	<polygon id="XMLID_3152_" class="st0" points="186.53,135.19 176.45,134.45 181.29,134.04 	"/>
	<polygon id="XMLID_3151_" class="st0" points="181.84,132.79 181.29,134.04 186.53,135.19 	"/>
	<polygon id="XMLID_3150_" class="st0" points="176.91,132.43 181.29,134.04 181.84,132.79 	"/>
	<polygon id="XMLID_3149_" class="st0" points="176.45,134.45 176.91,132.43 181.29,134.04 	"/>
	<polygon id="XMLID_3148_" class="st0" points="172.45,131.39 176.45,134.45 176.91,132.43 	"/>
	<polygon id="XMLID_3147_" class="st0" points="169.08,130.29 176.45,134.45 172.45,131.39 	"/>
	<polygon id="XMLID_3146_" class="st0" points="126.09,249.79 135.36,241.4 136.11,228.37 	"/>
	<polygon id="XMLID_3145_" class="st0" points="132.31,260.22 128.35,252.82 135.36,241.4 	"/>
	<polygon id="XMLID_3144_" class="st0" points="126.09,249.79 128.35,252.82 135.36,241.4 	"/>
	<polygon id="XMLID_3143_" class="st0" points="132.31,260.22 128.35,252.82 126.1,266.12 	"/>
	<polygon id="XMLID_3142_" class="st0" points="126.1,266.12 124.28,289.52 132.31,260.22 	"/>
	<polygon id="XMLID_3141_" class="st0" points="124.28,289.52 121.84,285.07 126.1,266.12 	"/>
	<polygon id="XMLID_3140_" class="st0" points="118.06,309.9 121.84,285.07 124.28,289.52 	"/>
	<polygon id="XMLID_3139_" class="st0" points="118.06,309.9 115.03,324.82 121.9,328.73 	"/>
	<polygon id="XMLID_3138_" class="st0" points="109.72,339.94 121.9,328.73 115.03,324.82 	"/>
	<circle id="XMLID_3137_" cx="116.03" cy="212.76" r="1.71"/>
	<circle id="XMLID_3136_" cx="104.98" cy="237.26" r="1.71"/>
	<circle id="XMLID_3135_" cx="122.08" cy="250.75" r="1.71"/>
	<circle id="XMLID_3134_" cx="100.1" cy="264.75" r="1.71"/>
	<circle id="XMLID_3133_" cx="103.8" cy="286.93" r="1.71"/>
	<circle id="XMLID_3132_" cx="94.7" cy="310.03" r="1.71"/>
	<circle id="XMLID_3131_" cx="116.69" cy="183.12" r="1.71"/>
	<circle id="XMLID_3130_" cx="82.88" cy="215.67" r="1.71"/>
	<circle id="XMLID_3129_" cx="143.55" cy="171.96" r="1.71"/>
	<circle id="XMLID_3128_" cx="139.08" cy="141.07" r="1.71"/>
	<circle id="XMLID_3127_" cx="130.4" cy="124.05" r="1.71"/>
	<circle id="XMLID_3126_" cx="121.16" cy="139.77" r="1.71"/>
	<circle id="XMLID_3125_" cx="157.25" cy="148.77" r="1.71"/>
	<circle id="XMLID_3124_" cx="180.75" cy="166.33" r="1.71"/>
	<circle id="XMLID_3123_" cx="164.39" cy="231.07" r="1.71"/>
	<circle id="XMLID_3122_" cx="189.16" cy="239.03" r="1.71"/>
	<circle id="XMLID_3121_" cx="211.57" cy="218.14" r="1.71"/>
	<circle id="XMLID_3120_" cx="208.73" cy="248.46" r="1.71"/>
	<circle id="XMLID_3119_" cx="198.1" cy="268.33" r="1.71"/>
	<circle id="XMLID_3118_" cx="182.89" cy="292.49" r="1.71"/>
	<circle id="XMLID_3117_" cx="205.09" cy="293.56" r="1.71"/>
	<circle id="XMLID_3116_" cx="191.88" cy="326.45" r="1.71"/>
	<circle id="XMLID_3115_" cx="174.1" cy="334.87" r="1.71"/>
	<circle id="XMLID_3114_" cx="157.83" cy="338.47" r="1.71"/>
	<circle id="XMLID_3113_" cx="158.47" cy="354.97" r="1.71"/>
	<circle id="XMLID_3112_" cx="142.22" cy="258.84" r="1.71"/>
	<circle id="XMLID_3111_" cx="166.94" cy="275.76" r="1.71"/>
	<circle id="XMLID_3110_" cx="136.34" cy="295.17" r="1.71"/>
	<circle id="XMLID_3109_" cx="147.2" cy="326.15" r="1.71"/>
	<circle id="XMLID_3108_" cx="121.9" cy="328.73" r="1.71"/>
	<circle id="XMLID_3107_" cx="126.46" cy="355.37" r="1.71"/>
	<circle id="XMLID_3106_" cx="111.73" cy="363.15" r="1.71"/>
	<circle id="XMLID_3105_" cx="181.32" cy="197.17" r="1.71"/>
	<circle id="XMLID_3104_" cx="212.66" cy="179.21" r="1.71"/>
	<circle id="XMLID_3103_" cx="221.85" cy="197.33" r="1.71"/>
	<circle id="XMLID_3102_" cx="235.24" cy="169.79" r="1.71"/>
	<circle id="XMLID_3101_" cx="225.28" cy="155.09" r="1.71"/>
	<circle id="XMLID_3100_" cx="198.79" cy="145.59" r="1.71"/>
	<circle id="XMLID_3099_" cx="231.92" cy="149.24" r="1.71"/>
	<circle id="XMLID_3098_" cx="160.48" cy="128.69" r="1.71"/>
	<circle id="XMLID_3097_" cx="178.18" cy="127.1" r="1.71"/>
	<circle id="XMLID_301_" cx="209.05" cy="142.12" r="1.71"/>
	<circle id="XMLID_289_" cx="186.48" cy="135.36" r="1.71"/>
	<circle id="XMLID_275_" cx="144.42" cy="204.04" r="1.71"/>
	<polygon id="XMLID_273_" class="st0" points="201.37,138.4 200.94,140.42 205.56,142.42 	"/>
	<polygon id="XMLID_259_" class="st0" points="201.37,138.4 195.11,137.31 200.94,140.42 	"/>
</g>
</svg>
