<?xml version="1.0" encoding="utf-8"?>
<!-- Generator: Adobe Illustrator 25.2.3, SVG Export Plug-In . SVG Version: 6.00 Build 0)  -->
<svg version="1.1" id="Layer_1" xmlns="http://www.w3.org/2000/svg" xmlns:xlink="http://www.w3.org/1999/xlink" x="0px" y="0px"
	 viewBox="0 0 218.64 637.52" style="enable-background:new 0 0 218.64 637.52;" xml:space="preserve">
<style type="text/css">
	.st0{fill:none;stroke:#231F20;stroke-width:0.25;stroke-linejoin:round;stroke-miterlimit:10;}
	.st1{fill:#231F20;}
</style>
<g id="T2">
</g>
<g id="T1">
</g>
<g>
	<polygon id="XMLID_1276_" class="st0" points="50.78,150.42 43.26,128.84 111.49,171.36 	"/>
	<polygon id="XMLID_1275_" class="st0" points="50.78,150.42 28.55,130.39 78.02,85.97 	"/>
	<polygon id="XMLID_1274_" class="st0" points="50.78,150.42 111.49,171.36 88.42,151.27 	"/>
	<polygon id="XMLID_1273_" class="st0" points="50.78,150.42 78.02,85.97 103.12,100.46 	"/>
	<polygon id="XMLID_1272_" class="st0" points="50.78,150.42 88.42,151.27 28.55,130.39 	"/>
	<polygon id="XMLID_1271_" class="st0" points="50.78,150.42 103.12,100.46 43.26,128.84 	"/>
	<polygon id="XMLID_1270_" class="st0" points="103.12,158.43 128.23,172.92 103.12,187.41 	"/>
	<polygon id="XMLID_1269_" class="st0" points="103.12,158.43 111.49,171.36 43.26,128.84 	"/>
	<polygon id="XMLID_1268_" class="st0" points="103.12,158.43 103.12,187.41 0.12,225.77 	"/>
	<polygon id="XMLID_1267_" class="st0" points="103.12,158.43 43.26,128.84 128.23,143.94 	"/>
	<polygon id="XMLID_1266_" class="st0" points="103.12,158.43 0.12,225.77 111.49,171.36 	"/>
	<polygon id="XMLID_1265_" class="st0" points="103.12,158.43 128.23,143.94 128.23,172.92 	"/>
	<circle id="XMLID_1264_" class="st1" cx="103.12" cy="158.43" r="1.71"/>
	<polygon id="XMLID_1263_" class="st0" points="97.67,147.54 153.33,129.45 128.23,143.94 	"/>
	<polygon id="XMLID_1262_" class="st0" points="97.67,147.54 103.12,100.46 126.4,0.12 	"/>
	<polygon id="XMLID_1261_" class="st0" points="97.67,147.54 128.23,143.94 43.26,128.84 	"/>
	<polygon id="XMLID_1260_" class="st0" points="97.67,147.54 126.4,0.12 153.33,100.46 	"/>
	<polygon id="XMLID_1259_" class="st0" points="97.67,147.54 43.26,128.84 103.12,100.46 	"/>
	<polygon id="XMLID_1258_" class="st0" points="97.67,147.54 153.33,100.46 153.33,129.45 	"/>
	<circle id="XMLID_1257_" class="st1" cx="97.67" cy="147.54" r="1.71"/>
	<circle id="XMLID_1256_" class="st1" cx="50.78" cy="150.42" r="1.71"/>
	<polygon id="XMLID_1254_" class="st0" points="190.51,158.43 128.23,143.94 153.33,129.45 	"/>
	<polygon id="XMLID_1253_" class="st0" points="190.51,158.43 153.33,187.41 128.23,172.92 	"/>
	<polygon id="XMLID_1251_" class="st0" points="190.51,158.43 128.23,172.92 128.23,143.94 	"/>
	<polygon id="XMLID_1094_" class="st0" points="78.02,201.9 103.12,216.39 78.02,230.88 	"/>
	<polygon id="XMLID_1093_" class="st0" points="78.02,201.9 41.47,165.67 0.12,225.77 	"/>
	<polygon id="XMLID_1092_" class="st0" points="78.02,201.9 78.02,230.88 52.92,216.39 	"/>
	<polygon id="XMLID_1091_" class="st0" points="78.02,201.9 0.12,225.77 103.12,187.41 	"/>
	<polygon id="XMLID_1090_" class="st0" points="78.02,201.9 52.92,216.39 41.47,165.67 	"/>
	<polygon id="XMLID_1089_" class="st0" points="78.02,201.9 103.12,187.41 103.12,216.39 	"/>
	<circle id="XMLID_1088_" class="st1" cx="78.02" cy="201.9" r="1.71"/>
	<polygon id="XMLID_1087_" class="st0" points="103.12,245.37 128.23,259.87 103.12,274.36 	"/>
	<polygon id="XMLID_1086_" class="st0" points="103.12,245.37 78.02,230.88 103.12,216.39 	"/>
	<polygon id="XMLID_1085_" class="st0" points="103.12,245.37 103.12,274.36 52.92,243.66 	"/>
	<polygon id="XMLID_1084_" class="st0" points="103.12,245.37 103.12,216.39 128.23,230.88 	"/>
	<polygon id="XMLID_1083_" class="st0" points="103.12,245.37 52.92,243.66 78.02,230.88 	"/>
	<polygon id="XMLID_1082_" class="st0" points="103.12,245.37 128.23,230.88 128.23,259.87 	"/>
	<circle id="XMLID_1081_" class="st1" cx="103.12" cy="245.37" r="1.71"/>
	<polygon id="XMLID_1080_" class="st0" points="128.23,201.9 218.51,216.39 128.23,230.88 	"/>
	<polygon id="XMLID_1079_" class="st0" points="128.23,201.9 103.12,187.41 128.23,172.92 	"/>
	<polygon id="XMLID_1078_" class="st0" points="128.23,201.9 128.23,230.88 103.12,216.39 	"/>
	<polygon id="XMLID_1077_" class="st0" points="128.23,201.9 128.23,172.92 153.33,187.41 	"/>
	<polygon id="XMLID_1076_" class="st0" points="128.23,201.9 103.12,216.39 103.12,187.41 	"/>
	<polygon id="XMLID_1075_" class="st0" points="128.23,201.9 153.33,187.41 218.51,216.39 	"/>
	<circle id="XMLID_1074_" class="st1" cx="128.23" cy="201.9" r="1.71"/>
	<polygon id="XMLID_1072_" class="st0" points="173.51,245.37 128.23,230.88 218.51,216.39 	"/>
	<polygon id="XMLID_1071_" class="st0" points="173.51,245.37 153.33,274.36 128.23,259.87 	"/>
	<polygon id="XMLID_1069_" class="st0" points="173.51,245.37 128.23,259.87 128.23,230.88 	"/>
	<polygon id="XMLID_912_" class="st0" points="78.02,288.85 103.12,303.34 78.02,317.83 	"/>
	<polygon id="XMLID_911_" class="st0" points="78.02,288.85 52.92,274.36 52.92,243.66 	"/>
	<polygon id="XMLID_910_" class="st0" points="78.02,288.85 78.02,317.83 52.92,303.34 	"/>
	<polygon id="XMLID_909_" class="st0" points="78.02,288.85 52.92,243.66 103.12,274.36 	"/>
	<polygon id="XMLID_908_" class="st0" points="78.02,288.85 52.92,303.34 52.92,274.36 	"/>
	<polygon id="XMLID_907_" class="st0" points="78.02,288.85 103.12,274.36 103.12,303.34 	"/>
	<circle id="XMLID_906_" class="st1" cx="78.02" cy="288.85" r="1.71"/>
	<polygon id="XMLID_905_" class="st0" points="103.12,332.32 128.23,346.81 103.12,361.3 	"/>
	<polygon id="XMLID_904_" class="st0" points="103.12,332.32 78.02,317.83 103.12,303.34 	"/>
	<polygon id="XMLID_903_" class="st0" points="103.12,332.32 103.12,361.3 97.67,377.51 	"/>
	<polygon id="XMLID_902_" class="st0" points="103.12,332.32 103.12,303.34 128.23,317.83 	"/>
	<polygon id="XMLID_901_" class="st0" points="103.12,332.32 97.67,377.51 78.02,317.83 	"/>
	<polygon id="XMLID_900_" class="st0" points="103.12,332.32 128.23,317.83 128.23,346.81 	"/>
	<circle id="XMLID_899_" class="st1" cx="103.12" cy="332.32" r="1.71"/>
	<polygon id="XMLID_898_" class="st0" points="128.23,288.85 153.33,303.34 128.23,317.83 	"/>
	<polygon id="XMLID_897_" class="st0" points="128.23,288.85 103.12,274.36 128.23,259.87 	"/>
	<polygon id="XMLID_896_" class="st0" points="128.23,288.85 128.23,317.83 103.12,303.34 	"/>
	<polygon id="XMLID_895_" class="st0" points="128.23,288.85 128.23,259.87 153.33,274.36 	"/>
	<polygon id="XMLID_894_" class="st0" points="128.23,288.85 103.12,303.34 103.12,274.36 	"/>
	<polygon id="XMLID_893_" class="st0" points="128.23,288.85 153.33,274.36 153.33,303.34 	"/>
	<circle id="XMLID_892_" class="st1" cx="128.23" cy="288.85" r="1.71"/>
	<polygon id="XMLID_890_" class="st0" points="153.33,332.32 128.23,317.83 216.51,313.85 	"/>
	<polygon id="XMLID_889_" class="st0" points="153.33,332.32 189.51,434.85 128.23,346.81 	"/>
	<polygon id="XMLID_887_" class="st0" points="153.33,332.32 128.23,346.81 128.23,317.83 	"/>
	<polygon id="XMLID_730_" class="st0" points="78.02,375.79 103.12,390.29 30.88,437.48 	"/>
	<polygon id="XMLID_729_" class="st0" points="78.02,375.79 52.92,361.3 97.67,377.51 	"/>
	<polygon id="XMLID_728_" class="st0" points="78.02,375.79 30.88,437.48 95.96,317.83 	"/>
	<polygon id="XMLID_727_" class="st0" points="78.02,375.79 97.67,377.51 103.12,361.3 	"/>
	<polygon id="XMLID_726_" class="st0" points="78.02,375.79 95.96,317.83 52.92,361.3 	"/>
	<polygon id="XMLID_725_" class="st0" points="78.02,375.79 103.12,361.3 103.12,390.29 	"/>
	<circle id="XMLID_724_" class="st1" cx="78.02" cy="375.79" r="1.71"/>
	<polygon id="XMLID_723_" class="st0" points="103.12,419.27 128.23,433.76 103.12,448.24 	"/>
	<polygon id="XMLID_722_" class="st0" points="103.12,419.27 30.88,437.48 103.12,390.29 	"/>
	<polygon id="XMLID_721_" class="st0" points="103.12,419.27 103.12,448.24 78.02,433.76 	"/>
	<polygon id="XMLID_720_" class="st0" points="103.12,419.27 103.12,390.29 128.23,404.78 	"/>
	<polygon id="XMLID_719_" class="st0" points="103.12,419.27 78.02,433.76 30.88,437.48 	"/>
	<polygon id="XMLID_718_" class="st0" points="103.12,419.27 128.23,404.78 128.23,433.76 	"/>
	<circle id="XMLID_717_" class="st1" cx="103.12" cy="419.27" r="1.71"/>
	<polygon id="XMLID_716_" class="st0" points="128.23,375.79 153.33,390.29 128.23,404.78 	"/>
	<polygon id="XMLID_715_" class="st0" points="128.23,375.79 103.12,361.3 128.23,346.81 	"/>
	<polygon id="XMLID_714_" class="st0" points="128.23,375.79 128.23,404.78 103.12,390.29 	"/>
	<polygon id="XMLID_713_" class="st0" points="128.23,375.79 128.23,346.81 189.51,434.85 	"/>
	<polygon id="XMLID_712_" class="st0" points="128.23,375.79 103.12,390.29 103.12,361.3 	"/>
	<polygon id="XMLID_711_" class="st0" points="128.23,375.79 189.51,434.85 202.51,359.85 	"/>
	<circle id="XMLID_710_" class="st1" cx="128.23" cy="375.79" r="1.71"/>
	<polygon id="XMLID_708_" class="st0" points="153.33,419.27 128.23,404.78 153.33,390.29 	"/>
	<polygon id="XMLID_707_" class="st0" points="153.33,419.27 153.33,448.24 128.23,433.76 	"/>
	<polygon id="XMLID_705_" class="st0" points="153.33,419.27 128.23,433.76 128.23,404.78 	"/>
	<polygon id="XMLID_548_" class="st0" points="78.02,462.74 103.12,477.23 39.08,531.6 	"/>
	<polygon id="XMLID_547_" class="st0" points="78.02,462.74 52.92,448.24 78.02,433.76 	"/>
	<polygon id="XMLID_546_" class="st0" points="78.02,462.74 39.08,531.6 52.92,477.23 	"/>
	<polygon id="XMLID_545_" class="st0" points="78.02,462.74 78.02,433.76 103.12,448.24 	"/>
	<polygon id="XMLID_544_" class="st0" points="78.02,462.74 52.92,477.23 52.92,448.24 	"/>
	<polygon id="XMLID_543_" class="st0" points="78.02,462.74 103.12,448.24 103.12,477.23 	"/>
	<circle id="XMLID_542_" class="st1" cx="78.02" cy="462.74" r="1.71"/>
	<polygon id="XMLID_541_" class="st0" points="139.92,472.4 75.42,537.11 62.01,488.8 	"/>
	<polygon id="XMLID_540_" class="st0" points="139.92,472.4 39.08,531.6 103.12,477.23 	"/>
	<polygon id="XMLID_539_" class="st0" points="139.92,472.4 114.81,472.4 78.02,520.71 	"/>
	<polygon id="XMLID_538_" class="st0" points="139.92,472.4 103.12,477.23 128.23,491.72 	"/>
	<polygon id="XMLID_537_" class="st0" points="139.92,472.4 78.02,520.71 39.08,531.6 	"/>
	<polygon id="XMLID_536_" class="st0" points="139.92,472.4 128.23,491.72 128.23,520.71 	"/>
	<circle id="XMLID_535_" class="st1" cx="139.92" cy="472.4" r="1.71"/>
	<polygon id="XMLID_534_" class="st0" points="128.23,462.74 153.33,477.23 128.23,491.72 	"/>
	<polygon id="XMLID_533_" class="st0" points="128.23,462.74 103.12,448.24 128.23,433.76 	"/>
	<polygon id="XMLID_532_" class="st0" points="128.23,462.74 128.23,491.72 103.12,477.23 	"/>
	<polygon id="XMLID_531_" class="st0" points="128.23,462.74 128.23,433.76 153.33,448.24 	"/>
	<polygon id="XMLID_530_" class="st0" points="128.23,462.74 103.12,477.23 103.12,448.24 	"/>
	<polygon id="XMLID_529_" class="st0" points="128.23,462.74 153.33,448.24 153.33,477.23 	"/>
	<circle id="XMLID_528_" class="st1" cx="128.23" cy="462.74" r="1.71"/>
	<polygon id="XMLID_526_" class="st0" points="153.33,506.21 128.23,491.72 153.33,477.23 	"/>
	<polygon id="XMLID_525_" class="st0" points="198.51,546.84 153.33,576.11 128.23,520.71 	"/>
	<polygon id="XMLID_523_" class="st0" points="218.51,491.85 128.23,520.71 128.23,491.72 	"/>
	<polygon id="XMLID_365_" class="st0" points="62.88,542.8 11.88,553.91 78.02,520.71 	"/>
	<polygon id="XMLID_363_" class="st0" points="62.88,542.8 78.02,520.71 114.81,472.4 	"/>
	<circle id="XMLID_360_" class="st1" cx="62.88" cy="542.8" r="1.71"/>
	<polygon id="XMLID_351_" class="st0" points="153.33,635.8 62.01,488.8 75.42,537.11 	"/>
	<polygon id="XMLID_349_" class="st0" points="153.33,635.8 128.23,520.71 153.33,576.11 	"/>
	<path id="XMLID_346_" class="st1" d="M153.33,637.52c0.94,0,0-0.77,0-1.71s0.94-1.71,0-1.71s0,0.77,0,1.71
		S152.38,637.52,153.33,637.52z"/>
	<g id="Zab">
	</g>
</g>
</svg>
