<?xml version="1.0" encoding="utf-8"?>
<!-- Generator: Adobe Illustrator 25.4.1, SVG Export Plug-In . SVG Version: 6.00 Build 0)  -->
<svg version="1.1" id="Layer_1" xmlns="http://www.w3.org/2000/svg" xmlns:xlink="http://www.w3.org/1999/xlink" x="0px" y="0px"
	 viewBox="0 0 207.7 165.3" style="enable-background:new 0 0 207.7 165.3;" xml:space="preserve">
<style type="text/css">
	.st0{fill:none;stroke:#FFFFFF;stroke-width:8;stroke-linecap:round;stroke-linejoin:round;stroke-miterlimit:10;}
</style>
<g>
	<polyline class="st0" points="133,29.3 164.5,29.3 174.3,64.2 	"/>
	<line class="st0" x1="67.9" y1="44.6" x2="32.3" y2="44.6"/>
	<line class="st0" x1="55.9" y1="71" x2="23.3" y2="71"/>
	<line class="st0" x1="39.1" y1="97.5" x2="19.9" y2="97.5"/>
	<g>
		
			<ellipse transform="matrix(0.3827 -0.9239 0.9239 0.3827 -26.1741 215.2976)" class="st0" cx="148" cy="127.2" rx="19.9" ry="19.9"/>
		
			<ellipse transform="matrix(0.3827 -0.9239 0.9239 0.3827 -75.5353 141.4233)" class="st0" cx="68.1" cy="127.2" rx="19.9" ry="19.9"/>
	</g>
	<path class="st0" d="M23.3,123.9h25.2c1.6-9.4,9.8-16.6,19.6-16.6s18,7.2,19.6,16.6h40.7c1.6-9.4,9.8-16.6,19.6-16.6
		s18,7.2,19.6,16.6h20.2V81.2l-13.5-17.1H133v-46H46.7"/>
</g>
</svg>
