<svg xmlns="http://www.w3.org/2000/svg" xmlns:xlink="http://www.w3.org/1999/xlink" viewBox="0 0 1008.5 1048.82" style="enable-background:new 0 0 1008.5 1048.82" xml:space="preserve"><style>.st0{clip-path:url(#SVGID_2_)}.st1{fill:#717375}.st5{fill:#47b0e4}.st6{fill:#fff}</style><defs><path id="SVGID_1_" d="M0 0h1008.5v1048.82H0z"/></defs><clipPath id="SVGID_2_"><use xlink:href="#SVGID_1_" style="overflow:visible"/></clipPath><g class="st0"><path class="st1" d="M765.15 880.69c2.46-41.91 7.93-146.34 8.69-257.82.76-112.03-27.18-258.95-71.15-354.11-35.6-77.06-95.04-158.94-117.33-191.67l401.58-298.64-21.71-29.23L564.2 47.09 384.78-194.34l-29.22 21.71L535.11 69 61.63 430.66l.39.25-211.16 166.29 22.58 28.55L94.56 451.59c17.32 10.83 56.76 35.3 129.94 79.7 21.24 12.88 60.42 41.44 84.25 87.96 21.94 42.83 24.09 88.27 6.38 135.08-21.2 56.02-23.4 90.3-7.38 114.62.55.83 1.17 1.59 1.75 2.39l-309.49-.2-.02 14.56 324.97.21c5.7 3.77 11.97 6.76 18.61 9.08 16.56 5.77 35.22 7.58 51.89 8.31 55.61 2.44 259.88 10.26 327.63 12.85-7.86 29.61-27.01 88.81-68.3 160.16l31.51 18.23c47.22-81.61 66.96-147.96 74.03-176.98l2.43.09.04-.59 245.69 1.06.16-36.41-243.5-1.02zm-27.71-258.07c-.76 111.97-6.32 216.81-8.71 257.32-63.02-2.4-274.94-10.52-331.67-13.01-32.6-1.43-51.87-7.32-58.91-18.01-8.5-12.9-4.89-39.63 11.03-81.71 46.08-121.78-28.19-219.97-105.8-267.04-59.99-36.4-97.21-59.34-118.1-72.31l431.76-329.8c23.76 31.63 80.75 110.92 112.72 184.15 33.2 76.03 68.53 214.99 67.68 340.41z"/><path d="m841.139 534.793 74.972-.975 1.805 138.807-74.972.974zm-7.616-157.696 74.973-.975 1.804 138.806-74.972.975zM760.682 269.29l165.617-64.476 15.952 40.975-165.617 64.477zM711.235 95.273l63.929-30.885 66.598 137.852-63.928 30.885zM926.68 113.14l-11.51-27.25-86.47 36.53 11.51 27.25 59.11-24.97 33.69 79.75 27.25-11.51-33.7-79.75zM452.86 2.35l-39.11-51.71-57.29 31.71 47.11 59.94zm-70.05 13.67-43.07-54.97-31.98 21.5 35.69 60.55zM267.19 35.57l-48.44 37.52 45.42 64.79 49.18-31.82zm-15.47-57.08-46.27-62.37L69.21 18.25l35.09 47.6 14.78-11.18 27.19 31.24 34.51-28.77-15.06-27.01zM111.65 122.81 59.69 61.18 19.48 90.69l51.97 61.63zM19.07 240.16l30.36 37.78 71.45-56.71-26.35-33.66zm516.55 514.79-37.34-2.13-84.96-263.55 160.2-131.86 7.17 10.66 57.52-47.96-7.17-10.66 13.93-8.75-53.66-56.78-303.72 231.45s67.88 86.22 90.41 162.08 32.26 196.22 32.26 196.22l123.41 4.93 1.95-83.65zm536.46-827.86-56.7-71.44L853.7-23.89l60.72 75.57zM891.34 972.57l-68.25.7-78.32 84.23 121.13 112.94 81.08-107.75-52.92-51.09zM606.51 781.68l-11.41 32.74 22.65 26.26 34.07-6.49 11.41-32.75-22.65-26.25z" style="fill:#b4b4b4"/><path d="m837.929 538.514 74.973-.975 1.804 138.806-74.972.975zm-7.615-157.698 74.972-.974 1.805 138.806-74.973.975zm92.749-172.254 15.952 40.976-165.617 64.477-15.952-40.976zM771.96 68.085l66.6 137.852-63.93 30.885L708.033 98.97zM957.04 196.66l-33.69-79.76.11-.05-11.51-27.24-86.47 36.53L837 153.38l59.1-24.97 33.7 79.76zM449.64 6.06l-49.28 39.95-47.11-59.94 57.29-31.72zM340.23 46.82l-35.68-60.55 31.98-21.5 43.07 54.96zm-30.1 62.95-49.17 31.83-45.42-64.8 48.44-37.52zM248.5-17.79l-46.26-62.37L66 21.97l35.09 47.59 14.78-11.17 27.19 31.24 34.51-28.78-15.07-27.01zM108.44 126.53 56.48 64.89 16.27 94.41l51.96 61.63zm9.22 98.42-71.44 56.7-30.36-37.78 75.45-52.59zM526.4 753.66l-1.95 83.65-123.41-4.93s-9.74-120.36-32.26-196.22-90.41-162.08-90.41-162.08l303.72-231.45 53.66 56.78-13.93 8.75 7.17 10.66-57.52 47.96-7.17-10.66-160.2 131.86 84.96 263.55 37.34 2.13zm485.76-894.3 56.71 71.45L911.2 55.39l-60.71-75.56zM819.88 976.99l-78.32 84.23 121.13 112.94 81.08-107.75-52.93-51.09-2.71-39.03zM654.61 843.9l-34.07 6.49-22.65-26.25 11.41-32.75 34.06-6.49 22.66 26.26z" style="fill:#ccc"/><path style="fill:#989898" d="M829.43 700.84h106.45v104.28H829.43z"/><path class="st5" d="M823.74 705.08h106.45v104.28H823.74z"/><path class="st6" d="M865.9 731.67c-1.22-1.22-1.22-3.19 0-4.41s3.19-1.22 4.41 0a3.114 3.114 0 0 1 0 4.41 3.114 3.114 0 0 1-4.41 0zm-4.72 11.88c2.51 0 4.55-2.04 4.55-4.55s-2.04-4.55-4.55-4.55-4.55 2.04-4.55 4.55 2.04 4.55 4.55 4.55zm4.51 10.43a6.32 6.32 0 1 0-12.641.001 6.32 6.32 0 0 0 12.641-.001zm9.29 23.44c0-.01 0-.01 0 0 0-.01 0 0 0 0zm28.87-19.56-4.05-7.35c-.24-.43-.39-.92-.39-1.45.02-.67.21-1.39.31-2.13 1.39-10.27-7.12-22.85-21.56-22.85-1.6 0-2.89 1.29-2.89 2.89s1.29 2.89 2.89 2.89c.15 0 .31-.01.46-.03.12-.02.24-.02.36-.02 1.6 0 2.89 1.29 2.89 2.89s-1.29 2.89-2.89 2.89c-.62 0-1.22-.2-1.69-.54-.79-.56-1.75-.89-2.79-.89-2.67 0-4.84 2.17-4.84 4.84s2.17 4.84 4.84 4.84c1.09 0 2.13-.38 2.93-.99.47-.34 1.05-.54 1.67-.54 1.57 0 2.85 1.28 2.85 2.85s-1.28 2.85-2.85 2.85c-.32 0-.64-.04-.93-.14-.7-.26-1.46-.41-2.26-.41a6.51 6.51 0 0 0-2.46 12.54c1.2.52 2.05 1.71 2.05 3.1 0 1.86-1.51 3.38-3.38 3.38-.88 0-1.68-.33-2.28-.88a6.797 6.797 0 0 0-4.76-1.94c-3.77 0-6.82 3.06-6.82 6.82 0 3.77 3.06 6.82 6.82 6.82 4.35 0 6.28-1.67 8.11-1.67.98 0 1.77.79 1.78 1.77v.01c0 4.98-1.95 7.5-7.4 7.5v1.3h22.1v-1.3c-5.45 0-7.4-2.52-7.4-7.5v-.01c0-.98.8-1.77 1.78-1.77 2.75 0 3.16.8 7.51.8 3.96 0 6.22-1.17 7.2-4.84.87-3.28 1.92-8.25 1.92-8.25.14-.6.61-1.06 1.21-1.2a2.929 2.929 0 0 0 2.32-2.87c.01-.5-.13-.99-.36-1.41z"/><path class="st5" d="M775.51 750.66h-8.67c-5.32 0-10.28-2.12-13.97-5.96a19.178 19.178 0 0 1-4.23-6.79 6 6 0 0 1 3.6-7.69 6 6 0 0 1 7.69 3.6c.34.95.89 1.82 1.61 2.57 1.42 1.48 3.25 2.26 5.3 2.26h8.67c3.31 0 6 2.69 6 6s-2.69 6.01-6 6.01zm-21.19-33.68h-.24a6 6 0 0 1-5.76-6.23c.36-9.22.65-17.37.89-24.93.1-3.31 2.91-5.92 6.18-5.81a6 6 0 0 1 5.81 6.18c-.24 7.59-.53 15.78-.89 25.03a6.001 6.001 0 0 1-5.99 5.76z"/><path class="st5" d="m738.1 690.33 17.72-28.43 15.77 29.56zm46.92 71.09 29.01-16.76-29.01-16.75zM740.69 468.4c-2.85 0-5.38-2.04-5.9-4.94-1.46-8.1-3.04-16.32-4.7-24.41a5.992 5.992 0 0 1 4.67-7.08c3.25-.66 6.42 1.43 7.08 4.67 1.68 8.19 3.28 16.5 4.75 24.69a6.001 6.001 0 0 1-4.84 6.97c-.35.07-.71.1-1.06.1zm-10.03-48.99c-2.73 0-5.21-1.88-5.84-4.66-1.85-8.07-3.81-16.19-5.84-24.16-.82-3.21 1.12-6.48 4.33-7.29 3.21-.82 6.48 1.12 7.29 4.33 2.05 8.06 4.04 16.28 5.91 24.44a6.003 6.003 0 0 1-5.85 7.34zm-12.34-48.45c-2.62 0-5.03-1.73-5.77-4.38-2.27-8.06-4.64-16.08-7.05-23.82-.98-3.16.78-6.53 3.95-7.51a5.99 5.99 0 0 1 7.51 3.95c2.44 7.84 4.84 15.96 7.14 24.13.9 3.19-.96 6.5-4.15 7.4-.54.16-1.09.23-1.63.23zm-14.86-47.74a5.99 5.99 0 0 1-5.67-4.05c-2.77-8.03-5.62-15.86-8.48-23.29a6.01 6.01 0 0 1 3.44-7.76c3.09-1.19 6.57.35 7.76 3.44 2.92 7.56 5.82 15.53 8.63 23.7a6 6 0 0 1-3.72 7.63c-.66.22-1.31.33-1.96.33z"/><path class="st5" d="m681.12 304.6 4.63-33.19 26.43 20.6zm45.89 177.39 20.84 26.23 12.3-31.17zM287.52 287.16c-2.78 0-5.27-1.94-5.86-4.76a5.996 5.996 0 0 1 4.63-7.11c1.2-.25 2.3-.76 3.27-1.5l14.74-11.45c2.62-2.03 6.39-1.56 8.42 1.06 2.03 2.62 1.56 6.39-1.06 8.42l-14.77 11.48a20.108 20.108 0 0 1-8.11 3.74c-.43.08-.85.12-1.26.12zm-20.01-12.09a6.01 6.01 0 0 1-4.64-2.19l-15.88-19.3a6 6 0 0 1 .82-8.45 6.01 6.01 0 0 1 8.45.82l15.88 19.3a6 6 0 0 1-.82 8.45 5.986 5.986 0 0 1-3.81 1.37zm60.2-17.33c-1.79 0-3.56-.8-4.74-2.32-2.03-2.62-1.56-6.39 1.06-8.42l19.74-15.34c2.62-2.03 6.39-1.56 8.42 1.06 2.03 2.62 1.56 6.39-1.06 8.42l-19.74 15.34c-1.1.85-2.39 1.26-3.68 1.26zm39.49-30.67c-1.79 0-3.56-.8-4.74-2.32-2.03-2.62-1.56-6.39 1.06-8.42l19.74-15.34c2.62-2.03 6.39-1.56 8.42 1.06 2.03 2.62 1.56 6.39-1.06 8.42l-19.74 15.34c-1.1.85-2.4 1.26-3.68 1.26zm39.48-30.68c-1.79 0-3.56-.8-4.74-2.32-2.03-2.62-1.56-6.39 1.06-8.42l19.74-15.34c2.62-2.03 6.39-1.56 8.42 1.06 2.03 2.62 1.56 6.39-1.06 8.42l-19.74 15.34a5.965 5.965 0 0 1-3.68 1.26zm39.49-30.67c-1.79 0-3.56-.8-4.74-2.32-2.03-2.62-1.56-6.39 1.06-8.42l19.74-15.34c2.62-2.03 6.39-1.56 8.42 1.06 2.03 2.62 1.56 6.39-1.06 8.42l-19.74 15.34c-1.1.85-2.4 1.26-3.68 1.26zm39.48-30.67c-1.79 0-3.56-.8-4.74-2.32-2.03-2.62-1.56-6.39 1.06-8.42l19.74-15.34c2.62-2.03 6.39-1.56 8.42 1.06 2.03 2.62 1.56 6.39-1.06 8.42l-19.74 15.34a6.028 6.028 0 0 1-3.68 1.26zm99.37-24.27c-1.94 0-3.85-.94-5.01-2.69-3.53-5.33-6.19-9.13-8.88-12.71-1.42-1.87-3.13-3.47-5.09-4.71-2.79-1.78-3.62-5.49-1.83-8.28a6 6 0 0 1 8.29-1.83c3.17 2.02 5.93 4.58 8.23 7.61 2.85 3.79 5.63 7.77 9.3 13.31a6 6 0 0 1-1.69 8.32c-1.03.66-2.18.98-3.32.98zm-59.88-6.41c-1.79 0-3.56-.8-4.74-2.32-2.03-2.62-1.56-6.39 1.06-8.42l14.78-11.48c2.1-1.6 4.34-2.93 6.69-3.95 3.04-1.32 6.57.07 7.89 3.11a5.994 5.994 0 0 1-3.11 7.89c-1.46.64-2.86 1.46-4.15 2.45l-14.74 11.45c-1.1.86-2.39 1.27-3.68 1.27z"/><path class="st5" d="m241.8 264.2-5.5-33.05 31.37 11.75zm333.47-143.76 30 14.91-2.09-33.44zm-353.35 98.24h-64.97c-2.27 0-4.11-1.83-4.11-4.1v-64.75c0-2.26 1.84-4.1 4.11-4.1h64.97c2.27 0 4.11 1.83 4.11 4.1v64.75c0 2.27-1.84 4.1-4.11 4.1z"/><path class="st6" d="M199.45 161.53c-1.53-1.5-3.35-2.26-5.47-2.26h-21.94v45.87h7.44v-17.16h14.51c2.16 0 3.99-.76 5.5-2.29 1.51-1.52 2.26-3.34 2.26-5.46v-13.28c-.01-2.1-.77-3.91-2.3-5.42zm-4.98 16.65c0 .65-.25 1.24-.74 1.77s-1.1.79-1.84.79h-12.44v-14.22h12.44c.73 0 1.35.26 1.84.79s.74 1.12.74 1.77v9.1z"/><path class="st6" d="M180.67 206.35h-9.85v-48.28h23.15c2.44 0 4.56.88 6.32 2.6 1.76 1.73 2.65 3.85 2.65 6.29v13.28c0 2.43-.88 4.55-2.61 6.3s-3.87 2.64-6.36 2.64h-13.31v17.17zm-7.44-2.41h5.03v-17.16h15.72c1.84 0 3.36-.63 4.64-1.93 1.29-1.3 1.91-2.81 1.91-4.61v-13.28c0-1.79-.63-3.29-1.93-4.57-1.31-1.28-2.82-1.91-4.63-1.91h-20.74v43.46zm18.67-21.99h-13.64v-16.63h13.64c1.06 0 2.01.41 2.72 1.18.7.76 1.06 1.63 1.06 2.59v9.1c0 .96-.36 1.83-1.06 2.59-.71.76-1.65 1.17-2.72 1.17zm-11.23-2.41h11.23c.4 0 .69-.13.95-.41.37-.4.41-.73.41-.95v-9.1c0-.22-.04-.55-.41-.95-.26-.28-.56-.41-.95-.41h-11.23v11.82z"/></g><g class="st0"><path class="st6" d="m621.29 159.22-.95-.54c-.53-.29-.51-.89.22-1.33l.7-.43c.53-.33.95-.35 1.35-.13l1.4.77 7.72-4.73c.62-.38 1.12-.26 1.49.36l.55.9c.38.62.26 1.12-.36 1.5l-6.15 3.77 2.33 1.28c.77.38.78 1.03.05 1.47l-.7.43c-.53.33-.99.34-1.52.04l-2.88-1.55-7.61 4.66 4.89 7.97c.36.59.24 1.09-.38 1.47l-.56.34c-.62.38-1.12.26-1.48-.33l-6.01-9.8c-.38-.62-.26-1.12.36-1.49l7.54-4.63zm13.06 10.46c.62-.38 1.12-.26 1.49.36l.53.87c.36.59.24 1.09-.38 1.47l-7.55 4.63c-1.96 1.2-3.28 2.59-1.9 4.84 1.79 2.92 5.39 3.07 8.2 1.34l5.73-3.51c.62-.38 1.12-.26 1.49.36l.53.87c.36.59.26 1.12-.36 1.49l-12.35 7.57c-.62.38-1.13.23-1.49-.36l-.48-.79c-.38-.62-.26-1.12.36-1.49l1.26-.77c.42-.26.87-.42.87-.42l-.04-.06c-1.78.24-4.87-.45-6.58-3.23-1.96-3.2-1.28-5.86 2.49-8.17l8.18-5zm15.54 22.52c1.46 2.39 1.48 4.5 1.36 5.62-.02.67-.48.99-1.16.94l-.59-.02c-.71-.03-.98-.4-1-1.13.06-.85.03-2.34-.88-3.83-1.76-2.86-5.16-3.63-8.08-1.84-2.89 1.77-3.83 5.21-2.04 8.13 1.05 1.71 2.59 2.47 3.51 2.83.65.3.85.75.52 1.42l-.28.48c-.3.57-.81.76-1.39.5-1.13-.39-3.27-1.43-4.84-3.99-2.74-4.46-1.48-9.52 2.79-12.14 4.21-2.57 9.36-1.41 12.08 3.03zm-9.14 15.45c.48-.29.77-.32 1.31-.26l12.63 1.57c1.14.15 2.04.37 2.04.37l.06-.03s-.33-.41-.9-1.34l-3.51-5.73c-.38-.62-.26-1.12.36-1.5l.48-.29c.62-.38 1.12-.26 1.5.36l6.04 9.85c.36.59.32 1.08-.22 1.41l-.22.14c-.48.29-.77.32-1.31.26l-12.65-1.55c-1.09-.14-2.03-.42-2.03-.42l-.06.03s.33.42.9 1.34l3.86 6.29c.38.62.26 1.12-.33 1.48l-.51.31c-.62.38-1.12.26-1.49-.36l-6.37-10.39c-.38-.62-.29-1.1.22-1.41l.2-.13zm26.46 12.79c2.41 3.93.95 7.84-3.01 10.27-.51.31-1.2.19-1.54-.37l-5.82-9.49c-2.98 2.06-3.34 5.33-1.79 7.86a6.83 6.83 0 0 0 3.21 2.71c.61.36.81.82.47 1.45l-.27.51c-.31.57-.83.78-1.41.48a9.922 9.922 0 0 1-4.46-3.87c-2.74-4.46-1.38-9.5 2.83-12.08 4.51-2.79 9.31-1.52 11.79 2.53zm-3.84 7.02c2.45-1.62 2.83-3.89 1.67-5.78-1.27-2.08-3.71-2.9-6.34-1.83l4.67 7.61zm13.78-.57c.62-.38 1.12-.26 1.5.36l.53.87c.36.59.24 1.09-.38 1.47l-9.88 6.06 1.26 2.05 6.72.63c.58-.01.95.23 1.26.73l.64 1.04c.46.76.12 1.32-.78 1.25l-7.55-.78-.06.03-3.98 8.7c-.4.79-1.04.83-1.5.07l-.69-1.12c-.31-.51-.32-.96-.03-1.49l3.63-7.56-1.29-2.11-5.73 3.51c-.62.38-1.12.26-1.48-.33l-.53-.87c-.38-.62-.26-1.12.36-1.5l17.98-11.01z"/></g><path class="st6" d="M128.04 387.3c-.44-.58-.36-1.09.22-1.52l5-3.76c1.82-1.37 2.83-1.88 3.85-2.11 2.36-.54 4.8.31 6.58 2.67 1.78 2.37 2.06 5.37.52 7.6l.04.05s.43.08 1.19.43l7.99 3.67c.8.35.85.97.19 1.46l-1.05.79c-.5.38-.95.43-1.48.17l-8.74-4.06-3.97 2.99 4.91 6.53c.43.58.36 1.09-.22 1.52l-.84.63c-.58.44-1.09.36-1.52-.22l-12.67-16.84zm12.37 3.31c2.03-1.52 2.29-3.86.72-5.94-1.01-1.34-2.38-1.96-3.91-1.59-.63.15-1.26.46-2.45 1.35l-3.11 2.33 5 6.66 3.75-2.81zm18.66 5.91c.34-.09.82-.17 1.27-.5 1.08-.81 1.16-2.35.79-3.72l-.49-2.02-14.3-8.28c-.72-.41-.73-1.02-.09-1.49l1.03-.77c.5-.38.97-.4 1.49-.05l9.17 5.67c.73.48 1.68 1.25 1.68 1.25l.05-.04s-.46-1.05-.74-1.92l-3.01-10.3c-.22-.62-.09-1.05.44-1.44l.95-.71c.63-.47 1.22-.3 1.44.49l5.15 19.07c.77 2.67-.05 5.03-1.92 6.43-.76.57-1.57.81-2.16.96-.66.17-1.12-.23-1.25-.83l-.13-.61c-.16-.64.18-1.02.63-1.19zm-2.08-30.98c-.44-.58-.36-1.09.22-1.52l.82-.61c.55-.42 1.06-.34 1.5.24l4.06 5.4c.49.66.77 1.19.77 1.19l.05-.04s-.66-3.34 2.5-5.71c3.53-2.65 7.95-1.53 11.04 2.58 3.21 4.26 2.71 8.92-.76 11.53-3.13 2.35-6.16.68-6.16.68l-.05.04s.32.26.67.73l.5.66c.36.47.26 1-.29 1.42l-.66.49c-.58.44-1.09.36-1.52-.22l-12.69-16.86zm18.1 11.15c2.13-1.6 2.58-4.62.31-7.65-2.18-2.9-5.13-3.6-7.35-1.93-2 1.5-2.77 4.31-.28 7.63 1.84 2.44 4.82 3.83 7.32 1.95zm1.41-17.58c-.43-.58-.34-1.11.22-1.52l.74-.55c.58-.44 1.09-.36 1.52.22l.89 1.18c.3.39.49.82.49.82l.05-.04a6.925 6.925 0 0 1 2.7-6.93c3.13-2.35 5.84-1.71 8.39 1.68l5.76 7.66c.44.58.36 1.09-.21 1.52l-.82.61c-.55.42-1.09.36-1.52-.22l-5.32-7.08c-1.4-1.87-2.88-3.07-5.01-1.46-2.58 1.94-2.83 5.5-.75 8.27l4.13 5.5c.44.58.36 1.09-.22 1.52l-.82.61c-.55.42-1.09.36-1.52-.22l-8.7-11.57zm12.22-16.06-.65-.87c-.44-.58-.36-1.09.22-1.52l.89-.67c.55-.42 1.09-.36 1.52.22l.65.87c.42.55.34 1.11-.22 1.52l-.89.67c-.58.43-1.1.33-1.52-.22zm3.33 4.37c-.44-.58-.34-1.11.21-1.52l.82-.61c.58-.44 1.09-.36 1.52.22l8.71 11.58c.44.58.36 1.09-.21 1.52l-.82.61c-.55.42-1.09.36-1.52-.22l-8.71-11.58zm11.59-10.56c2.24-1.68 4.34-1.9 5.46-1.88.67-.05 1.03.38 1.05 1.07l.03.59c.04.71-.31 1.01-1.03 1.1-.85.02-2.33.19-3.73 1.24-2.68 2.02-3.13 5.48-1.07 8.22 2.04 2.71 5.55 3.33 8.29 1.27 1.61-1.21 2.21-2.81 2.49-3.76.24-.67.67-.92 1.36-.65l.51.24c.6.25.84.73.63 1.34-.28 1.16-1.12 3.39-3.51 5.19-4.19 3.15-9.34 2.37-12.35-1.63-2.96-3.97-2.29-9.21 1.87-12.34zm4.69-9.91c-.44-.58-.36-1.09.22-1.52l.82-.61c.55-.42 1.06-.34 1.5.24l6.96 9.27 1.92-1.44-.01-6.75c-.06-.57.14-.97.61-1.32l.97-.73c.71-.53 1.3-.24 1.32.66l-.06 7.59.04.05 9.03 3.14c.82.33.92.95.21 1.49l-1.05.79c-.47.36-.93.41-1.48.17l-7.87-2.9-1.97 1.48 4.04 5.37c.44.58.36 1.09-.19 1.5l-.82.61c-.58.44-1.09.36-1.52-.22l-12.67-16.87zm27.38-5.71.68-.51-.26-.34c-1.64-2.18-3.46-1.97-5.09-.75-1.32.99-2.02 2.3-2.37 3.1-.32.61-.78.83-1.42.57l-.49-.21c-.64-.3-.88-.78-.6-1.4.45-1.04 1.44-2.85 3.47-4.38 3.32-2.49 6.62-2.09 9.16 1.27l5.68 7.55c.44.58.34 1.11-.21 1.52l-.66.49c-.55.42-1.09.36-1.52-.22l-.59-.79c-.38-.5-.54-.87-.54-.87l-.05.04s.86 3.72-2.25 6.05c-2.34 1.76-5.56 1.92-7.44-.58-3.11-4.12 1.74-8.47 4.5-10.54zm2 8.67c2.24-1.68 1.9-4.97.42-6.95l-.44-.58-.68.51c-1.87 1.4-5.28 4.21-3.38 6.74.79 1.07 2.44 1.51 4.08.28zm232.4 546.53c6.91.19 11.77 5.5 11.59 12.18-.19 6.85-5.34 12.04-12.25 11.85-6.91-.19-11.8-5.66-11.61-12.51.18-6.69 5.35-11.71 12.27-11.52zm-.59 21.03c4.94.14 8.67-3.75 8.81-8.95.14-5.04-3.38-8.95-8.31-9.09-4.94-.14-8.7 3.58-8.84 8.62-.14 5.2 3.41 9.28 8.34 9.42zm16.14-19.12c.02-.72.39-1.08 1.12-1.06l1.02.03c.69.02 1.04.39 1.02 1.12l-.19 6.75c-.02.82-.14 1.41-.14 1.41h.07s1.57-3.02 5.52-2.91c4.41.12 7.18 3.76 7.03 8.89-.15 5.33-3.43 8.67-7.78 8.55-3.92-.11-5.25-3.31-5.25-3.31h-.07s.09.4.07.99l-.02.82c-.02.59-.42.94-1.11.92l-.82-.02c-.72-.02-1.08-.39-1.06-1.12l.59-21.06zm7.22 20c2.67.07 4.9-2.01 5-5.79.1-3.62-1.78-6.01-4.54-6.09-2.5-.07-4.85 1.64-4.97 5.79-.08 3.06 1.39 6 4.51 6.09zm12.05-12.88c.02-.72.42-1.08 1.12-1.06l.92.03c.72.02 1.08.39 1.06 1.12l-.05 1.91c-.02.69-.13 1.25-.13 1.25h.07c.79-2.19 2.72-4.31 5.22-4.24.76.02 1.04.39 1.02 1.12l-.03.92c-.02.72-.46 1.07-1.21 1.05-3.26-.09-4.94 3.39-5.03 6.68l-.16 5.79c-.02.72-.39 1.08-1.12 1.06l-1.02-.03c-.69-.02-1.08-.39-1.06-1.12l.4-14.48zm19-.96c4.97.14 8.89 3.9 8.75 8.94-.14 5.07-4.26 8.64-9.23 8.51-4.97-.14-8.85-3.93-8.71-9 .13-5.04 4.22-8.58 9.19-8.45zm-.41 14.68c3.16.09 5.8-2.34 5.89-5.83.1-3.46-2.4-6-5.56-6.08-3.13-.09-5.8 2.31-5.89 5.77-.1 3.48 2.44 6.06 5.56 6.14zm12.87-12.85c.02-.72.42-1.08 1.12-1.06l.92.03c.72.02 1.08.39 1.06 1.12l-.04 1.48c-.01.49-.13.95-.13.95h.07a6.92 6.92 0 0 1 6.43-3.74c3.92.11 5.64 2.3 5.52 6.54l-.26 9.58c-.02.72-.39 1.08-1.12 1.06l-1.02-.03c-.69-.02-1.08-.39-1.06-1.12l.25-8.85c.06-2.34-.34-4.19-3.01-4.27-3.23-.09-5.64 2.54-5.73 6l-.19 6.88c-.02.72-.39 1.08-1.12 1.06l-1.02-.03c-.69-.02-1.08-.39-1.06-1.12l.39-14.48zm7.18-4.54 1.38-2.17c.31-.52.71-.74 1.3-.72l.96.03c.92.03 1.14.62.56 1.33l-1.67 2.16c-.37.45-.77.64-1.33.62l-.56-.02c-.78-.02-1.06-.59-.64-1.23zm20.11 3.81c2.8.08 4.58 1.21 5.45 1.93.55.38.57.94.16 1.49l-.34.48c-.41.58-.87.6-1.49.22-.68-.51-1.94-1.3-3.68-1.35-3.36-.09-5.86 2.34-5.96 5.77-.09 3.39 2.27 6.06 5.69 6.15 2.01.05 3.48-.83 4.29-1.4.6-.38 1.1-.3 1.47.34l.25.5c.31.57.2 1.09-.34 1.44-.94.73-2.99 1.96-5.98 1.88-5.23-.14-8.78-3.96-8.65-8.97.14-4.94 3.93-8.62 9.13-8.48zm17.35.48c4.97.14 8.89 3.9 8.75 8.94-.14 5.07-4.26 8.64-9.23 8.51-4.97-.14-8.85-3.93-8.71-9 .13-5.04 4.22-8.59 9.19-8.45zm-.41 14.68c3.16.09 5.8-2.34 5.89-5.83.09-3.46-2.4-6-5.56-6.08-3.13-.09-5.8 2.31-5.89 5.77-.1 3.48 2.43 6.05 5.56 6.14zm-.26-17.96 1.38-2.17c.31-.52.71-.74 1.3-.72l.96.03c.92.03 1.13.62.55 1.33l-1.67 2.16c-.38.45-.78.64-1.33.62l-.56-.01c-.76-.02-1.04-.59-.63-1.24zm11.48 5.19c-.21-.76.17-1.21.96-1.19l1.09.03c.66.02 1.04.33 1.19.96l2.96 10.85c.21.86.35 1.79.35 1.79h.07s.22-.92.51-1.77l3.65-10.64c.15-.62.58-.91 1.21-.89l1.02.03c.66.02 1.05.33 1.19.96l3.06 10.82c.21.86.38 1.79.38 1.79h.07s.19-.92.48-1.77l3.56-10.67c.15-.62.55-.91 1.21-.89l1.09.03c.79.02 1.14.49.89 1.24l-5.11 14.39c-.18.62-.62.91-1.24.89l-1.61-.04c-.66-.02-1.04-.33-1.19-.96l-2.92-9.86c-.27-.86-.41-1.82-.41-1.82h-.07s-.22.95-.54 1.8l-3.43 9.69c-.18.62-.62.91-1.24.89l-1.65-.05c-.62-.02-1.04-.33-1.19-.96L591.84 888zm37.05-5.69c.02-.72.39-1.08 1.12-1.06l7.41.2c4.25.12 7.2 3.07 7.07 7.48-.12 4.41-3.23 7.29-7.48 7.17l-5.27-.15-.21 7.5c-.02.72-.39 1.08-1.12 1.06l-1.05-.03c-.72-.02-1.08-.39-1.06-1.12l.59-21.05zm7.66 10.95c2.8.08 4.56-1.62 4.63-4.42.08-2.8-1.59-4.49-4.35-4.57l-4.77-.13-.25 8.99 4.74.13zm18.72-5.12c4.97.14 8.89 3.9 8.75 8.94-.14 5.07-4.26 8.64-9.23 8.51-4.97-.14-8.85-3.93-8.71-9 .14-5.04 4.22-8.58 9.19-8.45zm-.4 14.68c3.16.09 5.8-2.34 5.89-5.83.1-3.46-2.4-6-5.56-6.08-3.13-.09-5.79 2.31-5.89 5.77-.1 3.48 2.43 6.06 5.56 6.14zm13.08-19.43c.02-.72.39-1.08 1.12-1.06l1.02.03c.69.02 1.04.39 1.02 1.12l-.32 11.59 2.4.07 4.2-5.29c.31-.49.71-.67 1.3-.66l1.22.03c.89.02 1.17.62.62 1.33l-4.77 5.9v.07l5.11 8.08c.44.77.13 1.32-.76 1.3l-1.32-.04c-.59-.02-.98-.26-1.26-.79l-4.35-7.17-2.47-.07-.19 6.72c-.02.72-.39 1.08-1.08 1.06l-1.02-.03c-.72-.02-1.08-.39-1.06-1.12l.59-21.07zm24.15 5.77c4.97.14 8.89 3.9 8.75 8.94-.14 5.07-4.26 8.64-9.23 8.51-4.97-.14-8.85-3.93-8.71-9 .13-5.04 4.22-8.59 9.19-8.45zm-.41 14.68c3.16.09 5.79-2.34 5.89-5.83.09-3.46-2.4-6-5.56-6.08-3.13-.09-5.79 2.31-5.89 5.77-.1 3.48 2.43 6.06 5.56 6.14zm12.9-12.85c.02-.72.39-1.08 1.12-1.06l1.02.03c.69.02 1.04.39 1.02 1.12l-.44 16.06c-.15 5.46-4.55 6.17-6.16 6.12l-.4-.01c-.72-.02-1.08-.39-1.06-1.12l.02-.59c.02-.82.52-1.01 1.12-1.06 1.29-.06 3.24-.44 3.33-3.56l.43-15.93zm.09-5.5.03-1.09c.02-.72.42-1.08 1.12-1.06l1.12.03c.72.02 1.08.39 1.06 1.12l-.03 1.09c-.02.69-.39 1.08-1.12 1.06l-1.12-.03c-.7-.02-1.08-.43-1.06-1.12zm7.51 5.71c.02-.72.39-1.08 1.12-1.06l1.02.03c.69.02 1.04.39 1.02 1.12l-.24 8.85c-.06 2.3.38 4.16 3.01 4.23 3.42.09 5.51-2.85 5.6-6.14l.19-6.71c.02-.72.39-1.08 1.12-1.06l1.02.03c.69.02 1.08.39 1.06 1.12l-.4 14.48c-.02.72-.43 1.07-1.12 1.06l-.92-.03c-.72-.02-1.08-.39-1.06-1.12l.04-1.48c.01-.49.12-.95.12-.95h-.07c-.77 1.63-3.04 3.84-6.3 3.75-3.75-.1-5.61-2.13-5.48-6.54l.27-9.58z"/><path class="st1" d="M266.3 211.87c-.87-1.16-.73-2.18.43-3.05l1.99-1.5c1.16-.87 2.18-.73 3.05.43l5.88 7.82c.57.76 1.13 1.2 1.68 1.31.55.12 1.11-.04 1.68-.47.59-.44 1.01-.95 1.26-1.52.25-.57.36-1.16.34-1.79-.02-.62-.17-1.26-.44-1.9-.27-.64-.63-1.27-1.09-1.88l-4.11-5.47c-.87-1.16-.73-2.17.43-3.05l1.99-1.5c1.16-.87 2.18-.73 3.05.43l9.63 12.82c.87 1.16.73 2.18-.43 3.05l-1.77 1.33c-1.14.86-2.14.7-3.02-.46l-.21-.29-.19-.25a.382.382 0 0 1-.09-.18l-.06.05c.22 1.22.06 2.42-.5 3.62a8.032 8.032 0 0 1-2.48 3.03c-.8.6-1.63 1.06-2.5 1.38s-1.74.44-2.62.36c-.88-.08-1.77-.4-2.65-.96-.88-.56-1.75-1.41-2.61-2.55l-6.64-8.81zm14.54-20.84c-.87-1.16-.73-2.18.43-3.05l1.99-1.5c1.16-.87 2.18-.73 3.05.43l10.99 14.62c.46.61.86.96 1.2 1.03.34.08.65.04.93-.11.41-.24.82-.33 1.23-.28.41.06.79.33 1.16.81l1.17 1.55c.41.55.6 1.08.56 1.61-.04.52-.37 1.02-1 1.5-.7.52-1.45.99-2.25 1.39-.8.4-1.64.6-2.53.59-.88-.01-1.8-.29-2.76-.84s-1.95-1.51-2.98-2.88l-11.19-14.87zm22.66 10.25c-.87-1.16-.73-2.18.43-3.05l1.71-1.28c1.16-.87 2.18-.73 3.05.43l1.28 1.71c.87 1.16.73 2.18-.43 3.05l-1.71 1.28c-1.16.87-2.18.73-3.05-.43l-1.28-1.71zm3.57-29.97c-.87-1.16-.73-2.18.43-3.05l6.14-4.61c1.16-.87 2.09-1.51 2.8-1.91.71-.4 1.37-.69 2-.86 1.65-.48 3.28-.44 4.87.13 1.6.57 3.01 1.67 4.25 3.32.46.61.85 1.27 1.16 1.98.31.7.54 1.44.68 2.22.14.77.16 1.55.08 2.31-.08.77-.3 1.51-.67 2.21l.05.06c.13.04.28.09.46.15.16.04.36.12.59.22.23.11.51.22.83.34l7.6 3.4c.82.34 1.25.8 1.3 1.37.05.57-.26 1.11-.94 1.62l-2.41 1.81c-.91.68-1.9.79-2.98.31l-8.16-3.87-2.59 1.95 4.42 5.89c.87 1.16.73 2.18-.43 3.05l-2.06 1.55c-1.16.87-2.18.73-3.05-.43l-14.37-19.16zm14.34 2.55c.89-.67 1.41-1.43 1.57-2.29.16-.86-.1-1.75-.78-2.65-.43-.57-.89-.99-1.38-1.27-.49-.28-1.08-.32-1.76-.14-.64.16-1.42.57-2.33 1.25l-1.87 1.4 4.14 5.51 2.41-1.81zm22.39 5.84c.21-.36.51-.63.89-.82.16-.05.33-.12.51-.21s.37-.2.56-.35c.48-.36.81-.87.96-1.52.16-.65.15-1.28-.03-1.91l-.25-1-16.53-9.41c-.73-.41-1.12-.88-1.15-1.44-.04-.55.28-1.08.96-1.59l2.47-1.85c1.01-.76 2.03-.79 3.06-.07l6.5 4.62c.24.19.5.4.8.64.3.24.57.46.82.67.32.25.61.51.88.78l.06-.05c-.16-.34-.32-.69-.48-1.03-.15-.28-.29-.59-.44-.91s-.27-.62-.38-.9l-2.94-7.34c-.47-1.2-.19-2.18.84-2.96l2.31-1.74c.63-.48 1.22-.63 1.75-.47.53.16.91.63 1.14 1.42l6.11 20.51c.34 1.16.5 2.24.46 3.25-.04 1-.21 1.92-.52 2.77-.31.84-.73 1.6-1.27 2.27-.54.67-1.13 1.25-1.79 1.74-.42.32-.86.58-1.31.79-.45.21-.88.38-1.27.51-.65.23-1.21.18-1.66-.14-.46-.32-.76-.82-.9-1.5l-.28-1.23c-.13-.66-.09-1.17.12-1.53zm-.56-35.57c-.87-1.16-.73-2.18.43-3.05l1.99-1.5c1.16-.87 2.18-.73 3.05.43l3.66 4.87c.16.21.3.41.41.58.12.18.22.33.32.46.09.16.17.3.25.4l.06-.05c.01-.6.13-1.22.35-1.85.17-.52.45-1.11.86-1.76s.98-1.26 1.74-1.83c1.08-.81 2.21-1.34 3.41-1.59 1.19-.25 2.39-.25 3.59.03 1.2.27 2.36.79 3.5 1.56 1.14.76 2.17 1.77 3.11 3.01.98 1.31 1.68 2.64 2.09 4 .41 1.36.56 2.67.45 3.92s-.47 2.43-1.08 3.51a9.103 9.103 0 0 1-2.49 2.81c-.89.67-1.71 1.1-2.46 1.31-.75.2-1.42.29-2 .27a6.16 6.16 0 0 1-1.9-.35l-.06.05.07.1c.03.04.06.08.1.1.03.02.07.06.1.1l.1.13c.32.42.43.88.34 1.38-.09.5-.42.96-.99 1.39l-1.55 1.17c-1.16.87-2.18.73-3.05-.43l-14.4-19.17zm14.84 8.68c.41.55.87 1.02 1.38 1.4.5.39 1.03.66 1.57.83s1.09.22 1.65.15c.56-.07 1.09-.3 1.6-.68.91-.68 1.42-1.6 1.55-2.75.12-1.15-.29-2.36-1.25-3.64-.91-1.21-1.93-1.96-3.05-2.25-1.13-.29-2.17-.08-3.12.63-.42.32-.77.7-1.04 1.15-.27.45-.43.95-.49 1.49s.01 1.12.2 1.74c.16.63.5 1.27 1 1.93zm9.5-17.07c-.87-1.16-.73-2.18.43-3.05l1.77-1.33c1.14-.86 2.14-.7 3.02.46l.21.29c.03.04.06.09.08.14.02.05.05.1.08.14l.12.16.06-.05c-.05-.46-.05-.97-.01-1.53s.17-1.13.4-1.71c.22-.58.55-1.17.97-1.77.42-.6.99-1.17 1.71-1.71.82-.62 1.67-1.09 2.55-1.42s1.75-.45 2.62-.36c.87.09 1.76.4 2.65.96.89.55 1.77 1.4 2.62 2.53l6.64 8.83c.87 1.16.73 2.18-.43 3.05l-1.99 1.5c-1.16.87-2.18.73-3.05-.43l-5.87-7.82c-.57-.76-1.13-1.2-1.68-1.31-.55-.11-1.13.06-1.74.52-.61.46-1.05.97-1.32 1.54-.27.56-.4 1.16-.39 1.78.01.62.14 1.25.4 1.88.26.63.6 1.23 1.03 1.8l4.23 5.63c.87 1.16.73 2.18-.43 3.05l-1.99 1.5c-1.16.87-2.18.73-3.05-.43l-9.64-12.84zm18.25-19.66c-1.16.87-2.18.73-3.05-.43l-.6-.79c-.87-1.16-.73-2.18.43-3.05l1.87-1.4c1.16-.87 2.18-.73 3.05.43l.6.79c.87 1.16.73 2.18-.43 3.05l-1.87 1.4zm1.05 5.15c-.87-1.16-.73-2.18.43-3.05l1.99-1.5c1.16-.87 2.18-.73 3.05.43l9.63 12.82c.87 1.16.73 2.18-.43 3.05l-1.99 1.5c-1.16.87-2.18.73-3.05-.43l-9.63-12.82zm12.59.54c-.82-1.1-1.42-2.31-1.79-3.63-.37-1.32-.47-2.67-.29-4.04s.65-2.72 1.42-4.04c.77-1.32 1.89-2.53 3.34-3.63 1.24-.94 2.42-1.57 3.51-1.92 1.1-.34 2.04-.53 2.84-.57.67-.04 1.18.14 1.55.51.36.38.57.91.63 1.6l.08 1.23c.07.71-.07 1.23-.41 1.57-.34.34-.86.57-1.55.7-.44.07-.91.2-1.4.38-.49.19-.97.46-1.46.83-.65.49-1.14 1.03-1.46 1.61-.32.58-.51 1.18-.56 1.79-.05.61.02 1.21.2 1.79.19.58.46 1.11.82 1.59.36.48.81.9 1.34 1.25s1.11.59 1.73.72c.62.12 1.27.11 1.96-.03s1.38-.47 2.08-1c.55-.41 1-.9 1.37-1.47.36-.57.66-1.12.89-1.65.3-.69.68-1.14 1.14-1.35.45-.21 1.02-.15 1.69.17l1.01.49c.6.31 1.02.7 1.26 1.15.24.45.26.98.06 1.6-.28.81-.76 1.77-1.45 2.88-.68 1.11-1.7 2.17-3.05 3.19-1.46 1.09-2.92 1.83-4.4 2.22-1.48.38-2.9.47-4.26.26a9.834 9.834 0 0 1-3.81-1.42 11.15 11.15 0 0 1-3.03-2.78zm8.12-26.01c-.87-1.16-.73-2.18.43-3.05l1.99-1.5c1.16-.87 2.18-.73 3.05.43l7.49 9.97 1.55-1.17-.63-6.11c-.14-1.11.25-2.02 1.18-2.72l2.09-1.57c.72-.54 1.33-.69 1.84-.45.51.24.8.8.86 1.68l.58 7.88.05.06 9.21 3.62c.82.34 1.27.79 1.35 1.34.08.55-.24 1.09-.95 1.63l-2.37 1.78c-.91.68-1.9.79-2.98.31l-6.61-3-1.71 1.28 3.45 4.59c.87 1.16.73 2.18-.43 3.05l-1.99 1.5c-1.16.87-2.18.73-3.05-.43l-14.4-19.12zm29.15 3.59c-.82-1.1-1.22-2.22-1.18-3.38.04-1.15.36-2.28.95-3.39.59-1.1 1.36-2.14 2.31-3.12s1.93-1.85 2.94-2.61l.47-.36-.21-.29c-.51-.67-1.09-.97-1.75-.88s-1.3.36-1.91.82c-.53.4-.99.86-1.38 1.39-.4.53-.73 1.05-1.01 1.55-.73 1.27-1.7 1.61-2.91 1l-.97-.51c-.6-.31-1-.71-1.2-1.2-.2-.49-.16-1.04.14-1.66.39-.76.95-1.62 1.67-2.59.72-.97 1.67-1.9 2.85-2.79 2.26-1.7 4.48-2.45 6.65-2.25 2.18.2 4.05 1.34 5.62 3.43l6.23 8.29c.87 1.16.73 2.18-.43 3.05L452.08 95c-1.16.87-2.18.72-3.07-.46l-.1-.13-.17-.22a.192.192 0 0 1-.04-.12l-.06.05c.05.72-.02 1.45-.2 2.18-.15.64-.43 1.32-.84 2.04s-1.02 1.39-1.82 1.99c-.78.59-1.59 1-2.44 1.24-.84.24-1.67.31-2.46.22-.8-.09-1.56-.35-2.28-.76-.72-.43-1.34-.98-1.86-1.68zm5.03-4.57c.29.38.66.61 1.13.68.47.08.96-.08 1.46-.46.4-.3.7-.67.91-1.1.2-.43.33-.88.37-1.35.05-.46.01-.92-.1-1.36-.12-.44-.3-.83-.56-1.17l-.33-.44-.51.38c-.42.32-.84.68-1.24 1.08-.41.4-.74.82-1 1.24-.26.43-.42.85-.48 1.28-.05.43.06.84.35 1.22zm23.38-12.04c-.68.02-1.2-.16-1.56-.53-.36-.37-.57-.9-.62-1.59l-.19-2.03c-.07-.71.08-1.24.44-1.59.36-.35.9-.56 1.6-.63.6-.09 1.24-.23 1.94-.45.7-.21 1.37-.56 2-1.03 1.03-.78 1.66-1.6 1.89-2.46.23-.86.11-1.6-.35-2.21-.67-.89-1.54-1.23-2.63-1.02-1.08.21-2.24.77-3.46 1.69l-.13.1c-.51.38-.97.59-1.39.62-.42.04-.91-.08-1.48-.35l-.4-.2c-.94-.45-1.36-1.3-1.28-2.56l.18-4.04c.04-.52.08-1.01.12-1.45.04-.45.08-.83.11-1.14.04-.39.08-.72.14-1l-.05-.06c-.12.15-.27.32-.47.5-.15.15-.36.33-.63.55-.27.22-.58.46-.94.73l-3.67 2.76c-1.16.87-2.18.73-3.05-.43l-.95-1.27c-.87-1.16-.73-2.18.43-3.05l10.79-8.11c1.16-.87 2.17-.74 3.02.4l.38.51c.33.44.56.87.69 1.29.13.41.17.9.13 1.46l-.51 7.22c.99-.44 1.97-.72 2.94-.83a7.86 7.86 0 0 1 2.83.18c.91.22 1.76.6 2.55 1.13a8.55 8.55 0 0 1 2.07 1.96c.73.97 1.27 2.04 1.62 3.21.35 1.17.45 2.38.31 3.63-.15 1.25-.58 2.5-1.31 3.73-.72 1.24-1.79 2.38-3.2 3.45-.76.57-1.51 1.04-2.25 1.42-.74.38-1.45.67-2.13.89-.68.21-1.32.37-1.93.46-.58.06-1.12.12-1.6.14zm17.91-13.46c-.68.02-1.2-.16-1.56-.53-.36-.37-.57-.9-.62-1.59l-.19-2.03c-.07-.71.08-1.24.44-1.59.36-.35.89-.56 1.6-.63.6-.09 1.24-.23 1.94-.45.7-.21 1.36-.56 2-1.03 1.03-.78 1.66-1.6 1.89-2.46.23-.86.11-1.6-.35-2.21-.67-.89-1.54-1.23-2.63-1.02-1.08.2-2.24.77-3.46 1.69l-.13.1c-.51.38-.97.59-1.39.62-.42.04-.91-.08-1.48-.35l-.4-.2c-.94-.45-1.36-1.31-1.28-2.56l.18-4.04c.04-.52.08-1.01.12-1.45.04-.45.08-.83.11-1.14.04-.39.08-.72.14-1l-.05-.06c-.12.15-.27.32-.47.5-.15.15-.36.33-.63.55-.27.22-.58.46-.94.73l-3.67 2.76c-1.16.87-2.18.73-3.05-.43l-.95-1.27c-.87-1.16-.73-2.18.43-3.05L479.47 39c1.16-.87 2.17-.74 3.03.4l.38.51c.33.44.56.87.69 1.29.13.41.17.9.13 1.46l-.52 7.22c.99-.44 1.97-.72 2.94-.83a7.86 7.86 0 0 1 2.83.18c.91.22 1.76.6 2.55 1.13a8.55 8.55 0 0 1 2.07 1.96c.73.97 1.27 2.04 1.62 3.21.35 1.17.45 2.38.31 3.63-.15 1.25-.58 2.5-1.31 3.73-.72 1.24-1.79 2.38-3.2 3.45-.76.57-1.51 1.04-2.25 1.42s-1.45.67-2.13.89c-.68.21-1.32.37-1.93.46-.6.09-1.14.15-1.62.17zm319.83 769.38c0-1.04.52-1.56 1.56-1.56h1.79c1.04 0 1.56.52 1.56 1.56v7.02c0 .68.13 1.17.4 1.48.26.3.65.46 1.17.46.53 0 .99-.11 1.38-.33.39-.22.71-.51.97-.88s.44-.79.57-1.28c.12-.48.18-1 .18-1.55v-4.92c0-1.04.52-1.56 1.56-1.56h1.79c1.04 0 1.56.52 1.56 1.56v11.51c0 1.04-.52 1.56-1.56 1.56h-1.59c-1.02 0-1.53-.52-1.53-1.56v-.49c0-.06.01-.1.03-.14h-.06c-.4.8-1.01 1.42-1.85 1.86-.83.45-1.74.67-2.73.67-.72 0-1.4-.09-2.03-.28a4.36 4.36 0 0 1-1.66-.92c-.47-.43-.84-.99-1.11-1.69-.26-.7-.4-1.56-.4-2.58v-7.94zm17.33-5.68c0-1.04.52-1.56 1.56-1.56h1.79c1.04 0 1.56.52 1.56 1.56v13.12c0 .55.08.92.24 1.11s.36.3.58.34c.34.04.62.16.82.37.21.21.31.53.31.97v1.39c0 .49-.12.88-.37 1.17s-.65.43-1.22.43c-.62 0-1.25-.06-1.89-.17-.63-.11-1.2-.36-1.71-.75-.5-.39-.91-.95-1.22-1.68-.31-.73-.47-1.71-.47-2.94v-13.36zm8.58 15.65c0-1.04.52-1.56 1.56-1.56h1.53c1.04 0 1.56.52 1.56 1.56v1.53c0 1.04-.52 1.56-1.56 1.56h-1.53c-1.04 0-1.56-.52-1.56-1.56v-1.53zm15.03-2.73-.17.09c-.32.15-.62.11-.89-.11-.28-.23-.41-.65-.41-1.28v-1.31c0-.85.25-1.41.74-1.68l.74-.43v-8.21c0-1.04.52-1.56 1.56-1.56h1.85c1.04 0 1.56.52 1.56 1.56v5.37l1-.57c.55-.32 1-.38 1.35-.17s.53.62.53 1.25v1.31c0 .83-.36 1.46-1.08 1.88l-1.79 1.02v4.4h6.73c1.04 0 1.56.52 1.56 1.56v1.14c0 1.04-.52 1.56-1.56 1.56h-10.14c-1.04 0-1.56-.52-1.56-1.56v-4.26zm14.34-7.24c0-1.04.52-1.56 1.56-1.56h1.79c1.04 0 1.56.52 1.56 1.56v7.02c0 .68.13 1.17.4 1.48.26.3.65.46 1.17.46.53 0 .99-.11 1.38-.33.39-.22.71-.51.97-.88s.44-.79.57-1.28c.12-.48.18-1 .18-1.55v-4.92c0-1.04.52-1.56 1.56-1.56h1.79c1.04 0 1.56.52 1.56 1.56v11.51c0 1.04-.52 1.56-1.56 1.56h-1.59c-1.02 0-1.53-.52-1.53-1.56v-.49c0-.06.01-.1.03-.14h-.06c-.4.8-1.01 1.42-1.85 1.86-.83.45-1.74.67-2.73.67-.72 0-1.4-.09-2.03-.28a4.36 4.36 0 0 1-1.66-.92c-.47-.43-.84-.99-1.11-1.69-.26-.7-.4-1.56-.4-2.58v-7.94zm16.57 5.74c0-.99.18-1.94.54-2.86.36-.92.88-1.73 1.58-2.44s1.54-1.28 2.56-1.7c1.01-.43 2.17-.64 3.48-.64 1.12 0 2.06.14 2.84.42s1.4.58 1.88.9c.4.27.62.59.67.96.05.37-.06.77-.33 1.19l-.48.74c-.27.44-.57.68-.91.72-.34.05-.74-.04-1.19-.27-.28-.15-.61-.28-.97-.38-.36-.1-.76-.16-1.19-.16-.59 0-1.1.1-1.53.3-.44.2-.8.46-1.09.79-.29.33-.51.7-.65 1.11-.14.41-.21.84-.21 1.27 0 .43.08.86.23 1.3a3.361 3.361 0 0 0 1.82 1.99c.46.22 1 .32 1.62.32.49 0 .97-.08 1.42-.26.46-.17.86-.36 1.22-.57.47-.26.88-.36 1.24-.28.35.08.65.35.89.82l.37.71c.21.44.28.84.23 1.2s-.28.68-.65.94c-.51.34-1.2.69-2.07 1.03-.87.34-1.91.51-3.12.51-1.31 0-2.47-.21-3.48-.62-1.01-.42-1.87-.98-2.56-1.69s-1.22-1.53-1.58-2.46c-.4-.92-.58-1.89-.58-2.89zm15.08 5.74c0-.38.05-.68.16-.91s.28-.5.53-.82l4.69-5.84c.19-.23.36-.42.51-.58.15-.16.28-.3.4-.41.13-.13.26-.25.37-.34v-.06c-.09.02-.2.03-.31.03-.09.02-.22.03-.38.03h-4.16c-1.04 0-1.56-.52-1.56-1.57v-1c0-1.05.52-1.57 1.56-1.57h9.94c1.04 0 1.56.41 1.56 1.22v.37c0 .38-.05.68-.16.91-.1.23-.28.5-.53.82l-4.66 5.88c-.19.23-.36.42-.51.58s-.28.3-.4.41c-.13.13-.27.25-.4.34v.06c.09 0 .2-.01.31-.03.09-.02.22-.03.38-.04.16-.01.36-.01.61-.01h3.92c1.04 0 1.56.52 1.56 1.56v.99c0 1.04-.52 1.56-1.56 1.56h-10.31c-1.04 0-1.56-.41-1.56-1.22v-.36zm14.6-5.74c0-1.08.17-2.08.53-3.01s.85-1.73 1.51-2.42 1.45-1.22 2.4-1.62 2.01-.6 3.18-.6c1.08 0 2.04.18 2.88.54s1.55.85 2.13 1.48c.58.62 1.01 1.36 1.31 2.22.29.85.44 1.77.44 2.75 0 .38-.15.74-.45 1.09-.3.35-.7.53-1.19.53h-7.7c.19.9.61 1.55 1.25 1.97s1.36.62 2.16.62c.49 0 .97-.07 1.42-.2.45-.13.87-.29 1.25-.48.47-.21.88-.27 1.22-.2.34.08.63.34.88.8l.4.74c.23.44.3.84.23 1.22-.08.37-.33.68-.77.93-.53.31-1.22.6-2.06.89-.84.29-1.83.43-2.97.43-1.31 0-2.46-.22-3.47-.65-1-.44-1.84-1.01-2.51-1.72-.67-.71-1.18-1.53-1.53-2.46s-.54-1.89-.54-2.85zm9.52-1.85c0-.61-.18-1.12-.54-1.55-.36-.43-.85-.64-1.48-.64-.72 0-1.26.22-1.62.65-.36.44-.61.95-.74 1.53h4.38zm6.9-9.57c0-1.04.52-1.56 1.56-1.56h1.79c1.04 0 1.56.52 1.56 1.56v8.95h1.39l2.27-3.78c.4-.7 1.01-1.05 1.85-1.05h1.88c.64 0 1.06.18 1.25.54.19.36.11.8-.23 1.33l-3.07 4.77v.06l3.72 6.05c.32.55.39 1 .2 1.35s-.61.53-1.25.53h-2.13c-.81 0-1.43-.37-1.85-1.11l-2.5-4.57h-1.53v4.12c0 1.04-.52 1.56-1.56 1.56h-1.79c-1.04 0-1.56-.52-1.56-1.56v-17.19zm23.78 13.83c-1.04 0-1.56-.52-1.56-1.56v-.4c0-.38.04-.71.13-1.01.08-.29.23-.6.44-.92l6.62-10.48c.44-.68 1.06-1.02 1.88-1.02h3.3c1.04 0 1.56.52 1.56 1.56v9.72h.85c1.04 0 1.56.52 1.56 1.56v.99c0 1.04-.4 1.56-1.19 1.56h-1.22v3.35c0 1.04-.52 1.56-1.56 1.56h-1.79c-1.04 0-1.56-.52-1.56-1.56v-3.35h-7.46zm7.44-4.12v-4.54c0-.27 0-.54.01-.82.01-.28.03-.53.07-.74.02-.25.05-.48.09-.71h-.06c-.09.25-.19.49-.28.74-.1.21-.2.44-.31.68-.11.25-.25.47-.4.68l-3.07 4.66v.06h3.95z"/><path d="M719.12 551.12v65.76c0 10.52 8.53 19.05 19.05 19.05l20.85 20.85 20.85-20.85h101.31c10.52 0 19.05-8.53 19.05-19.05v-65.76c0-10.52-8.53-19.05-19.05-19.05H738.16c-10.52.01-19.04 8.53-19.04 19.05z" style="fill:#4a4b4c"/><path d="M715.84 546.7v65.76c0 10.52 8.53 19.05 19.05 19.05l20.85 20.85 20.85-20.85H877.9c10.52 0 19.05-8.53 19.05-19.05V546.7c0-10.52-8.53-19.05-19.05-19.05H734.89c-10.52 0-19.05 8.53-19.05 19.05z" style="fill:#333"/><path class="st6" d="m755.74 653.65-21.23-21.24c-10.83-.21-19.58-9.08-19.58-19.97V546.7c0-11.01 8.96-19.97 19.97-19.97h143c11.01 0 19.97 8.96 19.97 19.97v65.76c0 11.01-8.96 19.97-19.97 19.97H776.97l-21.23 21.22zm-20.85-125.08c-9.99 0-18.12 8.13-18.12 18.12v65.76c0 9.99 8.13 18.12 18.12 18.12h.38l20.47 20.47 20.47-20.47h101.7c9.99 0 18.12-8.13 18.12-18.12V546.7c0-9.99-8.13-18.12-18.12-18.12H734.89z"/><path class="st6" d="m758.02 576.87 7.76 9.1a2.984 2.984 0 0 0 4.22.33 2.984 2.984 0 0 0 .33-4.22l-7.13-8.36-5.32-13.11a4.221 4.221 0 0 0-3.73-2.63l-4.96-.2a4.21 4.21 0 0 0-4 2.45l-6.28 13.62-3.81 11.34c-.53 1.57.32 3.26 1.88 3.79 1.57.53 3.26-.32 3.79-1.88l3.7-11.03 1.26-2.73-.31 7.46-1.5 16.62-6.14 12.24a2.99 2.99 0 0 0 1.33 4.01c1.48.74 3.27.14 4.01-1.33l6.65-13.26 1.27-14.11 3.8 12.52 4.01 14.22a3 3 0 0 0 3.69 2.07 3 3 0 0 0 2.07-3.69l-4.03-14.27-4.65-15.32.33-7.97 1.76 4.34z"/><circle class="st6" cx="754.34" cy="551.21" r="5.8"/><path class="st6" d="M786.66 570.23c0-8.8 12.08-10.05 12.08-15.85 0-2.44-1.85-4.08-4.43-4.08-2.23 0-3.7 1.43-4.36 2.27-.49.52-1.05.73-1.64.24l-.63-.49c-.59-.45-.73-.98-.31-1.57.94-1.33 3.21-3.7 7.19-3.7 4.5 0 7.79 2.83 7.79 7.09 0 8.1-11.8 9.36-11.91 14.98h11.14c.73 0 1.15.38 1.15 1.15v.7c0 .77-.42 1.15-1.15 1.15h-13.69c-.7 0-1.22-.38-1.22-1.15v-.74zm29.01-14.63c0-.77.42-1.15 1.15-1.15h.98c.77 0 1.15.38 1.15 1.15v1.57c0 .52-.1 1.01-.1 1.01h.07c.87-2.06 3.35-4.15 6.14-4.15 2.97 0 4.68 1.36 5.31 4.02h.07c.94-2.06 3.39-4.02 6.25-4.02 4.01 0 5.83 2.27 5.83 6.77v10.16c0 .77-.38 1.15-1.15 1.15h-1.08c-.73 0-1.15-.38-1.15-1.15v-9.43c0-2.48-.49-4.43-3.11-4.43-3.28 0-5.24 3.39-5.24 6.77v7.09c0 .77-.38 1.15-1.12 1.15h-1.12c-.73 0-1.12-.38-1.12-1.15v-9.43c0-2.3-.35-4.43-3.07-4.43-3.35 0-5.31 3.49-5.31 6.77v7.09c0 .77-.38 1.15-1.15 1.15h-1.08c-.73 0-1.15-.38-1.15-1.15V555.6zm31.46-5.83v-1.15c0-.77.38-1.15 1.15-1.15h1.19c.73 0 1.15.38 1.15 1.15v1.15c0 .73-.42 1.15-1.15 1.15h-1.19c-.77 0-1.15-.41-1.15-1.15zm.04 5.83c0-.77.42-1.15 1.15-1.15h1.08c.77 0 1.15.38 1.15 1.15v15.36c0 .77-.38 1.15-1.15 1.15h-1.08c-.73 0-1.15-.38-1.15-1.15V555.6zm8.27 0c0-.77.42-1.15 1.15-1.15h.98c.77 0 1.15.38 1.15 1.15v1.57c0 .52-.1 1.01-.1 1.01h.07a7.32 7.32 0 0 1 6.7-4.15c4.15 0 6.04 2.27 6.04 6.77v10.16c0 .77-.38 1.15-1.15 1.15h-1.08c-.73 0-1.15-.38-1.15-1.15v-9.39c0-2.48-.49-4.43-3.32-4.43-3.42 0-5.9 2.86-5.9 6.53v7.3c0 .77-.38 1.15-1.15 1.15h-1.08c-.73 0-1.15-.38-1.15-1.15V555.6zm20.36 14c0-.77.38-1.15 1.15-1.15h1.33c.77 0 1.15.38 1.15 1.15v1.36c0 .77-.38 1.15-1.15 1.15h-1.33c-.77 0-1.15-.38-1.15-1.15v-1.36zm-89.25 42.57c0-.77.38-1.15 1.15-1.15h4.3V595.1c0-.77.03-1.5.03-1.5h-.07s-.31.56-1.08 1.33l-1.57 1.54c-.56.52-1.12.52-1.61-.04l-.49-.49c-.56-.56-.52-1.12 0-1.64l4.47-4.36c.42-.38.84-.56 1.4-.56h1.12c.77 0 1.15.38 1.15 1.15v20.49h4.26c.73 0 1.15.38 1.15 1.15v.7c0 .77-.42 1.15-1.15 1.15h-11.9c-.77 0-1.15-.38-1.15-1.15v-.7zm16.9-1.99.56-.77c.45-.59.98-.59 1.57-.14.77.73 2.23 1.89 4.54 1.89 2.9 0 5.41-1.99 5.41-4.99 0-2.97-2.44-5.06-5.62-5.06-1.54 0-2.76.56-3.39.87-.56.21-1.05.25-1.54.07l-.31-.1c-.59-.25-.91-.7-.84-1.36l1.05-10.12c.07-.73.45-1.08 1.19-1.08h10.19c.77 0 1.15.38 1.15 1.15v.7c0 .73-.38 1.15-1.15 1.15h-8.27l-.59 5.2c-.04.73-.17 1.29-.17 1.29h.07s1.36-.77 3.18-.77c5.2 0 8.59 3.6 8.59 8.03 0 4.75-3.77 8.31-8.73 8.31-3.53 0-5.76-1.71-6.77-2.69-.57-.47-.57-1.06-.12-1.58zm19.34-8.52c0-7.09 2.16-12.71 8.73-12.71 6.6 0 8.73 5.62 8.73 12.71 0 7.12-2.13 12.78-8.73 12.78-6.56-.01-8.73-5.66-8.73-12.78zm13.9 0c0-5.34-1.12-9.53-5.17-9.53-4.01 0-5.17 4.19-5.17 9.53 0 5.38 1.15 9.6 5.17 9.6 4.05 0 5.17-4.23 5.17-9.6zm16.86-4.16c0-.77.42-1.15 1.15-1.15h.98c.77 0 1.15.38 1.15 1.15v1.57c0 .52-.1 1.01-.1 1.01h.07c.87-2.06 3.35-4.16 6.14-4.16 2.97 0 4.68 1.36 5.31 4.02h.07c.94-2.06 3.39-4.02 6.25-4.02 4.01 0 5.83 2.27 5.83 6.77v10.16c0 .77-.38 1.15-1.15 1.15h-1.08c-.73 0-1.15-.38-1.15-1.15v-9.43c0-2.48-.49-4.43-3.11-4.43-3.28 0-5.24 3.39-5.24 6.77v7.09c0 .77-.38 1.15-1.12 1.15h-1.12c-.73 0-1.12-.38-1.12-1.15v-9.43c0-2.3-.35-4.43-3.07-4.43-3.35 0-5.31 3.49-5.31 6.77v7.09c0 .77-.38 1.15-1.15 1.15h-1.08c-.73 0-1.15-.38-1.15-1.15V597.5z"/><path class="st1" d="M88.04 542.9c0-1.25.62-1.87 1.87-1.87h8.23c1.18 0 2.26.2 3.23.61s1.81.99 2.5 1.73 1.23 1.63 1.62 2.65c.39 1.02.58 2.14.58 3.37 0 1.22-.19 2.35-.58 3.38-.39 1.03-.92 1.92-1.62 2.67a7.19 7.19 0 0 1-2.5 1.75c-.97.42-2.05.63-3.23.63h-4.15v5.64c0 1.25-.62 1.87-1.87 1.87h-2.21c-1.25 0-1.87-.62-1.87-1.87V542.9zm8.88 9.83c1.04 0 1.82-.31 2.33-.93.51-.62.77-1.42.77-2.4 0-.97-.25-1.76-.75-2.36s-1.25-.9-2.24-.9H94v6.6h2.92zm9.65 7.68c0-1.18.31-2.15.94-2.92.62-.77 1.42-1.38 2.4-1.84.97-.45 2.04-.77 3.2-.95 1.16-.18 2.28-.27 3.37-.27h.51v-.31c0-.73-.25-1.23-.75-1.51s-1.08-.42-1.73-.42c-.57 0-1.12.08-1.67.24-.54.16-1.04.34-1.5.54-1.16.5-2 .23-2.52-.82l-.41-.85c-.25-.52-.32-1-.2-1.45.11-.44.43-.8.95-1.07.66-.32 1.48-.62 2.48-.92 1-.29 2.13-.44 3.4-.44 2.43 0 4.34.63 5.73 1.89 1.39 1.26 2.09 3.01 2.09 5.25v8.91c0 1.25-.62 1.87-1.87 1.87h-1.63c-1.25 0-1.87-.63-1.87-1.9v-.38c0-.04.01-.08.03-.1h-.07c-.34.52-.76.99-1.26 1.39-.43.36-.98.69-1.63.97-.66.28-1.42.42-2.28.42-.84 0-1.61-.14-2.31-.41s-1.3-.65-1.8-1.12c-.5-.48-.89-1.04-1.17-1.7-.29-.65-.43-1.35-.43-2.1zm5.82-.54c0 .41.14.76.43 1.05.28.29.7.44 1.24.44.43 0 .83-.1 1.19-.29.36-.19.68-.44.95-.73.27-.29.48-.62.63-.99.15-.36.22-.72.22-1.09v-.48h-.54c-.45 0-.92.03-1.41.1-.49.07-.93.18-1.33.34-.4.16-.73.37-.99.63-.26.28-.39.61-.39 1.02zm13.66-10.17c0-1.25.62-1.87 1.87-1.87h1.9c1.25 0 1.87.62 1.87 1.87v1.09c0 .16-.01.29-.02.41-.01.11-.02.23-.02.34-.02.11-.03.23-.03.34h.07c.14-.45.35-.93.65-1.43.29-.5.65-.95 1.05-1.36.41-.41.87-.75 1.38-1.02.51-.27 1.04-.41 1.58-.41.59 0 1 .16 1.24.48.24.32.36.78.36 1.39v1.9c0 1.25-.62 1.87-1.87 1.87-.7 0-1.31.14-1.84.42-.52.28-.95.66-1.29 1.14-.34.48-.6 1.03-.77 1.67s-.25 1.3-.25 2.01v4.93c0 1.25-.62 1.87-1.87 1.87h-2.14c-1.25 0-1.87-.62-1.87-1.87V549.7zm13.81-6.8c0-1.25.62-1.87 1.87-1.87h2.14c1.25 0 1.87.62 1.87 1.87v10.71h1.67l2.72-4.52c.48-.84 1.21-1.26 2.21-1.26h2.24c.77 0 1.27.22 1.5.65.23.43.14.96-.27 1.6l-3.67 5.71v.07l4.45 7.24c.39.66.46 1.2.24 1.62-.23.42-.73.63-1.5.63h-2.55c-.97 0-1.71-.44-2.21-1.33l-2.99-5.47h-1.84v4.93c0 1.25-.62 1.87-1.87 1.87h-2.14c-1.25 0-1.87-.62-1.87-1.87V542.9zm19.21 6.8c0-1.25.62-1.87 1.87-1.87h2.14c1.25 0 1.87.62 1.87 1.87v13.77c0 1.25-.62 1.87-1.87 1.87h-2.14c-1.25 0-1.87-.62-1.87-1.87V549.7zm1.94-4.08c-1.25 0-1.87-.62-1.87-1.87v-.85c0-1.25.62-1.87 1.87-1.87h2.01c1.25 0 1.87.62 1.87 1.87v.85c0 1.25-.62 1.87-1.87 1.87h-2.01zm7.41 4.08c0-1.25.62-1.87 1.87-1.87h1.9c1.22 0 1.84.62 1.84 1.87v.31c0 .05-.01.09-.02.14-.01.05-.02.09-.02.14v.17h.07c.2-.34.46-.69.78-1.05.32-.36.7-.68 1.16-.97.45-.28.98-.52 1.58-.71.6-.19 1.29-.29 2.06-.29.88 0 1.71.11 2.48.34.77.23 1.43.59 1.99 1.11.56.51 1 1.18 1.33 2.02.33.84.49 1.87.49 3.09v9.49c0 1.25-.62 1.87-1.87 1.87h-2.14c-1.25 0-1.87-.62-1.87-1.87v-8.4c0-.82-.16-1.41-.48-1.77-.32-.36-.81-.54-1.46-.54-.66 0-1.22.12-1.7.37s-.87.59-1.19 1.02c-.32.43-.55.93-.7 1.5-.15.57-.22 1.16-.22 1.77v6.05c0 1.25-.62 1.87-1.87 1.87h-2.14c-1.25 0-1.87-.62-1.87-1.87V549.7zm22.54 18.47c.23-.59.52-.97.88-1.14.36-.17.86-.15 1.5.05a9.758 9.758 0 0 0 3.13.48c.54 0 1.07-.06 1.56-.17.5-.11.94-.29 1.31-.54.37-.25.67-.58.9-1.01.23-.43.34-.96.34-1.62v-1.29c0-.09.01-.17.03-.24h-.07c-.48.7-1.05 1.24-1.72 1.6-.67.36-1.52.54-2.57.54-1.34 0-2.51-.25-3.52-.75a7.423 7.423 0 0 1-2.5-1.97c-.66-.82-1.15-1.75-1.48-2.8s-.49-2.15-.49-3.28c0-1.11.16-2.18.48-3.21a7.87 7.87 0 0 1 1.48-2.75c.67-.8 1.51-1.44 2.52-1.92s2.19-.71 3.55-.71c.95 0 1.73.12 2.33.36.6.24 1.09.5 1.48.8.41.34.74.71.99 1.12h.07c-.02-.02-.03-.06-.03-.1v-.31c0-.41.16-.75.48-1.04.32-.28.78-.42 1.39-.42h1.6c1.25 0 1.87.62 1.87 1.87v14.04c0 1.61-.29 2.96-.88 4.06s-1.35 2-2.28 2.7c-.93.7-1.97 1.21-3.11 1.51-1.15.31-2.27.46-3.38.46-1.02 0-2.01-.09-2.97-.26-.96-.17-1.71-.37-2.23-.6-1.11-.46-1.45-1.27-1.02-2.43l.36-1.03zm6.6-8.27c.39 0 .77-.06 1.14-.17s.71-.31 1.02-.59c.31-.28.55-.67.73-1.16.18-.49.27-1.12.27-1.89 0-.76-.1-1.39-.29-1.87-.19-.48-.44-.87-.75-1.15-.31-.28-.67-.47-1.09-.57s-.84-.15-1.27-.15c-1.04 0-1.82.33-2.35.98s-.78 1.48-.78 2.49c0 .54.07 1.06.2 1.55.14.49.34.93.61 1.3s.62.67 1.04.89c.42.23.93.34 1.52.34zm-158.7 48.35c-1.13-2-2.01-4.16-2.64-6.49-.62-2.33-.94-4.81-.94-7.41 0-2.22.29-4.37.88-6.44.59-2.07 1.44-4.07 2.55-6 .25-.45.56-.78.92-.97.36-.19.8-.29 1.33-.29h.85c.73 0 1.21.2 1.44.61.24.41.2.94-.12 1.6-.86 1.84-1.52 3.71-1.97 5.63-.45 1.92-.68 3.87-.68 5.87 0 4.35.93 8.62 2.79 12.82.29.66.32 1.19.08 1.6-.24.41-.72.61-1.45.61h-.95c-.52 0-.95-.09-1.27-.26-.31-.18-.59-.47-.82-.88zm7.31-17.75c0-1.25.62-1.87 1.87-1.87h1.9c1.22 0 1.84.62 1.84 1.87v.31c0 .05-.01.09-.02.14-.01.05-.02.09-.02.14v.17h.07c.2-.34.46-.69.78-1.05.32-.36.7-.68 1.16-.97.45-.28.98-.52 1.58-.71.6-.19 1.29-.29 2.06-.29.88 0 1.71.11 2.48.34.77.23 1.43.59 1.99 1.11.56.51 1 1.18 1.33 2.02.33.84.49 1.87.49 3.09v9.49c0 1.25-.62 1.87-1.87 1.87h-2.14c-1.25 0-1.87-.62-1.87-1.87v-8.4c0-.82-.16-1.41-.48-1.77-.32-.36-.81-.54-1.46-.54-.66 0-1.22.12-1.7.37s-.87.59-1.19 1.02c-.32.43-.55.93-.7 1.5-.15.57-.22 1.16-.22 1.77v6.05c0 1.25-.62 1.87-1.87 1.87h-2.14c-1.25 0-1.87-.62-1.87-1.87V590.5zm20.74 0c0-1.25.62-1.87 1.87-1.87h2.14c1.25 0 1.87.62 1.87 1.87v13.77c0 1.25-.62 1.87-1.87 1.87h-2.14c-1.25 0-1.87-.62-1.87-1.87V590.5zm1.94-4.08c-1.25 0-1.87-.62-1.87-1.87v-.85c0-1.25.62-1.87 1.87-1.87h2.01c1.25 0 1.87.62 1.87 1.87v.85c0 1.25-.62 1.87-1.87 1.87h-2.01zm6.43 10.95c0-1.29.21-2.49.63-3.6s1.02-2.07 1.8-2.89c.78-.82 1.74-1.46 2.87-1.94 1.13-.48 2.4-.71 3.81-.71 1.29 0 2.44.22 3.45.65 1.01.43 1.86 1.02 2.55 1.77s1.21 1.63 1.56 2.65c.35 1.02.53 2.12.53 3.3 0 .45-.18.89-.54 1.31-.36.42-.84.63-1.43.63H81.3c.23 1.08.73 1.86 1.5 2.35s1.63.74 2.58.74c.59 0 1.16-.08 1.7-.24s1.04-.35 1.5-.58c.57-.25 1.05-.33 1.46-.24.41.09.76.41 1.05.95l.48.89c.27.52.36 1.01.27 1.46-.09.45-.4.82-.92 1.11-.64.37-1.46.72-2.47 1.06-1.01.34-2.19.51-3.55.51-1.56 0-2.95-.26-4.15-.78-1.2-.52-2.21-1.21-3.01-2.06-.8-.85-1.42-1.83-1.84-2.94a9.775 9.775 0 0 1-.62-3.4zm11.39-2.21c0-.72-.22-1.34-.65-1.85-.43-.51-1.02-.76-1.77-.76-.86 0-1.51.26-1.94.78-.43.52-.73 1.13-.88 1.84h5.24zm8.22 9.79c-.52-.29-.81-.67-.87-1.12-.06-.45.07-.94.39-1.46l.51-.78c.34-.5.71-.78 1.1-.85.4-.07.89.03 1.48.31.43.18.92.38 1.46.59.54.22 1.17.32 1.87.32.59 0 1-.1 1.24-.29.24-.19.36-.43.36-.7 0-.34-.2-.61-.61-.82-.41-.2-.91-.4-1.51-.59-.6-.19-1.26-.41-1.97-.65-.71-.24-1.37-.57-1.97-.99-.6-.42-1.1-.96-1.51-1.63-.41-.67-.61-1.51-.61-2.53 0-.91.19-1.71.56-2.4.37-.69.89-1.27 1.55-1.73.66-.46 1.43-.82 2.31-1.05.88-.24 1.84-.36 2.86-.36 1.11 0 2.08.12 2.91.37.83.25 1.51.5 2.06.75.52.25.83.6.92 1.05.09.45.01.94-.24 1.46l-.41.82c-.25.54-.58.87-.99.99-.41.11-.91.06-1.5-.17-.41-.16-.86-.31-1.36-.46-.5-.15-1.04-.22-1.63-.22-.63 0-1.05.09-1.26.27-.2.18-.31.4-.31.65 0 .34.2.61.61.8.41.19.91.39 1.51.58.6.19 1.26.4 1.97.63.71.23 1.37.55 1.97.97.6.42 1.1.95 1.51 1.6.41.65.61 1.48.61 2.5 0 .82-.16 1.58-.49 2.28-.33.7-.81 1.31-1.43 1.82-.62.51-1.38.91-2.28 1.21-.9.29-1.9.44-3.01.44-1.31 0-2.46-.18-3.43-.53-.96-.36-1.75-.72-2.37-1.08zm16.83-11.42h-.51c-1.22 0-1.84-.62-1.84-1.87v-.85c0-1.25.62-1.87 1.87-1.87h.65v-3.16c0-1.25.62-1.87 1.87-1.87h1.97c1.25 0 1.87.62 1.87 1.87v3.16h1.8c1.25 0 1.87.62 1.87 1.87v.85c0 1.25-.61 1.87-1.84 1.87h-1.84v5.3c0 .75.21 1.29.63 1.61.42.33.89.53 1.41.6.68.09 1.16.26 1.44.51s.42.7.42 1.36v1.53c0 .7-.2 1.19-.61 1.46s-1.01.41-1.8.41c-.66 0-1.41-.09-2.24-.27-.84-.18-1.64-.51-2.41-.99a6.058 6.058 0 0 1-1.94-1.96c-.52-.83-.78-1.89-.78-3.18v-6.38zm12.38-3.03c0-1.25.62-1.87 1.87-1.87h1.9c1.25 0 1.87.62 1.87 1.87v1.09c0 .16-.01.29-.02.41-.01.11-.02.23-.02.34-.02.11-.03.23-.03.34h.07c.14-.45.35-.93.65-1.43.29-.5.65-.95 1.05-1.36.41-.41.87-.75 1.38-1.02.51-.27 1.04-.41 1.58-.41.59 0 1 .16 1.24.48.24.32.36.78.36 1.39v1.9c0 1.25-.62 1.87-1.87 1.87-.7 0-1.31.14-1.84.42-.52.28-.95.66-1.29 1.14-.34.48-.6 1.03-.77 1.67s-.25 1.3-.25 2.01v4.93c0 1.25-.62 1.87-1.87 1.87h-2.14c-1.25 0-1.87-.62-1.87-1.87V590.5zm12.85 13.74c0-.45.06-.81.19-1.09.12-.27.33-.6.63-.98l5.61-6.98c.23-.27.43-.5.61-.7.18-.19.34-.36.48-.49.16-.16.31-.29.44-.41v-.07c-.11.02-.24.03-.37.03-.11.02-.27.03-.46.03h-4.98c-1.25 0-1.87-.63-1.87-1.88v-1.2c0-1.25.62-1.88 1.87-1.88H151c1.25 0 1.87.49 1.87 1.46v.44c0 .45-.06.82-.19 1.09-.12.27-.33.6-.63.99l-5.58 7.04c-.23.27-.43.5-.61.7-.18.19-.34.36-.48.49-.16.16-.32.29-.48.41v.07c.11 0 .24-.01.37-.03.11-.02.27-.04.46-.05.19-.01.44-.02.73-.02h4.69c1.25 0 1.87.62 1.87 1.87v1.19c0 1.25-.62 1.87-1.87 1.87h-12.34c-1.25 0-1.87-.49-1.87-1.46v-.44zm17.48-6.87c0-1.29.21-2.49.63-3.6s1.02-2.07 1.8-2.89c.78-.82 1.74-1.46 2.87-1.94 1.13-.48 2.4-.71 3.81-.71 1.29 0 2.44.22 3.45.65 1.01.43 1.86 1.02 2.55 1.77s1.21 1.63 1.56 2.65c.35 1.02.53 2.12.53 3.3 0 .45-.18.89-.54 1.31-.36.42-.84.63-1.43.63h-9.21c.23 1.08.73 1.86 1.5 2.35s1.63.74 2.58.74c.59 0 1.16-.08 1.7-.24s1.04-.35 1.5-.58c.57-.25 1.05-.33 1.46-.24.41.09.76.41 1.05.95l.48.89c.27.52.36 1.01.27 1.46-.09.45-.4.82-.92 1.11-.64.37-1.46.72-2.47 1.06-1.01.34-2.19.51-3.55.51-1.56 0-2.95-.26-4.15-.78-1.2-.52-2.21-1.21-3.01-2.06-.8-.85-1.42-1.83-1.84-2.94a9.775 9.775 0 0 1-.62-3.4zm11.39-2.21c0-.72-.22-1.34-.65-1.85-.43-.51-1.02-.76-1.77-.76-.86 0-1.51.26-1.94.78-.43.52-.73 1.13-.88 1.84h5.24zm7.31 9.08c0-.45.06-.81.19-1.09.12-.27.33-.6.63-.98l5.61-6.98c.23-.27.43-.5.61-.7.18-.19.34-.36.48-.49.16-.16.31-.29.44-.41v-.07c-.11.02-.24.03-.37.03-.11.02-.27.03-.46.03h-4.98c-1.25 0-1.87-.63-1.87-1.88v-1.2c0-1.25.62-1.88 1.87-1.88h11.9c1.25 0 1.87.49 1.87 1.46v.44c0 .45-.06.82-.19 1.09-.12.27-.33.6-.63.99l-5.58 7.04c-.23.27-.43.5-.61.7-.18.19-.34.36-.48.49-.16.16-.32.29-.48.41v.07c.11 0 .24-.01.37-.03.11-.02.27-.04.46-.05.19-.01.44-.02.73-.02h4.69c1.25 0 1.87.62 1.87 1.87v1.19c0 1.25-.62 1.87-1.87 1.87H175c-1.25 0-1.87-.49-1.87-1.46v-.44zm5.47-19.79v-.75c0-1.25.62-1.87 1.87-1.87h1.12c1.25 0 1.87.62 1.87 1.87v.75c0 1.25-.62 1.87-1.87 1.87h-1.12c-1.25 0-1.87-.62-1.87-1.87zm12 12.99c0-1.38.26-2.64.78-3.77s1.23-2.1 2.12-2.91 1.94-1.43 3.15-1.87c1.2-.44 2.48-.66 3.84-.66 1.38 0 2.68.22 3.89.66 1.21.44 2.27 1.07 3.16 1.87s1.6 1.77 2.12 2.91c.52 1.13.78 2.39.78 3.77 0 1.36-.26 2.6-.78 3.72s-1.23 2.09-2.12 2.89-1.94 1.42-3.15 1.85c-1.2.43-2.49.65-3.88.65-1.38 0-2.67-.22-3.88-.65-1.2-.43-2.25-1.05-3.15-1.85s-1.6-1.77-2.12-2.89c-.5-1.12-.76-2.36-.76-3.72zm5.95 0c0 .65.11 1.24.32 1.75.22.52.5.96.87 1.32.36.36.78.63 1.26.83s.99.29 1.53.29 1.05-.09 1.53-.29.9-.47 1.26-.83.65-.8.87-1.32c.22-.52.32-1.1.32-1.75s-.11-1.24-.32-1.77c-.22-.53-.5-.98-.87-1.35-.36-.37-.78-.66-1.26-.86-.48-.2-.99-.3-1.53-.3s-1.05.1-1.53.3c-.48.2-.9.49-1.26.86s-.65.82-.87 1.35c-.21.52-.32 1.11-.32 1.77zm16.39-6.94c0-1.25.62-1.87 1.87-1.87h1.9c1.22 0 1.84.62 1.84 1.87v.31c0 .05-.01.09-.02.14-.01.05-.02.09-.02.14v.17h.07c.2-.34.46-.69.78-1.05.32-.36.7-.68 1.16-.97.45-.28.98-.52 1.58-.71.6-.19 1.29-.29 2.06-.29.88 0 1.71.11 2.48.34.77.23 1.43.59 1.99 1.11.56.51 1 1.18 1.33 2.02.33.84.49 1.87.49 3.09v9.49c0 1.25-.62 1.87-1.87 1.87h-2.14c-1.25 0-1.87-.62-1.87-1.87v-8.4c0-.82-.16-1.41-.48-1.77-.32-.36-.81-.54-1.46-.54-.66 0-1.22.12-1.7.37s-.87.59-1.19 1.02c-.32.43-.55.93-.7 1.5-.15.57-.22 1.16-.22 1.77v6.05c0 1.25-.62 1.87-1.87 1.87h-2.14c-1.25 0-1.87-.62-1.87-1.87V590.5zm20.72 17.92c.33-.14.67-.17 1.04-.1.14.04.29.08.46.12.17.03.36.05.56.05.52 0 1-.18 1.45-.54.44-.36.76-.8.97-1.33l.34-.82-6.49-14.99c-.29-.66-.31-1.18-.05-1.58s.75-.59 1.48-.59h2.65c1.09 0 1.8.51 2.14 1.53l2.07 6.53c.07.25.14.53.22.85.08.32.15.61.22.88.09.34.16.67.2.99h.07c.07-.32.14-.63.2-.95.05-.27.1-.56.17-.85l.2-.82 1.77-6.56c.29-1.07 1-1.6 2.11-1.6h2.48c.68 0 1.16.19 1.45.58.28.39.3.91.05 1.56l-6.39 17.24c-.36.97-.82 1.8-1.36 2.46-.54.67-1.14 1.21-1.79 1.63-.65.42-1.33.72-2.04.9-.71.18-1.42.27-2.12.27-.45 0-.89-.04-1.31-.14s-.8-.19-1.14-.31c-.57-.18-.92-.5-1.07-.95-.15-.45-.1-.95.15-1.5l.44-.99c.25-.51.54-.84.87-.97zm17.02-1.36a34.61 34.61 0 0 0 2.02-6.29c.46-2.13.7-4.27.7-6.43 0-1.99-.23-3.95-.68-5.87-.45-1.92-1.11-3.79-1.97-5.63-.32-.66-.37-1.19-.17-1.6.2-.41.67-.61 1.39-.61h.95c.52 0 .96.1 1.33.29.36.19.67.52.92.97 1.11 1.93 1.96 3.93 2.55 6 .59 2.07.88 4.22.88 6.44 0 2.58-.31 5.03-.92 7.34-.61 2.31-1.46 4.45-2.55 6.43-.48.84-1.21 1.26-2.21 1.26H252c-.73 0-1.21-.21-1.45-.63-.23-.41-.19-.97.13-1.67zM34.85 638.17c0-1.38.2-2.63.6-3.76.4-1.12.95-2.08 1.65-2.89.7-.8 1.55-1.42 2.53-1.85.99-.43 2.06-.65 3.21-.65.88 0 1.61.09 2.19.27.58.18 1.05.39 1.41.61.41.25.74.53.99.85h.07a.875.875 0 0 1-.03-.24v-6.01c0-1.25.62-1.87 1.87-1.87h2.14c1.25 0 1.87.62 1.87 1.87v20.57c0 1.25-.62 1.87-1.87 1.87h-1.77c-1.25 0-1.87-.57-1.87-1.7v-.34c0-.02.01-.06.03-.1h-.07c-.32.48-.71.91-1.19 1.29-.41.32-.93.61-1.56.87s-1.41.39-2.31.39c-1.2 0-2.28-.22-3.25-.66a7.043 7.043 0 0 1-2.48-1.89c-.69-.82-1.22-1.79-1.6-2.91s-.56-2.36-.56-3.72zm5.92-.02c0 1.32.32 2.37.95 3.16.63.79 1.46 1.18 2.48 1.18.43 0 .86-.08 1.27-.26s.79-.43 1.1-.79.57-.8.77-1.35c.19-.55.29-1.19.29-1.95 0-.52-.07-1.04-.2-1.54s-.35-.95-.65-1.35c-.29-.4-.66-.72-1.09-.96-.43-.24-.93-.36-1.5-.36-.93 0-1.73.36-2.41 1.08-.67.74-1.01 1.78-1.01 3.14zm16.01-13.65c0-1.25.62-1.87 1.87-1.87h2.14c1.25 0 1.87.62 1.87 1.87v15.71c0 .66.1 1.1.29 1.33.19.23.43.36.7.41.41.05.74.19.99.44s.37.63.37 1.16v1.67c0 .59-.15 1.05-.44 1.39-.29.34-.78.51-1.46.51-.75 0-1.5-.07-2.26-.2-.76-.14-1.44-.44-2.04-.9s-1.09-1.13-1.46-2.01c-.37-.87-.56-2.04-.56-3.52V624.5zm9.32 17.51c0-1.18.31-2.15.94-2.92.62-.77 1.42-1.38 2.4-1.84.97-.45 2.04-.77 3.2-.95 1.16-.18 2.28-.27 3.37-.27h.51v-.31c0-.73-.25-1.23-.75-1.51s-1.08-.42-1.73-.42c-.57 0-1.12.08-1.67.24-.54.16-1.04.34-1.5.54-1.16.5-2 .23-2.52-.82l-.41-.85c-.25-.52-.32-1-.2-1.45.11-.44.43-.8.95-1.07.66-.32 1.48-.62 2.48-.92 1-.29 2.13-.44 3.4-.44 2.43 0 4.34.63 5.73 1.89 1.39 1.26 2.09 3.01 2.09 5.25v8.91c0 1.25-.62 1.87-1.87 1.87h-1.63c-1.25 0-1.87-.63-1.87-1.9v-.38c0-.04.01-.08.03-.1h-.07c-.34.52-.76.99-1.26 1.39-.43.36-.98.69-1.63.97-.66.28-1.42.42-2.28.42-.84 0-1.61-.14-2.31-.41s-1.3-.65-1.8-1.12c-.5-.48-.89-1.04-1.17-1.7-.29-.65-.43-1.35-.43-2.1zm5.81-.54c0 .41.14.76.43 1.05.28.29.7.44 1.24.44.43 0 .83-.1 1.19-.29.36-.19.68-.44.95-.73.27-.29.48-.62.63-.99.15-.36.22-.72.22-1.09v-.48h-.54c-.45 0-.92.03-1.41.1-.49.07-.93.18-1.33.34-.4.16-.73.37-.99.63-.26.27-.39.61-.39 1.02zm22.78-16.97c0-1.25.62-1.87 1.87-1.87h8.23c1.18 0 2.26.2 3.23.61s1.81.99 2.5 1.73 1.23 1.63 1.62 2.65c.39 1.02.58 2.14.58 3.37 0 1.22-.19 2.35-.58 3.38-.39 1.03-.92 1.92-1.62 2.67a7.19 7.19 0 0 1-2.5 1.75c-.97.42-2.05.63-3.23.63h-4.15v5.64c0 1.25-.62 1.87-1.87 1.87h-2.21c-1.25 0-1.87-.62-1.87-1.87V624.5zm8.87 9.83c1.04 0 1.82-.31 2.33-.93.51-.62.77-1.42.77-2.4 0-.97-.25-1.76-.75-2.36s-1.25-.9-2.24-.9h-3.03v6.6h2.92zm9.66 7.68c0-1.18.31-2.15.94-2.92.62-.77 1.42-1.38 2.4-1.84.97-.45 2.04-.77 3.2-.95 1.16-.18 2.28-.27 3.37-.27h.51v-.31c0-.73-.25-1.23-.75-1.51s-1.08-.42-1.73-.42c-.57 0-1.12.08-1.67.24-.54.16-1.04.34-1.5.54-1.16.5-2 .23-2.52-.82l-.41-.85c-.25-.52-.32-1-.2-1.45.11-.44.43-.8.95-1.07.66-.32 1.48-.62 2.48-.92 1-.29 2.13-.44 3.4-.44 2.43 0 4.34.63 5.73 1.89 1.39 1.26 2.09 3.01 2.09 5.25v8.91c0 1.25-.62 1.87-1.87 1.87H126c-1.25 0-1.87-.63-1.87-1.9v-.38c0-.04.01-.08.03-.1h-.07c-.34.52-.76.99-1.26 1.39-.43.36-.98.69-1.63.97-.66.28-1.42.42-2.28.42-.84 0-1.61-.14-2.31-.41s-1.3-.65-1.8-1.12c-.5-.48-.89-1.04-1.17-1.7a5.25 5.25 0 0 1-.42-2.1zm5.81-.54c0 .41.14.76.43 1.05.28.29.7.44 1.24.44.43 0 .83-.1 1.19-.29.36-.19.68-.44.95-.73.27-.29.48-.62.63-.99.15-.36.22-.72.22-1.09v-.48h-.54c-.45 0-.92.03-1.41.1-.49.07-.93.18-1.33.34-.4.16-.73.37-.99.63-.26.27-.39.61-.39 1.02zm12.69-3.3c0-1.18.22-2.32.65-3.42a8.64 8.64 0 0 1 1.89-2.92c.83-.85 1.85-1.53 3.06-2.04s2.6-.76 4.17-.76c1.34 0 2.47.17 3.4.5.93.33 1.68.69 2.24 1.08.48.32.74.7.8 1.15.06.45-.07.92-.39 1.42l-.58.89c-.32.52-.68.81-1.09.87-.41.06-.88-.05-1.43-.32-.34-.18-.73-.33-1.16-.46a5.32 5.32 0 0 0-1.43-.19c-.7 0-1.31.12-1.84.35-.52.24-.96.55-1.31.94-.35.39-.61.84-.78 1.33a4.658 4.658 0 0 0 .02 3.07c.18.52.45.98.82 1.38.36.41.82.74 1.36 1 .54.26 1.19.39 1.94.39.59 0 1.16-.1 1.7-.31s1.03-.43 1.46-.68c.57-.32 1.06-.43 1.48-.34.42.09.78.42 1.07.99l.44.85c.25.52.34 1 .27 1.44-.07.43-.33.81-.78 1.13-.61.41-1.44.82-2.48 1.23-1.04.41-2.29.62-3.74.62-1.56 0-2.95-.25-4.17-.75-1.21-.5-2.23-1.17-3.06-2.02a8.625 8.625 0 0 1-1.89-2.94 9.624 9.624 0 0 1-.64-3.48z"/><path class="st1" d="M150.72 631.3c0-1.25.62-1.87 1.87-1.87h2.14c1.25 0 1.87.62 1.87 1.87v15.95c0 .95-.14 1.78-.42 2.48-.28.7-.65 1.3-1.09 1.8-.44.5-.94.91-1.48 1.22-.54.32-1.09.57-1.63.76-.54.19-1.05.32-1.53.39s-.86.1-1.16.1h-.61c-1.25 0-1.87-.62-1.87-1.87v-1.29c0-.36.06-.66.17-.9.11-.24.26-.42.43-.54.17-.12.37-.22.59-.27.23-.06.45-.11.68-.15.23-.02.46-.07.7-.15.24-.08.46-.2.66-.36.2-.16.37-.37.49-.63s.19-.61.19-1.04v-15.5zm1.94-4.08c-1.25 0-1.87-.62-1.87-1.87v-.85c0-1.25.62-1.87 1.87-1.87h2.01c1.25 0 1.87.62 1.87 1.87v.85c0 1.25-.62 1.87-1.87 1.87h-2.01zm6.46 10.95c0-1.29.21-2.49.63-3.6s1.02-2.07 1.8-2.89c.78-.82 1.74-1.46 2.87-1.94 1.13-.48 2.4-.71 3.81-.71 1.29 0 2.44.22 3.45.65 1.01.43 1.86 1.02 2.55 1.77s1.21 1.63 1.56 2.65c.35 1.02.53 2.12.53 3.3 0 .45-.18.89-.54 1.31-.36.42-.84.63-1.43.63h-9.21c.23 1.08.73 1.86 1.5 2.35s1.63.74 2.58.74c.59 0 1.16-.08 1.7-.24s1.04-.35 1.5-.58c.57-.25 1.05-.33 1.46-.24.41.09.76.41 1.05.95l.48.89c.27.52.36 1.01.27 1.46-.09.45-.4.82-.92 1.11-.64.37-1.46.72-2.47 1.06-1.01.34-2.19.51-3.55.51-1.56 0-2.95-.26-4.15-.78-1.2-.52-2.21-1.21-3.01-2.06-.8-.85-1.42-1.83-1.84-2.94a9.775 9.775 0 0 1-.62-3.4zm11.39-2.21c0-.72-.22-1.34-.65-1.85-.43-.51-1.02-.76-1.77-.76-.86 0-1.51.26-1.94.78-.43.52-.73 1.13-.88 1.84h5.24zm8.23-4.66c0-1.25.62-1.87 1.87-1.87h1.9c1.22 0 1.84.62 1.84 1.87v.31c0 .05-.01.09-.02.14-.01.05-.02.09-.02.14v.17h.07c.2-.34.46-.69.78-1.05.32-.36.7-.68 1.16-.97.45-.28.98-.52 1.58-.71.6-.19 1.29-.29 2.06-.29.88 0 1.71.11 2.48.34.77.23 1.43.59 1.99 1.11.56.51 1 1.18 1.33 2.02.33.84.49 1.87.49 3.09v9.49c0 1.25-.62 1.87-1.87 1.87h-2.14c-1.25 0-1.87-.62-1.87-1.87v-8.4c0-.82-.16-1.41-.48-1.77-.32-.36-.81-.54-1.46-.54-.66 0-1.22.12-1.7.37s-.87.59-1.19 1.02c-.32.43-.55.93-.7 1.5-.15.57-.22 1.16-.22 1.77v6.05c0 1.25-.62 1.87-1.87 1.87h-2.14c-1.25 0-1.87-.62-1.87-1.87V631.3zm21.76 3.03h-.51c-1.22 0-1.84-.62-1.84-1.87v-.85c0-1.25.62-1.87 1.87-1.87h.65v-3.16c0-1.25.62-1.87 1.87-1.87h1.97c1.25 0 1.87.62 1.87 1.87v3.16h1.8c1.25 0 1.87.62 1.87 1.87v.85c0 1.25-.61 1.87-1.84 1.87h-1.84v5.3c0 .75.21 1.29.63 1.61.42.33.89.53 1.41.6.68.09 1.16.26 1.44.51s.42.7.42 1.36v1.53c0 .7-.2 1.19-.61 1.46s-1.01.41-1.8.41c-.66 0-1.41-.09-2.24-.27-.84-.18-1.64-.51-2.41-.99a6.058 6.058 0 0 1-1.94-1.96c-.52-.83-.78-1.89-.78-3.18v-6.38zm11.15 3.91c0-1.38.26-2.64.78-3.77s1.23-2.1 2.12-2.91 1.94-1.43 3.15-1.87c1.2-.44 2.48-.66 3.84-.66 1.38 0 2.68.22 3.89.66 1.21.44 2.27 1.07 3.16 1.87s1.6 1.77 2.12 2.91c.52 1.13.78 2.39.78 3.77 0 1.36-.26 2.6-.78 3.72s-1.23 2.09-2.12 2.89-1.94 1.42-3.15 1.85c-1.2.43-2.49.65-3.88.65-1.38 0-2.67-.22-3.88-.65-1.2-.43-2.25-1.05-3.15-1.85s-1.6-1.77-2.12-2.89c-.5-1.12-.76-2.36-.76-3.72zm5.95 0c0 .65.11 1.24.32 1.75.22.52.5.96.87 1.32.36.36.78.63 1.26.83s.99.29 1.53.29 1.05-.09 1.53-.29.9-.47 1.26-.83.65-.8.87-1.32c.22-.52.32-1.1.32-1.75s-.11-1.24-.32-1.77c-.22-.53-.5-.98-.87-1.35-.36-.37-.78-.66-1.26-.86-.48-.2-.99-.3-1.53-.3s-1.05.1-1.53.3c-.48.2-.9.49-1.26.86s-.65.82-.87 1.35c-.21.52-.32 1.11-.32 1.77zm2.45-11.12c-.2-.41-.15-.89.17-1.46l.95-1.7c.5-.88 1.23-1.33 2.21-1.33h1.56c.79 0 1.27.23 1.44.68.17.45.01.99-.49 1.6l-1.33 1.7c-.59.75-1.35 1.12-2.28 1.12h-.99c-.62 0-1.04-.2-1.24-.61zm12.61 4.42c-.18-.66-.12-1.17.17-1.55s.77-.56 1.43-.56h2.31c1.13 0 1.81.56 2.04 1.67l1.84 8.67c.04.25.08.48.1.7.02.21.04.41.07.59.02.2.03.39.03.54h.07c.02-.16.05-.34.07-.54.02-.18.05-.38.08-.59.03-.22.08-.45.15-.7l2.04-8.7c.23-1.09.91-1.63 2.04-1.63h1.7c1.11 0 1.79.54 2.04 1.63l2.04 8.7c.05.25.09.48.14.7.04.21.08.41.1.59.02.2.03.39.03.54h.07c0-.16.01-.34.03-.54.02-.18.05-.38.08-.59.03-.22.07-.45.12-.7l1.84-8.67c.23-1.11.91-1.67 2.04-1.67h2.24c.66 0 1.13.19 1.43.56.29.37.35.89.17 1.55l-3.88 13.8c-.29 1.07-.99 1.6-2.07 1.6h-3.26c-1.11 0-1.8-.54-2.07-1.63l-1.56-6.46c-.07-.25-.12-.48-.15-.7-.03-.21-.07-.41-.12-.59-.05-.2-.07-.4-.07-.58h-.07c0 .18-.02.37-.07.58-.05.18-.09.38-.14.59-.05.22-.09.45-.14.7l-1.56 6.46c-.27 1.09-.96 1.63-2.07 1.63h-3.33c-1.09 0-1.78-.53-2.07-1.6l-3.88-13.8zM76.21 672.72c0-.79.4-1.19 1.19-1.19h8.1c4.64 0 7.96 3.13 7.96 7.96s-3.31 8.06-7.96 8.06h-5.76v8.21c0 .79-.4 1.19-1.19 1.19H77.4c-.79 0-1.19-.4-1.19-1.19v-23.04zm8.71 11.73c3.06 0 4.93-1.91 4.93-4.97s-1.87-4.86-4.9-4.86h-5.22v9.83h5.19zm20.3-6.15c5.44 0 9.83 4 9.83 9.5 0 5.54-4.39 9.57-9.83 9.57s-9.79-4.03-9.79-9.57c0-5.51 4.36-9.5 9.79-9.5zm0 16.05c3.46 0 6.26-2.74 6.26-6.55 0-3.78-2.81-6.48-6.26-6.48-3.42 0-6.26 2.7-6.26 6.48 0 3.81 2.84 6.55 6.26 6.55zm13.68-14.43c0-.79.43-1.19 1.19-1.19h1.01c.79 0 1.19.4 1.19 1.19v1.62c0 .54-.11 1.04-.11 1.04h.07a7.563 7.563 0 0 1 6.91-4.28c4.28 0 6.23 2.34 6.23 6.98v10.47c0 .79-.4 1.19-1.19 1.19h-1.12c-.76 0-1.19-.4-1.19-1.19v-9.68c0-2.56-.5-4.57-3.42-4.57-3.53 0-6.08 2.95-6.08 6.73v7.52c0 .79-.4 1.19-1.19 1.19h-1.12c-.76 0-1.19-.4-1.19-1.19v-15.83zm20.99 14.43c0-.79.4-1.19 1.19-1.19h1.37c.79 0 1.19.4 1.19 1.19v1.4c0 .79-.4 1.19-1.19 1.19h-1.37c-.79 0-1.19-.4-1.19-1.19v-1.4zm17.28-7.31v-.72c0-.76.43-1.19 1.19-1.19h8.13c.79 0 1.19.43 1.19 1.19v.72c0 .79-.4 1.19-1.19 1.19h-8.13c-.76 0-1.19-.4-1.19-1.19zm25.06-14.32c0-.79.4-1.19 1.19-1.19h8.1c4.64 0 7.96 3.13 7.96 7.96s-3.31 8.06-7.96 8.06h-5.76v8.21c0 .79-.4 1.19-1.19 1.19h-1.15c-.79 0-1.19-.4-1.19-1.19v-23.04zm8.71 11.73c3.06 0 4.93-1.91 4.93-4.97s-1.87-4.86-4.9-4.86h-5.22v9.83h5.19zm12.89-2.7h-1.26c-.76 0-1.15-.43-1.15-1.19v-.47c0-.76.4-1.19 1.19-1.19h1.3v-4c0-.79.43-1.19 1.19-1.19h1.04c.79 0 1.19.4 1.19 1.19v4h3.17c.79 0 1.19.43 1.19 1.19v.47c0 .76-.4 1.19-1.15 1.19h-3.2v8.1c0 3.46 2.12 4 3.46 4.1.94.07 1.26.36 1.26 1.19v.76c0 .83-.47 1.19-1.44 1.19-3.6 0-6.77-2.09-6.77-6.69v-8.65zm11.16 12.6c0-.79.4-1.19 1.19-1.19h1.37c.79 0 1.19.4 1.19 1.19v1.4c0 .79-.4 1.19-1.19 1.19h-1.37c-.79 0-1.19-.4-1.19-1.19v-1.4zM27.17 732.17c0-1 .18-1.92.54-2.75.36-.83.77-1.58 1.25-2.24s.96-1.21 1.46-1.66c.5-.44.9-.78 1.18-1.01-.97-.75-1.76-1.6-2.34-2.56-.59-.96-.88-2.13-.88-3.5 0-1.06.21-2.12.62-3.18.42-1.06 1.04-2 1.87-2.82.83-.82 1.89-1.48 3.18-2 1.29-.52 2.81-.77 4.56-.77 1.49 0 2.88.19 4.17.58s2.41.95 3.38 1.7c.96.75 1.72 1.65 2.28 2.71.56 1.06.84 2.25.84 3.57 0 .89-.13 1.73-.39 2.52s-.56 1.5-.9 2.13c-.34.63-.7 1.17-1.05 1.61-.36.44-.64.78-.84 1.01 1.17.75 2.14 1.66 2.88 2.75.75 1.09 1.12 2.39 1.12 3.91 0 1.15-.24 2.27-.71 3.38-.47 1.1-1.19 2.09-2.15 2.97-.96.88-2.16 1.58-3.59 2.13-1.43.54-3.1.82-4.99.82-1.89 0-3.55-.26-4.97-.79s-2.62-1.23-3.59-2.11c-.98-.87-1.71-1.87-2.19-2.99-.5-1.13-.74-2.26-.74-3.41zm7.52-.86c0 1.09.37 1.98 1.1 2.67.73.69 1.71 1.03 2.95 1.03 1.06 0 1.94-.28 2.62-.84s1.03-1.31 1.03-2.26c0-.49-.13-.91-.39-1.27s-.64-.7-1.14-1.03c-.5-.33-1.12-.65-1.85-.97s-1.58-.69-2.56-1.12c-.4.4-.8.91-1.18 1.53-.38.62-.58 1.37-.58 2.26zm6.19-8.39c.26-.4.51-.9.75-1.51.24-.6.37-1.33.37-2.19 0-1-.29-1.77-.86-2.3-.57-.53-1.39-.79-2.45-.79-1.06 0-1.82.24-2.28.71-.46.47-.69 1.07-.69 1.78 0 1.06.47 1.89 1.42 2.47.95.59 2.2 1.2 3.74 1.83zm12.9 13.33c0-1.58.79-2.37 2.36-2.37h2.32c1.58 0 2.36.79 2.36 2.37v2.32c0 1.58-.79 2.37-2.36 2.37h-2.32c-1.58 0-2.36-.79-2.36-2.37v-2.32zm22.45 5.21c-2.18 0-4.01-.42-5.48-1.25a9.756 9.756 0 0 1-3.57-3.42c-.9-1.45-1.55-3.14-1.94-5.07-.39-1.93-.58-4.01-.58-6.21 0-2.21.19-4.27.58-6.19.39-1.92 1.03-3.6 1.94-5.03a9.73 9.73 0 0 1 3.57-3.38c1.48-.82 3.3-1.23 5.48-1.23 2.18 0 4.01.41 5.48 1.23 1.48.82 2.67 1.94 3.57 3.38.9 1.43 1.55 3.11 1.93 5.03.39 1.92.58 3.98.58 6.19 0 2.21-.19 4.28-.58 6.21-.39 1.94-1.03 3.63-1.93 5.07a9.756 9.756 0 0 1-3.57 3.42c-1.47.83-3.3 1.25-5.48 1.25zm0-6.88c.75 0 1.36-.24 1.85-.71s.88-1.12 1.18-1.94c.3-.82.51-1.78.62-2.88.11-1.1.17-2.29.17-3.55 0-1.23-.06-2.39-.17-3.48-.12-1.09-.32-2.04-.62-2.86-.3-.82-.7-1.46-1.18-1.91-.49-.46-1.1-.69-1.85-.69s-1.36.23-1.85.69c-.49.46-.88 1.1-1.18 1.91-.3.82-.51 1.77-.62 2.86-.12 1.09-.17 2.25-.17 3.48 0 1.26.06 2.44.17 3.55.11 1.1.32 2.06.62 2.88.3.82.69 1.46 1.18 1.94.49.47 1.1.71 1.85.71zm27 6.88c-2.18 0-4.01-.42-5.48-1.25a9.756 9.756 0 0 1-3.57-3.42c-.9-1.45-1.55-3.14-1.94-5.07-.39-1.93-.58-4.01-.58-6.21 0-2.21.19-4.27.58-6.19.39-1.92 1.03-3.6 1.94-5.03a9.73 9.73 0 0 1 3.57-3.38c1.48-.82 3.3-1.23 5.48-1.23 2.18 0 4.01.41 5.48 1.23 1.48.82 2.67 1.94 3.57 3.38.9 1.43 1.55 3.11 1.93 5.03.39 1.92.58 3.98.58 6.19 0 2.21-.19 4.28-.58 6.21-.39 1.94-1.03 3.63-1.93 5.07a9.756 9.756 0 0 1-3.57 3.42c-1.47.83-3.3 1.25-5.48 1.25zm0-6.88c.75 0 1.36-.24 1.85-.71s.88-1.12 1.18-1.94c.3-.82.51-1.78.62-2.88.11-1.1.17-2.29.17-3.55 0-1.23-.06-2.39-.17-3.48-.12-1.09-.32-2.04-.62-2.86-.3-.82-.7-1.46-1.18-1.91-.49-.46-1.1-.69-1.85-.69s-1.36.23-1.85.69c-.49.46-.88 1.1-1.18 1.91-.3.82-.51 1.77-.62 2.86-.12 1.09-.17 2.25-.17 3.48 0 1.26.06 2.44.17 3.55.11 1.1.32 2.06.62 2.88.3.82.69 1.46 1.18 1.94.49.47 1.11.71 1.85.71zm26.36-5.12v-1.72c0-1.58.79-2.37 2.37-2.37h8.77c1.58 0 2.36.79 2.36 2.37v1.72c0 1.58-.79 2.37-2.36 2.37h-8.77c-1.58-.01-2.37-.79-2.37-2.37zm27.91 8.17c0-1.89.33-3.54.99-4.95.66-1.4 1.48-2.64 2.45-3.72s2.04-2.02 3.2-2.84 2.23-1.57 3.2-2.26c.97-.69 1.79-1.35 2.45-1.98.66-.63.99-1.32.99-2.06 0-1.06-.35-1.83-1.05-2.32-.7-.49-1.46-.73-2.26-.73-.69 0-1.31.15-1.87.45-.56.3-1.02.65-1.4 1.05-.54.52-1.1.85-1.66 1.01-.56.16-1.13-.01-1.7-.49l-1.68-1.33c-1.26-1-1.46-2.06-.6-3.18.37-.49.85-1 1.42-1.55.57-.54 1.25-1.04 2.02-1.48s1.67-.82 2.69-1.12c1.02-.3 2.17-.45 3.46-.45 1.26 0 2.52.19 3.76.56 1.25.37 2.37.94 3.38 1.7 1 .76 1.81 1.74 2.43 2.92.62 1.19.92 2.6.92 4.24 0 1.61-.31 3-.92 4.19a12.87 12.87 0 0 1-2.32 3.18c-.93.93-1.94 1.75-3.03 2.45-1.09.7-2.11 1.35-3.05 1.96-.95.6-1.75 1.19-2.41 1.76-.66.57-1.02 1.19-1.07 1.85h10.92c1.58 0 2.36.79 2.36 2.37v1.72c0 1.58-.79 2.37-2.36 2.37h-16.73c-.75 0-1.35-.2-1.83-.6-.47-.4-.71-.99-.71-1.76v-.96zm25.11-.77c0-1.58.79-2.37 2.36-2.37h4.17v-14.44c0-.26.01-.5.04-.73h-.09c-.09.17-.19.34-.3.52-.09.14-.18.29-.28.45-.1.16-.22.29-.37.41l-.39.34c-1.15 1.06-2.25 1.02-3.31-.13l-1.12-1.2c-1.09-1.15-1.06-2.26.09-3.35l5.33-4.99c.46-.4.91-.69 1.35-.88.44-.19.97-.28 1.57-.28h2.45c1.58 0 2.36.79 2.36 2.37v21.93h4.21c1.58 0 2.36.79 2.36 2.37v1.72c0 1.58-.79 2.37-2.36 2.37h-15.74c-1.58 0-2.36-.79-2.36-2.37v-1.74zm22.88-.61c0-1.58.79-2.37 2.36-2.37h2.32c1.58 0 2.36.79 2.36 2.37v2.32c0 1.58-.79 2.37-2.36 2.37h-2.32c-1.58 0-2.36-.79-2.36-2.37v-2.32zm22.44 5.21c-2.18 0-4.01-.42-5.48-1.25a9.756 9.756 0 0 1-3.57-3.42c-.9-1.45-1.55-3.14-1.94-5.07-.39-1.93-.58-4.01-.58-6.21 0-2.21.19-4.27.58-6.19.39-1.92 1.03-3.6 1.94-5.03a9.73 9.73 0 0 1 3.57-3.38c1.48-.82 3.3-1.23 5.48-1.23 2.18 0 4.01.41 5.48 1.23 1.48.82 2.67 1.94 3.57 3.38.9 1.43 1.55 3.11 1.93 5.03.39 1.92.58 3.98.58 6.19 0 2.21-.19 4.28-.58 6.21-.39 1.94-1.03 3.63-1.93 5.07a9.756 9.756 0 0 1-3.57 3.42c-1.47.83-3.3 1.25-5.48 1.25zm0-6.88c.75 0 1.36-.24 1.85-.71s.88-1.12 1.18-1.94c.3-.82.51-1.78.62-2.88.11-1.1.17-2.29.17-3.55 0-1.23-.06-2.39-.17-3.48-.12-1.09-.32-2.04-.62-2.86-.3-.82-.7-1.46-1.18-1.91-.49-.46-1.1-.69-1.85-.69s-1.36.23-1.85.69c-.49.46-.88 1.1-1.18 1.91-.3.82-.51 1.77-.62 2.86-.12 1.09-.17 2.25-.17 3.48 0 1.26.06 2.44.17 3.55.11 1.1.32 2.06.62 2.88.3.82.69 1.46 1.18 1.94.49.47 1.11.71 1.85.71zm27.01 6.88c-2.18 0-4.01-.42-5.48-1.25a9.756 9.756 0 0 1-3.57-3.42c-.9-1.45-1.55-3.14-1.94-5.07-.39-1.93-.58-4.01-.58-6.21 0-2.21.19-4.27.58-6.19.39-1.92 1.03-3.6 1.94-5.03a9.73 9.73 0 0 1 3.57-3.38c1.48-.82 3.3-1.23 5.48-1.23 2.18 0 4.01.41 5.48 1.23 1.48.82 2.67 1.94 3.57 3.38.9 1.43 1.55 3.11 1.93 5.03.39 1.92.58 3.98.58 6.19 0 2.21-.19 4.28-.58 6.21-.39 1.94-1.03 3.63-1.93 5.07a9.756 9.756 0 0 1-3.57 3.42c-1.48.83-3.31 1.25-5.48 1.25zm0-6.88c.75 0 1.36-.24 1.85-.71s.88-1.12 1.18-1.94c.3-.82.51-1.78.62-2.88.11-1.1.17-2.29.17-3.55 0-1.23-.06-2.39-.17-3.48-.12-1.09-.32-2.04-.62-2.86-.3-.82-.7-1.46-1.18-1.91-.49-.46-1.1-.69-1.85-.69s-1.36.23-1.85.69c-.49.46-.88 1.1-1.18 1.91-.3.82-.51 1.77-.62 2.86-.12 1.09-.17 2.25-.17 3.48 0 1.26.06 2.44.17 3.55.11 1.1.32 2.06.62 2.88.3.82.69 1.46 1.18 1.94.48.47 1.1.71 1.85.71zm-141.55 45.71.61-.86c.43-.58.94-.65 1.62-.22.9.65 2.84 2.05 5.54 2.05s4.46-1.44 4.46-3.64c0-5.62-12.24-4.36-12.24-12.27 0-4.28 3.6-7.05 8.24-7.05 3.02 0 5.4 1.19 6.37 1.94.61.43.68.97.36 1.62l-.5.9c-.43.76-1.01.68-1.62.32-.97-.58-2.52-1.48-4.68-1.48-2.63 0-4.57 1.37-4.57 3.56 0 5.47 12.24 4 12.24 12.17 0 4-2.99 7.23-8.06 7.23-3.67 0-6.48-1.69-7.63-2.63-.46-.42-.68-.92-.14-1.64zm28.51-14.79c5.44 0 9.83 4 9.83 9.5 0 5.54-4.39 9.57-9.83 9.57s-9.79-4.03-9.79-9.57c0-5.51 4.36-9.5 9.79-9.5zm0 16.05c3.46 0 6.26-2.74 6.26-6.55 0-3.78-2.81-6.48-6.26-6.48-3.42 0-6.26 2.7-6.26 6.48 0 3.81 2.84 6.55 6.26 6.55zm13.72-21.63c0-.79.4-1.19 1.19-1.19h1.12c.76 0 1.15.4 1.15 1.19v7.38c0 .9-.11 1.55-.11 1.55h.07s1.62-3.35 5.94-3.35c4.82 0 7.96 3.89 7.96 9.5 0 5.83-3.49 9.57-8.24 9.57-4.28 0-5.83-3.46-5.83-3.46h-.07s.11.43.11 1.08v.9c0 .65-.43 1.04-1.19 1.04h-.9c-.79 0-1.19-.4-1.19-1.19v-23.02zm8.5 21.63c2.92 0 5.29-2.34 5.29-6.48 0-3.96-2.12-6.51-5.15-6.51-2.74 0-5.26 1.94-5.26 6.48 0 3.34 1.7 6.51 5.12 6.51zm12.46.03c0-.78.39-1.17 1.17-1.17h1.35c.78 0 1.17.39 1.17 1.17v1.39c0 .78-.39 1.17-1.17 1.17h-1.35c-.78 0-1.17-.39-1.17-1.17v-1.39zm-146.4 41.53c.26-.83.61-1.33 1.05-1.5.44-.17 1.01-.2 1.7-.09.37.06.71.12 1.01.17.3.06.68.09 1.14.09.95 0 1.79-.14 2.54-.43s1.39-.67 1.93-1.16c.54-.49 1-1.07 1.38-1.74.37-.67.67-1.4.9-2.17h-.09c-.37.37-1.01.72-1.91 1.03s-1.93.47-3.07.47c-1.43 0-2.73-.29-3.89-.86a9.203 9.203 0 0 1-2.97-2.3c-.82-.96-1.45-2.06-1.89-3.29-.44-1.23-.67-2.49-.67-3.78 0-1.32.24-2.62.71-3.89a10.58 10.58 0 0 1 2.04-3.42c.89-1 1.98-1.81 3.27-2.43 1.29-.62 2.77-.92 4.43-.92 1.55 0 3.07.3 4.58.9 1.5.6 2.84 1.51 4.02 2.71 1.17 1.2 2.12 2.71 2.84 4.52.72 1.81 1.07 3.91 1.07 6.32 0 2.18-.32 4.31-.95 6.39-.63 2.08-1.57 3.93-2.82 5.55a14.466 14.466 0 0 1-4.6 3.91c-1.82.99-3.93 1.48-6.34 1.48-.83 0-1.68-.06-2.54-.17s-1.55-.24-2.06-.39c-1.46-.43-1.95-1.42-1.46-2.97l.65-2.03zm9.54-11.39c.83 0 1.51-.15 2.04-.45.53-.3.8-.91.8-1.83 0-.63-.13-1.28-.39-1.93-.26-.66-.6-1.27-1.03-1.83-.43-.56-.93-1.02-1.5-1.38-.57-.36-1.19-.54-1.85-.54-.89 0-1.62.33-2.19.99-.57.66-.86 1.52-.86 2.58 0 .52.08 1.03.24 1.55.16.52.43.99.82 1.42.39.43.9.77 1.55 1.03.63.26 1.43.39 2.37.39zm14.19 11.73c0-1.58.79-2.37 2.36-2.37h2.32c1.58 0 2.36.79 2.36 2.37v2.32c0 1.58-.79 2.37-2.36 2.37h-2.32c-1.58 0-2.36-.79-2.36-2.37v-2.32zm22.45 5.21c-2.18 0-4.01-.42-5.48-1.25a9.756 9.756 0 0 1-3.57-3.42c-.9-1.45-1.55-3.14-1.94-5.07-.39-1.93-.58-4.01-.58-6.21 0-2.21.19-4.27.58-6.19.39-1.92 1.03-3.6 1.94-5.03a9.73 9.73 0 0 1 3.57-3.38c1.48-.82 3.3-1.23 5.48-1.23 2.18 0 4.01.41 5.48 1.23 1.48.82 2.67 1.94 3.57 3.38.9 1.43 1.55 3.11 1.93 5.03.39 1.92.58 3.98.58 6.19 0 2.21-.19 4.28-.58 6.21-.39 1.94-1.03 3.63-1.93 5.07a9.756 9.756 0 0 1-3.57 3.42c-1.47.83-3.3 1.25-5.48 1.25zm0-6.88c.75 0 1.36-.24 1.85-.71s.88-1.12 1.18-1.94c.3-.82.51-1.78.62-2.88.11-1.1.17-2.29.17-3.55 0-1.23-.06-2.39-.17-3.48-.12-1.09-.32-2.04-.62-2.86-.3-.82-.7-1.46-1.18-1.91-.49-.46-1.1-.69-1.85-.69s-1.36.23-1.85.69c-.49.46-.88 1.1-1.18 1.91-.3.82-.51 1.77-.62 2.86-.12 1.09-.17 2.25-.17 3.48 0 1.26.06 2.44.17 3.55.11 1.1.32 2.06.62 2.88.3.82.69 1.46 1.18 1.94.49.47 1.1.71 1.85.71zm27 6.88c-2.18 0-4.01-.42-5.48-1.25a9.756 9.756 0 0 1-3.57-3.42c-.9-1.45-1.55-3.14-1.94-5.07-.39-1.93-.58-4.01-.58-6.21 0-2.21.19-4.27.58-6.19.39-1.92 1.03-3.6 1.94-5.03a9.73 9.73 0 0 1 3.57-3.38c1.48-.82 3.3-1.23 5.48-1.23 2.18 0 4.01.41 5.48 1.23 1.48.82 2.67 1.94 3.57 3.38.9 1.43 1.55 3.11 1.93 5.03.39 1.92.58 3.98.58 6.19 0 2.21-.19 4.28-.58 6.21-.39 1.94-1.03 3.63-1.93 5.07a9.756 9.756 0 0 1-3.57 3.42c-1.47.83-3.3 1.25-5.48 1.25zm0-6.88c.75 0 1.36-.24 1.85-.71s.88-1.12 1.18-1.94c.3-.82.51-1.78.62-2.88.11-1.1.17-2.29.17-3.55 0-1.23-.06-2.39-.17-3.48-.12-1.09-.32-2.04-.62-2.86-.3-.82-.7-1.46-1.18-1.91-.49-.46-1.1-.69-1.85-.69s-1.36.23-1.85.69c-.49.46-.88 1.1-1.18 1.91-.3.82-.51 1.77-.62 2.86-.12 1.09-.17 2.25-.17 3.48 0 1.26.06 2.44.17 3.55.11 1.1.32 2.06.62 2.88.3.82.69 1.46 1.18 1.94.49.47 1.11.71 1.85.71zm26.36-5.12v-1.72c0-1.58.79-2.37 2.37-2.37h8.77c1.58 0 2.36.79 2.36 2.37v1.72c0 1.58-.79 2.37-2.36 2.37h-8.77c-1.58-.01-2.37-.79-2.37-2.37zm28.08 7.4c0-1.58.79-2.37 2.36-2.37h4.17v-14.44c0-.26.01-.5.04-.73h-.09c-.09.17-.19.34-.3.52-.09.14-.18.29-.28.45-.1.16-.22.29-.37.41l-.39.34c-1.15 1.06-2.25 1.02-3.31-.13l-1.12-1.2c-1.09-1.15-1.06-2.26.09-3.35l5.33-4.99c.46-.4.91-.69 1.35-.88.44-.19.97-.28 1.57-.28h2.45c1.58 0 2.36.79 2.36 2.37v21.93h4.21c1.58 0 2.36.79 2.36 2.37v1.72c0 1.58-.79 2.37-2.36 2.37h-15.74c-1.58 0-2.36-.79-2.36-2.37v-1.74zm23.74 1.93c-.6-.4-.94-.89-1.01-1.46-.07-.57.09-1.16.49-1.76l1.16-1.89c.4-.66.87-1.03 1.42-1.1.54-.07 1.15.09 1.81.49.57.32 1.23.61 1.96.88s1.51.41 2.34.41c.52 0 1.02-.08 1.53-.24.5-.16.96-.39 1.38-.71.42-.31.75-.71 1.01-1.18s.39-1.03.39-1.66c0-1.2-.47-2.14-1.4-2.82-.93-.67-2.1-1.01-3.5-1.01-.49 0-.95.04-1.38.11-.43.07-.82.17-1.16.28-.57.17-1.1.28-1.59.32-.49.04-1.02-.05-1.59-.28l-.47-.17c-1.29-.52-1.88-1.45-1.76-2.79l.9-11.74c.14-1.52.96-2.28 2.45-2.28h12.56c1.58 0 2.37.79 2.37 2.37v1.72c0 1.58-.79 2.37-2.37 2.37h-8.3l-.17 2.84c0 .26-.03.53-.09.82-.03.11-.06.24-.09.39h.09c.2-.03.43-.07.69-.13.23-.06.47-.1.71-.13s.52-.04.84-.04c1.83 0 3.44.26 4.82.79 1.38.53 2.52 1.25 3.44 2.17.92.92 1.6 1.99 2.06 3.22.46 1.23.69 2.54.69 3.91 0 1.61-.28 3.08-.84 4.41-.56 1.33-1.34 2.49-2.34 3.46s-2.21 1.73-3.61 2.28c-1.4.54-2.94.82-4.6.82-2.06 0-3.83-.29-5.31-.88-1.51-.59-2.67-1.19-3.53-1.79zm23.65-2.54c0-1.58.79-2.37 2.36-2.37h2.32c1.58 0 2.36.79 2.36 2.37v2.32c0 1.58-.79 2.37-2.36 2.37h-2.32c-1.58 0-2.36-.79-2.36-2.37v-2.32zm22.44 5.21c-2.18 0-4.01-.42-5.48-1.25a9.756 9.756 0 0 1-3.57-3.42c-.9-1.45-1.55-3.14-1.94-5.07-.39-1.93-.58-4.01-.58-6.21 0-2.21.19-4.27.58-6.19.39-1.92 1.03-3.6 1.94-5.03a9.73 9.73 0 0 1 3.57-3.38c1.48-.82 3.3-1.23 5.48-1.23 2.18 0 4.01.41 5.48 1.23 1.48.82 2.67 1.94 3.57 3.38.9 1.43 1.55 3.11 1.93 5.03.39 1.92.58 3.98.58 6.19 0 2.21-.19 4.28-.58 6.21-.39 1.94-1.03 3.63-1.93 5.07a9.756 9.756 0 0 1-3.57 3.42c-1.47.83-3.3 1.25-5.48 1.25zm0-6.88c.75 0 1.36-.24 1.85-.71s.88-1.12 1.18-1.94c.3-.82.51-1.78.62-2.88.11-1.1.17-2.29.17-3.55 0-1.23-.06-2.39-.17-3.48-.12-1.09-.32-2.04-.62-2.86-.3-.82-.7-1.46-1.18-1.91-.49-.46-1.1-.69-1.85-.69s-1.36.23-1.85.69c-.49.46-.88 1.1-1.18 1.91-.3.82-.51 1.77-.62 2.86-.12 1.09-.17 2.25-.17 3.48 0 1.26.06 2.44.17 3.55.11 1.1.32 2.06.62 2.88.3.82.69 1.46 1.18 1.94.49.47 1.11.71 1.85.71zm27.01 6.88c-2.18 0-4.01-.42-5.48-1.25a9.756 9.756 0 0 1-3.57-3.42c-.9-1.45-1.55-3.14-1.94-5.07-.39-1.93-.58-4.01-.58-6.21 0-2.21.19-4.27.58-6.19.39-1.92 1.03-3.6 1.94-5.03a9.73 9.73 0 0 1 3.57-3.38c1.48-.82 3.3-1.23 5.48-1.23 2.18 0 4.01.41 5.48 1.23 1.48.82 2.67 1.94 3.57 3.38.9 1.43 1.55 3.11 1.93 5.03.39 1.92.58 3.98.58 6.19 0 2.21-.19 4.28-.58 6.21-.39 1.94-1.03 3.63-1.93 5.07a9.756 9.756 0 0 1-3.57 3.42c-1.48.83-3.31 1.25-5.48 1.25zm0-6.88c.75 0 1.36-.24 1.85-.71s.88-1.12 1.18-1.94c.3-.82.51-1.78.62-2.88.11-1.1.17-2.29.17-3.55 0-1.23-.06-2.39-.17-3.48-.12-1.09-.32-2.04-.62-2.86-.3-.82-.7-1.46-1.18-1.91-.49-.46-1.1-.69-1.85-.69s-1.36.23-1.85.69c-.49.46-.88 1.1-1.18 1.91-.3.82-.51 1.77-.62 2.86-.12 1.09-.17 2.25-.17 3.48 0 1.26.06 2.44.17 3.55.11 1.1.32 2.06.62 2.88.3.82.69 1.46 1.18 1.94.48.47 1.1.71 1.85.71z"/></svg>