<?xml version="1.0" encoding="utf-8"?>
<!-- Generator: Adobe Illustrator 25.2.3, SVG Export Plug-In . SVG Version: 6.00 Build 0)  -->
<svg version="1.1" xmlns="http://www.w3.org/2000/svg" xmlns:xlink="http://www.w3.org/1999/xlink" x="0px" y="0px"
	 viewBox="0 0 1008.5 1048.82" style="enable-background:new 0 0 1008.5 1048.82;" xml:space="preserve">
<style type="text/css">
	.st0{clip-path:url(#SVGID_2_);}
	.st1{fill:#717375;}
	.st2{fill:#B4B4B4;}
	.st3{fill:#CCCCCC;}
	.st4{fill:#989898;}
	.st5{fill:#47B0E4;}
	.st6{fill:#FFFFFF;}
	.st7{fill:#4A4B4C;}
	.st8{fill:#333333;}
</style>
<g>
	<g>
		<defs>
			<rect id="SVGID_1_" x="0" y="0" width="1008.5" height="1048.82"/>
		</defs>
		<clipPath id="SVGID_2_">
			<use xlink:href="#SVGID_1_"  style="overflow:visible;"/>
		</clipPath>
		<g class="st0">
			<path class="st1" d="M765.15,880.69c2.46-41.91,7.93-146.34,8.69-257.82c0.76-112.03-27.18-258.95-71.15-354.11
				c-35.6-77.06-95.04-158.94-117.33-191.67l401.58-298.64l-21.71-29.23L564.2,47.09L384.78-194.34l-29.22,21.71L535.11,69
				L61.63,430.66l0.39,0.25L-149.14,597.2l22.58,28.55L94.56,451.59c17.32,10.83,56.76,35.3,129.94,79.7
				c21.24,12.88,60.42,41.44,84.25,87.96c21.94,42.83,24.09,88.27,6.38,135.08c-21.2,56.02-23.4,90.3-7.38,114.62
				c0.55,0.83,1.17,1.59,1.75,2.39L0.01,871.14l-0.02,14.56l324.97,0.21c5.7,3.77,11.97,6.76,18.61,9.08
				c16.56,5.77,35.22,7.58,51.89,8.31c55.61,2.44,259.88,10.26,327.63,12.85c-7.86,29.61-27.01,88.81-68.3,160.16l31.51,18.23
				c47.22-81.61,66.96-147.96,74.03-176.98l2.43,0.09l0.04-0.59l245.69,1.06l0.16-36.41L765.15,880.69z M737.44,622.62
				c-0.76,111.97-6.32,216.81-8.71,257.32c-63.02-2.4-274.94-10.52-331.67-13.01c-32.6-1.43-51.87-7.32-58.91-18.01
				c-8.5-12.9-4.89-39.63,11.03-81.71c46.08-121.78-28.19-219.97-105.8-267.04c-59.99-36.4-97.21-59.34-118.1-72.31L557.04,98.06
				c23.76,31.63,80.75,110.92,112.72,184.15C702.96,358.24,738.29,497.2,737.44,622.62z"/>
			<g>
				
					<rect x="842.03" y="534.34" transform="matrix(0.9999 -0.013 0.013 0.9999 -7.7533 11.453)" class="st2" width="74.98" height="138.82"/>
				
					<rect x="834.42" y="376.64" transform="matrix(0.9999 -0.013 0.013 0.9999 -5.7098 11.342)" class="st2" width="74.98" height="138.82"/>
				
					<rect x="762.58" y="235.56" transform="matrix(0.9319 -0.3628 0.3628 0.9319 -35.4277 326.4363)" class="st2" width="177.72" height="43.97"/>
				
					<rect x="741.02" y="72.2" transform="matrix(0.9004 -0.435 0.435 0.9004 12.614 352.6081)" class="st2" width="71" height="153.1"/>
				<polygon class="st2" points="926.68,113.14 915.17,85.89 828.7,122.42 840.21,149.67 899.32,124.7 933.01,204.45 960.26,192.94 
					926.56,113.19 				"/>
				<polygon class="st2" points="452.86,2.35 413.75,-49.36 356.46,-17.65 403.57,42.29 				"/>
				<polygon class="st2" points="382.81,16.02 339.74,-38.95 307.76,-17.45 343.45,43.1 				"/>
				<polygon class="st2" points="267.19,35.57 218.75,73.09 264.17,137.88 313.35,106.06 				"/>
				<polygon class="st2" points="251.72,-21.51 205.45,-83.88 69.21,18.25 104.3,65.85 119.08,54.67 146.27,85.91 180.78,57.14 
					165.72,30.13 				"/>
				<polygon class="st2" points="111.65,122.81 59.69,61.18 19.48,90.69 71.45,152.32 				"/>
				<polygon class="st2" points="19.07,240.16 49.43,277.94 120.88,221.23 94.53,187.57 				"/>
				<path class="st2" d="M535.62,754.95l-37.34-2.13l-84.96-263.55l160.2-131.86l7.17,10.66l57.52-47.96l-7.17-10.66l13.93-8.75
					l-53.66-56.78L287.59,475.37c0,0,67.88,86.22,90.41,162.08s32.26,196.22,32.26,196.22l123.41,4.93L535.62,754.95z"/>
				<polygon class="st2" points="1072.08,-72.91 1015.38,-144.35 853.7,-23.89 914.42,51.68 				"/>
				<polygon class="st2" points="891.34,972.57 823.09,973.27 744.77,1057.5 865.9,1170.44 946.98,1062.69 894.06,1011.6 				"/>
				<polygon class="st2" points="606.51,781.68 595.1,814.42 617.75,840.68 651.82,834.19 663.23,801.44 640.58,775.19 				"/>
			</g>
			<g>
				
					<rect x="838.82" y="538.06" transform="matrix(0.9999 -0.013 0.013 0.9999 -7.8019 11.412)" class="st3" width="74.98" height="138.82"/>
				
					<rect x="831.21" y="380.36" transform="matrix(0.9999 -0.013 0.013 0.9999 -5.758 11.3002)" class="st3" width="74.98" height="138.82"/>
				
					<rect x="826.24" y="172.4" transform="matrix(0.3628 0.9319 -0.9319 0.3628 783.9626 -623.9575)" class="st3" width="43.97" height="177.72"/>
				
					<rect x="696.76" y="116.97" transform="matrix(0.435 0.9004 -0.9004 0.435 574.1898 -610.1592)" class="st3" width="153.1" height="71"/>
				<polygon class="st3" points="957.04,196.66 923.35,116.9 923.46,116.85 911.95,89.61 825.48,126.14 837,153.38 896.1,128.41 
					929.8,208.17 				"/>
				<polygon class="st3" points="449.64,6.06 400.36,46.01 353.25,-13.93 410.54,-45.65 				"/>
				<polygon class="st3" points="340.23,46.82 304.55,-13.73 336.53,-35.23 379.6,19.73 				"/>
				<polygon class="st3" points="310.13,109.77 260.96,141.6 215.54,76.8 263.98,39.28 				"/>
				<polygon class="st3" points="248.5,-17.79 202.24,-80.16 66,21.97 101.09,69.56 115.87,58.39 143.06,89.63 177.57,60.85 
					162.5,33.84 				"/>
				<polygon class="st3" points="108.44,126.53 56.48,64.89 16.27,94.41 68.23,156.04 				"/>
				<polygon class="st3" points="117.66,224.95 46.22,281.65 15.86,243.87 91.31,191.28 				"/>
				<path class="st3" d="M526.4,753.66l-1.95,83.65l-123.41-4.93c0,0-9.74-120.36-32.26-196.22s-90.41-162.08-90.41-162.08
					l303.72-231.45l53.66,56.78l-13.93,8.75l7.17,10.66l-57.52,47.96l-7.17-10.66L404.1,487.98l84.96,263.55L526.4,753.66z"/>
				<polygon class="st3" points="1012.16,-140.64 1068.87,-69.19 911.2,55.39 850.49,-20.17 				"/>
				<polygon class="st3" points="819.88,976.99 741.56,1061.22 862.69,1174.16 943.77,1066.41 890.84,1015.32 888.13,976.29 				"/>
				<polygon class="st3" points="654.61,843.9 620.54,850.39 597.89,824.14 609.3,791.39 643.36,784.9 666.02,811.16 				"/>
			</g>
			<rect x="829.43" y="700.84" class="st4" width="106.45" height="104.28"/>
			<rect x="823.74" y="705.08" class="st5" width="106.45" height="104.28"/>
			<g>
				<g>
					<path class="st6" d="M865.9,731.67c-1.22-1.22-1.22-3.19,0-4.41s3.19-1.22,4.41,0c1.22,1.22,1.22,3.19,0,4.41
						C869.09,732.89,867.12,732.89,865.9,731.67z M861.18,743.55c2.51,0,4.55-2.04,4.55-4.55s-2.04-4.55-4.55-4.55
						s-4.55,2.04-4.55,4.55S858.67,743.55,861.18,743.55z M865.69,753.98c0-3.49-2.83-6.32-6.32-6.32c-3.49,0-6.32,2.83-6.32,6.32
						c0,3.49,2.83,6.32,6.32,6.32C862.86,760.3,865.69,757.47,865.69,753.98z M874.98,777.42L874.98,777.42
						C874.98,777.41,874.98,777.41,874.98,777.42C874.98,777.41,874.98,777.42,874.98,777.42z M903.85,757.86l-4.05-7.35
						c-0.24-0.43-0.39-0.92-0.39-1.45c0.02-0.67,0.21-1.39,0.31-2.13c1.39-10.27-7.12-22.85-21.56-22.85c-1.6,0-2.89,1.29-2.89,2.89
						c0,1.6,1.29,2.89,2.89,2.89c0.15,0,0.31-0.01,0.46-0.03c0.12-0.02,0.24-0.02,0.36-0.02c1.6,0,2.89,1.29,2.89,2.89
						c0,1.6-1.29,2.89-2.89,2.89c-0.62,0-1.22-0.2-1.69-0.54c-0.79-0.56-1.75-0.89-2.79-0.89c-2.67,0-4.84,2.17-4.84,4.84
						s2.17,4.84,4.84,4.84c1.09,0,2.13-0.38,2.93-0.99c0.47-0.34,1.05-0.54,1.67-0.54c1.57,0,2.85,1.28,2.85,2.85
						s-1.28,2.85-2.85,2.85c-0.32,0-0.64-0.04-0.93-0.14c-0.7-0.26-1.46-0.41-2.26-0.41c-3.6,0-6.51,2.92-6.51,6.51
						c0,2.72,1.67,5.06,4.05,6.03c1.2,0.52,2.05,1.71,2.05,3.1c0,1.86-1.51,3.38-3.38,3.38c-0.88,0-1.68-0.33-2.28-0.88
						c-1.23-1.2-2.91-1.94-4.76-1.94c-3.77,0-6.82,3.06-6.82,6.82c0,3.77,3.06,6.82,6.82,6.82c4.35,0,6.28-1.67,8.11-1.67
						c0.98,0,1.77,0.79,1.78,1.77c0,0,0,0,0,0c0,0,0,0,0,0.01c0,4.98-1.95,7.5-7.4,7.5v1.3c5.04,0,17.06,0,22.1,0v-1.3
						c-5.45,0-7.4-2.52-7.4-7.5c0,0,0,0,0-0.01c0-0.98,0.8-1.77,1.78-1.77c2.75,0,3.16,0.8,7.51,0.8c3.96,0,6.22-1.17,7.2-4.84
						c0.87-3.28,1.92-8.25,1.92-8.25c0.14-0.6,0.61-1.06,1.21-1.2c1.33-0.28,2.32-1.46,2.32-2.87
						C904.22,758.77,904.08,758.28,903.85,757.86z"/>
				</g>
			</g>
			<g>
				<path class="st5" d="M775.51,750.66h-8.67c-5.32,0-10.28-2.12-13.97-5.96c-1.89-1.97-3.31-4.25-4.23-6.79
					c-1.13-3.12,0.48-6.56,3.6-7.69c3.12-1.13,6.56,0.48,7.69,3.6c0.34,0.95,0.89,1.82,1.61,2.57c1.42,1.48,3.25,2.26,5.3,2.26h8.67
					c3.31,0,6,2.69,6,6S778.82,750.66,775.51,750.66z M754.32,716.98c-0.08,0-0.16,0-0.24,0c-3.31-0.13-5.89-2.92-5.76-6.23
					c0.36-9.22,0.65-17.37,0.89-24.93c0.1-3.31,2.91-5.92,6.18-5.81c3.31,0.1,5.91,2.87,5.81,6.18c-0.24,7.59-0.53,15.78-0.89,25.03
					C760.18,714.45,757.52,716.98,754.32,716.98z"/>
				<g>
					<polygon class="st5" points="738.1,690.33 755.82,661.9 771.59,691.46 					"/>
				</g>
				<g>
					<polygon class="st5" points="785.02,761.42 814.03,744.66 785.02,727.91 					"/>
				</g>
			</g>
			<g>
				<path class="st5" d="M740.69,468.4c-2.85,0-5.38-2.04-5.9-4.94c-1.46-8.1-3.04-16.32-4.7-24.41c-0.67-3.25,1.43-6.42,4.67-7.08
					c3.25-0.66,6.42,1.43,7.08,4.67c1.68,8.19,3.28,16.5,4.75,24.69c0.59,3.26-1.58,6.38-4.84,6.97
					C741.4,468.37,741.04,468.4,740.69,468.4z M730.66,419.41c-2.73,0-5.21-1.88-5.84-4.66c-1.85-8.07-3.81-16.19-5.84-24.16
					c-0.82-3.21,1.12-6.48,4.33-7.29c3.21-0.82,6.48,1.12,7.29,4.33c2.05,8.06,4.04,16.28,5.91,24.44c0.74,3.23-1.28,6.45-4.51,7.19
					C731.56,419.36,731.11,419.41,730.66,419.41z M718.32,370.96c-2.62,0-5.03-1.73-5.77-4.38c-2.27-8.06-4.64-16.08-7.05-23.82
					c-0.98-3.16,0.78-6.53,3.95-7.51c3.16-0.99,6.53,0.78,7.51,3.95c2.44,7.84,4.84,15.96,7.14,24.13c0.9,3.19-0.96,6.5-4.15,7.4
					C719.41,370.89,718.86,370.96,718.32,370.96z M703.46,323.22c-2.49,0-4.82-1.56-5.67-4.05c-2.77-8.03-5.62-15.86-8.48-23.29
					c-1.19-3.09,0.35-6.56,3.44-7.76c3.09-1.19,6.57,0.35,7.76,3.44c2.92,7.56,5.82,15.53,8.63,23.7c1.08,3.13-0.58,6.55-3.72,7.63
					C704.76,323.11,704.11,323.22,703.46,323.22z"/>
				<g>
					<polygon class="st5" points="681.12,304.6 685.75,271.41 712.18,292.01 					"/>
				</g>
				<g>
					<polygon class="st5" points="727.01,481.99 747.85,508.22 760.15,477.05 					"/>
				</g>
			</g>
			<g>
				<path class="st5" d="M287.52,287.16c-2.78,0-5.27-1.94-5.86-4.76c-0.69-3.24,1.39-6.43,4.63-7.11c1.2-0.25,2.3-0.76,3.27-1.5
					l14.74-11.45c2.62-2.03,6.39-1.56,8.42,1.06c2.03,2.62,1.56,6.39-1.06,8.42l-14.77,11.48c-2.43,1.86-5.15,3.11-8.11,3.74
					C288.35,287.12,287.93,287.16,287.52,287.16z M267.51,275.07c-1.73,0-3.45-0.75-4.64-2.19l-15.88-19.3
					c-2.11-2.56-1.74-6.34,0.82-8.45c2.56-2.1,6.34-1.74,8.45,0.82l15.88,19.3c2.11,2.56,1.74,6.34-0.82,8.45
					C270.2,274.62,268.85,275.07,267.51,275.07z M327.71,257.74c-1.79,0-3.56-0.8-4.74-2.32c-2.03-2.62-1.56-6.39,1.06-8.42
					l19.74-15.34c2.62-2.03,6.39-1.56,8.42,1.06c2.03,2.62,1.56,6.39-1.06,8.42l-19.74,15.34
					C330.29,257.33,329,257.74,327.71,257.74z M367.2,227.07c-1.79,0-3.56-0.8-4.74-2.32c-2.03-2.62-1.56-6.39,1.06-8.42
					l19.74-15.34c2.62-2.03,6.39-1.56,8.42,1.06c2.03,2.62,1.56,6.39-1.06,8.42l-19.74,15.34
					C369.78,226.66,368.48,227.07,367.2,227.07z M406.68,196.39c-1.79,0-3.56-0.8-4.74-2.32c-2.03-2.62-1.56-6.39,1.06-8.42
					l19.74-15.34c2.62-2.03,6.39-1.56,8.42,1.06c2.03,2.62,1.56,6.39-1.06,8.42l-19.74,15.34
					C409.27,195.98,407.97,196.39,406.68,196.39z M446.17,165.72c-1.79,0-3.56-0.8-4.74-2.32c-2.03-2.62-1.56-6.39,1.06-8.42
					l19.74-15.34c2.62-2.03,6.39-1.56,8.42,1.06c2.03,2.62,1.56,6.39-1.06,8.42l-19.74,15.34
					C448.75,165.31,447.45,165.72,446.17,165.72z M485.65,135.05c-1.79,0-3.56-0.8-4.74-2.32c-2.03-2.62-1.56-6.39,1.06-8.42
					l19.74-15.34c2.62-2.03,6.39-1.56,8.42,1.06c2.03,2.62,1.56,6.39-1.06,8.42l-19.74,15.34
					C488.24,134.63,486.94,135.05,485.65,135.05z M585.02,110.78c-1.94,0-3.85-0.94-5.01-2.69c-3.53-5.33-6.19-9.13-8.88-12.71
					c-1.42-1.87-3.13-3.47-5.09-4.71c-2.79-1.78-3.62-5.49-1.83-8.28c1.78-2.79,5.49-3.62,8.29-1.83c3.17,2.02,5.93,4.58,8.23,7.61
					c2.85,3.79,5.63,7.77,9.3,13.31c1.83,2.76,1.08,6.49-1.69,8.32C587.31,110.46,586.16,110.78,585.02,110.78z M525.14,104.37
					c-1.79,0-3.56-0.8-4.74-2.32c-2.03-2.62-1.56-6.39,1.06-8.42l14.78-11.48c2.1-1.6,4.34-2.93,6.69-3.95
					c3.04-1.32,6.57,0.07,7.89,3.11c1.32,3.04-0.07,6.57-3.11,7.89c-1.46,0.64-2.86,1.46-4.15,2.45l-14.74,11.45
					C527.72,103.96,526.43,104.37,525.14,104.37z"/>
				<g>
					<polygon class="st5" points="241.8,264.2 236.3,231.15 267.67,242.9 					"/>
				</g>
				<g>
					<polygon class="st5" points="575.27,120.44 605.27,135.35 603.18,101.91 					"/>
				</g>
			</g>
			<g>
				<g>
					<g>
						<path class="st5" d="M221.92,218.68h-64.97c-2.27,0-4.11-1.83-4.11-4.1v-64.75c0-2.26,1.84-4.1,4.11-4.1h64.97
							c2.27,0,4.11,1.83,4.11,4.1v64.75C226.03,216.85,224.19,218.68,221.92,218.68z"/>
					</g>
				</g>
				<g>
					<g>
						<path class="st6" d="M199.45,161.53c-1.53-1.5-3.35-2.26-5.47-2.26h-21.94v45.87h7.44v-17.16h14.51c2.16,0,3.99-0.76,5.5-2.29
							c1.51-1.52,2.26-3.34,2.26-5.46v-13.28C201.74,164.85,200.98,163.04,199.45,161.53z M194.47,178.18
							c0,0.65-0.25,1.24-0.74,1.77c-0.49,0.53-1.1,0.79-1.84,0.79h-12.44v-14.22h12.44c0.73,0,1.35,0.26,1.84,0.79
							c0.49,0.53,0.74,1.12,0.74,1.77V178.18z"/>
						<path class="st6" d="M180.67,206.35h-9.85v-48.28h23.15c2.44,0,4.56,0.88,6.32,2.6v0c1.76,1.73,2.65,3.85,2.65,6.29v13.28
							c0,2.43-0.88,4.55-2.61,6.3c-1.73,1.75-3.87,2.64-6.36,2.64h-13.31V206.35z M173.23,203.94h5.03v-17.16h15.72
							c1.84,0,3.36-0.63,4.64-1.93c1.29-1.3,1.91-2.81,1.91-4.61v-13.28c0-1.79-0.63-3.29-1.93-4.57c-1.31-1.28-2.82-1.91-4.63-1.91
							h-20.74V203.94z M191.9,181.95h-13.64v-16.63h13.64c1.06,0,2.01,0.41,2.72,1.18c0.7,0.76,1.06,1.63,1.06,2.59v9.1
							c0,0.96-0.36,1.83-1.06,2.59C193.91,181.54,192.97,181.95,191.9,181.95z M180.67,179.54h11.23c0.4,0,0.69-0.13,0.95-0.41
							c0.37-0.4,0.41-0.73,0.41-0.95v-9.1c0-0.22-0.04-0.55-0.41-0.95c-0.26-0.28-0.56-0.41-0.95-0.41h-11.23V179.54z"/>
					</g>
				</g>
			</g>
		</g>
		<g class="st0">
			<path class="st6" d="M621.29,159.22l-0.95-0.54c-0.53-0.29-0.51-0.89,0.22-1.33l0.7-0.43c0.53-0.33,0.95-0.35,1.35-0.13l1.4,0.77
				l7.72-4.73c0.62-0.38,1.12-0.26,1.49,0.36l0.55,0.9c0.38,0.62,0.26,1.12-0.36,1.5l-6.15,3.77l2.33,1.28
				c0.77,0.38,0.78,1.03,0.05,1.47l-0.7,0.43c-0.53,0.33-0.99,0.34-1.52,0.04l-2.88-1.55l-7.61,4.66l4.89,7.97
				c0.36,0.59,0.24,1.09-0.38,1.47l-0.56,0.34c-0.62,0.38-1.12,0.26-1.48-0.33l-6.01-9.8c-0.38-0.62-0.26-1.12,0.36-1.49
				L621.29,159.22z"/>
			<path class="st6" d="M634.35,169.68c0.62-0.38,1.12-0.26,1.49,0.36l0.53,0.87c0.36,0.59,0.24,1.09-0.38,1.47l-7.55,4.63
				c-1.96,1.2-3.28,2.59-1.9,4.84c1.79,2.92,5.39,3.07,8.2,1.34l5.73-3.51c0.62-0.38,1.12-0.26,1.49,0.36l0.53,0.87
				c0.36,0.59,0.26,1.12-0.36,1.49l-12.35,7.57c-0.62,0.38-1.13,0.23-1.49-0.36l-0.48-0.79c-0.38-0.62-0.26-1.12,0.36-1.49
				l1.26-0.77c0.42-0.26,0.87-0.42,0.87-0.42l-0.04-0.06c-1.78,0.24-4.87-0.45-6.58-3.23c-1.96-3.2-1.28-5.86,2.49-8.17
				L634.35,169.68z"/>
			<path class="st6" d="M649.89,192.2c1.46,2.39,1.48,4.5,1.36,5.62c-0.02,0.67-0.48,0.99-1.16,0.94l-0.59-0.02
				c-0.71-0.03-0.98-0.4-1-1.13c0.06-0.85,0.03-2.34-0.88-3.83c-1.76-2.86-5.16-3.63-8.08-1.84c-2.89,1.77-3.83,5.21-2.04,8.13
				c1.05,1.71,2.59,2.47,3.51,2.83c0.65,0.3,0.85,0.75,0.52,1.42l-0.28,0.48c-0.3,0.57-0.81,0.76-1.39,0.5
				c-1.13-0.39-3.27-1.43-4.84-3.99c-2.74-4.46-1.48-9.52,2.79-12.14C642.02,186.6,647.17,187.76,649.89,192.2z"/>
			<path class="st6" d="M640.75,207.65c0.48-0.29,0.77-0.32,1.31-0.26l12.63,1.57c1.14,0.15,2.04,0.37,2.04,0.37l0.06-0.03
				c0,0-0.33-0.41-0.9-1.34l-3.51-5.73c-0.38-0.62-0.26-1.12,0.36-1.5l0.48-0.29c0.62-0.38,1.12-0.26,1.5,0.36l6.04,9.85
				c0.36,0.59,0.32,1.08-0.22,1.41l-0.22,0.14c-0.48,0.29-0.77,0.32-1.31,0.26l-12.65-1.55c-1.09-0.14-2.03-0.42-2.03-0.42
				l-0.06,0.03c0,0,0.33,0.42,0.9,1.34l3.86,6.29c0.38,0.62,0.26,1.12-0.33,1.48l-0.51,0.31c-0.62,0.38-1.12,0.26-1.49-0.36
				l-6.37-10.39c-0.38-0.62-0.29-1.1,0.22-1.41L640.75,207.65z"/>
			<path class="st6" d="M667.21,220.44c2.41,3.93,0.95,7.84-3.01,10.27c-0.51,0.31-1.2,0.19-1.54-0.37l-5.82-9.49
				c-2.98,2.06-3.34,5.33-1.79,7.86c0.95,1.54,2.33,2.36,3.21,2.71c0.61,0.36,0.81,0.82,0.47,1.45l-0.27,0.51
				c-0.31,0.57-0.83,0.78-1.41,0.48c-1.11-0.48-3.06-1.6-4.46-3.87c-2.74-4.46-1.38-9.5,2.83-12.08
				C659.93,215.12,664.73,216.39,667.21,220.44z M663.37,227.46c2.45-1.62,2.83-3.89,1.67-5.78c-1.27-2.08-3.71-2.9-6.34-1.83
				L663.37,227.46z"/>
			<path class="st6" d="M677.15,226.89c0.62-0.38,1.12-0.26,1.5,0.36l0.53,0.87c0.36,0.59,0.24,1.09-0.38,1.47l-9.88,6.06l1.26,2.05
				l6.72,0.63c0.58-0.01,0.95,0.23,1.26,0.73l0.64,1.04c0.46,0.76,0.12,1.32-0.78,1.25l-7.55-0.78l-0.06,0.03l-3.98,8.7
				c-0.4,0.79-1.04,0.83-1.5,0.07l-0.69-1.12c-0.31-0.51-0.32-0.96-0.03-1.49l3.63-7.56l-1.29-2.11l-5.73,3.51
				c-0.62,0.38-1.12,0.26-1.48-0.33l-0.53-0.87c-0.38-0.62-0.26-1.12,0.36-1.5L677.15,226.89z"/>
		</g>
	</g>
	<g>
		<path class="st6" d="M128.04,387.3c-0.44-0.58-0.36-1.09,0.22-1.52l5-3.76c1.82-1.37,2.83-1.88,3.85-2.11
			c2.36-0.54,4.8,0.31,6.58,2.67c1.78,2.37,2.06,5.37,0.52,7.6l0.04,0.05c0,0,0.43,0.08,1.19,0.43l7.99,3.67
			c0.8,0.35,0.85,0.97,0.19,1.46l-1.05,0.79c-0.5,0.38-0.95,0.43-1.48,0.17l-8.74-4.06l-3.97,2.99l4.91,6.53
			c0.43,0.58,0.36,1.09-0.22,1.52l-0.84,0.63c-0.58,0.44-1.09,0.36-1.52-0.22L128.04,387.3z M140.41,390.61
			c2.03-1.52,2.29-3.86,0.72-5.94c-1.01-1.34-2.38-1.96-3.91-1.59c-0.63,0.15-1.26,0.46-2.45,1.35l-3.11,2.33l5,6.66L140.41,390.61z
			"/>
		<path class="st6" d="M159.07,396.52c0.34-0.09,0.82-0.17,1.27-0.5c1.08-0.81,1.16-2.35,0.79-3.72l-0.49-2.02l-14.3-8.28
			c-0.72-0.41-0.73-1.02-0.09-1.49l1.03-0.77c0.5-0.38,0.97-0.4,1.49-0.05l9.17,5.67c0.73,0.48,1.68,1.25,1.68,1.25l0.05-0.04
			c0,0-0.46-1.05-0.74-1.92l-3.01-10.3c-0.22-0.62-0.09-1.05,0.44-1.44l0.95-0.71c0.63-0.47,1.22-0.3,1.44,0.49l5.15,19.07
			c0.77,2.67-0.05,5.03-1.92,6.43c-0.76,0.57-1.57,0.81-2.16,0.96c-0.66,0.17-1.12-0.23-1.25-0.83l-0.13-0.61
			C158.28,397.07,158.62,396.69,159.07,396.52z"/>
		<path class="st6" d="M156.99,365.54c-0.44-0.58-0.36-1.09,0.22-1.52l0.82-0.61c0.55-0.42,1.06-0.34,1.5,0.24l4.06,5.4
			c0.49,0.66,0.77,1.19,0.77,1.19l0.05-0.04c0,0-0.66-3.34,2.5-5.71c3.53-2.65,7.95-1.53,11.04,2.58c3.21,4.26,2.71,8.92-0.76,11.53
			c-3.13,2.35-6.16,0.68-6.16,0.68l-0.05,0.04c0,0,0.32,0.26,0.67,0.73l0.5,0.66c0.36,0.47,0.26,1-0.29,1.42l-0.66,0.49
			c-0.58,0.44-1.09,0.36-1.52-0.22L156.99,365.54z M175.09,376.69c2.13-1.6,2.58-4.62,0.31-7.65c-2.18-2.9-5.13-3.6-7.35-1.93
			c-2,1.5-2.77,4.31-0.28,7.63C169.61,377.18,172.59,378.57,175.09,376.69z"/>
		<path class="st6" d="M176.5,359.11c-0.43-0.58-0.34-1.11,0.22-1.52l0.74-0.55c0.58-0.44,1.09-0.36,1.52,0.22l0.89,1.18
			c0.3,0.39,0.49,0.82,0.49,0.82l0.05-0.04c-0.34-1.55-0.22-4.73,2.7-6.93c3.13-2.35,5.84-1.71,8.39,1.68l5.76,7.66
			c0.44,0.58,0.36,1.09-0.21,1.52l-0.82,0.61c-0.55,0.42-1.09,0.36-1.52-0.22l-5.32-7.08c-1.4-1.87-2.88-3.07-5.01-1.46
			c-2.58,1.94-2.83,5.5-0.75,8.27l4.13,5.5c0.44,0.58,0.36,1.09-0.22,1.52l-0.82,0.61c-0.55,0.42-1.09,0.36-1.52-0.22L176.5,359.11z
			"/>
		<path class="st6" d="M188.72,343.05l-0.65-0.87c-0.44-0.58-0.36-1.09,0.22-1.52l0.89-0.67c0.55-0.42,1.09-0.36,1.52,0.22
			l0.65,0.87c0.42,0.55,0.34,1.11-0.22,1.52l-0.89,0.67C189.66,343.7,189.14,343.6,188.72,343.05z M192.05,347.42
			c-0.44-0.58-0.34-1.11,0.21-1.52l0.82-0.61c0.58-0.44,1.09-0.36,1.52,0.22l8.71,11.58c0.44,0.58,0.36,1.09-0.21,1.52l-0.82,0.61
			c-0.55,0.42-1.09,0.36-1.52-0.22L192.05,347.42z"/>
		<path class="st6" d="M203.64,336.86c2.24-1.68,4.34-1.9,5.46-1.88c0.67-0.05,1.03,0.38,1.05,1.07l0.03,0.59
			c0.04,0.71-0.31,1.01-1.03,1.1c-0.85,0.02-2.33,0.19-3.73,1.24c-2.68,2.02-3.13,5.48-1.07,8.22c2.04,2.71,5.55,3.33,8.29,1.27
			c1.61-1.21,2.21-2.81,2.49-3.76c0.24-0.67,0.67-0.92,1.36-0.65l0.51,0.24c0.6,0.25,0.84,0.73,0.63,1.34
			c-0.28,1.16-1.12,3.39-3.51,5.19c-4.19,3.15-9.34,2.37-12.35-1.63C198.81,345.23,199.48,339.99,203.64,336.86z"/>
		<path class="st6" d="M208.33,326.95c-0.44-0.58-0.36-1.09,0.22-1.52l0.82-0.61c0.55-0.42,1.06-0.34,1.5,0.24l6.96,9.27l1.92-1.44
			l-0.01-6.75c-0.06-0.57,0.14-0.97,0.61-1.32l0.97-0.73c0.71-0.53,1.3-0.24,1.32,0.66l-0.06,7.59l0.04,0.05l9.03,3.14
			c0.82,0.33,0.92,0.95,0.21,1.49l-1.05,0.79c-0.47,0.36-0.93,0.41-1.48,0.17l-7.87-2.9l-1.97,1.48l4.04,5.37
			c0.44,0.58,0.36,1.09-0.19,1.5l-0.82,0.61c-0.58,0.44-1.09,0.36-1.52-0.22L208.33,326.95z"/>
		<path class="st6" d="M235.71,321.24l0.68-0.51l-0.26-0.34c-1.64-2.18-3.46-1.97-5.09-0.75c-1.32,0.99-2.02,2.3-2.37,3.1
			c-0.32,0.61-0.78,0.83-1.42,0.57l-0.49-0.21c-0.64-0.3-0.88-0.78-0.6-1.4c0.45-1.04,1.44-2.85,3.47-4.38
			c3.32-2.49,6.62-2.09,9.16,1.27l5.68,7.55c0.44,0.58,0.34,1.11-0.21,1.52l-0.66,0.49c-0.55,0.42-1.09,0.36-1.52-0.22l-0.59-0.79
			c-0.38-0.5-0.54-0.87-0.54-0.87l-0.05,0.04c0,0,0.86,3.72-2.25,6.05c-2.34,1.76-5.56,1.92-7.44-0.58
			C228.1,327.66,232.95,323.31,235.71,321.24z M237.71,329.91c2.24-1.68,1.9-4.97,0.42-6.95l-0.44-0.58l-0.68,0.51
			c-1.87,1.4-5.28,4.21-3.38,6.74C234.42,330.7,236.07,331.14,237.71,329.91z"/>
	</g>
	<g>
		<path class="st6" d="M470.11,876.44c6.91,0.19,11.77,5.5,11.59,12.18c-0.19,6.85-5.34,12.04-12.25,11.85
			c-6.91-0.19-11.8-5.66-11.61-12.51C458.02,881.27,463.19,876.25,470.11,876.44z M469.52,897.47c4.94,0.14,8.67-3.75,8.81-8.95
			c0.14-5.04-3.38-8.95-8.31-9.09c-4.94-0.14-8.7,3.58-8.84,8.62C461.04,893.25,464.59,897.33,469.52,897.47z"/>
		<path class="st6" d="M485.66,878.35c0.02-0.72,0.39-1.08,1.12-1.06l1.02,0.03c0.69,0.02,1.04,0.39,1.02,1.12l-0.19,6.75
			c-0.02,0.82-0.14,1.41-0.14,1.41l0.07,0c0,0,1.57-3.02,5.52-2.91c4.41,0.12,7.18,3.76,7.03,8.89c-0.15,5.33-3.43,8.67-7.78,8.55
			c-3.92-0.11-5.25-3.31-5.25-3.31l-0.07,0c0,0,0.09,0.4,0.07,0.99l-0.02,0.82c-0.02,0.59-0.42,0.94-1.11,0.92l-0.82-0.02
			c-0.72-0.02-1.08-0.39-1.06-1.12L485.66,878.35z M492.88,898.35c2.67,0.07,4.9-2.01,5-5.79c0.1-3.62-1.78-6.01-4.54-6.09
			c-2.5-0.07-4.85,1.64-4.97,5.79C488.29,895.32,489.76,898.26,492.88,898.35z"/>
		<path class="st6" d="M504.93,885.47c0.02-0.72,0.42-1.08,1.12-1.06l0.92,0.03c0.72,0.02,1.08,0.39,1.06,1.12l-0.05,1.91
			c-0.02,0.69-0.13,1.25-0.13,1.25l0.07,0c0.79-2.19,2.72-4.31,5.22-4.24c0.76,0.02,1.04,0.39,1.02,1.12l-0.03,0.92
			c-0.02,0.72-0.46,1.07-1.21,1.05c-3.26-0.09-4.94,3.39-5.03,6.68l-0.16,5.79c-0.02,0.72-0.39,1.08-1.12,1.06l-1.02-0.03
			c-0.69-0.02-1.08-0.39-1.06-1.12L504.93,885.47z"/>
		<path class="st6" d="M523.93,884.51c4.97,0.14,8.89,3.9,8.75,8.94c-0.14,5.07-4.26,8.64-9.23,8.51c-4.97-0.14-8.85-3.93-8.71-9
			C514.87,887.92,518.96,884.38,523.93,884.51z M523.52,899.19c3.16,0.09,5.8-2.34,5.89-5.83c0.1-3.46-2.4-6-5.56-6.08
			c-3.13-0.09-5.8,2.31-5.89,5.77C517.86,896.53,520.4,899.11,523.52,899.19z"/>
		<path class="st6" d="M536.39,886.34c0.02-0.72,0.42-1.08,1.12-1.06l0.92,0.03c0.72,0.02,1.08,0.39,1.06,1.12l-0.04,1.48
			c-0.01,0.49-0.13,0.95-0.13,0.95l0.07,0c0.7-1.43,2.78-3.84,6.43-3.74c3.92,0.11,5.64,2.3,5.52,6.54l-0.26,9.58
			c-0.02,0.72-0.39,1.08-1.12,1.06l-1.02-0.03c-0.69-0.02-1.08-0.39-1.06-1.12l0.25-8.85c0.06-2.34-0.34-4.19-3.01-4.27
			c-3.23-0.09-5.64,2.54-5.73,6l-0.19,6.88c-0.02,0.72-0.39,1.08-1.12,1.06l-1.02-0.03c-0.69-0.02-1.08-0.39-1.06-1.12
			L536.39,886.34z M543.57,881.8l1.38-2.17c0.31-0.52,0.71-0.74,1.3-0.72l0.96,0.03c0.92,0.03,1.14,0.62,0.56,1.33l-1.67,2.16
			c-0.37,0.45-0.77,0.64-1.33,0.62l-0.56-0.02C543.43,883.01,543.15,882.44,543.57,881.8z"/>
		<path class="st6" d="M563.68,885.61c2.8,0.08,4.58,1.21,5.45,1.93c0.55,0.38,0.57,0.94,0.16,1.49l-0.34,0.48
			c-0.41,0.58-0.87,0.6-1.49,0.22c-0.68-0.51-1.94-1.3-3.68-1.35c-3.36-0.09-5.86,2.34-5.96,5.77c-0.09,3.39,2.27,6.06,5.69,6.15
			c2.01,0.05,3.48-0.83,4.29-1.4c0.6-0.38,1.1-0.3,1.47,0.34l0.25,0.5c0.31,0.57,0.2,1.09-0.34,1.44c-0.94,0.73-2.99,1.96-5.98,1.88
			c-5.23-0.14-8.78-3.96-8.65-8.97C554.69,889.15,558.48,885.47,563.68,885.61z"/>
		<path class="st6" d="M581.03,886.09c4.97,0.14,8.89,3.9,8.75,8.94c-0.14,5.07-4.26,8.64-9.23,8.51c-4.97-0.14-8.85-3.93-8.71-9
			C571.97,889.5,576.06,885.95,581.03,886.09z M580.62,900.77c3.16,0.09,5.8-2.34,5.89-5.83c0.09-3.46-2.4-6-5.56-6.08
			c-3.13-0.09-5.8,2.31-5.89,5.77C574.96,898.11,577.49,900.68,580.62,900.77z M580.36,882.81l1.38-2.17
			c0.31-0.52,0.71-0.74,1.3-0.72l0.96,0.03c0.92,0.03,1.13,0.62,0.55,1.33l-1.67,2.16c-0.38,0.45-0.78,0.64-1.33,0.62l-0.56-0.01
			C580.23,884.03,579.95,883.46,580.36,882.81z"/>
		<path class="st6" d="M591.84,888c-0.21-0.76,0.17-1.21,0.96-1.19l1.09,0.03c0.66,0.02,1.04,0.33,1.19,0.96l2.96,10.85
			c0.21,0.86,0.35,1.79,0.35,1.79l0.07,0c0,0,0.22-0.92,0.51-1.77l3.65-10.64c0.15-0.62,0.58-0.91,1.21-0.89l1.02,0.03
			c0.66,0.02,1.05,0.33,1.19,0.96l3.06,10.82c0.21,0.86,0.38,1.79,0.38,1.79l0.07,0c0,0,0.19-0.92,0.48-1.77l3.56-10.67
			c0.15-0.62,0.55-0.91,1.21-0.89l1.09,0.03c0.79,0.02,1.14,0.49,0.89,1.24l-5.11,14.39c-0.18,0.62-0.62,0.91-1.24,0.89l-1.61-0.04
			c-0.66-0.02-1.04-0.33-1.19-0.96l-2.92-9.86c-0.27-0.86-0.41-1.82-0.41-1.82l-0.07,0c0,0-0.22,0.95-0.54,1.8l-3.43,9.69
			c-0.18,0.62-0.62,0.91-1.24,0.89l-1.65-0.05c-0.62-0.02-1.04-0.33-1.19-0.96L591.84,888z"/>
		<path class="st6" d="M628.89,882.31c0.02-0.72,0.39-1.08,1.12-1.06l7.41,0.2c4.25,0.12,7.2,3.07,7.07,7.48
			c-0.12,4.41-3.23,7.29-7.48,7.17l-5.27-0.15l-0.21,7.5c-0.02,0.72-0.39,1.08-1.12,1.06l-1.05-0.03c-0.72-0.02-1.08-0.39-1.06-1.12
			L628.89,882.31z M636.55,893.26c2.8,0.08,4.56-1.62,4.63-4.42c0.08-2.8-1.59-4.49-4.35-4.57l-4.77-0.13l-0.25,8.99L636.55,893.26z
			"/>
		<path class="st6" d="M655.27,888.14c4.97,0.14,8.89,3.9,8.75,8.94c-0.14,5.07-4.26,8.64-9.23,8.51c-4.97-0.14-8.85-3.93-8.71-9
			C646.22,891.55,650.3,888.01,655.27,888.14z M654.87,902.82c3.16,0.09,5.8-2.34,5.89-5.83c0.1-3.46-2.4-6-5.56-6.08
			c-3.13-0.09-5.79,2.31-5.89,5.77C649.21,900.16,651.74,902.74,654.87,902.82z"/>
		<path class="st6" d="M667.95,883.39c0.02-0.72,0.39-1.08,1.12-1.06l1.02,0.03c0.69,0.02,1.04,0.39,1.02,1.12l-0.32,11.59l2.4,0.07
			l4.2-5.29c0.31-0.49,0.71-0.67,1.3-0.66l1.22,0.03c0.89,0.02,1.17,0.62,0.62,1.33l-4.77,5.9l0,0.07l5.11,8.08
			c0.44,0.77,0.13,1.32-0.76,1.3l-1.32-0.04c-0.59-0.02-0.98-0.26-1.26-0.79l-4.35-7.17l-2.47-0.07l-0.19,6.72
			c-0.02,0.72-0.39,1.08-1.08,1.06l-1.02-0.03c-0.72-0.02-1.08-0.39-1.06-1.12L667.95,883.39z"/>
		<path class="st6" d="M692.1,889.16c4.97,0.14,8.89,3.9,8.75,8.94c-0.14,5.07-4.26,8.64-9.23,8.51c-4.97-0.14-8.85-3.93-8.71-9
			C683.04,892.57,687.13,889.02,692.1,889.16z M691.69,903.84c3.16,0.09,5.79-2.34,5.89-5.83c0.09-3.46-2.4-6-5.56-6.08
			c-3.13-0.09-5.79,2.31-5.89,5.77C686.03,901.18,688.56,903.76,691.69,903.84z"/>
		<path class="st6" d="M704.59,890.99c0.02-0.72,0.39-1.08,1.12-1.06l1.02,0.03c0.69,0.02,1.04,0.39,1.02,1.12l-0.44,16.06
			c-0.15,5.46-4.55,6.17-6.16,6.12l-0.4-0.01c-0.72-0.02-1.08-0.39-1.06-1.12l0.02-0.59c0.02-0.82,0.52-1.01,1.12-1.06
			c1.29-0.06,3.24-0.44,3.33-3.56L704.59,890.99z M704.68,885.49l0.03-1.09c0.02-0.72,0.42-1.08,1.12-1.06l1.12,0.03
			c0.72,0.02,1.08,0.39,1.06,1.12l-0.03,1.09c-0.02,0.69-0.39,1.08-1.12,1.06l-1.12-0.03C705.04,886.59,704.66,886.18,704.68,885.49
			z"/>
		<path class="st6" d="M712.19,891.2c0.02-0.72,0.39-1.08,1.12-1.06l1.02,0.03c0.69,0.02,1.04,0.39,1.02,1.12l-0.24,8.85
			c-0.06,2.3,0.38,4.16,3.01,4.23c3.42,0.09,5.51-2.85,5.6-6.14l0.19-6.71c0.02-0.72,0.39-1.08,1.12-1.06l1.02,0.03
			c0.69,0.02,1.08,0.39,1.06,1.12l-0.4,14.48c-0.02,0.72-0.43,1.07-1.12,1.06l-0.92-0.03c-0.72-0.02-1.08-0.39-1.06-1.12l0.04-1.48
			c0.01-0.49,0.12-0.95,0.12-0.95l-0.07,0c-0.77,1.63-3.04,3.84-6.3,3.75c-3.75-0.1-5.61-2.13-5.48-6.54L712.19,891.2z"/>
	</g>
	<g>
		<g>
			<path class="st1" d="M266.3,211.87c-0.87-1.16-0.73-2.18,0.43-3.05l1.99-1.5c1.16-0.87,2.18-0.73,3.05,0.43l5.88,7.82
				c0.57,0.76,1.13,1.2,1.68,1.31c0.55,0.12,1.11-0.04,1.68-0.47c0.59-0.44,1.01-0.95,1.26-1.52c0.25-0.57,0.36-1.16,0.34-1.79
				c-0.02-0.62-0.17-1.26-0.44-1.9c-0.27-0.64-0.63-1.27-1.09-1.88l-4.11-5.47c-0.87-1.16-0.73-2.17,0.43-3.05l1.99-1.5
				c1.16-0.87,2.18-0.73,3.05,0.43l9.63,12.82c0.87,1.16,0.73,2.18-0.43,3.05l-1.77,1.33c-1.14,0.86-2.14,0.7-3.02-0.46l-0.21-0.29
				l-0.19-0.25c-0.05-0.06-0.08-0.12-0.09-0.18l-0.06,0.05c0.22,1.22,0.06,2.42-0.5,3.62c-0.56,1.19-1.38,2.2-2.48,3.03
				c-0.8,0.6-1.63,1.06-2.5,1.38s-1.74,0.44-2.62,0.36c-0.88-0.08-1.77-0.4-2.65-0.96c-0.88-0.56-1.75-1.41-2.61-2.55L266.3,211.87z
				"/>
			<path class="st1" d="M280.84,191.03c-0.87-1.16-0.73-2.18,0.43-3.05l1.99-1.5c1.16-0.87,2.18-0.73,3.05,0.43l10.99,14.62
				c0.46,0.61,0.86,0.96,1.2,1.03c0.34,0.08,0.65,0.04,0.93-0.11c0.41-0.24,0.82-0.33,1.23-0.28c0.41,0.06,0.79,0.33,1.16,0.81
				l1.17,1.55c0.41,0.55,0.6,1.08,0.56,1.61c-0.04,0.52-0.37,1.02-1,1.5c-0.7,0.52-1.45,0.99-2.25,1.39c-0.8,0.4-1.64,0.6-2.53,0.59
				c-0.88-0.01-1.8-0.29-2.76-0.84s-1.95-1.51-2.98-2.88L280.84,191.03z"/>
			<path class="st1" d="M303.5,201.28c-0.87-1.16-0.73-2.18,0.43-3.05l1.71-1.28c1.16-0.87,2.18-0.73,3.05,0.43l1.28,1.71
				c0.87,1.16,0.73,2.18-0.43,3.05l-1.71,1.28c-1.16,0.87-2.18,0.73-3.05-0.43L303.5,201.28z"/>
			<path class="st1" d="M307.07,171.31c-0.87-1.16-0.73-2.18,0.43-3.05l6.14-4.61c1.16-0.87,2.09-1.51,2.8-1.91
				c0.71-0.4,1.37-0.69,2-0.86c1.65-0.48,3.28-0.44,4.87,0.13c1.6,0.57,3.01,1.67,4.25,3.32c0.46,0.61,0.85,1.27,1.16,1.98
				c0.31,0.7,0.54,1.44,0.68,2.22c0.14,0.77,0.16,1.55,0.08,2.31c-0.08,0.77-0.3,1.51-0.67,2.21l0.05,0.06
				c0.13,0.04,0.28,0.09,0.46,0.15c0.16,0.04,0.36,0.12,0.59,0.22c0.23,0.11,0.51,0.22,0.83,0.34l7.6,3.4
				c0.82,0.34,1.25,0.8,1.3,1.37c0.05,0.57-0.26,1.11-0.94,1.62l-2.41,1.81c-0.91,0.68-1.9,0.79-2.98,0.31l-8.16-3.87l-2.59,1.95
				l4.42,5.89c0.87,1.16,0.73,2.18-0.43,3.05l-2.06,1.55c-1.16,0.87-2.18,0.73-3.05-0.43L307.07,171.31z M321.41,173.86
				c0.89-0.67,1.41-1.43,1.57-2.29c0.16-0.86-0.1-1.75-0.78-2.65c-0.43-0.57-0.89-0.99-1.38-1.27c-0.49-0.28-1.08-0.32-1.76-0.14
				c-0.64,0.16-1.42,0.57-2.33,1.25l-1.87,1.4l4.14,5.51L321.41,173.86z"/>
			<path class="st1" d="M343.8,179.7c0.21-0.36,0.51-0.63,0.89-0.82c0.16-0.05,0.33-0.12,0.51-0.21c0.18-0.09,0.37-0.2,0.56-0.35
				c0.48-0.36,0.81-0.87,0.96-1.52c0.16-0.65,0.15-1.28-0.03-1.91l-0.25-1l-16.53-9.41c-0.73-0.41-1.12-0.88-1.15-1.44
				c-0.04-0.55,0.28-1.08,0.96-1.59l2.47-1.85c1.01-0.76,2.03-0.79,3.06-0.07l6.5,4.62c0.24,0.19,0.5,0.4,0.8,0.64
				c0.3,0.24,0.57,0.46,0.82,0.67c0.32,0.25,0.61,0.51,0.88,0.78l0.06-0.05c-0.16-0.34-0.32-0.69-0.48-1.03
				c-0.15-0.28-0.29-0.59-0.44-0.91s-0.27-0.62-0.38-0.9l-2.94-7.34c-0.47-1.2-0.19-2.18,0.84-2.96l2.31-1.74
				c0.63-0.48,1.22-0.63,1.75-0.47c0.53,0.16,0.91,0.63,1.14,1.42l6.11,20.51c0.34,1.16,0.5,2.24,0.46,3.25
				c-0.04,1-0.21,1.92-0.52,2.77c-0.31,0.84-0.73,1.6-1.27,2.27c-0.54,0.67-1.13,1.25-1.79,1.74c-0.42,0.32-0.86,0.58-1.31,0.79
				c-0.45,0.21-0.88,0.38-1.27,0.51c-0.65,0.23-1.21,0.18-1.66-0.14c-0.46-0.32-0.76-0.82-0.9-1.5l-0.28-1.23
				C343.55,180.57,343.59,180.06,343.8,179.7z"/>
			<path class="st1" d="M343.24,144.13c-0.87-1.16-0.73-2.18,0.43-3.05l1.99-1.5c1.16-0.87,2.18-0.73,3.05,0.43l3.66,4.87
				c0.16,0.21,0.3,0.41,0.41,0.58c0.12,0.18,0.22,0.33,0.32,0.46c0.09,0.16,0.17,0.3,0.25,0.4l0.06-0.05
				c0.01-0.6,0.13-1.22,0.35-1.85c0.17-0.52,0.45-1.11,0.86-1.76s0.98-1.26,1.74-1.83c1.08-0.81,2.21-1.34,3.41-1.59
				c1.19-0.25,2.39-0.25,3.59,0.03c1.2,0.27,2.36,0.79,3.5,1.56c1.14,0.76,2.17,1.77,3.11,3.01c0.98,1.31,1.68,2.64,2.09,4
				c0.41,1.36,0.56,2.67,0.45,3.92s-0.47,2.43-1.08,3.51c-0.61,1.08-1.44,2.02-2.49,2.81c-0.89,0.67-1.71,1.1-2.46,1.31
				c-0.75,0.2-1.42,0.29-2,0.27c-0.68-0.02-1.31-0.14-1.9-0.35l-0.06,0.05l0.07,0.1c0.03,0.04,0.06,0.08,0.1,0.1
				c0.03,0.02,0.07,0.06,0.1,0.1l0.1,0.13c0.32,0.42,0.43,0.88,0.34,1.38c-0.09,0.5-0.42,0.96-0.99,1.39l-1.55,1.17
				c-1.16,0.87-2.18,0.73-3.05-0.43L343.24,144.13z M358.08,152.81c0.41,0.55,0.87,1.02,1.38,1.4c0.5,0.39,1.03,0.66,1.57,0.83
				s1.09,0.22,1.65,0.15c0.56-0.07,1.09-0.3,1.6-0.68c0.91-0.68,1.42-1.6,1.55-2.75c0.12-1.15-0.29-2.36-1.25-3.64
				c-0.91-1.21-1.93-1.96-3.05-2.25c-1.13-0.29-2.17-0.08-3.12,0.63c-0.42,0.32-0.77,0.7-1.04,1.15c-0.27,0.45-0.43,0.95-0.49,1.49
				c-0.06,0.54,0.01,1.12,0.2,1.74C357.24,151.51,357.58,152.15,358.08,152.81z"/>
			<path class="st1" d="M367.58,135.74c-0.87-1.16-0.73-2.18,0.43-3.05l1.77-1.33c1.14-0.86,2.14-0.7,3.02,0.46l0.21,0.29
				c0.03,0.04,0.06,0.09,0.08,0.14c0.02,0.05,0.05,0.1,0.08,0.14l0.12,0.16l0.06-0.05c-0.05-0.46-0.05-0.97-0.01-1.53
				c0.04-0.56,0.17-1.13,0.4-1.71c0.22-0.58,0.55-1.17,0.97-1.77c0.42-0.6,0.99-1.17,1.71-1.71c0.82-0.62,1.67-1.09,2.55-1.42
				s1.75-0.45,2.62-0.36c0.87,0.09,1.76,0.4,2.65,0.96c0.89,0.55,1.77,1.4,2.62,2.53l6.64,8.83c0.87,1.16,0.73,2.18-0.43,3.05
				l-1.99,1.5c-1.16,0.87-2.18,0.73-3.05-0.43l-5.87-7.82c-0.57-0.76-1.13-1.2-1.68-1.31c-0.55-0.11-1.13,0.06-1.74,0.52
				c-0.61,0.46-1.05,0.97-1.32,1.54c-0.27,0.56-0.4,1.16-0.39,1.78c0.01,0.62,0.14,1.25,0.4,1.88c0.26,0.63,0.6,1.23,1.03,1.8
				l4.23,5.63c0.87,1.16,0.73,2.18-0.43,3.05l-1.99,1.5c-1.16,0.87-2.18,0.73-3.05-0.43L367.58,135.74z"/>
			<path class="st1" d="M385.83,116.08c-1.16,0.87-2.18,0.73-3.05-0.43l-0.6-0.79c-0.87-1.16-0.73-2.18,0.43-3.05l1.87-1.4
				c1.16-0.87,2.18-0.73,3.05,0.43l0.6,0.79c0.87,1.16,0.73,2.18-0.43,3.05L385.83,116.08z M386.88,121.23
				c-0.87-1.16-0.73-2.18,0.43-3.05l1.99-1.5c1.16-0.87,2.18-0.73,3.05,0.43l9.63,12.82c0.87,1.16,0.73,2.18-0.43,3.05l-1.99,1.5
				c-1.16,0.87-2.18,0.73-3.05-0.43L386.88,121.23z"/>
			<path class="st1" d="M399.47,121.77c-0.82-1.1-1.42-2.31-1.79-3.63c-0.37-1.32-0.47-2.67-0.29-4.04
				c0.18-1.37,0.65-2.72,1.42-4.04c0.77-1.32,1.89-2.53,3.34-3.63c1.24-0.94,2.42-1.57,3.51-1.92c1.1-0.34,2.04-0.53,2.84-0.57
				c0.67-0.04,1.18,0.14,1.55,0.51c0.36,0.38,0.57,0.91,0.63,1.6l0.08,1.23c0.07,0.71-0.07,1.23-0.41,1.57
				c-0.34,0.34-0.86,0.57-1.55,0.7c-0.44,0.07-0.91,0.2-1.4,0.38c-0.49,0.19-0.97,0.46-1.46,0.83c-0.65,0.49-1.14,1.03-1.46,1.61
				c-0.32,0.58-0.51,1.18-0.56,1.79c-0.05,0.61,0.02,1.21,0.2,1.79c0.19,0.58,0.46,1.11,0.82,1.59c0.36,0.48,0.81,0.9,1.34,1.25
				c0.53,0.35,1.11,0.59,1.73,0.72c0.62,0.12,1.27,0.11,1.96-0.03s1.38-0.47,2.08-1c0.55-0.41,1-0.9,1.37-1.47
				c0.36-0.57,0.66-1.12,0.89-1.65c0.3-0.69,0.68-1.14,1.14-1.35c0.45-0.21,1.02-0.15,1.69,0.17l1.01,0.49
				c0.6,0.31,1.02,0.7,1.26,1.15c0.24,0.45,0.26,0.98,0.06,1.6c-0.28,0.81-0.76,1.77-1.45,2.88c-0.68,1.11-1.7,2.17-3.05,3.19
				c-1.46,1.09-2.92,1.83-4.4,2.22c-1.48,0.38-2.9,0.47-4.26,0.26c-1.37-0.21-2.64-0.68-3.81-1.42
				C401.32,123.81,400.31,122.89,399.47,121.77z"/>
			<path class="st1" d="M407.59,95.76c-0.87-1.16-0.73-2.18,0.43-3.05l1.99-1.5c1.16-0.87,2.18-0.73,3.05,0.43l7.49,9.97l1.55-1.17
				l-0.63-6.11c-0.14-1.11,0.25-2.02,1.18-2.72l2.09-1.57c0.72-0.54,1.33-0.69,1.84-0.45c0.51,0.24,0.8,0.8,0.86,1.68l0.58,7.88
				l0.05,0.06l9.21,3.62c0.82,0.34,1.27,0.79,1.35,1.34c0.08,0.55-0.24,1.09-0.95,1.63l-2.37,1.78c-0.91,0.68-1.9,0.79-2.98,0.31
				l-6.61-3l-1.71,1.28l3.45,4.59c0.87,1.16,0.73,2.18-0.43,3.05l-1.99,1.5c-1.16,0.87-2.18,0.73-3.05-0.43L407.59,95.76z"/>
			<path class="st1" d="M436.74,99.35c-0.82-1.1-1.22-2.22-1.18-3.38c0.04-1.15,0.36-2.28,0.95-3.39c0.59-1.1,1.36-2.14,2.31-3.12
				c0.95-0.98,1.93-1.85,2.94-2.61l0.47-0.36l-0.21-0.29c-0.51-0.67-1.09-0.97-1.75-0.88s-1.3,0.36-1.91,0.82
				c-0.53,0.4-0.99,0.86-1.38,1.39c-0.4,0.53-0.73,1.05-1.01,1.55c-0.73,1.27-1.7,1.61-2.91,1l-0.97-0.51c-0.6-0.31-1-0.71-1.2-1.2
				c-0.2-0.49-0.16-1.04,0.14-1.66c0.39-0.76,0.95-1.62,1.67-2.59c0.72-0.97,1.67-1.9,2.85-2.79c2.26-1.7,4.48-2.45,6.65-2.25
				c2.18,0.2,4.05,1.34,5.62,3.43l6.23,8.29c0.87,1.16,0.73,2.18-0.43,3.05L452.08,95c-1.16,0.87-2.18,0.72-3.07-0.46l-0.1-0.13
				l-0.17-0.22c-0.03-0.04-0.04-0.08-0.04-0.12l-0.06,0.05c0.05,0.72-0.02,1.45-0.2,2.18c-0.15,0.64-0.43,1.32-0.84,2.04
				c-0.41,0.72-1.02,1.39-1.82,1.99c-0.78,0.59-1.59,1-2.44,1.24c-0.84,0.24-1.67,0.31-2.46,0.22c-0.8-0.09-1.56-0.35-2.28-0.76
				C437.88,100.6,437.26,100.05,436.74,99.35z M441.77,94.78c0.29,0.38,0.66,0.61,1.13,0.68c0.47,0.08,0.96-0.08,1.46-0.46
				c0.4-0.3,0.7-0.67,0.91-1.1c0.2-0.43,0.33-0.88,0.37-1.35c0.05-0.46,0.01-0.92-0.1-1.36c-0.12-0.44-0.3-0.83-0.56-1.17
				l-0.33-0.44l-0.51,0.38c-0.42,0.32-0.84,0.68-1.24,1.08c-0.41,0.4-0.74,0.82-1,1.24c-0.26,0.43-0.42,0.85-0.48,1.28
				C441.37,93.99,441.48,94.4,441.77,94.78z"/>
			<path class="st1" d="M465.15,82.74c-0.68,0.02-1.2-0.16-1.56-0.53c-0.36-0.37-0.57-0.9-0.62-1.59l-0.19-2.03
				c-0.07-0.71,0.08-1.24,0.44-1.59c0.36-0.35,0.9-0.56,1.6-0.63c0.6-0.09,1.24-0.23,1.94-0.45c0.7-0.21,1.37-0.56,2-1.03
				c1.03-0.78,1.66-1.6,1.89-2.46c0.23-0.86,0.11-1.6-0.35-2.21c-0.67-0.89-1.54-1.23-2.63-1.02c-1.08,0.21-2.24,0.77-3.46,1.69
				l-0.13,0.1c-0.51,0.38-0.97,0.59-1.39,0.62c-0.42,0.04-0.91-0.08-1.48-0.35l-0.4-0.2c-0.94-0.45-1.36-1.3-1.28-2.56l0.18-4.04
				c0.04-0.52,0.08-1.01,0.12-1.45c0.04-0.45,0.08-0.83,0.11-1.14c0.04-0.39,0.08-0.72,0.14-1l-0.05-0.06
				c-0.12,0.15-0.27,0.32-0.47,0.5c-0.15,0.15-0.36,0.33-0.63,0.55c-0.27,0.22-0.58,0.46-0.94,0.73l-3.67,2.76
				c-1.16,0.87-2.18,0.73-3.05-0.43l-0.95-1.27c-0.87-1.16-0.73-2.18,0.43-3.05l10.79-8.11c1.16-0.87,2.17-0.74,3.02,0.4l0.38,0.51
				c0.33,0.44,0.56,0.87,0.69,1.29c0.13,0.41,0.17,0.9,0.13,1.46l-0.51,7.22c0.99-0.44,1.97-0.72,2.94-0.83
				c0.98-0.11,1.92-0.05,2.83,0.18c0.91,0.22,1.76,0.6,2.55,1.13c0.79,0.53,1.48,1.18,2.07,1.96c0.73,0.97,1.27,2.04,1.62,3.21
				c0.35,1.17,0.45,2.38,0.31,3.63c-0.15,1.25-0.58,2.5-1.31,3.73c-0.72,1.24-1.79,2.38-3.2,3.45c-0.76,0.57-1.51,1.04-2.25,1.42
				c-0.74,0.38-1.45,0.67-2.13,0.89c-0.68,0.21-1.32,0.37-1.93,0.46C466.17,82.66,465.63,82.72,465.15,82.74z"/>
			<path class="st1" d="M483.06,69.28c-0.68,0.02-1.2-0.16-1.56-0.53c-0.36-0.37-0.57-0.9-0.62-1.59l-0.19-2.03
				c-0.07-0.71,0.08-1.24,0.44-1.59c0.36-0.35,0.89-0.56,1.6-0.63c0.6-0.09,1.24-0.23,1.94-0.45c0.7-0.21,1.36-0.56,2-1.03
				c1.03-0.78,1.66-1.6,1.89-2.46c0.23-0.86,0.11-1.6-0.35-2.21c-0.67-0.89-1.54-1.23-2.63-1.02c-1.08,0.2-2.24,0.77-3.46,1.69
				l-0.13,0.1c-0.51,0.38-0.97,0.59-1.39,0.62c-0.42,0.04-0.91-0.08-1.48-0.35l-0.4-0.2c-0.94-0.45-1.36-1.31-1.28-2.56l0.18-4.04
				c0.04-0.52,0.08-1.01,0.12-1.45c0.04-0.45,0.08-0.83,0.11-1.14c0.04-0.39,0.08-0.72,0.14-1l-0.05-0.06
				c-0.12,0.15-0.27,0.32-0.47,0.5c-0.15,0.15-0.36,0.33-0.63,0.55c-0.27,0.22-0.58,0.46-0.94,0.73l-3.67,2.76
				c-1.16,0.87-2.18,0.73-3.05-0.43l-0.95-1.27c-0.87-1.16-0.73-2.18,0.43-3.05L479.47,39c1.16-0.87,2.17-0.74,3.03,0.4l0.38,0.51
				c0.33,0.44,0.56,0.87,0.69,1.29c0.13,0.41,0.17,0.9,0.13,1.46l-0.52,7.22c0.99-0.44,1.97-0.72,2.94-0.83
				c0.98-0.11,1.92-0.05,2.83,0.18c0.91,0.22,1.76,0.6,2.55,1.13c0.79,0.53,1.48,1.18,2.07,1.96c0.73,0.97,1.27,2.04,1.62,3.21
				c0.35,1.17,0.45,2.38,0.31,3.63c-0.15,1.25-0.58,2.5-1.31,3.73c-0.72,1.24-1.79,2.38-3.2,3.45c-0.76,0.57-1.51,1.04-2.25,1.42
				s-1.45,0.67-2.13,0.89c-0.68,0.21-1.32,0.37-1.93,0.46C484.08,69.2,483.54,69.26,483.06,69.28z"/>
		</g>
	</g>
	<g>
		<g>
			<path class="st1" d="M802.89,838.66c0-1.04,0.52-1.56,1.56-1.56h1.79c1.04,0,1.56,0.52,1.56,1.56v7.02c0,0.68,0.13,1.17,0.4,1.48
				c0.26,0.3,0.65,0.46,1.17,0.46c0.53,0,0.99-0.11,1.38-0.33c0.39-0.22,0.71-0.51,0.97-0.88c0.26-0.37,0.44-0.79,0.57-1.28
				c0.12-0.48,0.18-1,0.18-1.55v-4.92c0-1.04,0.52-1.56,1.56-1.56h1.79c1.04,0,1.56,0.52,1.56,1.56v11.51
				c0,1.04-0.52,1.56-1.56,1.56h-1.59c-1.02,0-1.53-0.52-1.53-1.56v-0.26v-0.23c0-0.06,0.01-0.1,0.03-0.14h-0.06
				c-0.4,0.8-1.01,1.42-1.85,1.86c-0.83,0.45-1.74,0.67-2.73,0.67c-0.72,0-1.4-0.09-2.03-0.28c-0.63-0.19-1.19-0.5-1.66-0.92
				c-0.47-0.43-0.84-0.99-1.11-1.69c-0.26-0.7-0.4-1.56-0.4-2.58V838.66z"/>
			<path class="st1" d="M820.22,832.98c0-1.04,0.52-1.56,1.56-1.56h1.79c1.04,0,1.56,0.52,1.56,1.56v13.12
				c0,0.55,0.08,0.92,0.24,1.11s0.36,0.3,0.58,0.34c0.34,0.04,0.62,0.16,0.82,0.37c0.21,0.21,0.31,0.53,0.31,0.97v1.39
				c0,0.49-0.12,0.88-0.37,1.17s-0.65,0.43-1.22,0.43c-0.62,0-1.25-0.06-1.89-0.17c-0.63-0.11-1.2-0.36-1.71-0.75
				c-0.5-0.39-0.91-0.95-1.22-1.68c-0.31-0.73-0.47-1.71-0.47-2.94V832.98z"/>
			<path class="st1" d="M828.8,848.63c0-1.04,0.52-1.56,1.56-1.56h1.53c1.04,0,1.56,0.52,1.56,1.56v1.53c0,1.04-0.52,1.56-1.56,1.56
				h-1.53c-1.04,0-1.56-0.52-1.56-1.56V848.63z"/>
			<path class="st1" d="M843.83,845.9l-0.17,0.09c-0.32,0.15-0.62,0.11-0.89-0.11c-0.28-0.23-0.41-0.65-0.41-1.28v-1.31
				c0-0.85,0.25-1.41,0.74-1.68l0.74-0.43v-8.21c0-1.04,0.52-1.56,1.56-1.56h1.85c1.04,0,1.56,0.52,1.56,1.56v5.37l1-0.57
				c0.55-0.32,1-0.38,1.35-0.17s0.53,0.62,0.53,1.25v1.31c0,0.83-0.36,1.46-1.08,1.88l-1.79,1.02v4.4h6.73
				c1.04,0,1.56,0.52,1.56,1.56v1.14c0,1.04-0.52,1.56-1.56,1.56h-10.14c-1.04,0-1.56-0.52-1.56-1.56V845.9z"/>
			<path class="st1" d="M858.17,838.66c0-1.04,0.52-1.56,1.56-1.56h1.79c1.04,0,1.56,0.52,1.56,1.56v7.02c0,0.68,0.13,1.17,0.4,1.48
				c0.26,0.3,0.65,0.46,1.17,0.46c0.53,0,0.99-0.11,1.38-0.33c0.39-0.22,0.71-0.51,0.97-0.88c0.26-0.37,0.44-0.79,0.57-1.28
				c0.12-0.48,0.18-1,0.18-1.55v-4.92c0-1.04,0.52-1.56,1.56-1.56h1.79c1.04,0,1.56,0.52,1.56,1.56v11.51
				c0,1.04-0.52,1.56-1.56,1.56h-1.59c-1.02,0-1.53-0.52-1.53-1.56v-0.26v-0.23c0-0.06,0.01-0.1,0.03-0.14h-0.06
				c-0.4,0.8-1.01,1.42-1.85,1.86c-0.83,0.45-1.74,0.67-2.73,0.67c-0.72,0-1.4-0.09-2.03-0.28c-0.63-0.19-1.19-0.5-1.66-0.92
				c-0.47-0.43-0.84-0.99-1.11-1.69c-0.26-0.7-0.4-1.56-0.4-2.58V838.66z"/>
			<path class="st1" d="M874.74,844.4c0-0.99,0.18-1.94,0.54-2.86c0.36-0.92,0.88-1.73,1.58-2.44s1.54-1.28,2.56-1.7
				c1.01-0.43,2.17-0.64,3.48-0.64c1.12,0,2.06,0.14,2.84,0.42s1.4,0.58,1.88,0.9c0.4,0.27,0.62,0.59,0.67,0.96
				c0.05,0.37-0.06,0.77-0.33,1.19l-0.48,0.74c-0.27,0.44-0.57,0.68-0.91,0.72c-0.34,0.05-0.74-0.04-1.19-0.27
				c-0.28-0.15-0.61-0.28-0.97-0.38c-0.36-0.1-0.76-0.16-1.19-0.16c-0.59,0-1.1,0.1-1.53,0.3c-0.44,0.2-0.8,0.46-1.09,0.79
				c-0.29,0.33-0.51,0.7-0.65,1.11c-0.14,0.41-0.21,0.84-0.21,1.27c0,0.43,0.08,0.86,0.23,1.3c0.15,0.43,0.38,0.82,0.68,1.16
				c0.3,0.34,0.68,0.62,1.14,0.83c0.46,0.22,1,0.32,1.62,0.32c0.49,0,0.97-0.08,1.42-0.26c0.46-0.17,0.86-0.36,1.22-0.57
				c0.47-0.26,0.88-0.36,1.24-0.28c0.35,0.08,0.65,0.35,0.89,0.82l0.37,0.71c0.21,0.44,0.28,0.84,0.23,1.2s-0.28,0.68-0.65,0.94
				c-0.51,0.34-1.2,0.69-2.07,1.03c-0.87,0.34-1.91,0.51-3.12,0.51c-1.31,0-2.47-0.21-3.48-0.62c-1.01-0.42-1.87-0.98-2.56-1.69
				s-1.22-1.53-1.58-2.46C874.92,846.37,874.74,845.4,874.74,844.4z"/>
			<path class="st1" d="M889.82,850.14c0-0.38,0.05-0.68,0.16-0.91s0.28-0.5,0.53-0.82l4.69-5.84c0.19-0.23,0.36-0.42,0.51-0.58
				c0.15-0.16,0.28-0.3,0.4-0.41c0.13-0.13,0.26-0.25,0.37-0.34v-0.06c-0.09,0.02-0.2,0.03-0.31,0.03
				c-0.09,0.02-0.22,0.03-0.38,0.03c-0.16,0-0.36,0-0.58,0h-3.58c-1.04,0-1.56-0.52-1.56-1.57v-1c0-1.05,0.52-1.57,1.56-1.57h9.94
				c1.04,0,1.56,0.41,1.56,1.22v0.37c0,0.38-0.05,0.68-0.16,0.91c-0.1,0.23-0.28,0.5-0.53,0.82l-4.66,5.88
				c-0.19,0.23-0.36,0.42-0.51,0.58s-0.28,0.3-0.4,0.41c-0.13,0.13-0.27,0.25-0.4,0.34v0.06c0.09,0,0.2-0.01,0.31-0.03
				c0.09-0.02,0.22-0.03,0.38-0.04c0.16-0.01,0.36-0.01,0.61-0.01h3.92c1.04,0,1.56,0.52,1.56,1.56v0.99c0,1.04-0.52,1.56-1.56,1.56
				h-10.31c-1.04,0-1.56-0.41-1.56-1.22V850.14z"/>
			<path class="st1" d="M904.42,844.4c0-1.08,0.17-2.08,0.53-3.01s0.85-1.73,1.51-2.42s1.45-1.22,2.4-1.62s2.01-0.6,3.18-0.6
				c1.08,0,2.04,0.18,2.88,0.54s1.55,0.85,2.13,1.48c0.58,0.62,1.01,1.36,1.31,2.22c0.29,0.85,0.44,1.77,0.44,2.75
				c0,0.38-0.15,0.74-0.45,1.09c-0.3,0.35-0.7,0.53-1.19,0.53h-7.7c0.19,0.9,0.61,1.55,1.25,1.97s1.36,0.62,2.16,0.62
				c0.49,0,0.97-0.07,1.42-0.2c0.45-0.13,0.87-0.29,1.25-0.48c0.47-0.21,0.88-0.27,1.22-0.2c0.34,0.08,0.63,0.34,0.88,0.8l0.4,0.74
				c0.23,0.44,0.3,0.84,0.23,1.22c-0.08,0.37-0.33,0.68-0.77,0.93c-0.53,0.31-1.22,0.6-2.06,0.89c-0.84,0.29-1.83,0.43-2.97,0.43
				c-1.31,0-2.46-0.22-3.47-0.65c-1-0.44-1.84-1.01-2.51-1.72c-0.67-0.71-1.18-1.53-1.53-2.46S904.42,845.36,904.42,844.4z
				 M913.94,842.55c0-0.61-0.18-1.12-0.54-1.55c-0.36-0.43-0.85-0.64-1.48-0.64c-0.72,0-1.26,0.22-1.62,0.65
				c-0.36,0.44-0.61,0.95-0.74,1.53H913.94z"/>
			<path class="st1" d="M920.84,832.98c0-1.04,0.52-1.56,1.56-1.56h1.79c1.04,0,1.56,0.52,1.56,1.56v8.95h1.39l2.27-3.78
				c0.4-0.7,1.01-1.05,1.85-1.05h1.88c0.64,0,1.06,0.18,1.25,0.54c0.19,0.36,0.11,0.8-0.23,1.33l-3.07,4.77v0.06l3.72,6.05
				c0.32,0.55,0.39,1,0.2,1.35s-0.61,0.53-1.25,0.53h-2.13c-0.81,0-1.43-0.37-1.85-1.11l-2.5-4.57h-1.53v4.12
				c0,1.04-0.52,1.56-1.56,1.56h-1.79c-1.04,0-1.56-0.52-1.56-1.56V832.98z"/>
			<path class="st1" d="M944.62,846.81c-1.04,0-1.56-0.52-1.56-1.56v-0.4c0-0.38,0.04-0.71,0.13-1.01c0.08-0.29,0.23-0.6,0.44-0.92
				l6.62-10.48c0.44-0.68,1.06-1.02,1.88-1.02h3.3c1.04,0,1.56,0.52,1.56,1.56v9.72h0.85c1.04,0,1.56,0.52,1.56,1.56v0.99
				c0,1.04-0.4,1.56-1.19,1.56h-1.22v3.35c0,1.04-0.52,1.56-1.56,1.56h-1.79c-1.04,0-1.56-0.52-1.56-1.56v-3.35H944.62z
				 M952.06,842.69v-4.54c0-0.27,0-0.54,0.01-0.82c0.01-0.28,0.03-0.53,0.07-0.74c0.02-0.25,0.05-0.48,0.09-0.71h-0.06
				c-0.09,0.25-0.19,0.49-0.28,0.74c-0.1,0.21-0.2,0.44-0.31,0.68c-0.11,0.25-0.25,0.47-0.4,0.68l-3.07,4.66v0.06H952.06z"/>
		</g>
	</g>
	<g>
		<path class="st7" d="M719.12,551.12v65.76c0,10.52,8.53,19.05,19.05,19.05h0l20.85,20.85l20.85-20.85h101.31
			c10.52,0,19.05-8.53,19.05-19.05v-65.76c0-10.52-8.53-19.05-19.05-19.05H738.16C727.64,532.08,719.12,540.6,719.12,551.12z"/>
		<g>
			<path class="st8" d="M715.84,546.7v65.76c0,10.52,8.53,19.05,19.05,19.05h0l20.85,20.85l20.85-20.85H877.9
				c10.52,0,19.05-8.53,19.05-19.05V546.7c0-10.52-8.53-19.05-19.05-19.05H734.89C724.37,527.65,715.84,536.18,715.84,546.7z"/>
			<path class="st6" d="M755.74,653.65l-21.23-21.24c-10.83-0.21-19.58-9.08-19.58-19.97V546.7c0-11.01,8.96-19.97,19.97-19.97
				H877.9c11.01,0,19.97,8.96,19.97,19.97v65.76c0,11.01-8.96,19.97-19.97,19.97H776.97L755.74,653.65z M734.89,528.57
				c-9.99,0-18.12,8.13-18.12,18.12v65.76c0,9.99,8.13,18.12,18.12,18.12h0.38l20.47,20.47l20.47-20.47h101.7
				c9.99,0,18.12-8.13,18.12-18.12V546.7c0-9.99-8.13-18.12-18.12-18.12H734.89z"/>
		</g>
		<g>
			<path class="st6" d="M758.02,576.87l7.76,9.1c1.07,1.26,2.96,1.41,4.22,0.33l0,0c1.26-1.07,1.41-2.96,0.33-4.22l-7.13-8.36
				l-5.32-13.11c-0.62-1.53-2.08-2.56-3.73-2.63l-4.96-0.2c-1.71-0.07-3.29,0.9-4,2.45l-6.28,13.62l-3.81,11.34
				c-0.53,1.57,0.32,3.26,1.88,3.79l0,0c1.57,0.53,3.26-0.32,3.79-1.88l3.7-11.03l1.26-2.73l-0.31,7.46l-1.5,16.62l-6.14,12.24
				c-0.74,1.48-0.14,3.27,1.33,4.01l0,0c1.48,0.74,3.27,0.14,4.01-1.33l6.65-13.26l1.27-14.11l3.8,12.52l4.01,14.22
				c0.45,1.59,2.1,2.51,3.69,2.07l0,0c1.59-0.45,2.51-2.1,2.07-3.69l-4.03-14.27l-4.65-15.32l0.33-7.97L758.02,576.87z"/>
			<circle class="st6" cx="754.34" cy="551.21" r="5.8"/>
		</g>
		<g>
			<path class="st6" d="M786.66,570.23c0-8.8,12.08-10.05,12.08-15.85c0-2.44-1.85-4.08-4.43-4.08c-2.23,0-3.7,1.43-4.36,2.27
				c-0.49,0.52-1.05,0.73-1.64,0.24l-0.63-0.49c-0.59-0.45-0.73-0.98-0.31-1.57c0.94-1.33,3.21-3.7,7.19-3.7
				c4.5,0,7.79,2.83,7.79,7.09c0,8.1-11.8,9.36-11.91,14.98h11.14c0.73,0,1.15,0.38,1.15,1.15v0.7c0,0.77-0.42,1.15-1.15,1.15
				h-13.69c-0.7,0-1.22-0.38-1.22-1.15V570.23z"/>
			<path class="st6" d="M815.67,555.6c0-0.77,0.42-1.15,1.15-1.15h0.98c0.77,0,1.15,0.38,1.15,1.15v1.57c0,0.52-0.1,1.01-0.1,1.01
				h0.07c0.87-2.06,3.35-4.15,6.14-4.15c2.97,0,4.68,1.36,5.31,4.02h0.07c0.94-2.06,3.39-4.02,6.25-4.02c4.01,0,5.83,2.27,5.83,6.77
				v10.16c0,0.77-0.38,1.15-1.15,1.15h-1.08c-0.73,0-1.15-0.38-1.15-1.15v-9.43c0-2.48-0.49-4.43-3.11-4.43
				c-3.28,0-5.24,3.39-5.24,6.77v7.09c0,0.77-0.38,1.15-1.12,1.15h-1.12c-0.73,0-1.12-0.38-1.12-1.15v-9.43
				c0-2.3-0.35-4.43-3.07-4.43c-3.35,0-5.31,3.49-5.31,6.77v7.09c0,0.77-0.38,1.15-1.15,1.15h-1.08c-0.73,0-1.15-0.38-1.15-1.15
				V555.6z"/>
			<path class="st6" d="M847.13,549.77v-1.15c0-0.77,0.38-1.15,1.15-1.15h1.19c0.73,0,1.15,0.38,1.15,1.15v1.15
				c0,0.73-0.42,1.15-1.15,1.15h-1.19C847.51,550.92,847.13,550.51,847.13,549.77z M847.17,555.6c0-0.77,0.42-1.15,1.15-1.15h1.08
				c0.77,0,1.15,0.38,1.15,1.15v15.36c0,0.77-0.38,1.15-1.15,1.15h-1.08c-0.73,0-1.15-0.38-1.15-1.15V555.6z"/>
			<path class="st6" d="M855.44,555.6c0-0.77,0.42-1.15,1.15-1.15h0.98c0.77,0,1.15,0.38,1.15,1.15v1.57c0,0.52-0.1,1.01-0.1,1.01
				h0.07c0.7-1.54,2.83-4.15,6.7-4.15c4.15,0,6.04,2.27,6.04,6.77v10.16c0,0.77-0.38,1.15-1.15,1.15h-1.08
				c-0.73,0-1.15-0.38-1.15-1.15v-9.39c0-2.48-0.49-4.43-3.32-4.43c-3.42,0-5.9,2.86-5.9,6.53v7.3c0,0.77-0.38,1.15-1.15,1.15h-1.08
				c-0.73,0-1.15-0.38-1.15-1.15V555.6z"/>
			<path class="st6" d="M875.8,569.6c0-0.77,0.38-1.15,1.15-1.15h1.33c0.77,0,1.15,0.38,1.15,1.15v1.36c0,0.77-0.38,1.15-1.15,1.15
				h-1.33c-0.77,0-1.15-0.38-1.15-1.15V569.6z"/>
			<path class="st6" d="M786.55,612.17c0-0.77,0.38-1.15,1.15-1.15H792v-15.92c0-0.77,0.03-1.5,0.03-1.5h-0.07
				c0,0-0.31,0.56-1.08,1.33l-1.57,1.54c-0.56,0.52-1.12,0.52-1.61-0.04l-0.49-0.49c-0.56-0.56-0.52-1.12,0-1.64l4.47-4.36
				c0.42-0.38,0.84-0.56,1.4-0.56h1.12c0.77,0,1.15,0.38,1.15,1.15v20.49h4.26c0.73,0,1.15,0.38,1.15,1.15v0.7
				c0,0.77-0.42,1.15-1.15,1.15h-11.9c-0.77,0-1.15-0.38-1.15-1.15V612.17z"/>
			<path class="st6" d="M803.45,610.18l0.56-0.77c0.45-0.59,0.98-0.59,1.57-0.14c0.77,0.73,2.23,1.89,4.54,1.89
				c2.9,0,5.41-1.99,5.41-4.99c0-2.97-2.44-5.06-5.62-5.06c-1.54,0-2.76,0.56-3.39,0.87c-0.56,0.21-1.05,0.25-1.54,0.07l-0.31-0.1
				c-0.59-0.25-0.91-0.7-0.84-1.36l1.05-10.12c0.07-0.73,0.45-1.08,1.19-1.08h10.19c0.77,0,1.15,0.38,1.15,1.15v0.7
				c0,0.73-0.38,1.15-1.15,1.15h-8.27l-0.59,5.2c-0.04,0.73-0.17,1.29-0.17,1.29h0.07c0,0,1.36-0.77,3.18-0.77
				c5.2,0,8.59,3.6,8.59,8.03c0,4.75-3.77,8.31-8.73,8.31c-3.53,0-5.76-1.71-6.77-2.69C803,611.29,803,610.7,803.45,610.18z"/>
			<path class="st6" d="M822.79,601.66c0-7.09,2.16-12.71,8.73-12.71c6.6,0,8.73,5.62,8.73,12.71c0,7.12-2.13,12.78-8.73,12.78
				C824.96,614.43,822.79,608.78,822.79,601.66z M836.69,601.66c0-5.34-1.12-9.53-5.17-9.53c-4.01,0-5.17,4.19-5.17,9.53
				c0,5.38,1.15,9.6,5.17,9.6C835.57,611.26,836.69,607.03,836.69,601.66z"/>
			<path class="st6" d="M853.55,597.5c0-0.77,0.42-1.15,1.15-1.15h0.98c0.77,0,1.15,0.38,1.15,1.15v1.57c0,0.52-0.1,1.01-0.1,1.01
				h0.07c0.87-2.06,3.35-4.16,6.14-4.16c2.97,0,4.68,1.36,5.31,4.02h0.07c0.94-2.06,3.39-4.02,6.25-4.02c4.01,0,5.83,2.27,5.83,6.77
				v10.16c0,0.77-0.38,1.15-1.15,1.15h-1.08c-0.73,0-1.15-0.38-1.15-1.15v-9.43c0-2.48-0.49-4.43-3.11-4.43
				c-3.28,0-5.24,3.39-5.24,6.77v7.09c0,0.77-0.38,1.15-1.12,1.15h-1.12c-0.73,0-1.12-0.38-1.12-1.15v-9.43
				c0-2.3-0.35-4.43-3.07-4.43c-3.35,0-5.31,3.49-5.31,6.77v7.09c0,0.77-0.38,1.15-1.15,1.15h-1.08c-0.73,0-1.15-0.38-1.15-1.15
				V597.5z"/>
		</g>
	</g>
	<g>
		<path class="st1" d="M88.04,542.9c0-1.25,0.62-1.87,1.87-1.87h8.23c1.18,0,2.26,0.2,3.23,0.61s1.81,0.99,2.5,1.73
			s1.23,1.63,1.62,2.65c0.39,1.02,0.58,2.14,0.58,3.37c0,1.22-0.19,2.35-0.58,3.38c-0.39,1.03-0.92,1.92-1.62,2.67
			c-0.69,0.75-1.52,1.33-2.5,1.75c-0.97,0.42-2.05,0.63-3.23,0.63h-4.15v5.64c0,1.25-0.62,1.87-1.87,1.87h-2.21
			c-1.25,0-1.87-0.62-1.87-1.87V542.9z M96.92,552.73c1.04,0,1.82-0.31,2.33-0.93c0.51-0.62,0.77-1.42,0.77-2.4
			c0-0.97-0.25-1.76-0.75-2.36s-1.25-0.9-2.24-0.9h-3.03v6.6H96.92z"/>
		<path class="st1" d="M106.57,560.41c0-1.18,0.31-2.15,0.94-2.92c0.62-0.77,1.42-1.38,2.4-1.84c0.97-0.45,2.04-0.77,3.2-0.95
			c1.16-0.18,2.28-0.27,3.37-0.27h0.51v-0.31c0-0.73-0.25-1.23-0.75-1.51c-0.5-0.28-1.08-0.42-1.73-0.42
			c-0.57,0-1.12,0.08-1.67,0.24c-0.54,0.16-1.04,0.34-1.5,0.54c-1.16,0.5-2,0.23-2.52-0.82l-0.41-0.85c-0.25-0.52-0.32-1-0.2-1.45
			c0.11-0.44,0.43-0.8,0.95-1.07c0.66-0.32,1.48-0.62,2.48-0.92c1-0.29,2.13-0.44,3.4-0.44c2.43,0,4.34,0.63,5.73,1.89
			c1.39,1.26,2.09,3.01,2.09,5.25v8.91c0,1.25-0.62,1.87-1.87,1.87h-1.63c-1.25,0-1.87-0.63-1.87-1.9v-0.14v-0.24
			c0-0.04,0.01-0.08,0.03-0.1h-0.07c-0.34,0.52-0.76,0.99-1.26,1.39c-0.43,0.36-0.98,0.69-1.63,0.97c-0.66,0.28-1.42,0.42-2.28,0.42
			c-0.84,0-1.61-0.14-2.31-0.41s-1.3-0.65-1.8-1.12c-0.5-0.48-0.89-1.04-1.17-1.7C106.71,561.86,106.57,561.16,106.57,560.41z
			 M112.39,559.87c0,0.41,0.14,0.76,0.43,1.05c0.28,0.29,0.7,0.44,1.24,0.44c0.43,0,0.83-0.1,1.19-0.29
			c0.36-0.19,0.68-0.44,0.95-0.73c0.27-0.29,0.48-0.62,0.63-0.99c0.15-0.36,0.22-0.72,0.22-1.09v-0.48h-0.54
			c-0.45,0-0.92,0.03-1.41,0.1c-0.49,0.07-0.93,0.18-1.33,0.34c-0.4,0.16-0.73,0.37-0.99,0.63
			C112.52,559.13,112.39,559.46,112.39,559.87z"/>
		<path class="st1" d="M126.05,549.7c0-1.25,0.62-1.87,1.87-1.87h1.9c1.25,0,1.87,0.62,1.87,1.87v1.09c0,0.16-0.01,0.29-0.02,0.41
			c-0.01,0.11-0.02,0.23-0.02,0.34c-0.02,0.11-0.03,0.23-0.03,0.34h0.07c0.14-0.45,0.35-0.93,0.65-1.43
			c0.29-0.5,0.65-0.95,1.05-1.36c0.41-0.41,0.87-0.75,1.38-1.02c0.51-0.27,1.04-0.41,1.58-0.41c0.59,0,1,0.16,1.24,0.48
			c0.24,0.32,0.36,0.78,0.36,1.39v1.9c0,1.25-0.62,1.87-1.87,1.87c-0.7,0-1.31,0.14-1.84,0.42c-0.52,0.28-0.95,0.66-1.29,1.14
			c-0.34,0.48-0.6,1.03-0.77,1.67s-0.25,1.3-0.25,2.01v4.93c0,1.25-0.62,1.87-1.87,1.87h-2.14c-1.25,0-1.87-0.62-1.87-1.87V549.7z"
			/>
		<path class="st1" d="M139.86,542.9c0-1.25,0.62-1.87,1.87-1.87h2.14c1.25,0,1.87,0.62,1.87,1.87v10.71h1.67l2.72-4.52
			c0.48-0.84,1.21-1.26,2.21-1.26h2.24c0.77,0,1.27,0.22,1.5,0.65c0.23,0.43,0.14,0.96-0.27,1.6l-3.67,5.71v0.07l4.45,7.24
			c0.39,0.66,0.46,1.2,0.24,1.62c-0.23,0.42-0.73,0.63-1.5,0.63h-2.55c-0.97,0-1.71-0.44-2.21-1.33l-2.99-5.47h-1.84v4.93
			c0,1.25-0.62,1.87-1.87,1.87h-2.14c-1.25,0-1.87-0.62-1.87-1.87V542.9z"/>
		<path class="st1" d="M159.07,549.7c0-1.25,0.62-1.87,1.87-1.87h2.14c1.25,0,1.87,0.62,1.87,1.87v13.77c0,1.25-0.62,1.87-1.87,1.87
			h-2.14c-1.25,0-1.87-0.62-1.87-1.87V549.7z M161.01,545.62c-1.25,0-1.87-0.62-1.87-1.87v-0.85c0-1.25,0.62-1.87,1.87-1.87h2.01
			c1.25,0,1.87,0.62,1.87,1.87v0.85c0,1.25-0.62,1.87-1.87,1.87H161.01z"/>
		<path class="st1" d="M168.42,549.7c0-1.25,0.62-1.87,1.87-1.87h1.9c1.22,0,1.84,0.62,1.84,1.87v0.31c0,0.05-0.01,0.09-0.02,0.14
			c-0.01,0.05-0.02,0.09-0.02,0.14v0.17h0.07c0.2-0.34,0.46-0.69,0.78-1.05c0.32-0.36,0.7-0.68,1.16-0.97
			c0.45-0.28,0.98-0.52,1.58-0.71c0.6-0.19,1.29-0.29,2.06-0.29c0.88,0,1.71,0.11,2.48,0.34c0.77,0.23,1.43,0.59,1.99,1.11
			c0.56,0.51,1,1.18,1.33,2.02c0.33,0.84,0.49,1.87,0.49,3.09v9.49c0,1.25-0.62,1.87-1.87,1.87h-2.14c-1.25,0-1.87-0.62-1.87-1.87
			v-8.4c0-0.82-0.16-1.41-0.48-1.77c-0.32-0.36-0.81-0.54-1.46-0.54c-0.66,0-1.22,0.12-1.7,0.37c-0.48,0.25-0.87,0.59-1.19,1.02
			c-0.32,0.43-0.55,0.93-0.7,1.5c-0.15,0.57-0.22,1.16-0.22,1.77v6.05c0,1.25-0.62,1.87-1.87,1.87h-2.14
			c-1.25,0-1.87-0.62-1.87-1.87V549.7z"/>
		<path class="st1" d="M190.96,568.17c0.23-0.59,0.52-0.97,0.88-1.14c0.36-0.17,0.86-0.15,1.5,0.05c0.43,0.14,0.89,0.25,1.38,0.34
			c0.49,0.09,1.07,0.14,1.75,0.14c0.54,0,1.07-0.06,1.56-0.17c0.5-0.11,0.94-0.29,1.31-0.54c0.37-0.25,0.67-0.58,0.9-1.01
			c0.23-0.43,0.34-0.96,0.34-1.62v-0.88v-0.41c0-0.09,0.01-0.17,0.03-0.24h-0.07c-0.48,0.7-1.05,1.24-1.72,1.6
			c-0.67,0.36-1.52,0.54-2.57,0.54c-1.34,0-2.51-0.25-3.52-0.75c-1.01-0.5-1.84-1.16-2.5-1.97c-0.66-0.82-1.15-1.75-1.48-2.8
			s-0.49-2.15-0.49-3.28c0-1.11,0.16-2.18,0.48-3.21c0.32-1.03,0.81-1.95,1.48-2.75c0.67-0.8,1.51-1.44,2.52-1.92
			c1.01-0.48,2.19-0.71,3.55-0.71c0.95,0,1.73,0.12,2.33,0.36c0.6,0.24,1.09,0.5,1.48,0.8c0.41,0.34,0.74,0.71,0.99,1.12h0.07
			c-0.02-0.02-0.03-0.06-0.03-0.1v-0.24v-0.07c0-0.41,0.16-0.75,0.48-1.04c0.32-0.28,0.78-0.42,1.39-0.42h1.6
			c1.25,0,1.87,0.62,1.87,1.87v14.04c0,1.61-0.29,2.96-0.88,4.06s-1.35,2-2.28,2.7c-0.93,0.7-1.97,1.21-3.11,1.51
			c-1.15,0.31-2.27,0.46-3.38,0.46c-1.02,0-2.01-0.09-2.97-0.26c-0.96-0.17-1.71-0.37-2.23-0.6c-1.11-0.46-1.45-1.27-1.02-2.43
			L190.96,568.17z M197.56,559.9c0.39,0,0.77-0.06,1.14-0.17s0.71-0.31,1.02-0.59c0.31-0.28,0.55-0.67,0.73-1.16
			c0.18-0.49,0.27-1.12,0.27-1.89c0-0.76-0.1-1.39-0.29-1.87c-0.19-0.48-0.44-0.87-0.75-1.15c-0.31-0.28-0.67-0.47-1.09-0.57
			s-0.84-0.15-1.27-0.15c-1.04,0-1.82,0.33-2.35,0.98s-0.78,1.48-0.78,2.49c0,0.54,0.07,1.06,0.2,1.55c0.14,0.49,0.34,0.93,0.61,1.3
			s0.62,0.67,1.04,0.89C196.46,559.79,196.97,559.9,197.56,559.9z"/>
		<path class="st1" d="M38.86,608.25c-1.13-2-2.01-4.16-2.64-6.49c-0.62-2.33-0.94-4.81-0.94-7.41c0-2.22,0.29-4.37,0.88-6.44
			c0.59-2.07,1.44-4.07,2.55-6c0.25-0.45,0.56-0.78,0.92-0.97c0.36-0.19,0.8-0.29,1.33-0.29h0.85c0.73,0,1.21,0.2,1.44,0.61
			c0.24,0.41,0.2,0.94-0.12,1.6c-0.86,1.84-1.52,3.71-1.97,5.63c-0.45,1.92-0.68,3.87-0.68,5.87c0,4.35,0.93,8.62,2.79,12.82
			c0.29,0.66,0.32,1.19,0.08,1.6c-0.24,0.41-0.72,0.61-1.45,0.61h-0.95c-0.52,0-0.95-0.09-1.27-0.26
			C39.37,608.95,39.09,608.66,38.86,608.25z"/>
		<path class="st1" d="M46.17,590.5c0-1.25,0.62-1.87,1.87-1.87h1.9c1.22,0,1.84,0.62,1.84,1.87v0.31c0,0.05-0.01,0.09-0.02,0.14
			c-0.01,0.05-0.02,0.09-0.02,0.14v0.17h0.07c0.2-0.34,0.46-0.69,0.78-1.05c0.32-0.36,0.7-0.68,1.16-0.97
			c0.45-0.28,0.98-0.52,1.58-0.71c0.6-0.19,1.29-0.29,2.06-0.29c0.88,0,1.71,0.11,2.48,0.34c0.77,0.23,1.43,0.59,1.99,1.11
			c0.56,0.51,1,1.18,1.33,2.02c0.33,0.84,0.49,1.87,0.49,3.09v9.49c0,1.25-0.62,1.87-1.87,1.87h-2.14c-1.25,0-1.87-0.62-1.87-1.87
			v-8.4c0-0.82-0.16-1.41-0.48-1.77c-0.32-0.36-0.81-0.54-1.46-0.54c-0.66,0-1.22,0.12-1.7,0.37c-0.48,0.25-0.87,0.59-1.19,1.02
			c-0.32,0.43-0.55,0.93-0.7,1.5c-0.15,0.57-0.22,1.16-0.22,1.77v6.05c0,1.25-0.62,1.87-1.87,1.87h-2.14
			c-1.25,0-1.87-0.62-1.87-1.87V590.5z"/>
		<path class="st1" d="M66.91,590.5c0-1.25,0.62-1.87,1.87-1.87h2.14c1.25,0,1.87,0.62,1.87,1.87v13.77c0,1.25-0.62,1.87-1.87,1.87
			h-2.14c-1.25,0-1.87-0.62-1.87-1.87V590.5z M68.85,586.42c-1.25,0-1.87-0.62-1.87-1.87v-0.85c0-1.25,0.62-1.87,1.87-1.87h2.01
			c1.25,0,1.87,0.62,1.87,1.87v0.85c0,1.25-0.62,1.87-1.87,1.87H68.85z"/>
		<path class="st1" d="M75.28,597.37c0-1.29,0.21-2.49,0.63-3.6s1.02-2.07,1.8-2.89c0.78-0.82,1.74-1.46,2.87-1.94
			c1.13-0.48,2.4-0.71,3.81-0.71c1.29,0,2.44,0.22,3.45,0.65c1.01,0.43,1.86,1.02,2.55,1.77s1.21,1.63,1.56,2.65
			c0.35,1.02,0.53,2.12,0.53,3.3c0,0.45-0.18,0.89-0.54,1.31c-0.36,0.42-0.84,0.63-1.43,0.63h-9.21c0.23,1.08,0.73,1.86,1.5,2.35
			c0.77,0.49,1.63,0.74,2.58,0.74c0.59,0,1.16-0.08,1.7-0.24s1.04-0.35,1.5-0.58c0.57-0.25,1.05-0.33,1.46-0.24
			c0.41,0.09,0.76,0.41,1.05,0.95l0.48,0.89c0.27,0.52,0.36,1.01,0.27,1.46c-0.09,0.45-0.4,0.82-0.92,1.11
			c-0.64,0.37-1.46,0.72-2.47,1.06c-1.01,0.34-2.19,0.51-3.55,0.51c-1.56,0-2.95-0.26-4.15-0.78c-1.2-0.52-2.21-1.21-3.01-2.06
			c-0.8-0.85-1.42-1.83-1.84-2.94C75.49,599.66,75.28,598.52,75.28,597.37z M86.67,595.16c0-0.72-0.22-1.34-0.65-1.85
			c-0.43-0.51-1.02-0.76-1.77-0.76c-0.86,0-1.51,0.26-1.94,0.78c-0.43,0.52-0.73,1.13-0.88,1.84H86.67z"/>
		<path class="st1" d="M94.89,604.95c-0.52-0.29-0.81-0.67-0.87-1.12c-0.06-0.45,0.07-0.94,0.39-1.46l0.51-0.78
			c0.34-0.5,0.71-0.78,1.1-0.85c0.4-0.07,0.89,0.03,1.48,0.31c0.43,0.18,0.92,0.38,1.46,0.59c0.54,0.22,1.17,0.32,1.87,0.32
			c0.59,0,1-0.1,1.24-0.29c0.24-0.19,0.36-0.43,0.36-0.7c0-0.34-0.2-0.61-0.61-0.82c-0.41-0.2-0.91-0.4-1.51-0.59
			c-0.6-0.19-1.26-0.41-1.97-0.65c-0.71-0.24-1.37-0.57-1.97-0.99c-0.6-0.42-1.1-0.96-1.51-1.63c-0.41-0.67-0.61-1.51-0.61-2.53
			c0-0.91,0.19-1.71,0.56-2.4c0.37-0.69,0.89-1.27,1.55-1.73c0.66-0.46,1.43-0.82,2.31-1.05c0.88-0.24,1.84-0.36,2.86-0.36
			c1.11,0,2.08,0.12,2.91,0.37c0.83,0.25,1.51,0.5,2.06,0.75c0.52,0.25,0.83,0.6,0.92,1.05c0.09,0.45,0.01,0.94-0.24,1.46
			l-0.41,0.82c-0.25,0.54-0.58,0.87-0.99,0.99c-0.41,0.11-0.91,0.06-1.5-0.17c-0.41-0.16-0.86-0.31-1.36-0.46
			c-0.5-0.15-1.04-0.22-1.63-0.22c-0.63,0-1.05,0.09-1.26,0.27c-0.2,0.18-0.31,0.4-0.31,0.65c0,0.34,0.2,0.61,0.61,0.8
			c0.41,0.19,0.91,0.39,1.51,0.58c0.6,0.19,1.26,0.4,1.97,0.63c0.71,0.23,1.37,0.55,1.97,0.97c0.6,0.42,1.1,0.95,1.51,1.6
			c0.41,0.65,0.61,1.48,0.61,2.5c0,0.82-0.16,1.58-0.49,2.28c-0.33,0.7-0.81,1.31-1.43,1.82c-0.62,0.51-1.38,0.91-2.28,1.21
			c-0.9,0.29-1.9,0.44-3.01,0.44c-1.31,0-2.46-0.18-3.43-0.53C96.3,605.67,95.51,605.31,94.89,604.95z"/>
		<path class="st1" d="M111.72,593.53h-0.51c-1.22,0-1.84-0.62-1.84-1.87v-0.85c0-1.25,0.62-1.87,1.87-1.87h0.65v-3.16
			c0-1.25,0.62-1.87,1.87-1.87h1.97c1.25,0,1.87,0.62,1.87,1.87v3.16h1.8c1.25,0,1.87,0.62,1.87,1.87v0.85
			c0,1.25-0.61,1.87-1.84,1.87h-1.84v5.3c0,0.75,0.21,1.29,0.63,1.61c0.42,0.33,0.89,0.53,1.41,0.6c0.68,0.09,1.16,0.26,1.44,0.51
			c0.28,0.25,0.42,0.7,0.42,1.36v1.53c0,0.7-0.2,1.19-0.61,1.46c-0.41,0.27-1.01,0.41-1.8,0.41c-0.66,0-1.41-0.09-2.24-0.27
			c-0.84-0.18-1.64-0.51-2.41-0.99c-0.77-0.48-1.42-1.13-1.94-1.96c-0.52-0.83-0.78-1.89-0.78-3.18V593.53z"/>
		<path class="st1" d="M124.1,590.5c0-1.25,0.62-1.87,1.87-1.87h1.9c1.25,0,1.87,0.62,1.87,1.87v1.09c0,0.16-0.01,0.29-0.02,0.41
			c-0.01,0.11-0.02,0.23-0.02,0.34c-0.02,0.11-0.03,0.23-0.03,0.34h0.07c0.14-0.45,0.35-0.93,0.65-1.43
			c0.29-0.5,0.65-0.95,1.05-1.36c0.41-0.41,0.87-0.75,1.38-1.02c0.51-0.27,1.04-0.41,1.58-0.41c0.59,0,1,0.16,1.24,0.48
			c0.24,0.32,0.36,0.78,0.36,1.39v1.9c0,1.25-0.62,1.87-1.87,1.87c-0.7,0-1.31,0.14-1.84,0.42c-0.52,0.28-0.95,0.66-1.29,1.14
			c-0.34,0.48-0.6,1.03-0.77,1.67s-0.25,1.3-0.25,2.01v4.93c0,1.25-0.62,1.87-1.87,1.87h-2.14c-1.25,0-1.87-0.62-1.87-1.87V590.5z"
			/>
		<path class="st1" d="M136.95,604.24c0-0.45,0.06-0.81,0.19-1.09c0.12-0.27,0.33-0.6,0.63-0.98l5.61-6.98
			c0.23-0.27,0.43-0.5,0.61-0.7c0.18-0.19,0.34-0.36,0.48-0.49c0.16-0.16,0.31-0.29,0.44-0.41v-0.07c-0.11,0.02-0.24,0.03-0.37,0.03
			c-0.11,0.02-0.27,0.03-0.46,0.03c-0.19,0-0.42,0-0.7,0h-4.28c-1.25,0-1.87-0.63-1.87-1.88v-1.2c0-1.25,0.62-1.88,1.87-1.88h11.9
			c1.25,0,1.87,0.49,1.87,1.46v0.44c0,0.45-0.06,0.82-0.19,1.09c-0.12,0.27-0.33,0.6-0.63,0.99l-5.58,7.04
			c-0.23,0.27-0.43,0.5-0.61,0.7c-0.18,0.19-0.34,0.36-0.48,0.49c-0.16,0.16-0.32,0.29-0.48,0.41v0.07c0.11,0,0.24-0.01,0.37-0.03
			c0.11-0.02,0.27-0.04,0.46-0.05c0.19-0.01,0.44-0.02,0.73-0.02h4.69c1.25,0,1.87,0.62,1.87,1.87v1.19c0,1.25-0.62,1.87-1.87,1.87
			h-12.34c-1.25,0-1.87-0.49-1.87-1.46V604.24z"/>
		<path class="st1" d="M154.43,597.37c0-1.29,0.21-2.49,0.63-3.6s1.02-2.07,1.8-2.89c0.78-0.82,1.74-1.46,2.87-1.94
			c1.13-0.48,2.4-0.71,3.81-0.71c1.29,0,2.44,0.22,3.45,0.65c1.01,0.43,1.86,1.02,2.55,1.77s1.21,1.63,1.56,2.65
			c0.35,1.02,0.53,2.12,0.53,3.3c0,0.45-0.18,0.89-0.54,1.31c-0.36,0.42-0.84,0.63-1.43,0.63h-9.21c0.23,1.08,0.73,1.86,1.5,2.35
			c0.77,0.49,1.63,0.74,2.58,0.74c0.59,0,1.16-0.08,1.7-0.24s1.04-0.35,1.5-0.58c0.57-0.25,1.05-0.33,1.46-0.24
			c0.41,0.09,0.76,0.41,1.05,0.95l0.48,0.89c0.27,0.52,0.36,1.01,0.27,1.46c-0.09,0.45-0.4,0.82-0.92,1.11
			c-0.64,0.37-1.46,0.72-2.47,1.06c-1.01,0.34-2.19,0.51-3.55,0.51c-1.56,0-2.95-0.26-4.15-0.78c-1.2-0.52-2.21-1.21-3.01-2.06
			c-0.8-0.85-1.42-1.83-1.84-2.94C154.64,599.66,154.43,598.52,154.43,597.37z M165.82,595.16c0-0.72-0.22-1.34-0.65-1.85
			c-0.43-0.51-1.02-0.76-1.77-0.76c-0.86,0-1.51,0.26-1.94,0.78c-0.43,0.52-0.73,1.13-0.88,1.84H165.82z"/>
		<path class="st1" d="M173.13,604.24c0-0.45,0.06-0.81,0.19-1.09c0.12-0.27,0.33-0.6,0.63-0.98l5.61-6.98
			c0.23-0.27,0.43-0.5,0.61-0.7c0.18-0.19,0.34-0.36,0.48-0.49c0.16-0.16,0.31-0.29,0.44-0.41v-0.07c-0.11,0.02-0.24,0.03-0.37,0.03
			c-0.11,0.02-0.27,0.03-0.46,0.03c-0.19,0-0.42,0-0.7,0h-4.28c-1.25,0-1.87-0.63-1.87-1.88v-1.2c0-1.25,0.62-1.88,1.87-1.88h11.9
			c1.25,0,1.87,0.49,1.87,1.46v0.44c0,0.45-0.06,0.82-0.19,1.09c-0.12,0.27-0.33,0.6-0.63,0.99l-5.58,7.04
			c-0.23,0.27-0.43,0.5-0.61,0.7c-0.18,0.19-0.34,0.36-0.48,0.49c-0.16,0.16-0.32,0.29-0.48,0.41v0.07c0.11,0,0.24-0.01,0.37-0.03
			c0.11-0.02,0.27-0.04,0.46-0.05c0.19-0.01,0.44-0.02,0.73-0.02h4.69c1.25,0,1.87,0.62,1.87,1.87v1.19c0,1.25-0.62,1.87-1.87,1.87
			H175c-1.25,0-1.87-0.49-1.87-1.46V604.24z M178.6,584.45v-0.75c0-1.25,0.62-1.87,1.87-1.87h1.12c1.25,0,1.87,0.62,1.87,1.87v0.75
			c0,1.25-0.62,1.87-1.87,1.87h-1.12C179.22,586.32,178.6,585.7,178.6,584.45z"/>
		<path class="st1" d="M190.6,597.44c0-1.38,0.26-2.64,0.78-3.77c0.52-1.13,1.23-2.1,2.12-2.91s1.94-1.43,3.15-1.87
			c1.2-0.44,2.48-0.66,3.84-0.66c1.38,0,2.68,0.22,3.89,0.66c1.21,0.44,2.27,1.07,3.16,1.87s1.6,1.77,2.12,2.91
			c0.52,1.13,0.78,2.39,0.78,3.77c0,1.36-0.26,2.6-0.78,3.72c-0.52,1.12-1.23,2.09-2.12,2.89s-1.94,1.42-3.15,1.85
			c-1.2,0.43-2.49,0.65-3.88,0.65c-1.38,0-2.67-0.22-3.88-0.65c-1.2-0.43-2.25-1.05-3.15-1.85s-1.6-1.77-2.12-2.89
			C190.86,600.04,190.6,598.8,190.6,597.44z M196.55,597.44c0,0.65,0.11,1.24,0.32,1.75c0.22,0.52,0.5,0.96,0.87,1.32
			c0.36,0.36,0.78,0.63,1.26,0.83s0.99,0.29,1.53,0.29c0.54,0,1.05-0.09,1.53-0.29s0.9-0.47,1.26-0.83c0.36-0.36,0.65-0.8,0.87-1.32
			c0.22-0.52,0.32-1.1,0.32-1.75s-0.11-1.24-0.32-1.77c-0.22-0.53-0.5-0.98-0.87-1.35c-0.36-0.37-0.78-0.66-1.26-0.86
			c-0.48-0.2-0.99-0.3-1.53-0.3c-0.54,0-1.05,0.1-1.53,0.3c-0.48,0.2-0.9,0.49-1.26,0.86c-0.36,0.37-0.65,0.82-0.87,1.35
			C196.66,596.19,196.55,596.78,196.55,597.44z"/>
		<path class="st1" d="M212.94,590.5c0-1.25,0.62-1.87,1.87-1.87h1.9c1.22,0,1.84,0.62,1.84,1.87v0.31c0,0.05-0.01,0.09-0.02,0.14
			c-0.01,0.05-0.02,0.09-0.02,0.14v0.17h0.07c0.2-0.34,0.46-0.69,0.78-1.05c0.32-0.36,0.7-0.68,1.16-0.97
			c0.45-0.28,0.98-0.52,1.58-0.71c0.6-0.19,1.29-0.29,2.06-0.29c0.88,0,1.71,0.11,2.48,0.34c0.77,0.23,1.43,0.59,1.99,1.11
			c0.56,0.51,1,1.18,1.33,2.02c0.33,0.84,0.49,1.87,0.49,3.09v9.49c0,1.25-0.62,1.87-1.87,1.87h-2.14c-1.25,0-1.87-0.62-1.87-1.87
			v-8.4c0-0.82-0.16-1.41-0.48-1.77c-0.32-0.36-0.81-0.54-1.46-0.54c-0.66,0-1.22,0.12-1.7,0.37c-0.48,0.25-0.87,0.59-1.19,1.02
			c-0.32,0.43-0.55,0.93-0.7,1.5c-0.15,0.57-0.22,1.16-0.22,1.77v6.05c0,1.25-0.62,1.87-1.87,1.87h-2.14
			c-1.25,0-1.87-0.62-1.87-1.87V590.5z"/>
		<path class="st1" d="M233.66,608.42c0.33-0.14,0.67-0.17,1.04-0.1c0.14,0.04,0.29,0.08,0.46,0.12c0.17,0.03,0.36,0.05,0.56,0.05
			c0.52,0,1-0.18,1.45-0.54c0.44-0.36,0.76-0.8,0.97-1.33l0.34-0.82l-6.49-14.99c-0.29-0.66-0.31-1.18-0.05-1.58
			s0.75-0.59,1.48-0.59h2.65c1.09,0,1.8,0.51,2.14,1.53l2.07,6.53c0.07,0.25,0.14,0.53,0.22,0.85c0.08,0.32,0.15,0.61,0.22,0.88
			c0.09,0.34,0.16,0.67,0.2,0.99h0.07c0.07-0.32,0.14-0.63,0.2-0.95c0.05-0.27,0.1-0.56,0.17-0.85c0.07-0.29,0.14-0.57,0.2-0.82
			l1.77-6.56c0.29-1.07,1-1.6,2.11-1.6h2.48c0.68,0,1.16,0.19,1.45,0.58c0.28,0.39,0.3,0.91,0.05,1.56l-6.39,17.24
			c-0.36,0.97-0.82,1.8-1.36,2.46c-0.54,0.67-1.14,1.21-1.79,1.63c-0.65,0.42-1.33,0.72-2.04,0.9c-0.71,0.18-1.42,0.27-2.12,0.27
			c-0.45,0-0.89-0.04-1.31-0.14s-0.8-0.19-1.14-0.31c-0.57-0.18-0.92-0.5-1.07-0.95c-0.15-0.45-0.1-0.95,0.15-1.5l0.44-0.99
			C233.04,608.88,233.33,608.55,233.66,608.42z"/>
		<path class="st1" d="M250.68,607.06c0.88-2.06,1.56-4.16,2.02-6.29c0.46-2.13,0.7-4.27,0.7-6.43c0-1.99-0.23-3.95-0.68-5.87
			c-0.45-1.92-1.11-3.79-1.97-5.63c-0.32-0.66-0.37-1.19-0.17-1.6c0.2-0.41,0.67-0.61,1.39-0.61h0.95c0.52,0,0.96,0.1,1.33,0.29
			c0.36,0.19,0.67,0.52,0.92,0.97c1.11,1.93,1.96,3.93,2.55,6c0.59,2.07,0.88,4.22,0.88,6.44c0,2.58-0.31,5.03-0.92,7.34
			c-0.61,2.31-1.46,4.45-2.55,6.43c-0.48,0.84-1.21,1.26-2.21,1.26h-0.92c-0.73,0-1.21-0.21-1.45-0.63
			C250.32,608.32,250.36,607.76,250.68,607.06z"/>
		<path class="st1" d="M34.85,638.17c0-1.38,0.2-2.63,0.6-3.76c0.4-1.12,0.95-2.08,1.65-2.89c0.7-0.8,1.55-1.42,2.53-1.85
			c0.99-0.43,2.06-0.65,3.21-0.65c0.88,0,1.61,0.09,2.19,0.27c0.58,0.18,1.05,0.39,1.41,0.61c0.41,0.25,0.74,0.53,0.99,0.85h0.07
			c-0.02-0.07-0.03-0.15-0.03-0.24v-0.54v-5.47c0-1.25,0.62-1.87,1.87-1.87h2.14c1.25,0,1.87,0.62,1.87,1.87v20.57
			c0,1.25-0.62,1.87-1.87,1.87h-1.77c-1.25,0-1.87-0.57-1.87-1.7v-0.2v-0.14c0-0.02,0.01-0.06,0.03-0.1H47.8
			c-0.32,0.48-0.71,0.91-1.19,1.29c-0.41,0.32-0.93,0.61-1.56,0.87c-0.63,0.26-1.41,0.39-2.31,0.39c-1.2,0-2.28-0.22-3.25-0.66
			c-0.96-0.44-1.79-1.07-2.48-1.89c-0.69-0.82-1.22-1.79-1.6-2.91S34.85,639.53,34.85,638.17z M40.77,638.15
			c0,1.32,0.32,2.37,0.95,3.16c0.63,0.79,1.46,1.18,2.48,1.18c0.43,0,0.86-0.08,1.27-0.26s0.79-0.43,1.1-0.79s0.57-0.8,0.77-1.35
			c0.19-0.55,0.29-1.19,0.29-1.95c0-0.52-0.07-1.04-0.2-1.54s-0.35-0.95-0.65-1.35c-0.29-0.4-0.66-0.72-1.09-0.96
			c-0.43-0.24-0.93-0.36-1.5-0.36c-0.93,0-1.73,0.36-2.41,1.08C41.11,635.75,40.77,636.79,40.77,638.15z"/>
		<path class="st1" d="M56.78,624.5c0-1.25,0.62-1.87,1.87-1.87h2.14c1.25,0,1.87,0.62,1.87,1.87v15.71c0,0.66,0.1,1.1,0.29,1.33
			c0.19,0.23,0.43,0.36,0.7,0.41c0.41,0.05,0.74,0.19,0.99,0.44c0.25,0.25,0.37,0.63,0.37,1.16v1.67c0,0.59-0.15,1.05-0.44,1.39
			c-0.29,0.34-0.78,0.51-1.46,0.51c-0.75,0-1.5-0.07-2.26-0.2c-0.76-0.14-1.44-0.44-2.04-0.9s-1.09-1.13-1.46-2.01
			c-0.37-0.87-0.56-2.04-0.56-3.52V624.5z"/>
		<path class="st1" d="M66.1,642.01c0-1.18,0.31-2.15,0.94-2.92c0.62-0.77,1.42-1.38,2.4-1.84c0.97-0.45,2.04-0.77,3.2-0.95
			c1.16-0.18,2.28-0.27,3.37-0.27h0.51v-0.31c0-0.73-0.25-1.23-0.75-1.51c-0.5-0.28-1.08-0.42-1.73-0.42
			c-0.57,0-1.12,0.08-1.67,0.24c-0.54,0.16-1.04,0.34-1.5,0.54c-1.16,0.5-2,0.23-2.52-0.82l-0.41-0.85c-0.25-0.52-0.32-1-0.2-1.45
			c0.11-0.44,0.43-0.8,0.95-1.07c0.66-0.32,1.48-0.62,2.48-0.92c1-0.29,2.13-0.44,3.4-0.44c2.43,0,4.34,0.63,5.73,1.89
			c1.39,1.26,2.09,3.01,2.09,5.25v8.91c0,1.25-0.62,1.87-1.87,1.87h-1.63c-1.25,0-1.87-0.63-1.87-1.9v-0.14v-0.24
			c0-0.04,0.01-0.08,0.03-0.1h-0.07c-0.34,0.52-0.76,0.99-1.26,1.39c-0.43,0.36-0.98,0.69-1.63,0.97c-0.66,0.28-1.42,0.42-2.28,0.42
			c-0.84,0-1.61-0.14-2.31-0.41s-1.3-0.65-1.8-1.12c-0.5-0.48-0.89-1.04-1.17-1.7C66.24,643.46,66.1,642.76,66.1,642.01z
			 M71.91,641.47c0,0.41,0.14,0.76,0.43,1.05c0.28,0.29,0.7,0.44,1.24,0.44c0.43,0,0.83-0.1,1.19-0.29
			c0.36-0.19,0.68-0.44,0.95-0.73c0.27-0.29,0.48-0.62,0.63-0.99c0.15-0.36,0.22-0.72,0.22-1.09v-0.48h-0.54
			c-0.45,0-0.92,0.03-1.41,0.1c-0.49,0.07-0.93,0.18-1.33,0.34c-0.4,0.16-0.73,0.37-0.99,0.63
			C72.04,640.72,71.91,641.06,71.91,641.47z"/>
		<path class="st1" d="M94.69,624.5c0-1.25,0.62-1.87,1.87-1.87h8.23c1.18,0,2.26,0.2,3.23,0.61s1.81,0.99,2.5,1.73
			s1.23,1.63,1.62,2.65c0.39,1.02,0.58,2.14,0.58,3.37c0,1.22-0.19,2.35-0.58,3.38c-0.39,1.03-0.92,1.92-1.62,2.67
			c-0.69,0.75-1.52,1.33-2.5,1.75c-0.97,0.42-2.05,0.63-3.23,0.63h-4.15v5.64c0,1.25-0.62,1.87-1.87,1.87h-2.21
			c-1.25,0-1.87-0.62-1.87-1.87V624.5z M103.56,634.33c1.04,0,1.82-0.31,2.33-0.93c0.51-0.62,0.77-1.42,0.77-2.4
			c0-0.97-0.25-1.76-0.75-2.36s-1.25-0.9-2.24-0.9h-3.03v6.6H103.56z"/>
		<path class="st1" d="M113.22,642.01c0-1.18,0.31-2.15,0.94-2.92c0.62-0.77,1.42-1.38,2.4-1.84c0.97-0.45,2.04-0.77,3.2-0.95
			c1.16-0.18,2.28-0.27,3.37-0.27h0.51v-0.31c0-0.73-0.25-1.23-0.75-1.51c-0.5-0.28-1.08-0.42-1.73-0.42
			c-0.57,0-1.12,0.08-1.67,0.24c-0.54,0.16-1.04,0.34-1.5,0.54c-1.16,0.5-2,0.23-2.52-0.82l-0.41-0.85c-0.25-0.52-0.32-1-0.2-1.45
			c0.11-0.44,0.43-0.8,0.95-1.07c0.66-0.32,1.48-0.62,2.48-0.92c1-0.29,2.13-0.44,3.4-0.44c2.43,0,4.34,0.63,5.73,1.89
			c1.39,1.26,2.09,3.01,2.09,5.25v8.91c0,1.25-0.62,1.87-1.87,1.87H126c-1.25,0-1.87-0.63-1.87-1.9v-0.14v-0.24
			c0-0.04,0.01-0.08,0.03-0.1h-0.07c-0.34,0.52-0.76,0.99-1.26,1.39c-0.43,0.36-0.98,0.69-1.63,0.97c-0.66,0.28-1.42,0.42-2.28,0.42
			c-0.84,0-1.61-0.14-2.31-0.41s-1.3-0.65-1.8-1.12c-0.5-0.48-0.89-1.04-1.17-1.7C113.36,643.46,113.22,642.76,113.22,642.01z
			 M119.03,641.47c0,0.41,0.14,0.76,0.43,1.05c0.28,0.29,0.7,0.44,1.24,0.44c0.43,0,0.83-0.1,1.19-0.29
			c0.36-0.19,0.68-0.44,0.95-0.73c0.27-0.29,0.48-0.62,0.63-0.99c0.15-0.36,0.22-0.72,0.22-1.09v-0.48h-0.54
			c-0.45,0-0.92,0.03-1.41,0.1c-0.49,0.07-0.93,0.18-1.33,0.34c-0.4,0.16-0.73,0.37-0.99,0.63
			C119.16,640.72,119.03,641.06,119.03,641.47z"/>
		<path class="st1" d="M131.72,638.17c0-1.18,0.22-2.32,0.65-3.42c0.43-1.1,1.06-2.07,1.89-2.92c0.83-0.85,1.85-1.53,3.06-2.04
			c1.21-0.51,2.6-0.76,4.17-0.76c1.34,0,2.47,0.17,3.4,0.5c0.93,0.33,1.68,0.69,2.24,1.08c0.48,0.32,0.74,0.7,0.8,1.15
			c0.06,0.45-0.07,0.92-0.39,1.42l-0.58,0.89c-0.32,0.52-0.68,0.81-1.09,0.87c-0.41,0.06-0.88-0.05-1.43-0.32
			c-0.34-0.18-0.73-0.33-1.16-0.46c-0.43-0.12-0.91-0.19-1.43-0.19c-0.7,0-1.31,0.12-1.84,0.35c-0.52,0.24-0.96,0.55-1.31,0.94
			c-0.35,0.39-0.61,0.84-0.78,1.33c-0.17,0.5-0.25,1-0.25,1.52c0,0.52,0.09,1.04,0.27,1.55c0.18,0.52,0.45,0.98,0.82,1.38
			c0.36,0.41,0.82,0.74,1.36,1c0.54,0.26,1.19,0.39,1.94,0.39c0.59,0,1.16-0.1,1.7-0.31s1.03-0.43,1.46-0.68
			c0.57-0.32,1.06-0.43,1.48-0.34c0.42,0.09,0.78,0.42,1.07,0.99l0.44,0.85c0.25,0.52,0.34,1,0.27,1.44
			c-0.07,0.43-0.33,0.81-0.78,1.13c-0.61,0.41-1.44,0.82-2.48,1.23c-1.04,0.41-2.29,0.62-3.74,0.62c-1.56,0-2.95-0.25-4.17-0.75
			c-1.21-0.5-2.23-1.17-3.06-2.02c-0.83-0.85-1.46-1.83-1.89-2.94C131.93,640.53,131.72,639.37,131.72,638.17z"/>
		<path class="st1" d="M150.72,631.3c0-1.25,0.62-1.87,1.87-1.87h2.14c1.25,0,1.87,0.62,1.87,1.87v15.95c0,0.95-0.14,1.78-0.42,2.48
			c-0.28,0.7-0.65,1.3-1.09,1.8c-0.44,0.5-0.94,0.91-1.48,1.22c-0.54,0.32-1.09,0.57-1.63,0.76c-0.54,0.19-1.05,0.32-1.53,0.39
			c-0.48,0.07-0.86,0.1-1.16,0.1h-0.61c-1.25,0-1.87-0.62-1.87-1.87v-1.29c0-0.36,0.06-0.66,0.17-0.9c0.11-0.24,0.26-0.42,0.43-0.54
			c0.17-0.12,0.37-0.22,0.59-0.27c0.23-0.06,0.45-0.11,0.68-0.15c0.23-0.02,0.46-0.07,0.7-0.15c0.24-0.08,0.46-0.2,0.66-0.36
			c0.2-0.16,0.37-0.37,0.49-0.63c0.12-0.26,0.19-0.61,0.19-1.04V631.3z M152.66,627.22c-1.25,0-1.87-0.62-1.87-1.87v-0.85
			c0-1.25,0.62-1.87,1.87-1.87h2.01c1.25,0,1.87,0.62,1.87,1.87v0.85c0,1.25-0.62,1.87-1.87,1.87H152.66z"/>
		<path class="st1" d="M159.12,638.17c0-1.29,0.21-2.49,0.63-3.6s1.02-2.07,1.8-2.89c0.78-0.82,1.74-1.46,2.87-1.94
			c1.13-0.48,2.4-0.71,3.81-0.71c1.29,0,2.44,0.22,3.45,0.65c1.01,0.43,1.86,1.02,2.55,1.77s1.21,1.63,1.56,2.65
			c0.35,1.02,0.53,2.12,0.53,3.3c0,0.45-0.18,0.89-0.54,1.31c-0.36,0.42-0.84,0.63-1.43,0.63h-9.21c0.23,1.08,0.73,1.86,1.5,2.35
			c0.77,0.49,1.63,0.74,2.58,0.74c0.59,0,1.16-0.08,1.7-0.24s1.04-0.35,1.5-0.58c0.57-0.25,1.05-0.33,1.46-0.24
			c0.41,0.09,0.76,0.41,1.05,0.95l0.48,0.89c0.27,0.52,0.36,1.01,0.27,1.46c-0.09,0.45-0.4,0.82-0.92,1.11
			c-0.64,0.37-1.46,0.72-2.47,1.06c-1.01,0.34-2.19,0.51-3.55,0.51c-1.56,0-2.95-0.26-4.15-0.78c-1.2-0.52-2.21-1.21-3.01-2.06
			c-0.8-0.85-1.42-1.83-1.84-2.94C159.33,640.46,159.12,639.32,159.12,638.17z M170.51,635.96c0-0.72-0.22-1.34-0.65-1.85
			c-0.43-0.51-1.02-0.76-1.77-0.76c-0.86,0-1.51,0.26-1.94,0.78c-0.43,0.52-0.73,1.13-0.88,1.84H170.51z"/>
		<path class="st1" d="M178.74,631.3c0-1.25,0.62-1.87,1.87-1.87h1.9c1.22,0,1.84,0.62,1.84,1.87v0.31c0,0.05-0.01,0.09-0.02,0.14
			c-0.01,0.05-0.02,0.09-0.02,0.14v0.17h0.07c0.2-0.34,0.46-0.69,0.78-1.05c0.32-0.36,0.7-0.68,1.16-0.97
			c0.45-0.28,0.98-0.52,1.58-0.71c0.6-0.19,1.29-0.29,2.06-0.29c0.88,0,1.71,0.11,2.48,0.34c0.77,0.23,1.43,0.59,1.99,1.11
			c0.56,0.51,1,1.18,1.33,2.02c0.33,0.84,0.49,1.87,0.49,3.09v9.49c0,1.25-0.62,1.87-1.87,1.87h-2.14c-1.25,0-1.87-0.62-1.87-1.87
			v-8.4c0-0.82-0.16-1.41-0.48-1.77c-0.32-0.36-0.81-0.54-1.46-0.54c-0.66,0-1.22,0.12-1.7,0.37c-0.48,0.25-0.87,0.59-1.19,1.02
			c-0.32,0.43-0.55,0.93-0.7,1.5c-0.15,0.57-0.22,1.16-0.22,1.77v6.05c0,1.25-0.62,1.87-1.87,1.87h-2.14
			c-1.25,0-1.87-0.62-1.87-1.87V631.3z"/>
		<path class="st1" d="M200.5,634.33h-0.51c-1.22,0-1.84-0.62-1.84-1.87v-0.85c0-1.25,0.62-1.87,1.87-1.87h0.65v-3.16
			c0-1.25,0.62-1.87,1.87-1.87h1.97c1.25,0,1.87,0.62,1.87,1.87v3.16h1.8c1.25,0,1.87,0.62,1.87,1.87v0.85
			c0,1.25-0.61,1.87-1.84,1.87h-1.84v5.3c0,0.75,0.21,1.29,0.63,1.61c0.42,0.33,0.89,0.53,1.41,0.6c0.68,0.09,1.16,0.26,1.44,0.51
			c0.28,0.25,0.42,0.7,0.42,1.36v1.53c0,0.7-0.2,1.19-0.61,1.46c-0.41,0.27-1.01,0.41-1.8,0.41c-0.66,0-1.41-0.09-2.24-0.27
			c-0.84-0.18-1.64-0.51-2.41-0.99c-0.77-0.48-1.42-1.13-1.94-1.96c-0.52-0.83-0.78-1.89-0.78-3.18V634.33z"/>
		<path class="st1" d="M211.65,638.24c0-1.38,0.26-2.64,0.78-3.77c0.52-1.13,1.23-2.1,2.12-2.91s1.94-1.43,3.15-1.87
			c1.2-0.44,2.48-0.66,3.84-0.66c1.38,0,2.68,0.22,3.89,0.66c1.21,0.44,2.27,1.07,3.16,1.87s1.6,1.77,2.12,2.91
			c0.52,1.13,0.78,2.39,0.78,3.77c0,1.36-0.26,2.6-0.78,3.72c-0.52,1.12-1.23,2.09-2.12,2.89s-1.94,1.42-3.15,1.85
			c-1.2,0.43-2.49,0.65-3.88,0.65c-1.38,0-2.67-0.22-3.88-0.65c-1.2-0.43-2.25-1.05-3.15-1.85s-1.6-1.77-2.12-2.89
			C211.91,640.84,211.65,639.6,211.65,638.24z M217.6,638.24c0,0.65,0.11,1.24,0.32,1.75c0.22,0.52,0.5,0.96,0.87,1.32
			c0.36,0.36,0.78,0.63,1.26,0.83s0.99,0.29,1.53,0.29c0.54,0,1.05-0.09,1.53-0.29s0.9-0.47,1.26-0.83c0.36-0.36,0.65-0.8,0.87-1.32
			c0.22-0.52,0.32-1.1,0.32-1.75s-0.11-1.24-0.32-1.77c-0.22-0.53-0.5-0.98-0.87-1.35c-0.36-0.37-0.78-0.66-1.26-0.86
			c-0.48-0.2-0.99-0.3-1.53-0.3c-0.54,0-1.05,0.1-1.53,0.3c-0.48,0.2-0.9,0.49-1.26,0.86c-0.36,0.37-0.65,0.82-0.87,1.35
			C217.71,636.99,217.6,637.58,217.6,638.24z M220.05,627.12c-0.2-0.41-0.15-0.89,0.17-1.46l0.95-1.7c0.5-0.88,1.23-1.33,2.21-1.33
			h1.56c0.79,0,1.27,0.23,1.44,0.68c0.17,0.45,0.01,0.99-0.49,1.6l-1.33,1.7c-0.59,0.75-1.35,1.12-2.28,1.12h-0.99
			C220.67,627.73,220.25,627.53,220.05,627.12z"/>
		<path class="st1" d="M232.66,631.54c-0.18-0.66-0.12-1.17,0.17-1.55s0.77-0.56,1.43-0.56h2.31c1.13,0,1.81,0.56,2.04,1.67
			l1.84,8.67c0.04,0.25,0.08,0.48,0.1,0.7c0.02,0.21,0.04,0.41,0.07,0.59c0.02,0.2,0.03,0.39,0.03,0.54h0.07
			c0.02-0.16,0.05-0.34,0.07-0.54c0.02-0.18,0.05-0.38,0.08-0.59c0.03-0.22,0.08-0.45,0.15-0.7l2.04-8.7
			c0.23-1.09,0.91-1.63,2.04-1.63h1.7c1.11,0,1.79,0.54,2.04,1.63l2.04,8.7c0.05,0.25,0.09,0.48,0.14,0.7
			c0.04,0.21,0.08,0.41,0.1,0.59c0.02,0.2,0.03,0.39,0.03,0.54h0.07c0-0.16,0.01-0.34,0.03-0.54c0.02-0.18,0.05-0.38,0.08-0.59
			c0.03-0.22,0.07-0.45,0.12-0.7l1.84-8.67c0.23-1.11,0.91-1.67,2.04-1.67h2.24c0.66,0,1.13,0.19,1.43,0.56
			c0.29,0.37,0.35,0.89,0.17,1.55l-3.88,13.8c-0.29,1.07-0.99,1.6-2.07,1.6h-3.26c-1.11,0-1.8-0.54-2.07-1.63l-1.56-6.46
			c-0.07-0.25-0.12-0.48-0.15-0.7c-0.03-0.21-0.07-0.41-0.12-0.59c-0.05-0.2-0.07-0.4-0.07-0.58h-0.07c0,0.18-0.02,0.37-0.07,0.58
			c-0.05,0.18-0.09,0.38-0.14,0.59c-0.05,0.22-0.09,0.45-0.14,0.7l-1.56,6.46c-0.27,1.09-0.96,1.63-2.07,1.63h-3.33
			c-1.09,0-1.78-0.53-2.07-1.6L232.66,631.54z"/>
		<path class="st1" d="M76.21,672.72c0-0.79,0.4-1.19,1.19-1.19h8.1c4.64,0,7.96,3.13,7.96,7.96s-3.31,8.06-7.96,8.06h-5.76v8.21
			c0,0.79-0.4,1.19-1.19,1.19h-1.15c-0.79,0-1.19-0.4-1.19-1.19V672.72z M84.92,684.45c3.06,0,4.93-1.91,4.93-4.97
			s-1.87-4.86-4.9-4.86h-5.22v9.83H84.92z"/>
		<path class="st1" d="M105.22,678.3c5.44,0,9.83,4,9.83,9.5c0,5.54-4.39,9.57-9.83,9.57c-5.44,0-9.79-4.03-9.79-9.57
			C95.43,682.29,99.79,678.3,105.22,678.3z M105.22,694.35c3.46,0,6.26-2.74,6.26-6.55c0-3.78-2.81-6.48-6.26-6.48
			c-3.42,0-6.26,2.7-6.26,6.48C98.96,691.61,101.8,694.35,105.22,694.35z"/>
		<path class="st1" d="M118.9,679.92c0-0.79,0.43-1.19,1.19-1.19h1.01c0.79,0,1.19,0.4,1.19,1.19v1.62c0,0.54-0.11,1.04-0.11,1.04
			h0.07c0.72-1.58,2.92-4.28,6.91-4.28c4.28,0,6.23,2.34,6.23,6.98v10.47c0,0.79-0.4,1.19-1.19,1.19h-1.12
			c-0.76,0-1.19-0.4-1.19-1.19v-9.68c0-2.56-0.5-4.57-3.42-4.57c-3.53,0-6.08,2.95-6.08,6.73v7.52c0,0.79-0.4,1.19-1.19,1.19h-1.12
			c-0.76,0-1.19-0.4-1.19-1.19V679.92z"/>
		<path class="st1" d="M139.89,694.35c0-0.79,0.4-1.19,1.19-1.19h1.37c0.79,0,1.19,0.4,1.19,1.19v1.4c0,0.79-0.4,1.19-1.19,1.19
			h-1.37c-0.79,0-1.19-0.4-1.19-1.19V694.35z"/>
		<path class="st1" d="M157.17,687.04v-0.72c0-0.76,0.43-1.19,1.19-1.19h8.13c0.79,0,1.19,0.43,1.19,1.19v0.72
			c0,0.79-0.4,1.19-1.19,1.19h-8.13C157.6,688.23,157.17,687.83,157.17,687.04z"/>
		<path class="st1" d="M182.23,672.72c0-0.79,0.4-1.19,1.19-1.19h8.1c4.64,0,7.96,3.13,7.96,7.96s-3.31,8.06-7.96,8.06h-5.76v8.21
			c0,0.79-0.4,1.19-1.19,1.19h-1.15c-0.79,0-1.19-0.4-1.19-1.19V672.72z M190.94,684.45c3.06,0,4.93-1.91,4.93-4.97
			s-1.87-4.86-4.9-4.86h-5.22v9.83H190.94z"/>
		<path class="st1" d="M203.83,681.75h-1.26c-0.76,0-1.15-0.43-1.15-1.19v-0.47c0-0.76,0.4-1.19,1.19-1.19h1.3v-4
			c0-0.79,0.43-1.19,1.19-1.19h1.04c0.79,0,1.19,0.4,1.19,1.19v4h3.17c0.79,0,1.19,0.43,1.19,1.19v0.47c0,0.76-0.4,1.19-1.15,1.19
			h-3.2v8.1c0,3.46,2.12,4,3.46,4.1c0.94,0.07,1.26,0.36,1.26,1.19v0.76c0,0.83-0.47,1.19-1.44,1.19c-3.6,0-6.77-2.09-6.77-6.69
			V681.75z"/>
		<path class="st1" d="M214.99,694.35c0-0.79,0.4-1.19,1.19-1.19h1.37c0.79,0,1.19,0.4,1.19,1.19v1.4c0,0.79-0.4,1.19-1.19,1.19
			h-1.37c-0.79,0-1.19-0.4-1.19-1.19V694.35z"/>
		<path class="st1" d="M27.17,732.17c0-1,0.18-1.92,0.54-2.75c0.36-0.83,0.77-1.58,1.25-2.24s0.96-1.21,1.46-1.66
			c0.5-0.44,0.9-0.78,1.18-1.01c-0.97-0.75-1.76-1.6-2.34-2.56c-0.59-0.96-0.88-2.13-0.88-3.5c0-1.06,0.21-2.12,0.62-3.18
			c0.42-1.06,1.04-2,1.87-2.82c0.83-0.82,1.89-1.48,3.18-2c1.29-0.52,2.81-0.77,4.56-0.77c1.49,0,2.88,0.19,4.17,0.58
			s2.41,0.95,3.38,1.7c0.96,0.75,1.72,1.65,2.28,2.71c0.56,1.06,0.84,2.25,0.84,3.57c0,0.89-0.13,1.73-0.39,2.52
			c-0.26,0.79-0.56,1.5-0.9,2.13c-0.34,0.63-0.7,1.17-1.05,1.61c-0.36,0.44-0.64,0.78-0.84,1.01c1.17,0.75,2.14,1.66,2.88,2.75
			c0.75,1.09,1.12,2.39,1.12,3.91c0,1.15-0.24,2.27-0.71,3.38c-0.47,1.1-1.19,2.09-2.15,2.97c-0.96,0.88-2.16,1.58-3.59,2.13
			c-1.43,0.54-3.1,0.82-4.99,0.82c-1.89,0-3.55-0.26-4.97-0.79s-2.62-1.23-3.59-2.11c-0.98-0.87-1.71-1.87-2.19-2.99
			C27.41,734.45,27.17,733.32,27.17,732.17z M34.69,731.31c0,1.09,0.37,1.98,1.1,2.67c0.73,0.69,1.71,1.03,2.95,1.03
			c1.06,0,1.94-0.28,2.62-0.84s1.03-1.31,1.03-2.26c0-0.49-0.13-0.91-0.39-1.27c-0.26-0.36-0.64-0.7-1.14-1.03
			c-0.5-0.33-1.12-0.65-1.85-0.97s-1.58-0.69-2.56-1.12c-0.4,0.4-0.8,0.91-1.18,1.53C34.89,729.67,34.69,730.42,34.69,731.31z
			 M40.88,722.92c0.26-0.4,0.51-0.9,0.75-1.51c0.24-0.6,0.37-1.33,0.37-2.19c0-1-0.29-1.77-0.86-2.3c-0.57-0.53-1.39-0.79-2.45-0.79
			c-1.06,0-1.82,0.24-2.28,0.71c-0.46,0.47-0.69,1.07-0.69,1.78c0,1.06,0.47,1.89,1.42,2.47C38.09,721.68,39.34,722.29,40.88,722.92
			z"/>
		<path class="st1" d="M53.78,736.25c0-1.58,0.79-2.37,2.36-2.37h2.32c1.58,0,2.36,0.79,2.36,2.37v2.32c0,1.58-0.79,2.37-2.36,2.37
			h-2.32c-1.58,0-2.36-0.79-2.36-2.37V736.25z"/>
		<path class="st1" d="M76.23,741.46c-2.18,0-4.01-0.42-5.48-1.25c-1.48-0.83-2.67-1.97-3.57-3.42c-0.9-1.45-1.55-3.14-1.94-5.07
			c-0.39-1.93-0.58-4.01-0.58-6.21c0-2.21,0.19-4.27,0.58-6.19c0.39-1.92,1.03-3.6,1.94-5.03c0.9-1.43,2.09-2.56,3.57-3.38
			c1.48-0.82,3.3-1.23,5.48-1.23c2.18,0,4.01,0.41,5.48,1.23c1.48,0.82,2.67,1.94,3.57,3.38c0.9,1.43,1.55,3.11,1.93,5.03
			c0.39,1.92,0.58,3.98,0.58,6.19c0,2.21-0.19,4.28-0.58,6.21c-0.39,1.94-1.03,3.63-1.93,5.07c-0.9,1.45-2.09,2.59-3.57,3.42
			C80.24,741.04,78.41,741.46,76.23,741.46z M76.23,734.58c0.75,0,1.36-0.24,1.85-0.71c0.49-0.47,0.88-1.12,1.18-1.94
			c0.3-0.82,0.51-1.78,0.62-2.88c0.11-1.1,0.17-2.29,0.17-3.55c0-1.23-0.06-2.39-0.17-3.48c-0.12-1.09-0.32-2.04-0.62-2.86
			c-0.3-0.82-0.7-1.46-1.18-1.91c-0.49-0.46-1.1-0.69-1.85-0.69c-0.75,0-1.36,0.23-1.85,0.69c-0.49,0.46-0.88,1.1-1.18,1.91
			c-0.3,0.82-0.51,1.77-0.62,2.86c-0.12,1.09-0.17,2.25-0.17,3.48c0,1.26,0.06,2.44,0.17,3.55c0.11,1.1,0.32,2.06,0.62,2.88
			c0.3,0.82,0.69,1.46,1.18,1.94C74.87,734.34,75.48,734.58,76.23,734.58z"/>
		<path class="st1" d="M103.23,741.46c-2.18,0-4.01-0.42-5.48-1.25c-1.48-0.83-2.67-1.97-3.57-3.42c-0.9-1.45-1.55-3.14-1.94-5.07
			c-0.39-1.93-0.58-4.01-0.58-6.21c0-2.21,0.19-4.27,0.58-6.19c0.39-1.92,1.03-3.6,1.94-5.03c0.9-1.43,2.09-2.56,3.57-3.38
			c1.48-0.82,3.3-1.23,5.48-1.23c2.18,0,4.01,0.41,5.48,1.23c1.48,0.82,2.67,1.94,3.57,3.38c0.9,1.43,1.55,3.11,1.93,5.03
			c0.39,1.92,0.58,3.98,0.58,6.19c0,2.21-0.19,4.28-0.58,6.21c-0.39,1.94-1.03,3.63-1.93,5.07c-0.9,1.45-2.09,2.59-3.57,3.42
			C107.24,741.04,105.41,741.46,103.23,741.46z M103.23,734.58c0.75,0,1.36-0.24,1.85-0.71c0.49-0.47,0.88-1.12,1.18-1.94
			c0.3-0.82,0.51-1.78,0.62-2.88c0.11-1.1,0.17-2.29,0.17-3.55c0-1.23-0.06-2.39-0.17-3.48c-0.12-1.09-0.32-2.04-0.62-2.86
			c-0.3-0.82-0.7-1.46-1.18-1.91c-0.49-0.46-1.1-0.69-1.85-0.69c-0.75,0-1.36,0.23-1.85,0.69c-0.49,0.46-0.88,1.1-1.18,1.91
			c-0.3,0.82-0.51,1.77-0.62,2.86c-0.12,1.09-0.17,2.25-0.17,3.48c0,1.26,0.06,2.44,0.17,3.55c0.11,1.1,0.32,2.06,0.62,2.88
			c0.3,0.82,0.69,1.46,1.18,1.94C101.87,734.34,102.49,734.58,103.23,734.58z"/>
		<path class="st1" d="M129.59,729.46v-1.72c0-1.58,0.79-2.37,2.37-2.37h8.77c1.58,0,2.36,0.79,2.36,2.37v1.72
			c0,1.58-0.79,2.37-2.36,2.37h-8.77C130.38,731.82,129.59,731.04,129.59,729.46z"/>
		<path class="st1" d="M157.5,737.63c0-1.89,0.33-3.54,0.99-4.95c0.66-1.4,1.48-2.64,2.45-3.72s2.04-2.02,3.2-2.84
			s2.23-1.57,3.2-2.26c0.97-0.69,1.79-1.35,2.45-1.98c0.66-0.63,0.99-1.32,0.99-2.06c0-1.06-0.35-1.83-1.05-2.32
			c-0.7-0.49-1.46-0.73-2.26-0.73c-0.69,0-1.31,0.15-1.87,0.45c-0.56,0.3-1.02,0.65-1.4,1.05c-0.54,0.52-1.1,0.85-1.66,1.01
			c-0.56,0.16-1.13-0.01-1.7-0.49l-1.68-1.33c-1.26-1-1.46-2.06-0.6-3.18c0.37-0.49,0.85-1,1.42-1.55c0.57-0.54,1.25-1.04,2.02-1.48
			s1.67-0.82,2.69-1.12c1.02-0.3,2.17-0.45,3.46-0.45c1.26,0,2.52,0.19,3.76,0.56c1.25,0.37,2.37,0.94,3.38,1.7
			c1,0.76,1.81,1.74,2.43,2.92c0.62,1.19,0.92,2.6,0.92,4.24c0,1.61-0.31,3-0.92,4.19c-0.62,1.19-1.39,2.25-2.32,3.18
			c-0.93,0.93-1.94,1.75-3.03,2.45c-1.09,0.7-2.11,1.35-3.05,1.96c-0.95,0.6-1.75,1.19-2.41,1.76c-0.66,0.57-1.02,1.19-1.07,1.85
			h10.92c1.58,0,2.36,0.79,2.36,2.37v1.72c0,1.58-0.79,2.37-2.36,2.37h-16.73c-0.75,0-1.35-0.2-1.83-0.6
			c-0.47-0.4-0.71-0.99-0.71-1.76V737.63z"/>
		<path class="st1" d="M182.61,736.86c0-1.58,0.79-2.37,2.36-2.37h4.17v-12.81v-1.63c0-0.26,0.01-0.5,0.04-0.73h-0.09
			c-0.09,0.17-0.19,0.34-0.3,0.52c-0.09,0.14-0.18,0.29-0.28,0.45c-0.1,0.16-0.22,0.29-0.37,0.41l-0.39,0.34
			c-1.15,1.06-2.25,1.02-3.31-0.13l-1.12-1.2c-1.09-1.15-1.06-2.26,0.09-3.35l5.33-4.99c0.46-0.4,0.91-0.69,1.35-0.88
			c0.44-0.19,0.97-0.28,1.57-0.28h2.45c1.58,0,2.36,0.79,2.36,2.37v21.93h4.21c1.58,0,2.36,0.79,2.36,2.37v1.72
			c0,1.58-0.79,2.37-2.36,2.37h-15.74c-1.58,0-2.36-0.79-2.36-2.37V736.86z"/>
		<path class="st1" d="M205.49,736.25c0-1.58,0.79-2.37,2.36-2.37h2.32c1.58,0,2.36,0.79,2.36,2.37v2.32c0,1.58-0.79,2.37-2.36,2.37
			h-2.32c-1.58,0-2.36-0.79-2.36-2.37V736.25z"/>
		<path class="st1" d="M227.93,741.46c-2.18,0-4.01-0.42-5.48-1.25c-1.48-0.83-2.67-1.97-3.57-3.42c-0.9-1.45-1.55-3.14-1.94-5.07
			c-0.39-1.93-0.58-4.01-0.58-6.21c0-2.21,0.19-4.27,0.58-6.19c0.39-1.92,1.03-3.6,1.94-5.03c0.9-1.43,2.09-2.56,3.57-3.38
			c1.48-0.82,3.3-1.23,5.48-1.23c2.18,0,4.01,0.41,5.48,1.23c1.48,0.82,2.67,1.94,3.57,3.38c0.9,1.43,1.55,3.11,1.93,5.03
			c0.39,1.92,0.58,3.98,0.58,6.19c0,2.21-0.19,4.28-0.58,6.21c-0.39,1.94-1.03,3.63-1.93,5.07c-0.9,1.45-2.09,2.59-3.57,3.42
			C231.94,741.04,230.11,741.46,227.93,741.46z M227.93,734.58c0.75,0,1.36-0.24,1.85-0.71c0.49-0.47,0.88-1.12,1.18-1.94
			c0.3-0.82,0.51-1.78,0.62-2.88c0.11-1.1,0.17-2.29,0.17-3.55c0-1.23-0.06-2.39-0.17-3.48c-0.12-1.09-0.32-2.04-0.62-2.86
			c-0.3-0.82-0.7-1.46-1.18-1.91c-0.49-0.46-1.1-0.69-1.85-0.69c-0.75,0-1.36,0.23-1.85,0.69c-0.49,0.46-0.88,1.1-1.18,1.91
			c-0.3,0.82-0.51,1.77-0.62,2.86c-0.12,1.09-0.17,2.25-0.17,3.48c0,1.26,0.06,2.44,0.17,3.55c0.11,1.1,0.32,2.06,0.62,2.88
			c0.3,0.82,0.69,1.46,1.18,1.94C226.57,734.34,227.19,734.58,227.93,734.58z"/>
		<path class="st1" d="M254.94,741.46c-2.18,0-4.01-0.42-5.48-1.25c-1.48-0.83-2.67-1.97-3.57-3.42c-0.9-1.45-1.55-3.14-1.94-5.07
			c-0.39-1.93-0.58-4.01-0.58-6.21c0-2.21,0.19-4.27,0.58-6.19c0.39-1.92,1.03-3.6,1.94-5.03c0.9-1.43,2.09-2.56,3.57-3.38
			c1.48-0.82,3.3-1.23,5.48-1.23c2.18,0,4.01,0.41,5.48,1.23c1.48,0.82,2.67,1.94,3.57,3.38c0.9,1.43,1.55,3.11,1.93,5.03
			c0.39,1.92,0.58,3.98,0.58,6.19c0,2.21-0.19,4.28-0.58,6.21c-0.39,1.94-1.03,3.63-1.93,5.07c-0.9,1.45-2.09,2.59-3.57,3.42
			C258.94,741.04,257.11,741.46,254.94,741.46z M254.94,734.58c0.75,0,1.36-0.24,1.85-0.71c0.49-0.47,0.88-1.12,1.18-1.94
			c0.3-0.82,0.51-1.78,0.62-2.88c0.11-1.1,0.17-2.29,0.17-3.55c0-1.23-0.06-2.39-0.17-3.48c-0.12-1.09-0.32-2.04-0.62-2.86
			c-0.3-0.82-0.7-1.46-1.18-1.91c-0.49-0.46-1.1-0.69-1.85-0.69c-0.75,0-1.36,0.23-1.85,0.69c-0.49,0.46-0.88,1.1-1.18,1.91
			c-0.3,0.82-0.51,1.77-0.62,2.86c-0.12,1.09-0.17,2.25-0.17,3.48c0,1.26,0.06,2.44,0.17,3.55c0.11,1.1,0.32,2.06,0.62,2.88
			c0.3,0.82,0.69,1.46,1.18,1.94C253.57,734.34,254.19,734.58,254.94,734.58z"/>
		<path class="st1" d="M113.39,780.29l0.61-0.86c0.43-0.58,0.94-0.65,1.62-0.22c0.9,0.65,2.84,2.05,5.54,2.05s4.46-1.44,4.46-3.64
			c0-5.62-12.24-4.36-12.24-12.27c0-4.28,3.6-7.05,8.24-7.05c3.02,0,5.4,1.19,6.37,1.94c0.61,0.43,0.68,0.97,0.36,1.62l-0.5,0.9
			c-0.43,0.76-1.01,0.68-1.62,0.32c-0.97-0.58-2.52-1.48-4.68-1.48c-2.63,0-4.57,1.37-4.57,3.56c0,5.47,12.24,4,12.24,12.17
			c0,4-2.99,7.23-8.06,7.23c-3.67,0-6.48-1.69-7.63-2.63C113.07,781.51,112.85,781.01,113.39,780.29z"/>
		<path class="st1" d="M141.9,765.5c5.44,0,9.83,4,9.83,9.5c0,5.54-4.39,9.57-9.83,9.57c-5.44,0-9.79-4.03-9.79-9.57
			C132.11,769.49,136.47,765.5,141.9,765.5z M141.9,781.55c3.46,0,6.26-2.74,6.26-6.55c0-3.78-2.81-6.48-6.26-6.48
			c-3.42,0-6.26,2.7-6.26,6.48C135.64,778.81,138.48,781.55,141.9,781.55z"/>
		<path class="st1" d="M155.62,759.92c0-0.79,0.4-1.19,1.19-1.19h1.12c0.76,0,1.15,0.4,1.15,1.19v7.38c0,0.9-0.11,1.55-0.11,1.55
			h0.07c0,0,1.62-3.35,5.94-3.35c4.82,0,7.96,3.89,7.96,9.5c0,5.83-3.49,9.57-8.24,9.57c-4.28,0-5.83-3.46-5.83-3.46h-0.07
			c0,0,0.11,0.43,0.11,1.08v0.9c0,0.65-0.43,1.04-1.19,1.04h-0.9c-0.79,0-1.19-0.4-1.19-1.19V759.92z M164.12,781.55
			c2.92,0,5.29-2.34,5.29-6.48c0-3.96-2.12-6.51-5.15-6.51c-2.74,0-5.26,1.94-5.26,6.48C159,778.38,160.7,781.55,164.12,781.55z"/>
		<path class="st1" d="M176.58,781.58c0-0.78,0.39-1.17,1.17-1.17h1.35c0.78,0,1.17,0.39,1.17,1.17v1.39c0,0.78-0.39,1.17-1.17,1.17
			h-1.35c-0.78,0-1.17-0.39-1.17-1.17V781.58z"/>
		<path class="st1" d="M30.18,823.11c0.26-0.83,0.61-1.33,1.05-1.5c0.44-0.17,1.01-0.2,1.7-0.09c0.37,0.06,0.71,0.12,1.01,0.17
			c0.3,0.06,0.68,0.09,1.14,0.09c0.95,0,1.79-0.14,2.54-0.43c0.75-0.29,1.39-0.67,1.93-1.16c0.54-0.49,1-1.07,1.38-1.74
			c0.37-0.67,0.67-1.4,0.9-2.17h-0.09c-0.37,0.37-1.01,0.72-1.91,1.03s-1.93,0.47-3.07,0.47c-1.43,0-2.73-0.29-3.89-0.86
			c-1.16-0.57-2.15-1.34-2.97-2.3c-0.82-0.96-1.45-2.06-1.89-3.29c-0.44-1.23-0.67-2.49-0.67-3.78c0-1.32,0.24-2.62,0.71-3.89
			c0.47-1.28,1.15-2.42,2.04-3.42c0.89-1,1.98-1.81,3.27-2.43c1.29-0.62,2.77-0.92,4.43-0.92c1.55,0,3.07,0.3,4.58,0.9
			c1.5,0.6,2.84,1.51,4.02,2.71c1.17,1.2,2.12,2.71,2.84,4.52c0.72,1.81,1.07,3.91,1.07,6.32c0,2.18-0.32,4.31-0.95,6.39
			c-0.63,2.08-1.57,3.93-2.82,5.55c-1.25,1.62-2.78,2.92-4.6,3.91c-1.82,0.99-3.93,1.48-6.34,1.48c-0.83,0-1.68-0.06-2.54-0.17
			s-1.55-0.24-2.06-0.39c-1.46-0.43-1.95-1.42-1.46-2.97L30.18,823.11z M39.72,811.72c0.83,0,1.51-0.15,2.04-0.45
			c0.53-0.3,0.8-0.91,0.8-1.83c0-0.63-0.13-1.28-0.39-1.93c-0.26-0.66-0.6-1.27-1.03-1.83c-0.43-0.56-0.93-1.02-1.5-1.38
			c-0.57-0.36-1.19-0.54-1.85-0.54c-0.89,0-1.62,0.33-2.19,0.99c-0.57,0.66-0.86,1.52-0.86,2.58c0,0.52,0.08,1.03,0.24,1.55
			c0.16,0.52,0.43,0.99,0.82,1.42c0.39,0.43,0.9,0.77,1.55,1.03C37.98,811.59,38.78,811.72,39.72,811.72z"/>
		<path class="st1" d="M53.91,823.45c0-1.58,0.79-2.37,2.36-2.37h2.32c1.58,0,2.36,0.79,2.36,2.37v2.32c0,1.58-0.79,2.37-2.36,2.37
			h-2.32c-1.58,0-2.36-0.79-2.36-2.37V823.45z"/>
		<path class="st1" d="M76.36,828.66c-2.18,0-4.01-0.42-5.48-1.25c-1.48-0.83-2.67-1.97-3.57-3.42c-0.9-1.45-1.55-3.14-1.94-5.07
			c-0.39-1.93-0.58-4.01-0.58-6.21c0-2.21,0.19-4.27,0.58-6.19c0.39-1.92,1.03-3.6,1.94-5.03c0.9-1.43,2.09-2.56,3.57-3.38
			c1.48-0.82,3.3-1.23,5.48-1.23c2.18,0,4.01,0.41,5.48,1.23c1.48,0.82,2.67,1.94,3.57,3.38c0.9,1.43,1.55,3.11,1.93,5.03
			c0.39,1.92,0.58,3.98,0.58,6.19c0,2.21-0.19,4.28-0.58,6.21c-0.39,1.94-1.03,3.63-1.93,5.07c-0.9,1.45-2.09,2.59-3.57,3.42
			C80.37,828.24,78.54,828.66,76.36,828.66z M76.36,821.78c0.75,0,1.36-0.24,1.85-0.71c0.49-0.47,0.88-1.12,1.18-1.94
			c0.3-0.82,0.51-1.78,0.62-2.88c0.11-1.1,0.17-2.29,0.17-3.55c0-1.23-0.06-2.39-0.17-3.48c-0.12-1.09-0.32-2.04-0.62-2.86
			c-0.3-0.82-0.7-1.46-1.18-1.91c-0.49-0.46-1.1-0.69-1.85-0.69c-0.75,0-1.36,0.23-1.85,0.69c-0.49,0.46-0.88,1.1-1.18,1.91
			c-0.3,0.82-0.51,1.77-0.62,2.86c-0.12,1.09-0.17,2.25-0.17,3.48c0,1.26,0.06,2.44,0.17,3.55c0.11,1.1,0.32,2.06,0.62,2.88
			c0.3,0.82,0.69,1.46,1.18,1.94C75,821.54,75.61,821.78,76.36,821.78z"/>
		<path class="st1" d="M103.36,828.66c-2.18,0-4.01-0.42-5.48-1.25c-1.48-0.83-2.67-1.97-3.57-3.42c-0.9-1.45-1.55-3.14-1.94-5.07
			c-0.39-1.93-0.58-4.01-0.58-6.21c0-2.21,0.19-4.27,0.58-6.19c0.39-1.92,1.03-3.6,1.94-5.03c0.9-1.43,2.09-2.56,3.57-3.38
			c1.48-0.82,3.3-1.23,5.48-1.23c2.18,0,4.01,0.41,5.48,1.23c1.48,0.82,2.67,1.94,3.57,3.38c0.9,1.43,1.55,3.11,1.93,5.03
			c0.39,1.92,0.58,3.98,0.58,6.19c0,2.21-0.19,4.28-0.58,6.21c-0.39,1.94-1.03,3.63-1.93,5.07c-0.9,1.45-2.09,2.59-3.57,3.42
			C107.37,828.24,105.54,828.66,103.36,828.66z M103.36,821.78c0.75,0,1.36-0.24,1.85-0.71c0.49-0.47,0.88-1.12,1.18-1.94
			c0.3-0.82,0.51-1.78,0.62-2.88c0.11-1.1,0.17-2.29,0.17-3.55c0-1.23-0.06-2.39-0.17-3.48c-0.12-1.09-0.32-2.04-0.62-2.86
			c-0.3-0.82-0.7-1.46-1.18-1.91c-0.49-0.46-1.1-0.69-1.85-0.69c-0.75,0-1.36,0.23-1.85,0.69c-0.49,0.46-0.88,1.1-1.18,1.91
			c-0.3,0.82-0.51,1.77-0.62,2.86c-0.12,1.09-0.17,2.25-0.17,3.48c0,1.26,0.06,2.44,0.17,3.55c0.11,1.1,0.32,2.06,0.62,2.88
			c0.3,0.82,0.69,1.46,1.18,1.94C102,821.54,102.62,821.78,103.36,821.78z"/>
		<path class="st1" d="M129.72,816.66v-1.72c0-1.58,0.79-2.37,2.37-2.37h8.77c1.58,0,2.36,0.79,2.36,2.37v1.72
			c0,1.58-0.79,2.37-2.36,2.37h-8.77C130.51,819.02,129.72,818.24,129.72,816.66z"/>
		<path class="st1" d="M157.8,824.06c0-1.58,0.79-2.37,2.36-2.37h4.17v-12.81v-1.63c0-0.26,0.01-0.5,0.04-0.73h-0.09
			c-0.09,0.17-0.19,0.34-0.3,0.52c-0.09,0.14-0.18,0.29-0.28,0.45c-0.1,0.16-0.22,0.29-0.37,0.41l-0.39,0.34
			c-1.15,1.06-2.25,1.02-3.31-0.13l-1.12-1.2c-1.09-1.15-1.06-2.26,0.09-3.35l5.33-4.99c0.46-0.4,0.91-0.69,1.35-0.88
			c0.44-0.19,0.97-0.28,1.57-0.28h2.45c1.58,0,2.36,0.79,2.36,2.37v21.93h4.21c1.58,0,2.36,0.79,2.36,2.37v1.72
			c0,1.58-0.79,2.37-2.36,2.37h-15.74c-1.58,0-2.36-0.79-2.36-2.37V824.06z"/>
		<path class="st1" d="M181.54,825.99c-0.6-0.4-0.94-0.89-1.01-1.46c-0.07-0.57,0.09-1.16,0.49-1.76l1.16-1.89
			c0.4-0.66,0.87-1.03,1.42-1.1c0.54-0.07,1.15,0.09,1.81,0.49c0.57,0.32,1.23,0.61,1.96,0.88s1.51,0.41,2.34,0.41
			c0.52,0,1.02-0.08,1.53-0.24c0.5-0.16,0.96-0.39,1.38-0.71c0.42-0.31,0.75-0.71,1.01-1.18c0.26-0.47,0.39-1.03,0.39-1.66
			c0-1.2-0.47-2.14-1.4-2.82c-0.93-0.67-2.1-1.01-3.5-1.01c-0.49,0-0.95,0.04-1.38,0.11c-0.43,0.07-0.82,0.17-1.16,0.28
			c-0.57,0.17-1.1,0.28-1.59,0.32c-0.49,0.04-1.02-0.05-1.59-0.28l-0.47-0.17c-1.29-0.52-1.88-1.45-1.76-2.79l0.9-11.74
			c0.14-1.52,0.96-2.28,2.45-2.28h12.56c1.58,0,2.37,0.79,2.37,2.37v1.72c0,1.58-0.79,2.37-2.37,2.37h-8.3l-0.17,2.84
			c0,0.26-0.03,0.53-0.09,0.82c-0.03,0.11-0.06,0.24-0.09,0.39h0.09c0.2-0.03,0.43-0.07,0.69-0.13c0.23-0.06,0.47-0.1,0.71-0.13
			c0.24-0.03,0.52-0.04,0.84-0.04c1.83,0,3.44,0.26,4.82,0.79c1.38,0.53,2.52,1.25,3.44,2.17c0.92,0.92,1.6,1.99,2.06,3.22
			c0.46,1.23,0.69,2.54,0.69,3.91c0,1.61-0.28,3.08-0.84,4.41c-0.56,1.33-1.34,2.49-2.34,3.46s-2.21,1.73-3.61,2.28
			c-1.4,0.54-2.94,0.82-4.6,0.82c-2.06,0-3.83-0.29-5.31-0.88C183.56,827.19,182.4,826.59,181.54,825.99z"/>
		<path class="st1" d="M205.19,823.45c0-1.58,0.79-2.37,2.36-2.37h2.32c1.58,0,2.36,0.79,2.36,2.37v2.32c0,1.58-0.79,2.37-2.36,2.37
			h-2.32c-1.58,0-2.36-0.79-2.36-2.37V823.45z"/>
		<path class="st1" d="M227.63,828.66c-2.18,0-4.01-0.42-5.48-1.25c-1.48-0.83-2.67-1.97-3.57-3.42c-0.9-1.45-1.55-3.14-1.94-5.07
			c-0.39-1.93-0.58-4.01-0.58-6.21c0-2.21,0.19-4.27,0.58-6.19c0.39-1.92,1.03-3.6,1.94-5.03c0.9-1.43,2.09-2.56,3.57-3.38
			c1.48-0.82,3.3-1.23,5.48-1.23c2.18,0,4.01,0.41,5.48,1.23c1.48,0.82,2.67,1.94,3.57,3.38c0.9,1.43,1.55,3.11,1.93,5.03
			c0.39,1.92,0.58,3.98,0.58,6.19c0,2.21-0.19,4.28-0.58,6.21c-0.39,1.94-1.03,3.63-1.93,5.07c-0.9,1.45-2.09,2.59-3.57,3.42
			C231.64,828.24,229.81,828.66,227.63,828.66z M227.63,821.78c0.75,0,1.36-0.24,1.85-0.71c0.49-0.47,0.88-1.12,1.18-1.94
			c0.3-0.82,0.51-1.78,0.62-2.88c0.11-1.1,0.17-2.29,0.17-3.55c0-1.23-0.06-2.39-0.17-3.48c-0.12-1.09-0.32-2.04-0.62-2.86
			c-0.3-0.82-0.7-1.46-1.18-1.91c-0.49-0.46-1.1-0.69-1.85-0.69c-0.75,0-1.36,0.23-1.85,0.69c-0.49,0.46-0.88,1.1-1.18,1.91
			c-0.3,0.82-0.51,1.77-0.62,2.86c-0.12,1.09-0.17,2.25-0.17,3.48c0,1.26,0.06,2.44,0.17,3.55c0.11,1.1,0.32,2.06,0.62,2.88
			c0.3,0.82,0.69,1.46,1.18,1.94C226.27,821.54,226.89,821.78,227.63,821.78z"/>
		<path class="st1" d="M254.64,828.66c-2.18,0-4.01-0.42-5.48-1.25c-1.48-0.83-2.67-1.97-3.57-3.42c-0.9-1.45-1.55-3.14-1.94-5.07
			c-0.39-1.93-0.58-4.01-0.58-6.21c0-2.21,0.19-4.27,0.58-6.19c0.39-1.92,1.03-3.6,1.94-5.03c0.9-1.43,2.09-2.56,3.57-3.38
			c1.48-0.82,3.3-1.23,5.48-1.23c2.18,0,4.01,0.41,5.48,1.23c1.48,0.82,2.67,1.94,3.57,3.38c0.9,1.43,1.55,3.11,1.93,5.03
			c0.39,1.92,0.58,3.98,0.58,6.19c0,2.21-0.19,4.28-0.58,6.21c-0.39,1.94-1.03,3.63-1.93,5.07c-0.9,1.45-2.09,2.59-3.57,3.42
			C258.64,828.24,256.81,828.66,254.64,828.66z M254.64,821.78c0.75,0,1.36-0.24,1.85-0.71c0.49-0.47,0.88-1.12,1.18-1.94
			c0.3-0.82,0.51-1.78,0.62-2.88c0.11-1.1,0.17-2.29,0.17-3.55c0-1.23-0.06-2.39-0.17-3.48c-0.12-1.09-0.32-2.04-0.62-2.86
			c-0.3-0.82-0.7-1.46-1.18-1.91c-0.49-0.46-1.1-0.69-1.85-0.69c-0.75,0-1.36,0.23-1.85,0.69c-0.49,0.46-0.88,1.1-1.18,1.91
			c-0.3,0.82-0.51,1.77-0.62,2.86c-0.12,1.09-0.17,2.25-0.17,3.48c0,1.26,0.06,2.44,0.17,3.55c0.11,1.1,0.32,2.06,0.62,2.88
			c0.3,0.82,0.69,1.46,1.18,1.94C253.27,821.54,253.89,821.78,254.64,821.78z"/>
	</g>
</g>
</svg>
