<svg version="1.1" id="Layer_1" xmlns="http://www.w3.org/2000/svg" x="0" y="0" viewBox="0 0 2433.3 3520.2" style="enable-background:new 0 0 2433.3 3520.2" xml:space="preserve"><style>.st0{fill:#595959}</style><path class="st0" d="M2151.8 1286.7c0-18.8-4.8-36.5-13.4-51.8l-148-268.6c-8.9-15.7-14.2-33.8-14.2-53.1.6-24.6 7.7-50.7 11.4-78C2038.7 459.9 1727.6 0 1199.8 0c-58.3 0-105.6 47.3-105.6 105.6s47.3 105.6 105.6 105.6c5.6 0 11.3-.4 16.7-1.3 4.4-.6 8.8-.8 13.3-.8 58.4 0 105.7 47.3 105.7 105.7 0 58.4-47.3 105.7-105.7 105.7-22.7 0-44.7-7.5-61.9-19.7-28.9-20.4-64-32.5-102.1-32.5-97.8 0-177 79.2-177 177s79.2 177 177 177c39.8 0 77.7-14 107.3-36.2 17.2-12.4 38.2-19.7 61-19.7 57.6 0 104.2 46.7 104.2 104.2 0 57.6-46.7 104.2-104.2 104.2-11.8 0-23.5-1.5-34-5.1-25.7-9.5-53.4-15-82.5-15-131.5 0-238 106.6-238 238 0 99.6 61.2 184.8 148 220.3 44 18.8 74.9 62.5 74.9 113.4 0 68.2-55.2 123.4-123.4 123.4-32 0-61.4-12.2-83.3-32.2-45-43.8-106.3-70.9-174-70.9-137.8 0-249.5 111.7-249.5 249.4s111.7 249.4 249.5 249.4c159 0 229.4-61.2 296.4-61.2 35.8 0 64.8 28.9 64.9 64.7v.2c0 182.2-71.2 274.3-270.5 274.3v47.6h807.7v-47.6c-199.2 0-270.5-92.1-270.5-274.3v-.2c0-35.9 29.1-64.7 64.9-64.7 100.6 0 115.5 29.1 274.4 29.1 144.7 0 227.5-42.7 263.1-176.8 31.9-120.1 70.1-301.6 70.1-301.6 5.2-21.8 22.5-38.8 44.3-43.8 48.9-10 85.2-53 85.2-104.5z"/><circle transform="rotate(-45.001 512.5 1092.773)" class="st0" cx="512.5" cy="1092.8" r="231"/><circle transform="rotate(-45.001 578.788 545.281)" class="st0" cx="578.8" cy="545.3" r="166.2"/><circle class="st0" cx="831.8" cy="196.8" r="113.9"/><path class="st0" d="M164.6 2624.4h190.1L342 2508.3H111.3C49.8 2508.3 0 2558.1 0 2619.6v451.8h136.8v-221.1h194.9V2739H136.8v-86.7c0-15.4 12.4-27.9 27.8-27.9zm726.3-80.4c-8.3-21.5-28.9-35.7-52-35.7h-80.4c-22.9 0-43.5 14.1-51.9 35.4l-205.7 527.7h159.9l34.2-102.6h203.6l35 102.6h159.9L890.9 2544zm-162.5 321.4 35.8-107.4c11.1-33.4 23.1-76.4 30.2-120.9h3.2c8 44.5 19.9 87.5 30.2 120.9l36.6 107.4h-136zm1477.5 62v-86.7h203.6v-111.3h-203.6v-77.1c0-15.4 12.5-27.8 27.8-27.8h199.6l-12.7-116.1h-240.2c-61.5 0-111.3 49.8-111.3 111.3v340.5c0 61.5 49.8 111.3 111.3 111.3h240.2l12.7-116.1h-199.6c-15.4-.1-27.8-12.6-27.8-28zm-512.9-30.1c-31 42.9-69.9 59.5-120.1 59.5-88.3 0-155.9-68.4-155.9-167 0-100.2 67.6-167.8 153.5-167.8 49.3 0 91.1 19.8 121 60.6 8.5 11.6 24.4 14.7 36.6 7.3l90.6-55.1c-52.5-95.4-144.8-142.4-252.9-142.4-167 0-298.2 120.9-298.2 297.4 0 175 129.6 296.7 297.5 296.7 109.7 0 200.4-46.1 255.3-141.6l-90-55.4c-12.7-7.7-28.8-4.1-37.4 7.8zM715.7 3431v-174.1h-86.3v207.7c0 30.7 24.9 55.7 55.7 55.7h126.6l9.7-78.1h-94.5c-6.2-.1-11.2-5.1-11.2-11.2zm518.1-174.1h-67.1c-11.7 0-22.2 7.4-26.2 18.4l-88.2 245H1155l8.6-33.5h71.8l8.6 33.5h102.7l-86.4-244.8c-4.2-11.2-14.7-18.6-26.5-18.6zm-54.3 166.6 7.1-27.5c3.7-14.1 8.9-38.7 11.5-64.4h1.9c2.6 25.7 7.8 50.2 11.5 64.4l7.1 27.5h-39.1zm568.7-40.1v-.8c25.7-7.4 43.5-29 43.5-55.4 0-43.2-31.2-70.3-99.3-70.3h-72.2c-15.4 0-27.8 12.5-27.8 27.8v207.7c0 15.4 12.5 27.8 27.8 27.8h77.1c73.3 0 106.8-26.8 106.8-74.4-.1-32.3-19.9-53.5-55.9-62.4zm-69.6-63.3h10.1c15.6 0 22.7 6.7 22.7 18.6 0 10.4-7.1 17.1-22.7 17.1h-10.1v-35.7zm14.1 134.3h-14.2v-41.3h14.2c19 0 27.9 7.8 27.9 20.1 0 13.4-8.9 21.2-27.9 21.2z"/></svg>