<svg xmlns="http://www.w3.org/2000/svg" viewBox="0 0 66.15 80.34" style="enable-background:new 0 0 66.15 80.34" xml:space="preserve"><path d="M16.61 9.81c-1.57-1.57-1.57-4.12 0-5.7s4.12-1.57 5.7 0 1.57 4.12 0 5.7-4.12 1.57-5.7 0zm-6.1 15.35c3.25 0 5.88-2.63 5.88-5.88s-2.63-5.88-5.88-5.88-5.88 2.63-5.88 5.88 2.64 5.88 5.88 5.88zm5.83 13.49c0-4.51-3.66-8.17-8.17-8.17S0 34.14 0 38.65s3.66 8.17 8.17 8.17 8.17-3.66 8.17-8.17zm12.01 30.3c.01 0 0-.01 0 0 0-.01 0 0 0 0zm37.33-25.28-5.23-9.5c-.32-.55-.5-1.19-.5-1.88.02-.87.27-1.79.4-2.76C62.15 16.27 51.14 0 32.48 0a3.73 3.73 0 0 0 0 7.46c.2 0 .4-.01.59-.04a3.74 3.74 0 1 1 .47 7.45c-.8 0-1.58-.26-2.19-.7a6.257 6.257 0 0 0-9.87 5.11c0 3.46 2.8 6.26 6.26 6.26 1.41 0 2.75-.49 3.79-1.28a3.687 3.687 0 0 1 5.85 2.99c0 2.04-1.65 3.69-3.69 3.69-.42 0-.83-.05-1.2-.18-.91-.34-1.89-.53-2.92-.53a8.417 8.417 0 0 0-3.18 16.21c1.56.67 2.65 2.21 2.65 4.01 0 2.41-1.95 4.36-4.36 4.36-1.13 0-2.17-.43-2.95-1.14a8.789 8.789 0 0 0-6.15-2.51c-4.87 0-8.82 3.95-8.82 8.82s3.95 8.82 8.82 8.82c5.62 0 8.11-2.16 10.48-2.16 1.27 0 2.29 1.02 2.3 2.29v.01c0 6.44-2.52 9.7-9.57 9.7v1.68h28.57v-1.68c-7.05 0-9.57-3.26-9.57-9.7v-.01c0-1.27 1.03-2.29 2.3-2.29 3.56 0 4.08 1.03 9.71 1.03 5.12 0 8.04-1.51 9.31-6.25 1.13-4.25 2.48-10.67 2.48-10.67.18-.77.79-1.37 1.57-1.55 1.71-.36 3-1.89 3-3.71-.01-.65-.18-1.27-.48-1.82z" style="fill:#fff"/></svg>