<?xml version="1.0" encoding="utf-8"?>
<!-- Generator: Adobe Illustrator 25.4.1, SVG Export Plug-In . SVG Version: 6.00 Build 0)  -->
<svg version="1.1" id="Layer_1" xmlns="http://www.w3.org/2000/svg" xmlns:xlink="http://www.w3.org/1999/xlink" x="0px" y="0px"
	 viewBox="0 0 207.7 165.3" style="enable-background:new 0 0 207.7 165.3;" xml:space="preserve">
<style type="text/css">
	.st0{fill:none;stroke:#FFFFFF;stroke-width:7.8313;stroke-miterlimit:10;}
	.st1{fill:none;stroke:#FFFFFF;stroke-width:7.8313;stroke-linecap:round;stroke-miterlimit:10;}
</style>
<g>
	<path class="st0" d="M165.2,89.5l-6.1-1.8c0.2-1.7,0.2-3.3,0.2-5c0-5.2-0.7-10.3-2.1-15.1l5.9-3.2c2.1-1.2,2.9-3.8,1.7-5.9
		L158,45.8c-1.2-2.1-3.8-2.9-5.9-1.7l-5.6,3.1c-4.3-5.2-9.6-9.6-15.5-12.9l1.9-6.4c0.7-2.3-0.6-4.7-2.9-5.4l-13.8-4.1
		c-2.3-0.7-4.7,0.6-5.4,2.9l-1.8,6.1c-1.7-0.2-3.3-0.2-5-0.2c-5.2,0-10.3,0.7-15.1,2.1l-3.2-5.9c-1.2-2.1-3.8-2.9-5.9-1.7L67,28.5
		c-2.1,1.2-2.9,3.8-1.7,5.9l3.1,5.6c-5.2,4.3-9.6,9.6-12.9,15.5L49,53.7c-2.3-0.7-4.7,0.6-5.4,2.9l-4.1,13.8
		c-0.7,2.3,0.6,4.7,2.9,5.4l6.1,1.8c-0.2,1.7-0.2,3.3-0.2,5c0,5.2,0.7,10.3,2.1,15.1l-5.9,3.2c-2.1,1.2-2.9,3.8-1.7,5.9l6.9,12.6
		c1.2,2.1,3.8,2.9,5.9,1.7l5.6-3.1c4.3,5.2,9.6,9.6,15.5,12.9l-1.9,6.4c-0.7,2.3,0.6,4.7,2.9,5.4l13.8,4.1c2.3,0.7,4.7-0.6,5.4-2.9
		l1.8-6.1c1.7,0.2,3.3,0.2,5,0.2c5.2,0,10.3-0.7,15.1-2.1l3.2,5.9c1.2,2.1,3.8,2.9,5.9,1.7l12.6-6.9c2.1-1.2,2.9-3.8,1.7-5.9
		l-3.1-5.6c5.2-4.3,9.6-9.6,12.9-15.5l6.4,1.9c2.3,0.7,4.7-0.6,5.4-2.9l4.1-13.8C168.9,92.6,167.5,90.2,165.2,89.5z"/>
	<path class="st1" d="M131.2,71.5c-4.4-10.8-15-18.4-27.4-18.4c-16.3,0-29.6,13.2-29.6,29.6s13.2,29.6,29.6,29.6
		c12.4,0,23-7.6,27.4-18.4"/>
</g>
</svg>
