<svg xmlns="http://www.w3.org/2000/svg" viewBox="0 0 207.7 165.3" style="enable-background:new 0 0 207.7 165.3" xml:space="preserve"><path d="m165.2 89.5-6.1-1.8c.2-1.7.2-3.3.2-5 0-5.2-.7-10.3-2.1-15.1l5.9-3.2c2.1-1.2 2.9-3.8 1.7-5.9L158 45.8c-1.2-2.1-3.8-2.9-5.9-1.7l-5.6 3.1c-4.3-5.2-9.6-9.6-15.5-12.9l1.9-6.4c.7-2.3-.6-4.7-2.9-5.4l-13.8-4.1c-2.3-.7-4.7.6-5.4 2.9l-1.8 6.1c-1.7-.2-3.3-.2-5-.2-5.2 0-10.3.7-15.1 2.1l-3.2-5.9c-1.2-2.1-3.8-2.9-5.9-1.7L67 28.5c-2.1 1.2-2.9 3.8-1.7 5.9l3.1 5.6c-5.2 4.3-9.6 9.6-12.9 15.5L49 53.7c-2.3-.7-4.7.6-5.4 2.9l-4.1 13.8c-.7 2.3.6 4.7 2.9 5.4l6.1 1.8c-.2 1.7-.2 3.3-.2 5 0 5.2.7 10.3 2.1 15.1l-5.9 3.2c-2.1 1.2-2.9 3.8-1.7 5.9l6.9 12.6c1.2 2.1 3.8 2.9 5.9 1.7l5.6-3.1c4.3 5.2 9.6 9.6 15.5 12.9l-1.9 6.4c-.7 2.3.6 4.7 2.9 5.4l13.8 4.1c2.3.7 4.7-.6 5.4-2.9l1.8-6.1c1.7.2 3.3.2 5 .2 5.2 0 10.3-.7 15.1-2.1l3.2 5.9c1.2 2.1 3.8 2.9 5.9 1.7l12.6-6.9c2.1-1.2 2.9-3.8 1.7-5.9l-3.1-5.6c5.2-4.3 9.6-9.6 12.9-15.5l6.4 1.9c2.3.7 4.7-.6 5.4-2.9l4.1-13.8c1-2.2-.4-4.6-2.7-5.3z" style="fill:none;stroke:#fff;stroke-width:7.8313;stroke-miterlimit:10"/><path d="M131.2 71.5c-4.4-10.8-15-18.4-27.4-18.4-16.3 0-29.6 13.2-29.6 29.6s13.2 29.6 29.6 29.6c12.4 0 23-7.6 27.4-18.4" style="fill:none;stroke:#fff;stroke-width:7.8313;stroke-linecap:round;stroke-miterlimit:10"/></svg>