<svg xmlns="http://www.w3.org/2000/svg" viewBox="0 0 356.5 320.5" style="enable-background:new 0 0 356.5 320.5" xml:space="preserve"><path d="M23.3 306.3h54.4c5 0 9.1-4.1 9.1-9.1V159.7c0-5-4.1-9.1-9.1-9.1H23.3c-5 0-9.1 4.1-9.1 9.1v137.5c0 5.1 4 9.1 9.1 9.1zm297.9-97.1c12.4 0 22.3-10.6 21-23.2-.9-8.9-7.6-15.9-16-18.2-.1-2.1-.3-4-.7-5.8 4.3-3.4 7.4-8.4 7.9-14.1 1.2-12.6-8.7-23.2-21-23.2h-92.3L231 94.8c8.3-22.8 4.6-48.3-10-67.8l-2.5-3.3c-4.6-6.1-11.8-9.6-19.4-9.4-6 .1-11 4.7-11.9 10.6l-5.4 33.8c-1.8 11-6.8 21.2-14.4 29.4 0 0-29.9 23.6-54.6 56.6-3.1 4.1-4.8 9.2-4.8 14.3v100.8c0 4.5 3.2 8.5 7.6 9.4l57.9 12c13.8 3.1 27.8 4.7 42 4.7h72.8c9.6 0 17.9-7.2 18.6-16.8.5-6.1-2.1-11.5-6.3-15.1.9-1.4 1.8-2.9 2.7-4.5h3c10.4 0 19.5-7.8 20.5-18.1.7-7.4-2.6-14-7.9-18.1.4-1.3.7-2.7 1.1-4.1h1.2z" style="fill:#333"/></svg>