<svg version="1.1" id="Layer_1" xmlns="http://www.w3.org/2000/svg" x="0" y="0" viewBox="0 0 130.56 250.09" style="enable-background:new 0 0 130.56 250.09" xml:space="preserve"><style>.st0{fill:none;stroke:#1a171b;stroke-width:.25;stroke-linejoin:round;stroke-miterlimit:10}.st1{fill:#1a171b}</style><path id="XMLID_3590_" class="st0" d="m36.11 23.43 19.59-1.2-4.36-7.36z"/><path id="XMLID_3589_" class="st0" d="m35.9 31.94 28.38-4.44-8.58-5.27z"/><path id="XMLID_3588_" class="st0" d="m35.9 31.94 26.57 8.02 1.81-12.46z"/><path id="XMLID_3587_" class="st0" d="m36.11 23.43-.21 8.51 19.8-9.71z"/><path id="XMLID_3586_" class="st0" d="m55.7 22.23 2.82-7.97-7.18.61z"/><path id="XMLID_3585_" class="st0" d="m55.7 22.23 11.99-5.7-3.41 10.97z"/><path id="XMLID_3584_" class="st0" d="m55.7 22.23 2.82-7.97 9.17 2.27z"/><path id="XMLID_3583_" class="st0" d="m64.28 27.5 3.41-10.97 10.64 2.01z"/><path id="XMLID_3582_" class="st0" d="m64.28 27.5 15.32 6.73-17.13 5.73z"/><path id="XMLID_3581_" class="st0" d="m78.33 18.54 1.27 15.69-15.32-6.73z"/><path id="XMLID_3580_" class="st0" d="m78.33 18.54 1.27 15.69 10.74-4.13z"/><path id="XMLID_3579_" class="st0" d="m90.34 30.1.37-9.74-12.38-1.82z"/><path id="XMLID_3578_" class="st0" d="m78.33 18.54 8.9-3.72 3.48 5.54z"/><path id="XMLID_3577_" class="st0" d="m78.33 18.54 1.47-3.98 7.43.26z"/><path id="XMLID_3576_" class="st0" d="m78.33 18.54-2.37-4.28 3.84.3z"/><path id="XMLID_3575_" class="st0" d="m75.96 14.26-8.27 2.27 10.64 2.01z"/><path id="XMLID_3574_" class="st0" d="m51.34 14.87 4.51-3.63 2.67 3.02z"/><path id="XMLID_3573_" class="st0" d="m55.85 11.24 2.67 3.02 11.42-2.05z"/><path id="XMLID_3572_" class="st0" d="m58.52 14.26 11.42-2.05-2.25 4.32z"/><path id="XMLID_3571_" class="st0" d="m75.96 14.26-6.02-2.05-2.25 4.32z"/><path id="XMLID_3570_" class="st0" d="m69.94 12.21 6.02-1.45v3.5z"/><path id="XMLID_3569_" class="st0" d="m75.96 10.76 3.84 3.8-3.84-.3z"/><path id="XMLID_3568_" class="st0" d="m75.96 10.76 11.27 4.06-7.43-.26z"/><path id="XMLID_3567_" class="st0" d="m90.71 20.36 11.05 1.06-11.42 8.68z"/><path id="XMLID_3566_" class="st0" d="m101.76 21.42-5.29-7.51-5.76 6.45z"/><path id="XMLID_3565_" class="st0" d="m92.92 9.99-5.69 4.83 9.24-.91z"/><path id="XMLID_3564_" class="st0" d="m83.63 10.78 3.6 4.04 5.69-4.83z"/><path id="XMLID_3563_" class="st0" d="M75.96 10.76 66.12 8.5l3.82 3.71z"/><path id="XMLID_3562_" class="st0" d="m66.12 8.5 3.82 3.71-7.96-2.86z"/><path id="XMLID_3561_" class="st0" d="m61.98 9.35-6.13 1.89 14.09.97z"/><path id="XMLID_3560_" class="st0" d="m61.98 9.35-4.5-1.29 8.64.44z"/><path id="XMLID_3559_" class="st0" d="m57.48 8.06-6.67 1.18 11.17.11z"/><path id="XMLID_3558_" class="st0" d="m50.81 9.24-2.39 1.52 13.56-1.41z"/><path id="XMLID_3557_" class="st0" d="M48.42 10.76 45.3 12.8l10.55-1.56z"/><path id="XMLID_3556_" class="st0" d="m48.42 10.76 7.43.48 6.13-1.89z"/><path id="XMLID_3555_" class="st0" d="m83.63 10.78-7.67-.02 11.27 4.06z"/><path id="XMLID_3554_" class="st0" d="m75.96 10.76 8.27-1.8-.6 1.82z"/><path id="XMLID_3553_" class="st0" d="m84.23 8.96 4.41-.74-5.01 2.56z"/><path id="XMLID_3552_" class="st0" d="m88.64 8.22 4.28 1.77-9.29.79z"/><path id="XMLID_3551_" class="st0" d="m84.23 8.96 4.99-2.16-.58 1.42z"/><path id="XMLID_3550_" class="st0" d="m89.22 6.8 5.89-1.57-6.47 2.99z"/><path id="XMLID_3549_" class="st0" d="m88.64 8.22 12.02-2.14-5.55-.85z"/><path id="XMLID_3548_" class="st0" d="m92.92 9.99 7.74-3.91-12.02 2.14z"/><path id="XMLID_3547_" class="st0" d="m92.92 9.99 10.26-1.37-6.71 5.29z"/><path id="XMLID_3546_" class="st0" d="m103.18 8.62 1.2 3.44-7.91 1.85z"/><path id="XMLID_3545_" class="st0" d="m103.18 8.62-2.52-2.54-7.74 3.91z"/><path id="XMLID_3544_" class="st0" d="m104.38 12.06-7.91 1.85 5.29 7.51z"/><path id="XMLID_3543_" class="st0" d="m90.71 20.36-3.48-5.54 9.24-.91z"/><path id="XMLID_3542_" class="st0" d="M55.85 11.24 45.3 12.8l6.04 2.07z"/><path id="XMLID_3541_" class="st0" d="m42.55 12.05 8.26-2.81-2.39 1.52z"/><path id="XMLID_3540_" class="st0" d="m45.3 12.8-2.75-.75 5.87-1.29z"/><path id="XMLID_3539_" class="st0" d="m45.3 12.8-4.06 1.85 1.31-2.6z"/><path id="XMLID_3538_" class="st0" d="m45.3 12.8-3.73 4.36-.33-2.51z"/><path id="XMLID_3537_" class="st0" d="m41.57 17.16 3.73-4.36 6.04 2.07z"/><path id="XMLID_3536_" class="st0" d="m41.57 17.16-5.46 6.27 15.23-8.56z"/><path id="XMLID_3535_" class="st0" d="m35.06 16.17 7.49-4.12-1.31 2.6z"/><path id="XMLID_3534_" class="st0" d="m35.06 16.17-.07 2.63 6.25-4.15z"/><path id="XMLID_3533_" class="st0" d="m34.99 18.8 6.58-1.64-.33-2.51z"/><path id="XMLID_3532_" class="st0" d="m35.06 16.17-4.71 5.14 4.64-2.51z"/><path id="XMLID_3531_" class="st0" d="m30.35 21.31-.13 4.16 4.77-6.67z"/><path id="XMLID_3530_" class="st0" d="m30.22 25.47 5.89-2.04-1.12-4.63z"/><path id="XMLID_3529_" class="st0" d="m30.35 21.31-3.63 6.49 3.5-2.33z"/><path id="XMLID_3528_" class="st0" d="m26.72 27.8-1.96 8.11 2.93-7.21z"/><path id="XMLID_3527_" class="st0" d="m27.69 28.7 2.53-3.23-3.5 2.33z"/><path id="XMLID_3526_" class="st0" d="m30.22 25.47 5.68 6.47.21-8.51z"/><path id="XMLID_3525_" class="st0" d="m30.22 25.47-2.53 3.23 8.21 3.24z"/><path id="XMLID_3524_" class="st0" d="m24.76 35.91 2.93-7.21 8.21 3.24z"/><path id="XMLID_3523_" class="st0" d="M62.47 39.96 35.9 31.94l7.56 15.6z"/><path id="XMLID_3522_" class="st0" d="m24.76 35.91 3.41 6.95 7.73-10.92z"/><path id="XMLID_3521_" class="st0" d="m43.46 47.54-7.56-15.6-7.73 10.92z"/><path id="XMLID_3520_" class="st0" d="m24.76 35.91-.89 12.33 4.3-5.38z"/><path id="XMLID_3519_" class="st0" d="m43.46 47.54-15.29-4.68 8.23 22.42z"/><path id="XMLID_3518_" class="st0" d="m23.87 48.24 2.01 16.63 2.29-22.01z"/><path id="XMLID_3517_" class="st0" d="m36.4 65.28-10.52-.41 2.29-22.01z"/><path id="XMLID_3516_" class="st0" d="m43.46 47.54 9.36 21.67-16.42-3.93z"/><path id="XMLID_3515_" class="st0" d="m62.47 39.96-9.65 29.25-9.36-21.67z"/><path id="XMLID_3514_" class="st0" d="m79.6 34.23 3.06 33.83-20.19-28.1z"/><path id="XMLID_3513_" class="st0" d="m52.82 69.21 29.84-1.15-20.19-28.1z"/><path id="XMLID_3512_" class="st0" d="m25.88 64.87 3.56 21.83 6.96-21.42z"/><path id="XMLID_3511_" class="st0" d="M52.82 69.21 29.44 86.7l6.96-21.42z"/><path id="XMLID_3510_" class="st0" d="M82.66 68.06 67.78 90.27 52.82 69.21z"/><path id="XMLID_3509_" class="st0" d="m29.44 86.7 17.31.47 6.07-17.96z"/><path id="XMLID_3508_" class="st0" d="m67.78 90.27-21.03-3.1 6.07-17.96z"/><path id="XMLID_3507_" class="st0" d="M79.6 34.23 96.35 56.3 82.66 68.06z"/><path id="XMLID_3506_" class="st0" d="m90.34 30.1 5.93 9.37-16.67-5.24z"/><path id="XMLID_3505_" class="st0" d="M96.35 56.3 79.6 34.23l16.67 5.24z"/><path id="XMLID_3504_" class="st0" d="M101.76 21.42 90.34 30.1l5.93 9.37z"/><path id="XMLID_3503_" class="st0" d="m101.76 21.42 2.62-9.36 6.94 5.23z"/><path id="XMLID_3502_" class="st0" d="m111.32 17.29-1.59 10.81-7.97-6.68z"/><path id="XMLID_3501_" class="st0" d="m96.27 39.47 5.49-18.05 7.97 6.68z"/><path id="XMLID_3500_" class="st0" d="m109.73 28.1 4.84 16.65-18.3-5.28z"/><path id="XMLID_3499_" class="st0" d="m96.35 56.3-.08-16.83 18.3 5.28z"/><path id="XMLID_3498_" class="st0" d="M82.66 68.06 96.35 56.3l4.19 17.27z"/><path id="XMLID_3497_" class="st0" d="M114.57 44.75 96.35 56.3l17.94 6.05z"/><path id="XMLID_3496_" class="st0" d="M100.54 73.57 96.35 56.3l17.94 6.05z"/><path id="XMLID_3495_" class="st0" d="m82.66 68.06 3.41 18.64-18.29 3.57z"/><path id="XMLID_3494_" class="st0" d="M100.54 73.57 86.07 86.7l-3.41-18.64z"/><path id="XMLID_3493_" class="st0" d="m114.29 62.35 4.44 12.53-18.19-1.31z"/><path id="XMLID_3492_" class="st0" d="m86.07 86.7 14.47-13.13 2.93 14.84z"/><path id="XMLID_3491_" class="st0" d="m118.73 74.88-15.26 13.53-2.93-14.84z"/><path id="XMLID_3490_" class="st0" d="m114.29 62.35 6.94-8.11-2.5 20.64z"/><path id="XMLID_3489_" class="st0" d="m114.57 44.75-.28 17.6 6.94-8.11z"/><path id="XMLID_3488_" class="st0" d="m95.11 5.23 8.2-1.02-2.65 1.87z"/><path id="XMLID_3487_" class="st0" d="m100.66 6.08 2.65-1.87 6.85.82z"/><path id="XMLID_3486_" class="st0" d="m103.18 8.62-2.52-2.54 9.5-1.05z"/><path id="XMLID_3485_" class="st0" d="m103.18 8.62 9.61-.81-2.63-2.78z"/><path id="XMLID_3484_" class="st0" d="m112.79 7.81 3.28-.42-5.91-2.36z"/><path id="XMLID_3483_" class="st0" d="m104.38 12.06 8.41-4.25-9.61.81z"/><path id="XMLID_3482_" class="st0" d="m112.79 7.81 5.01 2.67-1.73-3.09z"/><path id="XMLID_3481_" class="st0" d="m104.38 12.06 13.42-1.58-5.01-2.67z"/><path id="XMLID_3480_" class="st0" d="m104.38 12.06 13.89 3.58-6.95 1.65z"/><path id="XMLID_3479_" class="st0" d="m104.38 12.06 13.42-1.58.47 5.16z"/><path id="XMLID_3478_" class="st0" d="m116.07 7.39 4.82 3.03-3.09.06z"/><path id="XMLID_3477_" class="st0" d="m120.89 10.42-2.62 5.22-.47-5.16z"/><path id="XMLID_3476_" class="st0" d="m120.89 10.42 5.48 6.32-4.13-2.37z"/><path id="XMLID_3475_" class="st0" d="m122.24 14.37-3.97 1.27 2.62-5.22z"/><path id="XMLID_3474_" class="st0" d="m111.32 17.29 8.25 3.56-1.3-5.21z"/><path id="XMLID_3473_" class="st0" d="m119.57 20.85 2.67-6.48-3.97 1.27z"/><path id="XMLID_3472_" class="st0" d="m122.24 14.37 3.66 5.84.47-3.47z"/><path id="XMLID_3471_" class="st0" d="m119.57 20.85 6.12 3.4-3.45-9.88z"/><path id="XMLID_3470_" class="st0" d="m125.9 20.21-.21 4.04-3.45-9.88z"/><path id="XMLID_3469_" class="st0" d="m126.37 16.74 2.93 8.92-3.4-5.45z"/><path id="XMLID_3468_" class="st0" d="m125.9 20.21 3.4 5.45-3.61-1.41z"/><path id="XMLID_3467_" class="st0" d="m129.3 25.66-1.47 2.84-2.14-4.25z"/><path id="XMLID_3466_" class="st0" d="m111.32 17.29 6.67 7.66 1.58-4.1z"/><path id="XMLID_3465_" class="st0" d="m109.73 28.1 1.59-10.81 6.67 7.66z"/><path id="XMLID_3464_" class="st0" d="m117.99 24.95 5.79 2.92-4.21-7.02z"/><path id="XMLID_3463_" class="st0" d="m123.78 27.87 1.91-3.62-6.12-3.4z"/><path id="XMLID_3462_" class="st0" d="m123.78 27.87 1.91-3.62 2.14 4.25z"/><path id="XMLID_3461_" class="st0" d="m117.99 24.95 2.54 5.5 3.25-2.58z"/><path id="XMLID_3460_" class="st0" d="m109.73 28.1 8.26-3.15 2.54 5.5z"/><path id="XMLID_3459_" class="st0" d="m109.73 28.1 12.1 9.16-7.26 7.49z"/><path id="XMLID_3458_" class="st0" d="m120.53 30.45 1.3 6.81-12.1-9.16z"/><path id="XMLID_3457_" class="st0" d="m120.53 30.45 3.25-2.58 3.12 7.55z"/><path id="XMLID_3456_" class="st0" d="m126.9 35.42-3.12-7.55 4.05.63z"/><path id="XMLID_3455_" class="st0" d="m129.3 25.66.5 8.35-1.97-5.51z"/><path id="XMLID_3454_" class="st0" d="m129.8 34.01-2.9 1.41.93-6.92z"/><path id="XMLID_3453_" class="st0" d="m121.83 37.26-1.3-6.81 6.37 4.97z"/><path id="XMLID_3452_" class="st0" d="m126.9 35.42 2.58 5.62.32-7.03z"/><path id="XMLID_3451_" class="st0" d="M126.9 35.42v7.91l2.58-2.29z"/><path id="XMLID_3450_" class="st0" d="m121.83 37.26 5.07 6.07v-7.91z"/><path id="XMLID_3449_" class="st0" d="m121.83 37.26 2.53 9.86 2.54-3.79z"/><path id="XMLID_3448_" class="st0" d="m114.57 44.75 7.26-7.49 2.53 9.86z"/><path id="XMLID_3447_" class="st0" d="m124.36 47.12-3.13 7.12-6.66-9.49z"/><path id="XMLID_3446_" class="st0" d="m126.9 43.33.65 6.57-3.19-2.78z"/><path id="XMLID_3445_" class="st0" d="m126.9 43.33 2.58-2.29-1.93 8.86.98 2.84.95-11.7"/><path id="XMLID_3444_" class="st0" d="m127.55 49.9-.45 12.49 1.43-9.65z"/><path id="XMLID_3443_" class="st0" d="m124.36 47.12 2.74 15.27.45-12.49z"/><path id="XMLID_3442_" class="st0" d="m124.36 47.12-3.13 7.12 5.87 8.15z"/><path id="XMLID_3441_" class="st0" d="m121.23 54.24 3.3 11.51 2.57-3.36z"/><path id="XMLID_3440_" class="st0" d="m118.73 74.88 2.5-20.64 3.3 11.51z"/><path id="XMLID_3439_" class="st0" d="m118.73 74.88 7.34-2.07-1.54-7.06z"/><path id="XMLID_3438_" class="st0" d="m126.07 72.81 1.03-10.42-2.57 3.36z"/><path id="XMLID_3437_" class="st0" d="m118.73 74.88 5.16 4.91 2.18-6.98z"/><path id="XMLID_3436_" class="st0" d="m126.07 72.81-.65 11.99-1.53-5.01z"/><path id="XMLID_3435_" class="st0" d="m118.73 74.88 4.69 15.39.47-10.48z"/><path id="XMLID_3434_" class="st0" d="m123.89 79.79 1.53 5.01-2 5.47z"/><path id="XMLID_3433_" class="st0" d="m118.73 74.88-2.45 21.28 7.14-5.89z"/><path id="XMLID_3432_" class="st0" d="m103.47 88.41 12.81 7.75 2.45-21.28z"/><path id="XMLID_3431_" class="st0" d="m125.42 84.8.59 10.61-2.59-5.14z"/><path id="XMLID_3430_" class="st0" d="m116.28 96.16 7.14-5.89.88 9.97z"/><path id="XMLID_3429_" class="st0" d="m126.01 95.41-1.71 4.83-.88-9.97z"/><path id="XMLID_3428_" class="st0" d="m124.3 100.24 4.12 8.33-2.41-13.16z"/><path id="XMLID_3427_" class="st0" d="m124.3 100.24 1.74 14.27 2.38-5.94z"/><path id="XMLID_3426_" class="st0" d="m116.28 96.16 9.76 18.35-1.74-14.27z"/><path id="XMLID_3425_" class="st0" d="m103.47 88.41 7.34 14.99 5.47-7.24z"/><path id="XMLID_3424_" class="st0" d="m29.44 86.7 17.31.47-13.6 19.78z"/><path id="XMLID_3423_" class="st0" d="m67.78 90.27-21.03-3.1 12.26 19.43z"/><path id="XMLID_3422_" class="st0" d="m33.15 106.95 13.6-19.78-1.08 18.17z"/><path id="XMLID_3421_" class="st0" d="m59.01 106.6-13.34-1.26 1.08-18.17z"/><path id="XMLID_3420_" class="st0" d="m67.78 90.27 8.19 20.43-16.96-4.1z"/><path id="XMLID_3419_" class="st0" d="m86.07 86.7-10.1 24-8.19-20.43z"/><path id="XMLID_3418_" class="st0" d="m103.47 88.41-9.51 17.57-7.89-19.28z"/><path id="XMLID_3417_" class="st0" d="m75.97 110.7 10.1-4.66V86.7z"/><path id="XMLID_3416_" class="st0" d="m93.96 105.98-7.89.06V86.7z"/><path id="XMLID_3415_" class="st0" d="m75.97 110.7 10.87 1.7-.77-6.36z"/><path id="XMLID_3414_" class="st0" d="m93.96 105.98-7.12 6.42-.77-6.36z"/><path id="XMLID_3413_" class="st0" d="m83.72 125.07-7.75-14.37 10.87 1.7z"/><path id="XMLID_3412_" class="st0" d="m93.96 105.98 2.49 16.82-6.35 13.02z"/><path id="XMLID_3411_" class="st0" d="m75.97 110.7-.65 17.37 8.4-3z"/><path id="XMLID_3410_" class="st0" d="m90.1 135.82 3.65 2.22 2.7-15.24z"/><path id="XMLID_3409_" class="st0" d="m93.96 105.98 8.6 13.76-6.11 3.06z"/><path id="XMLID_3408_" class="st0" d="m93.75 138.04 2.7-15.24 2.7 16.43z"/><path id="XMLID_3407_" class="st0" d="m102.56 119.74-3.41 19.49-2.7-16.43z"/><path id="XMLID_3406_" class="st0" d="m93.96 105.98 16.61 8.4-8.01 5.36z"/><path id="XMLID_3405_" class="st0" d="m103.47 88.41 7.34 14.99-16.85 2.58z"/><path id="XMLID_3404_" class="st0" d="m110.57 114.38.24-10.98-16.85 2.58z"/><path id="XMLID_3403_" class="st0" d="m116.28 96.16 9.76 18.35-15.23-11.11z"/><path id="XMLID_3402_" class="st0" d="m110.57 114.38.24-10.98 10.43 16.66z"/><path id="XMLID_3401_" class="st0" d="m126.04 114.51-4.8 5.55-10.43-16.66z"/><path id="XMLID_3400_" class="st0" d="m102.56 119.74 11.59 10.33-3.58-15.69z"/><path id="XMLID_3399_" class="st0" d="m121.24 120.06-7.09 10.01-3.58-15.69z"/><path id="XMLID_3398_" class="st0" d="m99.15 139.23 3.41-19.49 11.59 10.33z"/><path id="XMLID_3397_" class="st0" d="m96.45 150.16-2.7-12.12 5.4 1.19z"/><path id="XMLID_3396_" class="st0" d="m114.15 130.07-5.47 13.4-9.53-4.24z"/><path id="XMLID_3395_" class="st0" d="m96.45 150.16 12.23-6.69-9.53-4.24z"/><path id="XMLID_3394_" class="st0" d="m114.15 130.07 7.09-10.01 6.08 8.87z"/><path id="XMLID_3393_" class="st0" d="m126.04 114.51 1.28 14.42-6.08-8.87z"/><path id="XMLID_3392_" class="st0" d="m128.42 108.57.97 10.52-3.35-4.58z"/><path id="XMLID_3391_" class="st0" d="m127.32 128.93 2.07-9.84-3.35-4.58z"/><path id="XMLID_3390_" class="st0" d="m130.44 135.61-1.05-16.52-2.07 9.84z"/><path id="XMLID_3389_" class="st0" d="m114.15 130.07 14.69 16.35-1.52-17.49z"/><path id="XMLID_3388_" class="st0" d="m130.44 135.61-1.6 10.81-1.52-17.49z"/><path id="XMLID_3387_" class="st0" d="m108.68 143.47 5.47-13.4 14.69 16.35z"/><path id="XMLID_3386_" class="st0" d="m96.45 150.16.95 10.53 11.28-17.22z"/><path id="XMLID_3385_" class="st0" d="m128.84 146.42-11.32 8.31-8.84-11.26z"/><path id="XMLID_3384_" class="st0" d="m97.4 160.69 11.28-17.22 8.84 11.26z"/><path id="XMLID_3383_" class="st0" d="m127.39 164.19-9.87-9.46 11.32-8.31z"/><path id="XMLID_3382_" class="st0" d="m97.4 160.69 6.07 6.42 14.05-12.38z"/><path id="XMLID_3381_" class="st0" d="m127.39 164.19-9.91 4.92.04-14.38z"/><path id="XMLID_3380_" class="st0" d="m103.47 167.11 14.05-12.38-.04 14.38z"/><path id="XMLID_3379_" class="st0" d="m97.4 160.69 2.96 17.19 3.11-10.77z"/><path id="XMLID_3378_" class="st0" d="m117.48 169.11-17.12 8.77 3.11-10.77z"/><path id="XMLID_3377_" class="st0" d="m127.39 164.19-4.96 19.82-4.95-14.9z"/><path id="XMLID_3376_" class="st0" d="m100.36 177.88 6.85 7.41 10.27-16.18z"/><path id="XMLID_3375_" class="st0" d="m100.97 190.17-.61-12.29 6.85 7.41z"/><path id="XMLID_3374_" class="st0" d="m117.48 169.11-4.74 24.88-5.53-8.7z"/><path id="XMLID_3373_" class="st0" d="m122.43 184.01-9.69 9.98 4.74-24.88z"/><path id="XMLID_3372_" class="st0" d="m107.21 185.29-3.09 17.99 8.62-9.29z"/><path id="XMLID_3371_" class="st0" d="m105.98 211.74-1.86-8.46 8.62-9.29z"/><path id="XMLID_3370_" class="st0" d="m112.45 204.63.29-10.64 9.69-9.98z"/><path id="XMLID_3369_" class="st0" d="m105.98 211.74 6.47-7.11.29-10.64z"/><path id="XMLID_3368_" class="st0" d="m104.12 203.28-4.94-1.09 1.78 7.72z"/><path id="XMLID_3367_" class="st0" d="m105.98 211.74-1.86-8.46-3.16 6.63z"/><path id="XMLID_3366_" class="st0" d="m100.97 190.17 3.15 13.11 3.09-17.99z"/><path id="XMLID_3365_" class="st0" d="m99.18 202.19 4.94 1.09-3.15-13.11z"/><path id="XMLID_3364_" class="st0" d="m90.1 135.82-3.26-23.42 7.12-6.42z"/><path id="XMLID_3363_" class="st0" d="m75.97 110.7-.65 17.37-11.49-2.96z"/><path id="XMLID_3362_" class="st0" d="m81.08 143.95-5.76-15.88 8.4-3z"/><path id="XMLID_3361_" class="st0" d="m63.83 125.11 8.18 14.55 3.31-11.59z"/><path id="XMLID_3360_" class="st0" d="m81.08 143.95-9.07-4.29 3.31-11.59z"/><path id="XMLID_3359_" class="st0" d="m75.97 110.7-16.96-4.1 4.82 18.51z"/><path id="XMLID_3358_" class="st0" d="m45.67 105.34-1.11 12.1 14.45-10.84z"/><path id="XMLID_3357_" class="st0" d="m63.83 125.11-19.27-7.67 14.45-10.84z"/><path id="XMLID_3356_" class="st0" d="m51.41 153.02 12.42-27.91-16.41 6.23z"/><path id="XMLID_3355_" class="st0" d="m44.56 117.44 2.86 13.9 16.41-6.23z"/><path id="XMLID_3354_" class="st0" d="m39.41 138.25 8.01-6.91-2.86-13.9z"/><path id="XMLID_3353_" class="st0" d="m33.15 106.95 2.66 9.1 9.86-10.71z"/><path id="XMLID_3352_" class="st0" d="m44.56 117.44-8.75-1.39 9.86-10.71z"/><path id="XMLID_3351_" class="st0" d="m33.63 135.92 2.18-19.87 8.75 1.39z"/><path id="XMLID_3350_" class="st0" d="m39.41 138.25-5.78-2.33 10.93-18.48z"/><path id="XMLID_3349_" class="st0" d="m37.39 145.5-3.76-9.58 5.78 2.33z"/><path id="XMLID_3348_" class="st0" d="m43.41 148.35-6.02-2.85 2.02-7.25z"/><path id="XMLID_3347_" class="st0" d="m47.42 131.34-4.01 17.01-4-10.1z"/><path id="XMLID_3346_" class="st0" d="m51.41 153.02-3.99-21.68-4.01 17.01z"/><path id="XMLID_3345_" class="st0" d="m37.39 145.5 7.17 25.69-1.15-22.84z"/><path id="XMLID_3344_" class="st0" d="m51.41 153.02-6.85 18.17-1.15-22.84z"/><path id="XMLID_3343_" class="st0" d="m48.94 186.77-4.38-15.58 6.85-18.17z"/><path id="XMLID_3342_" class="st0" d="m72.01 139.66-20.6 13.36 12.42-27.91z"/><path id="XMLID_3341_" class="st0" d="m74.49 151.42-2.48-11.76 9.07 4.29z"/><path id="XMLID_3340_" class="st0" d="m80.13 174.32-5.64-22.9 6.59-7.47z"/><path id="XMLID_3339_" class="st0" d="m72.01 139.66 2.48 11.76-23.08 1.6z"/><path id="XMLID_3338_" class="st0" d="m48.94 186.77 2.47-33.75 15.53 23.28z"/><path id="XMLID_3337_" class="st0" d="m74.49 151.42-7.55 24.88-15.53-23.28z"/><path id="XMLID_3336_" class="st0" d="m80.13 174.32-13.19 1.98 7.55-24.88z"/><path id="XMLID_3335_" class="st0" d="m44.56 171.19 2.86 31.38 1.52-15.8z"/><path id="XMLID_3334_" class="st0" d="m66.94 176.3-10.58 25.26-7.42-14.79z"/><path id="XMLID_3333_" class="st0" d="m47.42 202.57 8.94-1.01-7.42-14.79z"/><path id="XMLID_3332_" class="st0" d="m66.94 176.3 6.33 15.42-16.91 9.84z"/><path id="XMLID_3331_" class="st0" d="m80.13 174.32-6.86 17.4-6.33-15.42z"/><path id="XMLID_3330_" class="st0" d="m80.06 195.62-6.79-3.9 6.86-17.4z"/><path id="XMLID_3329_" class="st0" d="M47.42 202.57 55.39 217l.97-15.44z"/><path id="XMLID_3328_" class="st0" d="M73.27 191.72 55.39 217l.97-15.44z"/><path id="XMLID_3327_" class="st0" d="m80.06 195.62-9.22 16.87 2.43-20.77z"/><path id="XMLID_3326_" class="st0" d="m55.39 217 15.45-4.51 2.43-20.77z"/><path id="XMLID_3325_" class="st0" d="m47.42 202.57 5.9 26.17L55.39 217z"/><path id="XMLID_3324_" class="st0" d="m70.84 212.49.38 21.33L55.39 217z"/><path id="XMLID_3322_" class="st0" d="m71.22 233.82-.38-21.33 8.34 14.3z"/><path id="XMLID_3321_" class="st0" d="m53.32 228.74 5.32 7.86-3.25-19.6z"/><path id="XMLID_3320_" class="st0" d="m71.22 233.82-12.58 2.78-3.25-19.6z"/><path id="XMLID_3319_" class="st0" d="m53.32 228.74 3.41 14.43 1.91-6.57z"/><path id="XMLID_3318_" class="st0" d="m63.51 249.81-6.78-6.64 1.91-6.57z"/><path id="XMLID_3317_" class="st0" d="m66.63 241.36-3.12 8.45-4.87-13.21z"/><path id="XMLID_3316_" class="st0" d="m71.22 233.82-4.59 7.54-7.99-4.76z"/><path id="XMLID_3315_" class="st0" d="m73.98 242.16-2.76-8.34 7.96-7.03z"/><path id="XMLID_3314_" class="st0" d="m66.63 241.36 7.35.8-2.76-8.34z"/><path id="XMLID_3313_" class="st0" d="m63.51 249.81 6.91-1.43-3.79-7.02z"/><path id="XMLID_3312_" class="st0" d="m73.98 242.16-3.56 6.22-3.79-7.02z"/><path id="XMLID_3311_" class="st0" d="m29.44 86.7-6.2 25.03 9.91-4.78z"/><path id="XMLID_3310_" class="st0" d="m35.81 116.05-12.57-4.32 9.91-4.78z"/><path id="XMLID_3309_" class="st0" d="m27.68 139.07-.87-17.16-10.99 27.19z"/><path id="XMLID_3308_" class="st0" d="m23.24 111.73-7.42 20.58 10.99-10.4z"/><path id="XMLID_3307_" class="st0" d="m35.81 116.05-9 5.86-3.57-10.18z"/><path id="XMLID_3306_" class="st0" d="m33.63 135.92-6.82-14.01 9-5.86z"/><path id="XMLID_3305_" class="st0" d="m27.68 139.07 5.95-3.15-6.82-14.01z"/><path id="XMLID_3304_" class="st0" d="m15.82 149.1 21.57-3.6-9.71-6.43z"/><path id="XMLID_3303_" class="st0" d="m33.63 135.92 3.76 9.58-9.71-6.43z"/><path id="XMLID_3302_" class="st0" d="m23.65 25.43-10.78 4.54 4.65-7.09z"/><path id="XMLID_3301_" class="st0" d="m13.13 38.68-.26-8.71 10.78-4.54z"/><path id="XMLID_3300_" class="st0" d="m19.01 45.3-5.88-6.62 10.52-13.25z"/><path id="XMLID_3299_" class="st0" d="m24.76 35.91-5.75 9.39 4.64-19.87z"/><path id="XMLID_3298_" class="st0" d="m28.93 20.46-11.41 2.42 5.43-6.78z"/><path id="XMLID_3297_" class="st0" d="m23.65 25.43 5.28-4.97-11.41 2.42z"/><path id="XMLID_3296_" class="st0" d="m22.95 16.1 6.49-.17-.51 4.53z"/><path id="XMLID_3295_" class="st0" d="m23.65 25.43 3.07 2.37 2.21-7.34z"/><path id="XMLID_3294_" class="st0" d="m24.76 35.91-1.11-10.48 3.07 2.37z"/><path id="XMLID_3293_" class="st0" d="m29.44 15.93.14-4.4-6.63 4.57z"/><path id="XMLID_3292_" class="st0" d="m35.9 12.8-6.32-1.27 6-3.96z"/><path id="XMLID_3291_" class="st0" d="m28.93 20.46 1.42.85-.91-5.38z"/><path id="XMLID_3290_" class="st0" d="m35.06 16.17-5.62-.24.91 5.38z"/><path id="XMLID_3289_" class="st0" d="m35.9 12.8-6.46 3.13.14-4.4z"/><path id="XMLID_3288_" class="st0" d="m15.82 132.31 10.99-10.4-10.99 27.19z"/><path id="XMLID_3287_" class="st0" d="m37.39 145.5-14.15 14.2-7.42-10.6z"/><path id="XMLID_3286_" class="st0" d="M15.82 132.31v16.79l-9.97-2.95z"/><path id="XMLID_3285_" class="st0" d="M23.24 159.7 1.68 173.62l14.14-24.52z"/><path id="XMLID_3284_" class="st0" d="m5.85 146.15-4.17 27.47 14.14-24.52z"/><path id="XMLID_3283_" class="st0" d="m23.24 159.7 8.88 10.99-14.4 13.22z"/><path id="XMLID_3282_" class="st0" d="m8.69 180.92 14.55-21.22-5.52 24.21z"/><path id="XMLID_3281_" class="st0" d="m1.68 173.62 21.56-13.92-14.55 21.22z"/><path id="XMLID_3280_" class="st0" d="m17.72 183.91-7.38 18.27-1.65-21.26z"/><path id="XMLID_3279_" class="st0" d="m4.65 190.32 4.04-9.4 1.65 21.26z"/><path id="XMLID_3278_" class="st0" d="m1.68 173.62 2.97 16.7 4.04-9.4z"/><path id="XMLID_3277_" class="st0" d="m5.85 146.15-4.14 8.47-.03 19z"/><path id="XMLID_3276_" class="st0" d="m2.82 136.32 3.03 9.83-4.14 8.47z"/><path id="XMLID_3275_" class="st0" d="m9.37 127.53-6.55 8.79 3.03 9.83z"/><path id="XMLID_3274_" class="st0" d="m15.82 132.31-6.45-4.78-3.52 18.62z"/><path id="XMLID_3273_" class="st0" d="m6.16 122.06 3.21 5.47-6.55 8.79z"/><path id="XMLID_3272_" class="st0" d="m23.24 111.73-13.87 15.8 6.45 4.78z"/><path id="XMLID_3271_" class="st0" d="m6.16 122.06 5.52-11.54-2.31 17.01z"/><path id="XMLID_3270_" class="st0" d="m23.24 111.73-1.59-8.23-12.28 24.03z"/><path id="XMLID_3269_" class="st0" d="m11.68 110.52 9.97-7.02-12.28 24.03z"/><path id="XMLID_3268_" class="st0" d="m6.16 122.06 2.68-16.81 2.84 5.27z"/><path id="XMLID_3267_" class="st0" d="m21.65 103.5-9.76-4.36-.21 11.38z"/><path id="XMLID_3266_" class="st0" d="m8.84 105.25 3.05-6.11-.21 11.38z"/><path id="XMLID_3265_" class="st0" d="m29.44 86.7-7.79 16.8 1.59 8.23z"/><path id="XMLID_3264_" class="st0" d="m11.89 99.14 5.85-18.75 3.91 23.11z"/><path id="XMLID_3263_" class="st0" d="m29.44 86.7-11.7-6.31 3.91 23.11z"/><path id="XMLID_3262_" class="st0" d="m25.88 64.87-8.14 15.52 11.7 6.31z"/><path id="XMLID_3261_" class="st0" d="m11.89 99.14-.37-11.97 6.22-6.78z"/><path id="XMLID_3260_" class="st0" d="m9.5 93.36-.66 11.89 3.05-6.11z"/><path id="XMLID_3259_" class="st0" d="M11.52 87.17 9.5 93.36l2.39 5.78z"/><path id="XMLID_3258_" class="st0" d="m17.74 80.39-9.35-.9 3.13 7.68z"/><path id="XMLID_3257_" class="st0" d="M9.5 93.36 8.39 79.49l3.13 7.68z"/><path id="XMLID_3256_" class="st0" d="M17.74 80.39 9.7 70.76l-1.31 8.73z"/><path id="XMLID_3255_" class="st0" d="m6.19 68.14 3.51 2.62-1.31 8.73z"/><path id="XMLID_3254_" class="st0" d="M14.05 57.47 6.19 68.14l3.51 2.62z"/><path id="XMLID_3253_" class="st0" d="m17.74 80.39-3.69-22.92L9.7 70.76z"/><path id="XMLID_3252_" class="st0" d="m25.88 64.87-11.83-7.4 3.69 22.92z"/><path id="XMLID_3251_" class="st0" d="m6.19 68.14 3.58-18.7 4.28 8.03z"/><path id="XMLID_3250_" class="st0" d="m23.87 48.24-9.82 9.23 11.83 7.4z"/><path id="XMLID_3249_" class="st0" d="m24.76 35.91-.89 12.33-4.86-2.94z"/><path id="XMLID_3248_" class="st0" d="m13.13 38.68-8.97.13 2.08 6.43z"/><path id="XMLID_3247_" class="st0" d="m19.01 45.3-4.96 12.17 9.82-9.23z"/><path id="XMLID_3246_" class="st0" d="m9.77 49.44 9.24-4.14-4.96 12.17z"/><path id="XMLID_3245_" class="st0" d="M13.13 38.68 9.77 49.44l9.24-4.14z"/><path id="XMLID_3244_" class="st0" d="m6.24 45.24 3.53 4.2 3.36-10.76z"/><path id="XMLID_3243_" class="st0" d="m6.19 68.14-.73-14.61 4.31-4.09z"/><path id="XMLID_3242_" class="st0" d="m6.24 45.24-.78 8.29 4.31-4.09z"/><path id="XMLID_3241_" class="st0" d="m4.16 38.81-1.7 4.49 3.78 1.94z"/><path id="XMLID_3240_" class="st0" d="m5.46 53.53-3-10.23 3.78 1.94z"/><path id="XMLID_3239_" class="st0" d="M2.46 57.47V43.3l3 10.23z"/><path id="XMLID_3238_" class="st0" d="M6.19 68.14 2.46 57.47l3-3.94z"/><path id="XMLID_3237_" class="st0" d="m32.12 170.69 5.27-25.19-14.15 14.2z"/><path id="XMLID_3236_" class="st0" d="m17.72 183.91 9.09 7.64 5.31-20.86z"/><path id="XMLID_3235_" class="st0" d="m10.34 202.18 6.95-6.73.43-11.54z"/><path id="XMLID_3234_" class="st0" d="m26.81 191.55-9.52 3.9.43-11.54z"/><path id="XMLID_3233_" class="st0" d="m19.15 202.97-8.81-.79 6.95-6.73z"/><path id="XMLID_3232_" class="st0" d="m26.81 191.55-7.66 11.42-1.86-7.52z"/><path id="XMLID_3231_" class="st0" d="m19.81 212.54-.66-9.57 8.53 6.31z"/><path id="XMLID_3230_" class="st0" d="m10.34 202.18 9.47 10.36-.66-9.57z"/><path id="XMLID_3229_" class="st0" d="m26.81 191.55.87 17.73-8.53-6.31z"/><path id="XMLID_3228_" class="st0" d="m19.81 212.54 5.69 6.56-1.97 3.49z"/><path id="XMLID_3227_" class="st0" d="m27.68 209.28-2.18 9.82-5.69-6.56z"/><path id="XMLID_3226_" class="st0" d="m26.81 191.55 6.83 19.66-5.96-1.93z"/><path id="XMLID_3225_" class="st0" d="m25.5 219.1 8.14-7.89-5.96-1.93z"/><path id="XMLID_3224_" class="st0" d="m26.81 191.55 13.12 20.96-6.29-1.3z"/><path id="XMLID_3223_" class="st0" d="m25.5 219.1 5.14 5.33 3-13.22z"/><path id="XMLID_3222_" class="st0" d="m23.53 222.59 4.64 4.13-2.67-7.62z"/><path id="XMLID_3221_" class="st0" d="m30.64 224.43-2.47 2.29-2.67-7.62z"/><path id="XMLID_3220_" class="st0" d="m33.64 211.21 2.27 12.12-5.27 1.1z"/><path id="XMLID_3219_" class="st0" d="m28.17 226.72 2.47-2.29 2.69 2.29z"/><path id="XMLID_3218_" class="st0" d="m35.91 223.33-2.58 3.39-2.69-2.29z"/><path id="XMLID_3217_" class="st0" d="m39.93 212.51-4.02 10.82-2.27-12.12z"/><path id="XMLID_3216_" class="st0" d="m33.33 226.72 3.91-1.91-1.33-1.48z"/><path id="XMLID_3215_" class="st0" d="m39.93 212.51-1.2 8.33-2.82 2.49z"/><path id="XMLID_3214_" class="st0" d="m37.24 224.81 1.49-3.97-2.82 2.49z"/><path id="XMLID_3213_" class="st0" d="m32.12 170.69-1.65 16.51-3.66 4.35z"/><path id="XMLID_3212_" class="st0" d="m39.93 212.51-9.46-25.31-3.66 4.35z"/><path id="XMLID_3211_" class="st0" d="m12.87 29.97-8.71 8.84 8.97-.13z"/><path id="XMLID_3210_" class="st0" d="m9.37 27.21 3.5 2.76-8.71 8.84z"/><path id="XMLID_3209_" class="st0" d="m2.46 43.3-.66-9.05 2.36 4.56z"/><path id="XMLID_3208_" class="st0" d="m9.37 27.21-5.35 1.45.14 10.15z"/><path id="XMLID_3207_" class="st0" d="m1.8 34.25 2.22-5.59.14 10.15z"/><path id="XMLID_3206_" class="st0" d="m2.2 25.29-.4 8.96 2.22-5.59z"/><path id="XMLID_3205_" class="st0" d="M7.01 23.24 2.2 25.29l1.82 3.37z"/><path id="XMLID_3204_" class="st0" d="m9.37 27.21-2.36-3.97-2.99 5.42z"/><path id="XMLID_3203_" class="st0" d="m12.87 29.97-3.5-2.76 8.15-4.33z"/><path id="XMLID_3202_" class="st0" d="m15.47 19.03-6.1 8.18 8.15-4.33z"/><path id="XMLID_3201_" class="st0" d="m22.95 16.1-7.48 2.93 2.05 3.85z"/><path id="XMLID_3200_" class="st0" d="m7.01 23.24 8.46-4.21-6.1 8.18z"/><path id="XMLID_3199_" class="st0" d="m2.2 25.29 4.41-6.86.4 4.81z"/><path id="XMLID_3198_" class="st0" d="M5.15 16.34 2.2 25.29l4.41-6.86z"/><path id="XMLID_3197_" class="st0" d="m12.36 9.09-7.21 7.25 5.05-2.77z"/><path id="XMLID_3196_" class="st0" d="m6.61 18.43 3.59-4.86-5.05 2.77z"/><path id="XMLID_3195_" class="st0" d="m7.01 23.24 5.84-7.36-6.24 2.55z"/><path id="XMLID_3194_" class="st0" d="m10.2 13.57 2.65 2.31-6.24 2.55z"/><path id="XMLID_3193_" class="st0" d="m12.36 9.09 6.24-.61-8.4 5.09z"/><path id="XMLID_3192_" class="st0" d="m19.53 11.32-9.33 2.25 8.4-5.09z"/><path id="XMLID_3191_" class="st0" d="m12.85 15.88-2.65-2.31 9.33-2.25z"/><path id="XMLID_3190_" class="st0" d="m7.01 23.24 5.84-7.36 2.62 3.15z"/><path id="XMLID_3189_" class="st0" d="m19.53 11.32 3.42 4.78-10.1-.22z"/><path id="XMLID_3188_" class="st0" d="m15.47 19.03-2.62-3.15 10.1.22z"/><path id="XMLID_3187_" class="st0" d="m19.53 11.32 10.05.21-6.63 4.57z"/><path id="XMLID_3186_" class="st0" d="m18.6 8.48 10.98 3.05-10.05-.21z"/><path id="XMLID_3185_" class="st0" d="m12.36 9.09 11.65-5.11-5.41 4.5z"/><path id="XMLID_3184_" class="st0" d="m29.58 11.53-.98-4.57-10 1.52z"/><path id="XMLID_3183_" class="st0" d="m35.58 7.57-6.98-.61.98 4.57z"/><path id="XMLID_3182_" class="st0" d="m24.01 3.98 2.48.82-7.89 3.68z"/><path id="XMLID_3181_" class="st0" d="M32.1 2.37 26.49 4.8l-2.48-.82z"/><path id="XMLID_3180_" class="st0" d="M28.6 6.96 26.49 4.8 18.6 8.48z"/><path id="XMLID_3179_" class="st0" d="m32.1 2.37 4.09 1.72-9.7.71z"/><path id="XMLID_3178_" class="st0" d="m28.6 6.96 7.59-2.87-9.7.71z"/><path id="XMLID_3177_" class="st0" d="m35.58 7.57.61-3.48-7.59 2.87z"/><path id="XMLID_3176_" class="st0" d="m32.1 2.37 9.51.63-5.42 1.09z"/><path id="XMLID_3175_" class="st0" d="m35.58 7.57.61-3.48 5.19 1.98z"/><path id="XMLID_3174_" class="st0" d="m41.61 3-5.42 1.09 12.79 1.43z"/><path id="XMLID_3173_" class="st0" d="m41.38 6.07 7.6-.55-12.79-1.43z"/><path id="XMLID_3172_" class="st0" d="m35.58 7.57 5.8-1.5 1.2 2.62z"/><path id="XMLID_3171_" class="st0" d="m48.98 5.52-6.4 3.17-1.2-2.62z"/><path id="XMLID_3170_" class="st0" d="m35.9 12.8-.84 3.37-5.62-.24z"/><path id="XMLID_3169_" class="st0" d="m42.55 12.05-6.65.75-.84 3.37z"/><path id="XMLID_3168_" class="st0" d="M42.58 8.69 35.9 12.8l-.32-5.23z"/><path id="XMLID_3167_" class="st0" d="m42.55 12.05.03-3.36-6.68 4.11z"/><path id="XMLID_3166_" class="st0" d="m48.98 5.52 2.01 1.67-8.41 1.5z"/><path id="XMLID_3165_" class="st0" d="m57.48 8.06-8.5-2.54 2.01 1.67z"/><path id="XMLID_3164_" class="st0" d="M42.55 12.05 45.8 9.8l-3.22-1.11z"/><path id="XMLID_3163_" class="st0" d="M50.99 7.19 45.8 9.8l-3.22-1.11z"/><path id="XMLID_3162_" class="st0" d="m50.81 9.24-5.01.56-3.25 2.25z"/><path id="XMLID_3155_" class="st0" d="m54.67 7.1 10.01-3.98-3.35 3.36z"/><path id="XMLID_3154_" class="st0" d="m67.69 3.75-3.01-.63-3.35 3.36z"/><path id="XMLID_3153_" class="st0" d="m68.57 6.2-.88-2.45-6.36 2.73z"/><path id="XMLID_3152_" class="st0" d="m63.58 7.19-2.25-.71 7.24-.28z"/><path id="XMLID_3151_" class="st0" d="M67.69 3.75 72.32.92l-7.64 2.2z"/><path id="XMLID_3150_" class="st0" d="m71.22 4.17 1.1-3.25-4.63 2.83z"/><path id="XMLID_3149_" class="st0" d="m68.57 6.2 2.65-2.03-3.53-.42z"/><path id="XMLID_3148_" class="st0" d="m71.22 4.17.08 3.41-2.73-1.38z"/><path id="XMLID_3147_" class="st0" d="m72.32.92 5.92-.8-3.47 1.43z"/><path id="XMLID_3146_" class="st0" d="m71.22 4.17 3.55-2.62-2.45-.63z"/><path id="XMLID_3145_" class="st0" d="m78.24.12 5.75.72-9.22.71z"/><path id="XMLID_3144_" class="st0" d="m71.22 4.17 5.26-1.03-1.71-1.59z"/><path id="XMLID_3143_" class="st0" d="m83.99.84-7.51 2.3-1.71-1.59z"/><path id="XMLID_3142_" class="st0" d="M85.42 1.62 83.99.84l-7.51 2.3z"/><path id="XMLID_3141_" class="st0" d="M89.62 2.39 83.99.84l1.43.78z"/><path id="XMLID_3140_" class="st0" d="m90.09 4.08-4.67-2.46 4.2.77z"/><path id="XMLID_3139_" class="st0" d="m95.11 5.23-5.02-1.15-.47-1.69z"/><path id="XMLID_3138_" class="st0" d="m85.42 1.62.74 2.95 3.93-.49z"/><path id="XMLID_3137_" class="st0" d="m87.6 6.04 2.49-1.96-3.93.49z"/><path id="XMLID_3136_" class="st0" d="m76.48 3.14 9.68 1.43-.74-2.95z"/><path id="XMLID_3135_" class="st0" d="m73.92 6.45-2.7-2.28 5.26-1.03z"/><path id="XMLID_3134_" class="st0" d="M86.16 4.57 73.92 6.45l2.56-3.31z"/><path id="XMLID_3133_" class="st0" d="M87.6 6.04 84.58 7l1.58-2.43z"/><path id="XMLID_3132_" class="st0" d="m73.92 6.45 2.21 2.24 4.97-1.76z"/><path id="XMLID_3131_" class="st0" d="m63.58 7.19-8.91-.09 6.66-.62z"/><path id="XMLID_3130_" class="st0" d="m57.29 7.99 6.29-.8-8.91-.09z"/><path id="XMLID_3129_" class="st0" d="m68.57 6.2-1.4 1.5 4.13-.12z"/><path id="XMLID_3128_" class="st0" d="m63.58 7.19 4.99-.99-1.4 1.5z"/><path id="XMLID_3127_" class="st0" d="m57.48 8.06 8.64.44-2.54-1.31z"/><path id="XMLID_3126_" class="st0" d="m67.17 7.7-1.05.8-2.54-1.31z"/><path id="XMLID_3125_" class="st0" d="m71.3 7.58-5.18.92 1.05-.8z"/><path id="XMLID_3124_" class="st0" d="m81.1 6.93 5.06-2.36-12.24 1.88z"/><path id="XMLID_3123_" class="st0" d="m84.58 7-3.48-.07 5.06-2.36z"/><path id="XMLID_3122_" class="st0" d="m80.69 9.02-4.56-.33 4.97-1.76z"/><path id="XMLID_3121_" class="st0" d="m84.58 7-3.89 2.02.41-2.09z"/><path id="XMLID_3120_" class="st0" d="m84.96 8.19-4.27.83L84.58 7z"/><path id="XMLID_3119_" class="st0" d="m87.6 6.04-2.64 2.15L84.58 7z"/><path id="XMLID_3118_" class="st0" d="m90.09 4.08.54 1.43 4.48-.28z"/><path id="XMLID_3117_" class="st0" d="m87.6 6.04 2.49-1.96.54 1.43z"/><path id="XMLID_3116_" class="st0" d="m84.96 8.19 4.26-1.39-1.62-.76z"/><path id="XMLID_3115_" class="st0" d="M90.63 5.51 89.22 6.8l-1.62-.76z"/><path id="XMLID_3114_" class="st0" d="m95.11 5.23-4.48.28-1.41 1.29z"/><path id="XMLID_3113_" class="st0" d="m80.69 9.02 3.54-.06.73-.77z"/><path id="XMLID_3112_" class="st0" d="m89.22 6.8-4.99 2.16.73-.77z"/><path id="XMLID_3111_" class="st0" d="m71.3 7.58 2.62-1.13-2.7-2.28z"/><path id="XMLID_3110_" class="st0" d="M76.13 8.69 71.3 7.58l2.62-1.13z"/><path id="XMLID_3109_" class="st0" d="m66.12 8.5 9.84 2.26-4.5-1.82z"/><path id="XMLID_3108_" class="st0" d="m71.3 7.58.16 1.36-5.34-.44z"/><path id="XMLID_3107_" class="st0" d="m76.13 8.69-4.67.25-.16-1.36z"/><path id="XMLID_3106_" class="st0" d="m75.96 10.76.17-2.07-4.67.25z"/><path id="XMLID_3105_" class="st0" d="m80.69 9.02-4.73 1.74.17-2.07z"/><path id="XMLID_3104_" class="st0" d="m84.23 8.96-8.27 1.8 4.73-1.74z"/><path id="XMLID_3103_" class="st0" d="m90.1 135.82-6.38-10.75 3.12-12.67z"/><path id="XMLID_3102_" class="st0" d="m81.08 143.95 5.97-5.91-3.33-12.97z"/><path id="XMLID_3101_" class="st0" d="m90.1 135.82-3.05 2.22-3.33-12.97z"/><path id="XMLID_3100_" class="st0" d="m81.08 143.95 5.97-5.91-1.77 13.38z"/><path id="XMLID_3099_" class="st0" d="m85.28 151.42-5.15 22.9.95-30.37z"/><path id="XMLID_3098_" class="st0" d="m80.13 174.32 3.63-3.54 1.52-19.36z"/><path id="XMLID_3097_" class="st0" d="m80.06 195.62 3.7-24.84-3.63 3.54z"/><path id="XMLID_3624_" class="st0" d="m80.06 195.62-1.5 15.16-7.72 1.71z"/><path id="XMLID_3626_" class="st0" d="m79.18 226.79-8.34-14.3 7.72-1.71z"/><circle id="XMLID_3591_" class="st1" cx="110.63" cy="103.4" r="1.71"/><circle id="XMLID_3612_" class="st1" cx="113.97" cy="130.07" r="1.71"/><circle id="XMLID_3616_" class="st1" cx="93.65" cy="137.91" r="1.71"/><circle id="XMLID_3613_" class="st1" cx="117.52" cy="154.73" r="1.71"/><circle id="XMLID_3614_" class="st1" cx="100.46" cy="177.88" r="1.71"/><circle id="XMLID_3615_" class="st1" cx="103.79" cy="202.86" r="1.71"/><circle id="XMLID_3617_" class="st1" cx="122.43" cy="184.02" r="1.71"/><circle id="XMLID_3593_" class="st1" cx="118.73" cy="74.88" r="1.71"/><circle id="XMLID_3611_" class="st1" cx="125.69" cy="114.04" r="1.71"/><circle id="XMLID_3594_" class="st1" cx="96.35" cy="56.3" r="1.71"/><circle id="XMLID_3607_" class="st1" cx="109.73" cy="28.1" r="1.71"/><circle id="XMLID_3609_" class="st1" cx="122.24" cy="14.82" r="1.71"/><circle id="XMLID_3610_" class="st1" cx="126.86" cy="35.35" r="1.71"/><circle id="XMLID_3608_" class="st1" cx="90.09" cy="30.1" r="1.71"/><circle id="XMLID_3595_" class="st1" cx="62.47" cy="39.96" r="1.71"/><circle id="XMLID_3597_" class="st1" cx="59.02" cy="106.65" r="1.71"/><circle id="XMLID_3629_" class="st1" cx="33" cy="106.95" r="1.71"/><circle id="XMLID_3630_" class="st1" cx="17.74" cy="80.39" r="1.71"/><circle id="XMLID_3631_" class="st1" cx="11.52" cy="110.19" r="1.71"/><circle id="XMLID_3632_" class="st1" cx="15.82" cy="132.31" r="1.71"/><circle id="XMLID_3633_" class="st1" cx="23.24" cy="159.89" r="1.71"/><circle id="XMLID_3638_" class="st1" cx="1.71" cy="154.36" r="1.71"/><circle id="XMLID_3634_" class="st1" cx="4.65" cy="189.68" r="1.71"/><circle id="XMLID_3635_" class="st1" cx="19.15" cy="202.97" r="1.71"/><circle id="XMLID_3636_" class="st1" cx="33.64" cy="211.21" r="1.71"/><circle id="XMLID_3637_" class="st1" cx="28.17" cy="226.79" r="1.71"/><circle id="XMLID_3618_" class="st1" cx="72.02" cy="139.71" r="1.71"/><circle id="XMLID_3619_" class="st1" cx="43.41" cy="148.6" r="1.71"/><circle id="XMLID_3620_" class="st1" cx="66.94" cy="176.17" r="1.71"/><circle id="XMLID_3621_" class="st1" cx="47.42" cy="202.57" r="1.71"/><circle id="XMLID_3622_" class="st1" cx="70.84" cy="212.49" r="1.71"/><circle id="XMLID_3627_" class="st1" cx="58.64" cy="236.6" r="1.71"/><circle id="XMLID_3628_" class="st1" cx="70.42" cy="248.38" r="1.71"/><circle id="XMLID_3598_" class="st1" cx="52.83" cy="69.26" r="1.71"/><circle id="XMLID_3596_" class="st1" cx="28.17" cy="42.86" r="1.71"/><circle id="XMLID_3599_" class="st1" cx="14.05" cy="57.47" r="1.71"/><circle id="XMLID_3600_" class="st1" cx="9.37" cy="27.21" r="1.71"/><circle id="XMLID_3601_" class="st1" cx="23.23" cy="16.1" r="1.71"/><circle id="XMLID_3602_" class="st1" cx="51.34" cy="14.82" r="1.71"/><circle id="XMLID_3603_" class="st1" cx="18.6" cy="8.55" r="1.71"/><circle id="XMLID_3604_" class="st1" cx="92.92" cy="9.96" r="1.71"/><circle id="XMLID_3605_" class="st1" cx="76.48" cy="3.23" r="1.71"/><circle id="XMLID_3606_" class="st1" cx="42.55" cy="8.48" r="1.71"/><circle id="XMLID_703_" class="st1" cx="66.12" cy="8.68" r="1.71"/><circle id="XMLID_3592_" class="st1" cx="86.07" cy="86.7" r="1.71"/><path id="XMLID_700_" class="st0" d="m50.99 7.19-.18 2.05-5.01.56z"/><path id="XMLID_702_" class="st0" d="m50.99 7.19 6.3.8-6.48 1.25z"/></svg>