<svg version="1.1" id="Layer_1" xmlns="http://www.w3.org/2000/svg" x="0" y="0" viewBox="0 0 581.57 251.24" style="enable-background:new 0 0 581.57 251.24" xml:space="preserve"><style>.st0{fill:none;stroke:#1a171b;stroke-width:.25;stroke-miterlimit:10}.st1{fill:#1a171b}</style><path class="st0" d="m14.71 50.32 14.49 25.1 14.49-25.1zm0 0L.22 75.42H29.2z"/><circle class="st1" cx="14.71" cy="50.32" r="1.71"/><path class="st0" d="m14.71 100.52 14.49 25.1 14.49-25.1zm0 0h28.98L29.2 75.42zm0 0 14.49-25.1H.22zm0 0L.22 125.62H29.2z"/><circle class="st1" cx="14.71" cy="100.52" r="1.71"/><path class="st0" d="m101.65 50.32 14.49 25.1 14.5-25.1zm0 0-14.49-25.1-14.49 25.1zm0 0H72.67l14.49 25.1z"/><path class="st0" d="m101.65 50.32-14.49 25.1h28.98z"/><circle class="st1" cx="101.65" cy="50.32" r="1.71"/><path class="st0" d="m101.65 100.52 14.49 25.1 25.03-18.21z"/><path class="st0" d="m101.65 100.52 39.52 6.89-25.03-31.99zm0 0H72.67l14.49 25.1zm0 0 14.49-25.1H87.16zm0 0-14.49 25.1h28.98z"/><circle class="st1" cx="101.65" cy="100.52" r="1.71"/><path class="st0" d="m58.18 125.62 14.49 25.1 14.49-25.1zm0 0h28.98l-14.49-25.1z"/><path class="st0" d="m58.18 125.62-14.49 25.1h28.98z"/><circle class="st1" cx="58.18" cy="125.62" r="1.71"/><path class="st0" d="m101.65 150.72-14.49-25.1-14.49 25.1zm0 0 39.52 6.89-14.49-25.1z"/><path class="st0" d="m101.65 150.72 14.49-25.1H87.16z"/><circle class="st1" cx="101.65" cy="150.72" r="1.71"/><path class="st0" d="m58.18 175.82 14.49 25.1 14.49-25.1zm0 0-14.49-25.1-14.49 25.1z"/><path class="st0" d="m58.18 175.82 14.49-25.1H43.69zm0 0-14.49 25.1h28.98z"/><circle class="st1" cx="58.18" cy="175.82" r="1.71"/><path class="st0" d="m145.13 25.22 14.49 25.1 14.49-25.1zm0 0-14.49 25.1h28.98z"/><circle class="st1" cx="145.13" cy="25.22" r="1.71"/><path class="st0" d="m188.6 50.32 3.9 39.56 25.08-39.56z"/><path class="st0" d="m188.6 50.32-14.49 25.1 18.39 14.46z"/><circle class="st1" cx="188.6" cy="50.32" r="1.71"/><path class="st0" d="m137.07 84.06 33.09 23.35 3.95-31.99zm8.06-8.64-14.49-25.1-14.5 25.1zm0 0h28.98l-14.49-25.1z"/><path class="st0" d="M145.13 75.42h-28.99l25.03 31.99zm0 0 14.49-25.1h-28.98z"/><path class="st0" d="m137.07 84.06 4.1 23.35h28.99z"/><circle class="st1" cx="145.13" cy="75.42" r="1.71"/><path class="st0" d="m187.34 118.4 22.13 18.73 5.15-28.52zm0 0-13.23-42.98-14.49 25.1z"/><path class="st0" d="m187.34 118.4 27.28-9.79-22.12-18.73z"/><circle class="st1" cx="187.34" cy="118.4" r="1.71"/><path class="st0" d="m155.67 132.51 3.95 18.21 14.49-25.1zm0 0-14.5-25.1-25.03 18.21zm0 0 18.44-6.89-14.49-25.1zm0 0h-28.99l14.49 25.1z"/><path class="st0" d="m155.67 132.51-25.03 18.21h28.98z"/><circle class="st1" cx="155.67" cy="132.51" r="1.71"/><path class="st0" d="m204.31 165.65 27.28-9.8-22.12-18.72zm0 0-44.69-14.93 14.49 25.1z"/><path class="st0" d="m204.31 165.65 5.16-28.52-35.36-11.51zm0 0-30.2 10.17h28.98z"/><circle class="st1" cx="204.31" cy="165.65" r="1.71"/><path class="st0" d="m145.13 175.82 14.49 25.1 14.49-25.1zm0 0h28.98l-14.49-25.1z"/><path class="st0" d="m145.13 175.82 14.49-25.1h-28.98z"/><circle class="st1" cx="145.13" cy="175.82" r="1.71"/><path class="st0" d="m188.6 200.92-14.49-25.1-14.49 25.1zm0 0 14.49-25.1h-28.98zm0 0-14.49 25.1h28.98z"/><circle class="st1" cx="188.6" cy="200.92" r="1.71"/><path class="st0" d="m219.77 80.09-2.19-29.77-25.08 39.56z"/><path class="st0" d="m219.77 80.09-27.27 9.79 22.12 18.73zm0 0-5.15 28.52 27.28-9.8z"/><circle class="st1" cx="219.77" cy="80.09" r="1.71"/><path class="st0" d="m269.17 89.01 22.12 18.73 27.76 35.02zm0 0-27.27 9.8 22.12 18.72z"/><path class="st0" d="m269.17 89.01-5.15 28.52 27.27-9.79z"/><circle class="st1" cx="269.17" cy="89.01" r="1.71"/><path class="st0" d="m231.73 142.79 23.82-8.56 8.47-16.7zm0 0-17.11-34.18-5.15 28.52z"/><path class="st0" d="m231.73 142.79-22.26-5.66 22.12 18.72zm0 0 10.17-43.98-27.28 9.8z"/><path class="st0" d="m231.73 142.79-.14 13.06 23.96-21.62z"/><circle class="st1" cx="231.73" cy="142.79" r="1.71"/><path class="st0" d="m279.95 119.58 10.09 56.24 10.1-48.51zm0 0-15.93-2.05-8.47 16.7z"/><path class="st0" d="m279.95 119.58 20.19 7.73-8.85-19.57zm0 0 11.34-11.84-27.27 9.79z"/><circle class="st1" cx="279.95" cy="119.58" r="1.71"/><path class="st0" d="m232.07 175.82 23.48-41.59-23.96 21.62zm43.48 25.1 14.49 25.1 14.49-25.1zm0 0h28.98l-14.49-25.1z"/><circle class="st1" cx="275.55" cy="200.92" r="1.71"/><path class="st0" d="m362.49 50.32 14.49 25.1 14.5-25.1zm0 0h28.99l-14.5-25.1z"/><path class="st0" d="M362.49 50.32 348 75.42h28.98z"/><circle class="st1" cx="362.49" cy="50.32" r="1.71"/><path class="st0" d="m319.02 75.42 14.49 25.1L348 75.42zm0 0 14.49-25.1h-28.98zm0 0 .03 67.34 14.46-42.24z"/><circle class="st1" cx="319.02" cy="75.42" r="1.71"/><path class="st0" d="m362.49 100.52 14.49 25.1 14.5-25.1zm0 0L348 75.42l-14.49 25.1zm0 0h28.99l-14.5-25.1z"/><path class="st0" d="M362.49 100.52h-28.98l14.49 25.1zm0 0 14.49-25.1H348zm0 0L348 125.62h28.98z"/><circle class="st1" cx="362.49" cy="100.52" r="1.71"/><path class="st0" d="m319.02 125.62 14.49 25.1 14.49-25.1zm0 0 .03 17.14-27.76-35.02z"/><path class="st0" d="M319.02 125.62H348l-14.49-25.1zm0 0-27.73-17.88 8.85 19.57z"/><path class="st0" d="m319.02 125.62 14.49-25.1-14.46 42.24z"/><path class="st0" d="m319.02 125.62-18.88 1.69 33.37 23.41z"/><circle class="st1" cx="319.02" cy="125.62" r="1.71"/><path class="st0" d="m331.71 136.77 45.27 39.05 14.5-25.1z"/><path class="st0" d="M331.71 136.77 348 125.62l-14.49 25.1z"/><path class="st0" d="m331.71 136.77 59.77 13.95-14.5-25.1zm0 0 1.8 13.95 14.49 25.1z"/><path class="st0" d="m331.71 136.77 45.27-11.15H348zm0 0L348 175.82h28.98z"/><circle class="st1" cx="331.71" cy="136.77" r="1.71"/><path class="st0" d="m319.02 175.82-18.88-48.51-10.1 48.51zm0 0H348l-14.49-25.1zm0 0h-28.98l14.49 25.1z"/><path class="st0" d="m319.02 175.82 14.49-25.1-33.37-23.41zm0 0-14.49 25.1h28.98z"/><circle class="st1" cx="319.02" cy="175.82" r="1.71"/><path class="st0" d="m405.97 75.42-14.49-25.1-14.5 25.1zm0 0h-28.99l14.5 25.1z"/><path class="st0" d="m405.97 75.42 14.49-25.1h-28.98zm-28.99-50.2 14.5-25.1h-28.99zm28.99 50.2-14.49 25.1h28.98z"/><circle class="st1" cx="405.97" cy="75.42" r="1.71"/><path class="st0" d="m449.44 100.52 14.49 25.1 14.49-25.1zm0 0h28.98l-14.49-25.1z"/><path class="st0" d="m449.44 100.52 14.49-25.1h-28.98zm0 0-14.49 25.1h28.98z"/><circle class="st1" cx="449.44" cy="100.52" r="1.71"/><path class="st0" d="m405.97 125.62 14.49 25.1 14.49-25.1zm0 0-14.49-25.1-14.5 25.1zm0 0h-28.99l14.5 25.1z"/><path class="st0" d="m405.97 125.62 14.49-25.1h-28.98zm0 0-14.49 25.1h28.98z"/><circle class="st1" cx="405.97" cy="125.62" r="1.71"/><path class="st0" d="m405.97 175.82 14.49 25.1 14.49-25.1zm0 0-14.49-25.1-14.5 25.1zm0 0h28.98l-14.49-25.1zm0 0h-28.99l14.5 25.1z"/><path class="st0" d="m405.97 175.82 14.49-25.1h-28.98zm0 0-14.49 25.1h28.98z"/><circle class="st1" cx="405.97" cy="175.82" r="1.71"/><path class="st0" d="m449.44 200.92-14.49-25.1-14.49 25.1z"/><path class="st0" d="m449.44 200.92 14.49-25.1h-28.98zm0 0-14.49 25.1h28.98z"/><circle class="st1" cx="449.44" cy="200.92" r="1.71"/><path class="st0" d="M492.91 75.42h-28.98l14.49 25.1z"/><circle class="st1" cx="492.91" cy="75.42" r="1.71"/><path class="st0" d="M536.39 100.52h28.98l-14.49-25.1z"/><path class="st0" d="m536.39 100.52 14.49-25.1h-28.99z"/><circle class="st1" cx="536.39" cy="100.52" r="1.71"/><path class="st0" d="m492.91 125.62 14.49 25.1 14.49-25.1zm0 0h-28.98l14.49 25.1z"/><path class="st0" d="m492.91 125.62-14.49 25.1h28.98z"/><circle class="st1" cx="492.91" cy="125.62" r="1.71"/><path class="st0" d="m536.39 150.72 14.49 25.1 14.49-25.1zm0 0-14.5-25.1-14.49 25.1zm0 0H507.4l14.49 25.1z"/><path class="st0" d="m536.39 150.72 14.49-25.1h-28.99zm0 0-14.5 25.1h28.99z"/><circle class="st1" cx="536.39" cy="150.72" r="1.71"/><path class="st0" d="m492.91 175.82-14.49 25.1h28.98zm28.98 50.2-14.49 25.1h28.99z"/><circle class="st1" cx="492.91" cy="175.82" r="1.71"/><path class="st0" d="m536.39 200.92-14.5-25.1-14.49 25.1zm0 0h28.98l-14.49-25.1zm0 0H507.4l14.49 25.1z"/><path class="st0" d="m536.39 200.92 14.49-25.1h-28.99z"/><circle class="st1" cx="536.39" cy="200.92" r="1.71"/><path class="st0" d="m579.86 125.62-14.49-25.1-14.49 25.1z"/><circle class="st1" cx="579.86" cy="125.62" r="1.71"/><path class="st0" d="m579.86 175.82-14.49-25.1-14.49 25.1z"/><circle class="st1" cx="579.86" cy="175.82" r="1.71"/></svg>