<?xml version="1.0" encoding="utf-8"?>
<!-- Generator: Adobe Illustrator 25.2.3, SVG Export Plug-In . SVG Version: 6.00 Build 0)  -->
<svg version="1.1" id="Layer_1" xmlns="http://www.w3.org/2000/svg" xmlns:xlink="http://www.w3.org/1999/xlink" x="0px" y="0px"
	 viewBox="0 0 757.55 335.28" style="enable-background:new 0 0 757.55 335.28;" xml:space="preserve">
<style type="text/css">
	.st0{fill:none;stroke:#FFFFFF;stroke-width:0.25;stroke-miterlimit:10;}
	.st1{fill:#FFFFFF;}
</style>
<polygon class="st0" points="0.22,184.31 14.71,209.41 29.2,184.31 "/>
<polygon class="st0" points="43.69,209.41 72.67,209.41 58.18,184.31 "/>
<circle class="st1" cx="43.69" cy="209.41" r="1.71"/>
<polygon class="st0" points="39.56,304.82 72.67,309.81 58.18,284.71 "/>
<polygon class="st0" points="39.56,304.82 10.9,309.14 12.34,324.77 "/>
<circle class="st1" cx="39.56" cy="304.82" r="1.71"/>
<polygon class="st0" points="60.55,43.23 45.58,0.3 31.09,25.4 "/>
<circle class="st1" cx="60.55" cy="43.23" r="1.71"/>
<polygon class="st0" points="87.16,134.11 101.65,159.21 116.14,134.11 "/>
<circle class="st1" cx="87.16" cy="134.11" r="1.71"/>
<polygon class="st0" points="130.64,159.21 119.94,204.37 134.44,179.27 "/>
<polygon class="st0" points="130.64,159.21 116.14,134.11 101.65,159.21 "/>
<polygon class="st0" points="130.64,159.21 134.44,179.27 119.94,154.17 "/>
<polygon class="st0" points="130.64,159.21 101.65,159.21 116.14,184.31 "/>
<polygon class="st0" points="130.64,159.21 119.94,154.17 116.14,134.11 "/>
<polygon class="st0" points="130.64,159.21 116.14,184.31 119.94,204.37 "/>
<circle class="st1" cx="130.64" cy="159.21" r="1.71"/>
<polygon class="st0" points="87.16,184.31 101.65,209.41 116.14,184.31 "/>
<polygon class="st0" points="87.16,184.31 116.14,184.31 101.65,159.21 "/>
<polygon class="st0" points="87.16,184.31 58.18,184.31 72.67,209.41 "/>
<polygon class="st0" points="87.16,184.31 72.67,209.41 101.65,209.41 "/>
<circle class="st1" cx="87.16" cy="184.31" r="1.71"/>
<polygon class="st0" points="130.64,209.41 116.14,184.31 101.65,209.41 "/>
<polygon class="st0" points="130.64,209.41 119.94,204.37 116.14,184.31 "/>
<circle class="st1" cx="130.64" cy="209.41" r="1.71"/>
<polygon class="st0" points="217.58,109.01 206.89,154.17 246.56,109.01 "/>
<circle class="st1" cx="217.58" cy="109.01" r="1.71"/>
<polygon class="st0" points="192.4,179.27 206.89,204.37 246.56,159.21 "/>
<polygon class="st0" points="192.4,179.27 177.91,154.17 163.42,179.27 "/>
<polygon class="st0" points="192.4,179.27 246.56,159.21 206.89,154.17 "/>
<polygon class="st0" points="192.4,179.27 177.91,204.37 206.89,204.37 "/>
<circle class="st1" cx="192.4" cy="179.27" r="1.71"/>
<polygon class="st0" points="217.58,209.41 177.91,204.37 188.6,209.41 "/>
<polygon class="st0" points="217.58,209.41 246.56,209.41 206.89,204.37 "/>
<polygon class="st0" points="217.58,209.41 188.6,209.41 203.09,234.51 "/>
<polygon class="st0" points="217.58,209.41 206.89,204.37 177.91,204.37 "/>
<circle class="st1" cx="217.58" cy="209.41" r="1.71"/>
<polygon class="st0" points="174.11,234.51 188.6,259.61 203.09,234.51 "/>
<polygon class="st0" points="174.11,234.51 203.09,234.51 188.6,209.41 "/>
<polygon class="st0" points="174.11,234.51 145.13,234.51 159.62,259.61 "/>
<polygon class="st0" points="174.11,234.51 159.62,259.61 188.6,259.61 "/>
<circle class="st1" cx="174.11" cy="234.51" r="1.71"/>
<polygon class="st0" points="174.11,284.71 145.13,284.71 159.62,309.81 "/>
<polygon class="st0" points="174.11,284.71 159.62,309.81 188.6,309.81 "/>
<circle class="st1" cx="174.11" cy="284.71" r="1.71"/>
<polygon class="st0" points="261.06,134.11 246.56,109.01 206.89,154.17 "/>
<polygon class="st0" points="261.06,134.11 206.89,154.17 246.56,159.21 "/>
<circle class="st1" cx="261.06" cy="134.11" r="1.71"/>
<polygon class="st0" points="304.53,159.21 319.02,184.31 333.51,159.21 "/>
<polygon class="st0" points="304.53,159.21 333.51,159.21 348.18,131.59 "/>
<polygon class="st0" points="304.53,159.21 275.55,159.21 290.04,184.31 "/>
<polygon class="st0" points="304.53,159.21 290.04,184.31 319.02,184.31 "/>
<circle class="st1" cx="304.53" cy="159.21" r="1.71"/>
<polygon class="st0" points="261.06,184.31 275.55,209.41 290.04,184.31 "/>
<polygon class="st0" points="261.06,184.31 246.56,159.21 206.89,204.37 "/>
<polygon class="st0" points="261.06,184.31 290.04,184.31 275.55,159.21 "/>
<polygon class="st0" points="261.06,184.31 206.89,204.37 246.56,209.41 "/>
<polygon class="st0" points="261.06,184.31 275.55,159.21 246.56,159.21 "/>
<polygon class="st0" points="261.06,184.31 246.56,209.41 275.55,209.41 "/>
<circle class="st1" cx="261.06" cy="184.31" r="1.71"/>
<polygon class="st0" points="261.06,234.51 290.04,234.51 275.55,209.41 "/>
<polygon class="st0" points="261.06,234.51 275.55,209.41 246.56,209.41 "/>
<circle class="st1" cx="261.06" cy="234.51" r="1.71"/>
<polygon class="st0" points="391.48,159.21 405.97,184.31 420.46,159.21 "/>
<polygon class="st0" points="391.48,159.21 420.46,159.21 405.97,134.11 "/>
<polygon class="st0" points="391.48,159.21 405.97,134.11 378.88,81.32 "/>
<circle class="st1" cx="391.48" cy="159.21" r="1.71"/>
<polygon class="st0" points="348,184.31 333.51,159.21 319.02,184.31 "/>
<polygon class="st0" points="348,184.31 376.98,184.31 362.49,159.21 "/>
<polygon class="st0" points="348,184.31 362.49,159.21 333.51,159.21 "/>
<circle class="st1" cx="348" cy="184.31" r="1.71"/>
<polygon class="st0" points="391.48,259.61 405.97,284.71 420.46,259.61 "/>
<polygon class="st0" points="391.48,259.61 420.46,259.61 405.97,234.51 "/>
<polygon class="st0" points="391.48,259.61 362.49,259.61 376.98,284.71 "/>
<polygon class="st0" points="391.48,259.61 376.98,284.71 405.97,284.71 "/>
<circle class="st1" cx="391.48" cy="259.61" r="1.71"/>
<polygon class="st0" points="391.48,309.81 405.97,334.91 440.4,302.22 "/>
<polygon class="st0" points="391.48,309.81 440.4,302.22 405.97,284.71 "/>
<circle class="st1" cx="391.48" cy="309.81" r="1.71"/>
<polygon class="st0" points="478.42,159.21 492.91,184.31 507.4,159.21 "/>
<polygon class="st0" points="478.42,159.21 463.93,134.11 449.44,159.21 "/>
<polygon class="st0" points="478.42,159.21 507.4,159.21 492.91,134.11 "/>
<polygon class="st0" points="478.42,159.21 449.44,159.21 463.93,184.31 "/>
<polygon class="st0" points="478.42,159.21 492.91,134.11 463.93,134.11 "/>
<polygon class="st0" points="478.42,159.21 463.93,184.31 492.91,184.31 "/>
<circle class="st1" cx="478.42" cy="159.21" r="1.71"/>
<polygon class="st0" points="434.95,184.31 449.44,209.41 463.93,184.31 "/>
<polygon class="st0" points="434.95,184.31 420.46,159.21 405.97,184.31 "/>
<polygon class="st0" points="434.95,184.31 463.93,184.31 449.44,159.21 "/>
<polygon class="st0" points="434.95,184.31 405.97,184.31 420.46,209.41 "/>
<polygon class="st0" points="434.95,184.31 449.44,159.21 420.46,159.21 "/>
<polygon class="st0" points="434.95,184.31 420.46,209.41 449.44,209.41 "/>
<circle class="st1" cx="434.95" cy="184.31" r="1.71"/>
<polygon class="st0" points="478.42,209.41 463.93,184.31 449.44,209.41 "/>
<polygon class="st0" points="478.42,209.41 507.4,209.41 492.91,184.31 "/>
<polygon class="st0" points="478.42,209.41 449.44,209.41 463.93,234.51 "/>
<polygon class="st0" points="478.42,209.41 492.91,184.31 463.93,184.31 "/>
<circle class="st1" cx="478.42" cy="209.41" r="1.71"/>
<polygon class="st0" points="434.95,234.51 449.44,259.61 463.93,234.51 "/>
<polygon class="st0" points="434.95,234.51 420.46,209.41 405.97,234.51 "/>
<polygon class="st0" points="434.95,234.51 463.93,234.51 449.44,209.41 "/>
<polygon class="st0" points="434.95,234.51 405.97,234.51 420.46,259.61 "/>
<polygon class="st0" points="434.95,234.51 449.44,209.41 420.46,209.41 "/>
<polygon class="st0" points="434.95,234.51 420.46,259.61 449.44,259.61 "/>
<circle class="st1" cx="434.95" cy="234.51" r="1.71"/>
<polygon class="st0" points="478.42,259.61 463.93,234.51 449.44,259.61 "/>
<polygon class="st0" points="478.42,259.61 449.44,259.61 451.65,284.48 "/>
<circle class="st1" cx="478.42" cy="259.61" r="1.71"/>
<polygon class="st0" points="437.64,268.7 449.44,309.81 451.65,284.48 "/>
<polygon class="st0" points="437.64,268.7 420.46,259.61 405.97,284.71 "/>
<polygon class="st0" points="437.64,268.7 451.65,284.48 449.44,259.61 "/>
<polygon class="st0" points="437.64,268.7 405.97,284.71 440.4,302.22 "/>
<polygon class="st0" points="437.64,268.7 449.44,259.61 420.46,259.61 "/>
<polygon class="st0" points="437.64,268.7 440.4,302.22 449.44,309.81 "/>
<circle class="st1" cx="437.64" cy="268.7" r="1.71"/>
<polygon class="st0" points="478.42,309.81 451.65,284.48 449.44,309.81 "/>
<polygon class="st0" points="478.42,309.81 449.44,309.81 463.93,334.91 "/>
<circle class="st1" cx="478.42" cy="309.81" r="1.71"/>
<polygon class="st0" points="451.65,327.2 440.4,302.22 405.97,334.91 "/>
<polygon class="st0" points="451.65,327.2 463.93,334.91 449.44,309.81 "/>
<polygon class="st0" points="451.65,327.2 449.44,309.81 440.4,302.22 "/>
<polygon class="st0" points="565.37,109.01 579.86,134.11 594.35,109.01 "/>
<polygon class="st0" points="565.37,109.01 594.35,109.01 563.66,58.81 "/>
<polygon class="st0" points="565.37,109.01 563.66,58.81 550.88,83.91 "/>
<circle class="st1" cx="565.37" cy="109.01" r="1.71"/>
<polygon class="st0" points="521.89,134.11 492.91,134.11 507.4,159.21 "/>
<polygon class="st0" points="521.89,134.11 507.4,159.21 536.39,159.21 "/>
<circle class="st1" cx="521.89" cy="134.11" r="1.71"/>
<polygon class="st0" points="565.37,159.21 579.86,184.31 594.35,159.21 "/>
<polygon class="st0" points="565.37,159.21 594.35,159.21 579.86,134.11 "/>
<polygon class="st0" points="565.37,159.21 536.39,159.21 550.88,184.31 "/>
<circle class="st1" cx="565.37" cy="159.21" r="1.71"/>
<polygon class="st0" points="521.89,184.31 536.39,209.41 550.88,184.31 "/>
<polygon class="st0" points="521.89,184.31 507.4,159.21 492.91,184.31 "/>
<polygon class="st0" points="521.89,184.31 550.88,184.31 536.39,159.21 "/>
<polygon class="st0" points="521.89,184.31 492.91,184.31 507.4,209.41 "/>
<polygon class="st0" points="521.89,184.31 536.39,159.21 507.4,159.21 "/>
<polygon class="st0" points="521.89,184.31 507.4,209.41 536.39,209.41 "/>
<circle class="st1" cx="521.89" cy="184.31" r="1.71"/>
<polygon class="st0" points="521.89,234.51 536.39,209.41 507.4,209.41 "/>
<circle class="st1" cx="521.89" cy="234.51" r="1.71"/>
<polygon class="st0" points="565.37,259.61 579.86,284.71 594.35,259.61 "/>
<polygon class="st0" points="565.37,259.61 594.35,259.61 579.86,234.51 "/>
<circle class="st1" cx="565.37" cy="259.61" r="1.71"/>
<polygon class="st0" points="608.84,83.91 623.33,109.01 637.82,83.91 "/>
<polygon class="st0" points="608.84,83.91 594.35,58.81 563.66,58.81 "/>
<polygon class="st0" points="608.84,83.91 637.82,83.91 623.33,58.81 "/>
<polygon class="st0" points="608.84,83.91 563.66,58.81 594.35,109.01 "/>
<polygon class="st0" points="608.84,83.91 623.33,58.81 594.35,58.81 "/>
<polygon class="st0" points="608.84,83.91 594.35,109.01 623.33,109.01 "/>
<circle class="st1" cx="608.84" cy="83.91" r="1.71"/>
<polygon class="st0" points="652.31,109.01 666.81,134.11 681.3,109.01 "/>
<polygon class="st0" points="652.31,109.01 637.82,83.91 623.33,109.01 "/>
<polygon class="st0" points="652.31,109.01 681.3,109.01 697.5,103.56 "/>
<polygon class="st0" points="652.31,109.01 623.33,109.01 637.82,134.11 "/>
<polygon class="st0" points="652.31,109.01 697.5,103.56 637.82,83.91 "/>
<polygon class="st0" points="652.31,109.01 637.82,134.11 666.81,134.11 "/>
<circle class="st1" cx="652.31" cy="109.01" r="1.71"/>
<polygon class="st0" points="608.84,134.11 623.33,159.21 637.82,134.11 "/>
<polygon class="st0" points="608.84,134.11 594.35,109.01 579.86,134.11 "/>
<polygon class="st0" points="608.84,134.11 637.82,134.11 623.33,109.01 "/>
<polygon class="st0" points="608.84,134.11 579.86,134.11 594.35,159.21 "/>
<polygon class="st0" points="608.84,134.11 623.33,109.01 594.35,109.01 "/>
<polygon class="st0" points="608.84,134.11 594.35,159.21 623.33,159.21 "/>
<circle class="st1" cx="608.84" cy="134.11" r="1.71"/>
<polygon class="st0" points="608.84,184.31 623.33,209.41 637.82,184.31 "/>
<polygon class="st0" points="608.84,184.31 594.35,159.21 579.86,184.31 "/>
<polygon class="st0" points="608.84,184.31 637.82,184.31 623.33,159.21 "/>
<polygon class="st0" points="608.84,184.31 579.86,184.31 594.35,209.41 "/>
<polygon class="st0" points="608.84,184.31 623.33,159.21 594.35,159.21 "/>
<polygon class="st0" points="608.84,184.31 594.35,209.41 623.33,209.41 "/>
<circle class="st1" cx="608.84" cy="184.31" r="1.71"/>
<polygon class="st0" points="608.84,234.51 579.86,234.51 594.35,259.61 "/>
<polygon class="st0" points="608.84,234.51 594.35,259.61 623.33,259.61 "/>
<circle class="st1" cx="608.84" cy="234.51" r="1.71"/>
<polygon class="st0" points="695.79,83.91 757.48,36.77 637.82,101.85 "/>
<polygon class="st0" points="695.79,83.91 637.82,101.85 681.3,58.81 "/>
<polygon class="st0" points="695.79,134.11 666.81,134.11 681.3,159.21 "/>
</svg>
