<svg version="1.1" id="Layer_1" xmlns="http://www.w3.org/2000/svg" x="0" y="0" viewBox="0 0 757.55 335.28" style="enable-background:new 0 0 757.55 335.28" xml:space="preserve"><style>.st0{fill:none;stroke:#fff;stroke-width:.25;stroke-miterlimit:10}.st1{fill:#fff}</style><path class="st0" d="m.22 184.31 14.49 25.1 14.49-25.1zm43.47 25.1h28.98l-14.49-25.1z"/><circle class="st1" cx="43.69" cy="209.41" r="1.71"/><path class="st0" d="m39.56 304.82 33.11 4.99-14.49-25.1zm0 0-28.66 4.32 1.44 15.63z"/><circle class="st1" cx="39.56" cy="304.82" r="1.71"/><path class="st0" d="M60.55 43.23 45.58.3 31.09 25.4z"/><circle class="st1" cx="60.55" cy="43.23" r="1.71"/><path class="st0" d="m87.16 134.11 14.49 25.1 14.49-25.1z"/><circle class="st1" cx="87.16" cy="134.11" r="1.71"/><path class="st0" d="m130.64 159.21-10.7 45.16 14.5-25.1zm0 0-14.5-25.1-14.49 25.1z"/><path class="st0" d="m130.64 159.21 3.8 20.06-14.5-25.1z"/><path class="st0" d="M130.64 159.21h-28.99l14.49 25.1zm0 0-10.7-5.04-3.8-20.06zm0 0-14.5 25.1 3.8 20.06z"/><circle class="st1" cx="130.64" cy="159.21" r="1.71"/><path class="st0" d="m87.16 184.31 14.49 25.1 14.49-25.1zm0 0h28.98l-14.49-25.1zm0 0H58.18l14.49 25.1z"/><path class="st0" d="m87.16 184.31-14.49 25.1h28.98z"/><circle class="st1" cx="87.16" cy="184.31" r="1.71"/><path class="st0" d="m130.64 209.41-14.5-25.1-14.49 25.1z"/><path class="st0" d="m130.64 209.41-10.7-5.04-3.8-20.06z"/><circle class="st1" cx="130.64" cy="209.41" r="1.71"/><path class="st0" d="m217.58 109.01-10.69 45.16 39.67-45.16z"/><circle class="st1" cx="217.58" cy="109.01" r="1.71"/><path class="st0" d="m192.4 179.27 14.49 25.1 39.67-45.16zm0 0-14.49-25.1-14.49 25.1z"/><path class="st0" d="m192.4 179.27 54.16-20.06-39.67-5.04zm0 0-14.49 25.1h28.98z"/><circle class="st1" cx="192.4" cy="179.27" r="1.71"/><path class="st0" d="m217.58 209.41-39.67-5.04 10.69 5.04zm0 0h28.98l-39.67-5.04zm0 0H188.6l14.49 25.1z"/><path class="st0" d="m217.58 209.41-10.69-5.04h-28.98z"/><circle class="st1" cx="217.58" cy="209.41" r="1.71"/><path class="st0" d="m174.11 234.51 14.49 25.1 14.49-25.1zm0 0h28.98l-14.49-25.1zm0 0h-28.98l14.49 25.1z"/><path class="st0" d="m174.11 234.51-14.49 25.1h28.98z"/><circle class="st1" cx="174.11" cy="234.51" r="1.71"/><path class="st0" d="M174.11 284.71h-28.98l14.49 25.1z"/><path class="st0" d="m174.11 284.71-14.49 25.1h28.98z"/><circle class="st1" cx="174.11" cy="284.71" r="1.71"/><path class="st0" d="m261.06 134.11-14.5-25.1-39.67 45.16zm0 0-54.17 20.06 39.67 5.04z"/><circle class="st1" cx="261.06" cy="134.11" r="1.71"/><path class="st0" d="m304.53 159.21 14.49 25.1 14.49-25.1zm0 0h28.98l14.67-27.62zm0 0h-28.98l14.49 25.1z"/><path class="st0" d="m304.53 159.21-14.49 25.1h28.98z"/><circle class="st1" cx="304.53" cy="159.21" r="1.71"/><path class="st0" d="m261.06 184.31 14.49 25.1 14.49-25.1zm0 0-14.5-25.1-39.67 45.16zm0 0h28.98l-14.49-25.1zm0 0-54.17 20.06 39.67 5.04z"/><path class="st0" d="m261.06 184.31 14.49-25.1h-28.99zm0 0-14.5 25.1h28.99z"/><circle class="st1" cx="261.06" cy="184.31" r="1.71"/><path class="st0" d="M261.06 234.51h28.98l-14.49-25.1z"/><path class="st0" d="m261.06 234.51 14.49-25.1h-28.99z"/><circle class="st1" cx="261.06" cy="234.51" r="1.71"/><path class="st0" d="m391.48 159.21 14.49 25.1 14.49-25.1zm0 0h28.98l-14.49-25.1z"/><path class="st0" d="m391.48 159.21 14.49-25.1-27.09-52.79z"/><circle class="st1" cx="391.48" cy="159.21" r="1.71"/><path class="st0" d="m348 184.31-14.49-25.1-14.49 25.1zm0 0h28.98l-14.49-25.1z"/><path class="st0" d="m348 184.31 14.49-25.1h-28.98z"/><circle class="st1" cx="348" cy="184.31" r="1.71"/><path class="st0" d="m391.48 259.61 14.49 25.1 14.49-25.1zm0 0h28.98l-14.49-25.1zm0 0h-28.99l14.49 25.1z"/><path class="st0" d="m391.48 259.61-14.5 25.1h28.99z"/><circle class="st1" cx="391.48" cy="259.61" r="1.71"/><path class="st0" d="m391.48 309.81 14.49 25.1 34.43-32.69z"/><path class="st0" d="m391.48 309.81 48.92-7.59-34.43-17.51z"/><circle class="st1" cx="391.48" cy="309.81" r="1.71"/><path class="st0" d="m478.42 159.21 14.49 25.1 14.49-25.1zm0 0-14.49-25.1-14.49 25.1zm0 0h28.98l-14.49-25.1zm0 0h-28.98l14.49 25.1z"/><path class="st0" d="m478.42 159.21 14.49-25.1h-28.98zm0 0-14.49 25.1h28.98z"/><circle class="st1" cx="478.42" cy="159.21" r="1.71"/><path class="st0" d="m434.95 184.31 14.49 25.1 14.49-25.1zm0 0-14.49-25.1-14.49 25.1zm0 0h28.98l-14.49-25.1zm0 0h-28.98l14.49 25.1z"/><path class="st0" d="m434.95 184.31 14.49-25.1h-28.98zm0 0-14.49 25.1h28.98z"/><circle class="st1" cx="434.95" cy="184.31" r="1.71"/><path class="st0" d="m478.42 209.41-14.49-25.1-14.49 25.1zm0 0h28.98l-14.49-25.1zm0 0h-28.98l14.49 25.1z"/><path class="st0" d="m478.42 209.41 14.49-25.1h-28.98z"/><circle class="st1" cx="478.42" cy="209.41" r="1.71"/><path class="st0" d="m434.95 234.51 14.49 25.1 14.49-25.1zm0 0-14.49-25.1-14.49 25.1zm0 0h28.98l-14.49-25.1zm0 0h-28.98l14.49 25.1z"/><path class="st0" d="m434.95 234.51 14.49-25.1h-28.98zm0 0-14.49 25.1h28.98z"/><circle class="st1" cx="434.95" cy="234.51" r="1.71"/><path class="st0" d="m478.42 259.61-14.49-25.1-14.49 25.1zm0 0h-28.98l2.21 24.87z"/><circle class="st1" cx="478.42" cy="259.61" r="1.71"/><path class="st0" d="m437.64 268.7 11.8 41.11 2.21-25.33zm0 0-17.18-9.09-14.49 25.1zm0 0 14.01 15.78-2.21-24.87z"/><path class="st0" d="m437.64 268.7-31.67 16.01 34.43 17.51zm0 0 11.8-9.09h-28.98z"/><path class="st0" d="m437.64 268.7 2.76 33.52 9.04 7.59z"/><circle class="st1" cx="437.64" cy="268.7" r="1.71"/><path class="st0" d="m478.42 309.81-26.77-25.33-2.21 25.33zm0 0h-28.98l14.49 25.1z"/><circle class="st1" cx="478.42" cy="309.81" r="1.71"/><path class="st0" d="m451.65 327.2-11.25-24.98-34.43 32.69zm0 0 12.28 7.71-14.49-25.1z"/><path class="st0" d="m451.65 327.2-2.21-17.39-9.04-7.59zm113.72-218.19 14.49 25.1 14.49-25.1zm0 0h28.98l-30.69-50.2zm0 0-1.71-50.2-12.78 25.1z"/><circle class="st1" cx="565.37" cy="109.01" r="1.71"/><path class="st0" d="M521.89 134.11h-28.98l14.49 25.1zm0 0-14.49 25.1h28.99z"/><circle class="st1" cx="521.89" cy="134.11" r="1.71"/><path class="st0" d="m565.37 159.21 14.49 25.1 14.49-25.1zm0 0h28.98l-14.49-25.1zm0 0h-28.98l14.49 25.1z"/><circle class="st1" cx="565.37" cy="159.21" r="1.71"/><path class="st0" d="m521.89 184.31 14.5 25.1 14.49-25.1zm0 0-14.49-25.1-14.49 25.1zm0 0h28.99l-14.49-25.1zm0 0h-28.98l14.49 25.1z"/><path class="st0" d="m521.89 184.31 14.5-25.1H507.4zm0 0-14.49 25.1h28.99z"/><circle class="st1" cx="521.89" cy="184.31" r="1.71"/><path class="st0" d="m521.89 234.51 14.5-25.1H507.4z"/><circle class="st1" cx="521.89" cy="234.51" r="1.71"/><path class="st0" d="m565.37 259.61 14.49 25.1 14.49-25.1zm0 0h28.98l-14.49-25.1z"/><circle class="st1" cx="565.37" cy="259.61" r="1.71"/><path class="st0" d="m608.84 83.91 14.49 25.1 14.49-25.1zm0 0-14.49-25.1h-30.69zm0 0h28.98l-14.49-25.1z"/><path class="st0" d="m608.84 83.91-45.18-25.1 30.69 50.2zm0 0 14.49-25.1h-28.98z"/><path class="st0" d="m608.84 83.91-14.49 25.1h28.98z"/><circle class="st1" cx="608.84" cy="83.91" r="1.71"/><path class="st0" d="m652.31 109.01 14.5 25.1 14.49-25.1zm0 0-14.49-25.1-14.49 25.1zm0 0h28.99l16.2-5.45zm0 0h-28.98l14.49 25.1z"/><path class="st0" d="m652.31 109.01 45.19-5.45-59.68-19.65zm0 0-14.49 25.1h28.99z"/><circle class="st1" cx="652.31" cy="109.01" r="1.71"/><path class="st0" d="m608.84 134.11 14.49 25.1 14.49-25.1zm0 0-14.49-25.1-14.49 25.1zm0 0h28.98l-14.49-25.1zm0 0h-28.98l14.49 25.1z"/><path class="st0" d="m608.84 134.11 14.49-25.1h-28.98zm0 0-14.49 25.1h28.98z"/><circle class="st1" cx="608.84" cy="134.11" r="1.71"/><path class="st0" d="m608.84 184.31 14.49 25.1 14.49-25.1zm0 0-14.49-25.1-14.49 25.1zm0 0h28.98l-14.49-25.1zm0 0h-28.98l14.49 25.1z"/><path class="st0" d="m608.84 184.31 14.49-25.1h-28.98zm0 0-14.49 25.1h28.98z"/><circle class="st1" cx="608.84" cy="184.31" r="1.71"/><path class="st0" d="M608.84 234.51h-28.98l14.49 25.1zm0 0-14.49 25.1h28.98z"/><circle class="st1" cx="608.84" cy="234.51" r="1.71"/><path class="st0" d="m695.79 83.91 61.69-47.14-119.66 65.08z"/><path class="st0" d="m695.79 83.91-57.97 17.94 43.48-43.04zm0 50.2h-28.98l14.49 25.1z"/></svg>