<svg version="1.1" id="Layer_1" xmlns="http://www.w3.org/2000/svg" x="0" y="0" viewBox="0 0 741.49 344.39" style="enable-background:new 0 0 741.49 344.39" xml:space="preserve"><style>.st0{fill:none;stroke:#1a171b;stroke-width:.25;stroke-miterlimit:10}.st1{fill:#1a171b}</style><path class="st0" d="m143.55 203.7 14.49 25.1 14.49-25.1zm43.48 25.1h28.98l-14.49-25.1z"/><circle class="st1" cx="187.03" cy="228.8" r="1.71"/><path class="st0" d="m182.9 324.21 33.11 4.98-14.49-25.1zm0 0-28.66 4.31 1.44 15.63z"/><circle class="st1" cx="182.9" cy="324.21" r="1.71"/><path class="st0" d="m203.89 62.62 41.1 65.78-12.6-83.62zm0 0-14.97-42.94-14.49 25.1z"/><path class="st0" d="m203.89 62.62 28.5-17.84 41.58 27.88zm0 0-29.46-17.84 41.58 83.62z"/><path class="st0" d="m203.89 62.62 70.56 27.87-85.05-52.97zm0 0 12.12 65.78h28.98z"/><circle class="st1" cx="203.89" cy="62.62" r="1.71"/><path class="st0" d="m273.97 128.4-41.58-83.62 12.6 83.62zm0 0h-28.98l14.49 25.1z"/><path class="st0" d="m273.97 128.4 14.49-25.1-56.07-58.52zm0 0-14.49 25.1 3.8 20.06z"/><circle class="st1" cx="273.97" cy="128.4" r="1.71"/><path class="st0" d="m230.5 153.5 14.49 25.1 14.49-25.1zm0 0h28.98l-14.49-25.1z"/><path class="st0" d="m230.5 153.5 14.49-25.1h-28.98z"/><circle class="st1" cx="230.5" cy="153.5" r="1.71"/><path class="st0" d="m273.97 178.6-10.69 45.16 14.49-25.1zm0 0-14.49-25.1-14.49 25.1z"/><path class="st0" d="m273.97 178.6 3.8 20.06-14.49-25.1z"/><path class="st0" d="M273.97 178.6h-28.98l14.49 25.1zm0 0-10.69-5.04-3.8-20.06zm0 0-14.49 25.1 3.8 20.06z"/><circle class="st1" cx="273.97" cy="178.6" r="1.71"/><path class="st0" d="m230.5 203.7 14.49 25.1 14.49-25.1zm0 0h28.98l-14.49-25.1zm0 0h-28.98l14.49 25.1z"/><path class="st0" d="m230.5 203.7-14.49 25.1h28.98z"/><circle class="st1" cx="230.5" cy="203.7" r="1.71"/><path class="st0" d="m273.97 228.8-14.49-25.1-14.49 25.1z"/><path class="st0" d="m273.97 228.8-10.69-5.04-3.8-20.06z"/><circle class="st1" cx="273.97" cy="228.8" r="1.71"/><path class="st0" d="m317.44 253.89 14.5 25.1 14.49-25.1zm0 0h-28.98l14.49 25.1z"/><path class="st0" d="m317.44 253.89-14.49 25.1h28.99z"/><circle class="st1" cx="317.44" cy="253.89" r="1.71"/><path class="st0" d="M317.44 304.09h-28.98l14.49 25.1z"/><circle class="st1" cx="317.44" cy="304.09" r="1.71"/><path class="st0" d="m375.41 153.5 14.49 25.1 14.49-25.1z"/><circle class="st1" cx="375.41" cy="153.5" r="1.71"/><path class="st0" d="M331.94 178.6h28.98l-14.49-25.1z"/><circle class="st1" cx="331.94" cy="178.6" r="1.71"/><path class="st0" d="m331.94 78.2 14.49 25.1 14.49-25.1zm0 0h28.98l-14.49-25.1zm43.47 175.69h-28.98l14.49 25.1z"/><path class="st0" d="m331.94 78.2-14.5 25.1h28.99z"/><circle class="st1" cx="375.41" cy="253.89" r="1.71"/><path class="st0" d="m331.94 128.4 14.49 25.1 34.43-32.68z"/><path class="st0" d="m331.94 128.4 48.92-7.58-34.43-17.52zm130.42 25.1 14.49 25.1 14.49-25.1zM32.12 82.97l45.66 1.27L.53 50.5zm0 0L.53 100.7h28.99z"/><circle class="st1" cx="32.12" cy="82.97" r="1.71"/><path class="st0" d="m56.61 153.5 14.49 25.1 14.49-25.1zm0 0h28.98L71.1 128.4zm0 0-27.09-52.8 14.49 25.1z"/><path class="st0" d="m56.61 153.5-12.6-27.7 27.09 52.8z"/><circle class="st1" cx="56.61" cy="153.5" r="1.71"/><path class="st0" d="m15.03 125.8 12.59 77.9 16.39-77.9zm0 0L.53 100.7l12.78 75.38z"/><path class="st0" d="M15.03 125.8h28.98l-14.49-25.1z"/><path class="st0" d="m15.03 125.8 14.49-25.1H.53z"/><circle class="st1" cx="15.03" cy="125.8" r="1.71"/><path class="st0" d="M56.61 203.7h28.98L71.1 178.6z"/><path class="st0" d="m56.61 203.7 14.49-25.1-27.09-52.8zm73.4-99.67-14.49-25.1L71.1 128.4zm0 0L71.1 128.4l14.49 25.1z"/><path class="st0" d="m130.01 104.03 6.39 34.76-20.88-59.86z"/><path class="st0" d="M130.01 104.03 85.59 153.5l37.08-59.87z"/><circle class="st1" cx="130.01" cy="104.03" r="1.71"/><path class="st0" d="m143.55 153.5-20.88-59.87 6.39 84.97z"/><path class="st0" d="m132.66 148.05-18.09 55.65 14.49-25.1zm0 0-47.07 5.45-14.49 25.1z"/><path class="st0" d="m132.66 148.05-3.6 30.55-6.39-84.97z"/><path class="st0" d="M132.66 148.05 71.1 178.6l14.49 25.1zm0 0-9.99-54.42-37.08 59.87zm0 0L85.59 203.7h28.98z"/><circle class="st1" cx="132.66" cy="148.05" r="1.71"/><path class="st0" d="m143.55 203.7-14.49-25.1-14.49 25.1zm318.81-50.2h-28.99l14.49 25.1zm0 0-14.5 25.1h28.99z"/><circle class="st1" cx="462.36" cy="153.5" r="1.71"/><path class="st0" d="m418.88 178.6 14.49 25.1 14.49-25.1zm0 0-14.49-25.1-14.49 25.1zm0 0h28.98l-14.49-25.1zm0 0H389.9l14.49 25.1z"/><path class="st0" d="m418.88 178.6 14.49-25.1h-28.98zm0 0-14.49 25.1h28.98z"/><circle class="st1" cx="418.88" cy="178.6" r="1.71"/><path class="st0" d="m462.36 203.7-14.5-25.1-14.49 25.1zm0 0h28.98l-14.49-25.1zm0 0h-28.99l14.49 25.1z"/><path class="st0" d="m462.36 203.7 14.49-25.1h-28.99z"/><circle class="st1" cx="462.36" cy="203.7" r="1.71"/><path class="st0" d="m375.41 53.1 14.49 25.1 14.49-25.1zm43.47 175.7-14.49-25.1-14.49 25.1zm0 0h28.98l-14.49-25.1zM375.41 53.1h-28.98l14.49 25.1z"/><path class="st0" d="m418.88 228.8 14.49-25.1h-28.98zM375.41 53.1l-14.49 25.1h28.98z"/><circle class="st1" cx="418.88" cy="228.8" r="1.71"/><path class="st0" d="m418.88 78.2-14.49-25.1-14.49 25.1zm0 0H389.9l2.21 24.87z"/><circle class="st1" cx="418.88" cy="78.2" r="1.71"/><path class="st0" d="m378.1 87.3 11.8 41.1 2.21-25.33zm0 0-17.18-9.1-14.49 25.1zm0 0 14.01 15.77-2.21-24.87z"/><path class="st0" d="m378.1 87.3-31.67 16 34.43 17.52zm0 0 11.8-9.1h-28.98z"/><path class="st0" d="m378.1 87.3 2.76 33.52 9.04 7.58z"/><circle class="st1" cx="378.1" cy="87.3" r="1.71"/><path class="st0" d="m418.88 128.4-26.77-25.33-2.21 25.33zm0 0H389.9l14.49 25.1z"/><circle class="st1" cx="418.88" cy="128.4" r="1.71"/><path class="st0" d="m392.11 145.79-11.25-24.97-34.43 32.68zm0 0 12.28 7.71-14.49-25.1z"/><path class="st0" d="m392.11 145.79-2.21-17.39-9.04-7.58zM505.83 78.2 469.6 41.64 529.7.31zm0 0h28.98l-14.49-25.1z"/><path class="st0" d="m505.83 78.2 14.49-25.1-50.72-11.46z"/><circle class="st1" cx="505.83" cy="78.2" r="1.71"/><path class="st0" d="m549.3 103.3 14.49 25.1 14.49-25.1zm0 0h28.98l-30.69-50.2z"/><path class="st0" d="m549.3 103.3-1.71-50.2-12.78 25.1z"/><circle class="st1" cx="549.3" cy="103.3" r="1.71"/><path class="st0" d="m549.3 153.5 14.49 25.1 14.49-25.1zm0 0h28.98l-14.49-25.1zm0 0h-28.98l14.49 25.1z"/><circle class="st1" cx="549.3" cy="153.5" r="1.71"/><path class="st0" d="m505.83 178.6 14.49 25.1 14.49-25.1zm0 0-14.49-25.1-14.49 25.1zm0 0h28.98l-14.49-25.1zm0 0h-28.98l14.49 25.1z"/><path class="st0" d="m505.83 178.6 14.49-25.1h-28.98zm0 0-14.49 25.1h28.98z"/><circle class="st1" cx="505.83" cy="178.6" r="1.71"/><path class="st0" d="m505.83 228.8 14.49-25.1h-28.98z"/><circle class="st1" cx="505.83" cy="228.8" r="1.71"/><path class="st0" d="m549.3 253.89 14.49 25.1 14.49-25.1zm0 0h28.98l-14.49-25.09z"/><circle class="st1" cx="549.3" cy="253.89" r="1.71"/><path class="st0" d="m592.78 78.2 14.49 25.1 14.49-25.1zm0 0-14.5-25.1h-30.69zm0 0h28.98l-14.49-25.1zm0 0-45.19-25.1 30.69 50.2z"/><path class="st0" d="m592.78 78.2 14.49-25.1h-28.99zm0 0-14.5 25.1h28.99z"/><circle class="st1" cx="592.78" cy="78.2" r="1.71"/><path class="st0" d="m636.25 103.3 14.49 25.1 14.49-25.1zm0 0-14.49-25.1-14.49 25.1zm0 0h28.98l16.2-5.45zm0 0h-28.98l14.49 25.1z"/><path class="st0" d="m636.25 103.3 45.18-5.45-59.67-19.65zm0 0-14.49 25.1h28.98z"/><circle class="st1" cx="636.25" cy="103.3" r="1.71"/><path class="st0" d="m592.78 128.4 14.49 25.1 14.49-25.1zm0 0-14.5-25.1-14.49 25.1zm0 0h28.98l-14.49-25.1zm0 0h-28.99l14.49 25.1z"/><path class="st0" d="m592.78 128.4 14.49-25.1h-28.99zm0 0-14.5 25.1h28.99z"/><circle class="st1" cx="592.78" cy="128.4" r="1.71"/><path class="st0" d="m592.78 178.6 14.49 25.1 14.49-25.1zm0 0-14.5-25.1-14.49 25.1zm0 0h28.98l-14.49-25.1zm0 0h-28.99l14.49 25.1z"/><path class="st0" d="m592.78 178.6 14.49-25.1h-28.99zm0 0-14.5 25.1h28.99z"/><circle class="st1" cx="592.77" cy="178.6" r="1.71"/><path class="st0" d="M592.78 228.8h-28.99l14.49 25.09zm0 0-14.5 25.09h28.99z"/><circle class="st1" cx="592.77" cy="228.8" r="1.71"/><path class="st0" d="m679.72 78.2 61.69-47.14-119.65 65.08z"/><path class="st0" d="m679.72 78.2-57.96 17.94 43.47-43.04zm0 50.2h-28.98l14.49 25.1z"/></svg>